<svg width="1286" height="657" viewBox="0 0 1286 657" fill="none" xmlns="http://www.w3.org/2000/svg">
<g filter="url(#filter0_dif_13_9)">
<mask id="path-1-outside-1_13_9" maskUnits="userSpaceOnUse" x="199" y="262" width="876" height="124" fill="black">
<rect fill="white" x="199" y="262" width="876" height="124"/>
<path d="M266.506 321.88C273.44 323.427 278.826 326.547 282.666 331.24C286.56 335.933 288.506 342.173 288.506 349.96C288.506 361.427 284.053 370.04 275.146 375.8C266.293 381.507 252.08 384.36 232.506 384.36C227.706 384.36 222.4 384.147 216.586 383.72C210.826 383.293 205.493 382.733 200.586 382.04V266.92C206.026 265.747 211.866 264.84 218.106 264.2C224.346 263.507 230.453 263.16 236.426 263.16C247.68 263.16 256.88 264.333 264.026 266.68C271.226 269.027 276.533 272.6 279.946 277.4C283.413 282.2 285.146 288.36 285.146 295.88C285.146 302.227 283.52 307.72 280.266 312.36C277.013 317 272.426 320.173 266.506 321.88ZM240.106 282.04C234.986 282.04 229.92 282.467 224.906 283.32V312.76H240.426C245.653 312.76 249.813 312.227 252.906 311.16C256 310.04 258.24 308.387 259.626 306.2C261.013 303.96 261.706 301.053 261.706 297.48C261.706 293.747 260.986 290.76 259.546 288.52C258.16 286.28 255.893 284.653 252.746 283.64C249.6 282.573 245.386 282.04 240.106 282.04ZM239.146 365.48C245.6 365.48 250.72 364.893 254.506 363.72C258.346 362.547 261.093 360.733 262.746 358.28C264.4 355.827 265.226 352.627 265.226 348.68C265.226 343.027 263.413 338.893 259.786 336.28C256.213 333.613 250.533 332.28 242.746 332.28H224.906V364.76C230.08 365.24 234.826 365.48 239.146 365.48ZM374.876 383L365.916 351.4H325.916L317.036 383H292.716L327.756 264.6H364.476L399.436 383H374.876ZM331.756 330.76H360.076L345.916 280.44L331.756 330.76ZM409.805 383V264.6H434.685V361.4H485.165V383H409.805ZM568.47 383L559.51 351.4H519.51L510.63 383H486.31L521.35 264.6H558.07L593.03 383H568.47ZM525.35 330.76H553.67L539.51 280.44L525.35 330.76ZM675.959 264.6H699.239V383H674.279L626.759 304.52V383H603.399V264.6H628.359L675.959 343.24V264.6ZM772.075 384.52C753.462 384.52 739.275 379.693 729.515 370.04C719.755 360.387 714.875 345.053 714.875 324.04C714.875 303.613 719.942 288.36 730.075 278.28C740.208 268.147 754.715 263.08 773.595 263.08C782.128 263.08 790.048 263.987 797.355 265.8V286.68C790.102 284.867 782.848 283.96 775.595 283.96C767.755 283.96 761.302 285.267 756.235 287.88C751.168 290.493 747.355 294.733 744.795 300.6C742.235 306.413 740.955 314.12 740.955 323.72C740.955 333.64 742.208 341.533 744.715 347.4C747.275 353.213 751.035 357.373 755.995 359.88C760.955 362.387 767.328 363.64 775.115 363.64C781.782 363.64 789.195 362.333 797.355 359.72V380.6C793.888 381.827 789.942 382.787 785.515 383.48C781.088 384.173 776.608 384.52 772.075 384.52ZM834.678 362.2H888.518V383H810.118V264.6H887.718V285.4H834.678V312.04H879.638V332.84H834.678V362.2ZM1013.63 383L1004.67 351.4H964.666L955.786 383H931.466L966.506 264.6H1003.23L1038.19 383H1013.63ZM970.506 330.76H998.826L984.666 280.44L970.506 330.76ZM1048.56 383V264.6H1073.44V383H1048.56Z"/>
</mask>
<path d="M266.506 321.88C273.44 323.427 278.826 326.547 282.666 331.24C286.56 335.933 288.506 342.173 288.506 349.96C288.506 361.427 284.053 370.04 275.146 375.8C266.293 381.507 252.08 384.36 232.506 384.36C227.706 384.36 222.4 384.147 216.586 383.72C210.826 383.293 205.493 382.733 200.586 382.04V266.92C206.026 265.747 211.866 264.84 218.106 264.2C224.346 263.507 230.453 263.16 236.426 263.16C247.68 263.16 256.88 264.333 264.026 266.68C271.226 269.027 276.533 272.6 279.946 277.4C283.413 282.2 285.146 288.36 285.146 295.88C285.146 302.227 283.52 307.72 280.266 312.36C277.013 317 272.426 320.173 266.506 321.88ZM240.106 282.04C234.986 282.04 229.92 282.467 224.906 283.32V312.76H240.426C245.653 312.76 249.813 312.227 252.906 311.16C256 310.04 258.24 308.387 259.626 306.2C261.013 303.96 261.706 301.053 261.706 297.48C261.706 293.747 260.986 290.76 259.546 288.52C258.16 286.28 255.893 284.653 252.746 283.64C249.6 282.573 245.386 282.04 240.106 282.04ZM239.146 365.48C245.6 365.48 250.72 364.893 254.506 363.72C258.346 362.547 261.093 360.733 262.746 358.28C264.4 355.827 265.226 352.627 265.226 348.68C265.226 343.027 263.413 338.893 259.786 336.28C256.213 333.613 250.533 332.28 242.746 332.28H224.906V364.76C230.08 365.24 234.826 365.48 239.146 365.48ZM374.876 383L365.916 351.4H325.916L317.036 383H292.716L327.756 264.6H364.476L399.436 383H374.876ZM331.756 330.76H360.076L345.916 280.44L331.756 330.76ZM409.805 383V264.6H434.685V361.4H485.165V383H409.805ZM568.47 383L559.51 351.4H519.51L510.63 383H486.31L521.35 264.6H558.07L593.03 383H568.47ZM525.35 330.76H553.67L539.51 280.44L525.35 330.76ZM675.959 264.6H699.239V383H674.279L626.759 304.52V383H603.399V264.6H628.359L675.959 343.24V264.6ZM772.075 384.52C753.462 384.52 739.275 379.693 729.515 370.04C719.755 360.387 714.875 345.053 714.875 324.04C714.875 303.613 719.942 288.36 730.075 278.28C740.208 268.147 754.715 263.08 773.595 263.08C782.128 263.08 790.048 263.987 797.355 265.8V286.68C790.102 284.867 782.848 283.96 775.595 283.96C767.755 283.96 761.302 285.267 756.235 287.88C751.168 290.493 747.355 294.733 744.795 300.6C742.235 306.413 740.955 314.12 740.955 323.72C740.955 333.64 742.208 341.533 744.715 347.4C747.275 353.213 751.035 357.373 755.995 359.88C760.955 362.387 767.328 363.64 775.115 363.64C781.782 363.64 789.195 362.333 797.355 359.72V380.6C793.888 381.827 789.942 382.787 785.515 383.48C781.088 384.173 776.608 384.52 772.075 384.52ZM834.678 362.2H888.518V383H810.118V264.6H887.718V285.4H834.678V312.04H879.638V332.84H834.678V362.2ZM1013.63 383L1004.67 351.4H964.666L955.786 383H931.466L966.506 264.6H1003.23L1038.19 383H1013.63ZM970.506 330.76H998.826L984.666 280.44L970.506 330.76ZM1048.56 383V264.6H1073.44V383H1048.56Z" fill="#FFCB11"/>
<path d="M266.506 321.88L266.229 320.919L266.289 322.856L266.506 321.88ZM282.666 331.24L281.892 331.873L281.897 331.878L282.666 331.24ZM275.146 375.8L275.688 376.641L275.689 376.64L275.146 375.8ZM216.586 383.72L216.512 384.717L216.513 384.717L216.586 383.72ZM200.586 382.04H199.586V382.909L200.446 383.03L200.586 382.04ZM200.586 266.92L200.375 265.942L199.586 266.113V266.92H200.586ZM218.106 264.2L218.208 265.195L218.217 265.194L218.106 264.2ZM264.026 266.68L263.714 267.63L263.716 267.631L264.026 266.68ZM279.946 277.4L279.131 277.98L279.136 277.985L279.946 277.4ZM280.266 312.36L281.085 312.934L280.266 312.36ZM224.906 283.32L224.738 282.334L223.906 282.476V283.32H224.906ZM224.906 312.76H223.906V313.76H224.906V312.76ZM252.906 311.16L253.232 312.105L253.239 312.103L253.247 312.1L252.906 311.16ZM259.626 306.2L260.471 306.736L260.477 306.726L259.626 306.2ZM259.546 288.52L258.696 289.046L258.7 289.054L258.705 289.061L259.546 288.52ZM252.746 283.64L252.425 284.587L252.432 284.59L252.44 284.592L252.746 283.64ZM254.506 363.72L254.214 362.764L254.21 362.765L254.506 363.72ZM262.746 358.28L263.576 358.839L262.746 358.28ZM259.786 336.28L259.188 337.081L259.195 337.086L259.202 337.091L259.786 336.28ZM224.906 332.28V331.28H223.906V332.28H224.906ZM224.906 364.76H223.906V365.672L224.814 365.756L224.906 364.76ZM266.289 322.856C273.042 324.363 278.218 327.382 281.892 331.873L283.44 330.607C279.435 325.712 273.837 322.491 266.724 320.904L266.289 322.856ZM281.897 331.878C285.604 336.347 287.506 342.341 287.506 349.96H289.506C289.506 342.006 287.515 335.519 283.436 330.602L281.897 331.878ZM287.506 349.96C287.506 361.12 283.198 369.402 274.603 374.96L275.689 376.64C284.907 370.678 289.506 361.733 289.506 349.96H287.506ZM274.604 374.959C266 380.506 252.028 383.36 232.506 383.36V385.36C252.131 385.36 266.586 382.508 275.688 376.641L274.604 374.959ZM232.506 383.36C227.735 383.36 222.453 383.148 216.659 382.723L216.513 384.717C222.346 385.145 227.677 385.36 232.506 385.36V383.36ZM216.66 382.723C210.919 382.297 205.608 381.74 200.726 381.05L200.446 383.03C205.378 383.727 210.734 384.289 216.512 384.717L216.66 382.723ZM201.586 382.04V266.92H199.586V382.04H201.586ZM200.797 267.898C206.197 266.733 212 265.831 218.208 265.195L218.004 263.205C211.732 263.849 205.856 264.76 200.375 265.942L200.797 267.898ZM218.217 265.194C224.422 264.504 230.492 264.16 236.426 264.16V262.16C230.414 262.16 224.271 262.509 217.996 263.206L218.217 265.194ZM236.426 264.16C247.621 264.16 256.705 265.329 263.714 267.63L264.338 265.73C257.054 263.338 247.738 262.16 236.426 262.16V264.16ZM263.716 267.631C270.771 269.93 275.874 273.398 279.131 277.98L280.761 276.82C277.192 271.802 271.681 268.123 264.336 265.729L263.716 267.631ZM279.136 277.985C282.45 282.574 284.146 288.513 284.146 295.88H286.146C286.146 288.207 284.376 281.826 280.757 276.815L279.136 277.985ZM284.146 295.88C284.146 302.047 282.569 307.334 279.447 311.786L281.085 312.934C284.47 308.106 286.146 302.406 286.146 295.88H284.146ZM279.447 311.786C276.337 316.222 271.95 319.27 266.229 320.919L266.783 322.841C272.902 321.077 277.689 317.778 281.085 312.934L279.447 311.786ZM240.106 281.04C234.93 281.04 229.808 281.471 224.738 282.334L225.074 284.306C230.032 283.462 235.042 283.04 240.106 283.04V281.04ZM223.906 283.32V312.76H225.906V283.32H223.906ZM224.906 313.76H240.426V311.76H224.906V313.76ZM240.426 313.76C245.706 313.76 249.99 313.223 253.232 312.105L252.58 310.215C249.635 311.23 245.6 311.76 240.426 311.76V313.76ZM253.247 312.1C256.491 310.926 258.937 309.155 260.471 306.736L258.782 305.664C257.543 307.619 255.508 309.154 252.566 310.22L253.247 312.1ZM260.477 306.726C261.99 304.281 262.706 301.175 262.706 297.48H260.706C260.706 300.931 260.036 303.639 258.776 305.674L260.477 306.726ZM262.706 297.48C262.706 293.629 261.965 290.433 260.387 287.979L258.705 289.061C260.008 291.087 260.706 293.864 260.706 297.48H262.706ZM260.397 287.994C258.856 285.504 256.366 283.755 253.053 282.688L252.44 284.592C255.42 285.552 257.464 287.056 258.696 289.046L260.397 287.994ZM253.067 282.693C249.775 281.577 245.439 281.04 240.106 281.04V283.04C245.333 283.04 249.424 283.57 252.425 284.587L253.067 282.693ZM239.146 366.48C245.645 366.48 250.879 365.891 254.802 364.675L254.21 362.765C250.56 363.896 245.554 364.48 239.146 364.48V366.48ZM254.798 364.676C258.78 363.46 261.755 361.54 263.576 358.839L261.917 357.721C260.431 359.926 257.913 361.633 254.214 362.764L254.798 364.676ZM263.576 358.839C265.372 356.173 266.226 352.761 266.226 348.68H264.226C264.226 352.493 263.427 355.48 261.917 357.721L263.576 358.839ZM266.226 348.68C266.226 342.8 264.327 338.319 260.371 335.469L259.202 337.091C262.499 339.467 264.226 343.253 264.226 348.68H266.226ZM260.384 335.479C256.551 332.618 250.605 331.28 242.746 331.28V333.28C250.461 333.28 255.875 334.609 259.188 337.081L260.384 335.479ZM242.746 331.28H224.906V333.28H242.746V331.28ZM223.906 332.28V364.76H225.906V332.28H223.906ZM224.814 365.756C230.012 366.238 234.79 366.48 239.146 366.48V364.48C234.863 364.48 230.147 364.242 224.999 363.764L224.814 365.756ZM374.876 383L373.914 383.273L374.12 384H374.876V383ZM365.916 351.4L366.878 351.127L366.672 350.4H365.916V351.4ZM325.916 351.4V350.4H325.159L324.954 351.129L325.916 351.4ZM317.036 383V384H317.794L317.999 383.271L317.036 383ZM292.716 383L291.757 382.716L291.377 384H292.716V383ZM327.756 264.6V263.6H327.009L326.797 264.316L327.756 264.6ZM364.476 264.6L365.435 264.317L365.224 263.6H364.476V264.6ZM399.436 383V384H400.774L400.395 382.717L399.436 383ZM331.756 330.76L330.794 330.489L330.436 331.76H331.756V330.76ZM360.076 330.76V331.76H361.396L361.039 330.489L360.076 330.76ZM345.916 280.44L346.879 280.169L345.916 276.748L344.954 280.169L345.916 280.44ZM375.838 382.727L366.878 351.127L364.954 351.673L373.914 383.273L375.838 382.727ZM365.916 350.4H325.916V352.4H365.916V350.4ZM324.954 351.129L316.074 382.729L317.999 383.271L326.879 351.671L324.954 351.129ZM317.036 382H292.716V384H317.036V382ZM293.675 383.284L328.715 264.884L326.797 264.316L291.757 382.716L293.675 383.284ZM327.756 265.6H364.476V263.6H327.756V265.6ZM363.517 264.883L398.477 383.283L400.395 382.717L365.435 264.317L363.517 264.883ZM399.436 382H374.876V384H399.436V382ZM331.756 331.76H360.076V329.76H331.756V331.76ZM361.039 330.489L346.879 280.169L344.954 280.711L359.114 331.031L361.039 330.489ZM344.954 280.169L330.794 330.489L332.719 331.031L346.879 280.711L344.954 280.169ZM409.805 383H408.805V384H409.805V383ZM409.805 264.6V263.6H408.805V264.6H409.805ZM434.685 264.6H435.685V263.6H434.685V264.6ZM434.685 361.4H433.685V362.4H434.685V361.4ZM485.165 361.4H486.165V360.4H485.165V361.4ZM485.165 383V384H486.165V383H485.165ZM410.805 383V264.6H408.805V383H410.805ZM409.805 265.6H434.685V263.6H409.805V265.6ZM433.685 264.6V361.4H435.685V264.6H433.685ZM434.685 362.4H485.165V360.4H434.685V362.4ZM484.165 361.4V383H486.165V361.4H484.165ZM485.165 382H409.805V384H485.165V382ZM568.47 383L567.508 383.273L567.714 384H568.47V383ZM559.51 351.4L560.472 351.127L560.266 350.4H559.51V351.4ZM519.51 351.4V350.4H518.752L518.547 351.129L519.51 351.4ZM510.63 383V384H511.388L511.593 383.271L510.63 383ZM486.31 383L485.351 382.716L484.971 384H486.31V383ZM521.35 264.6V263.6H520.603L520.391 264.316L521.35 264.6ZM558.07 264.6L559.029 264.317L558.817 263.6H558.07V264.6ZM593.03 383V384H594.368L593.989 382.717L593.03 383ZM525.35 330.76L524.387 330.489L524.03 331.76H525.35V330.76ZM553.67 330.76V331.76H554.99L554.633 330.489L553.67 330.76ZM539.51 280.44L540.473 280.169L539.51 276.748L538.547 280.169L539.51 280.44ZM569.432 382.727L560.472 351.127L558.548 351.673L567.508 383.273L569.432 382.727ZM559.51 350.4H519.51V352.4H559.51V350.4ZM518.547 351.129L509.667 382.729L511.593 383.271L520.473 351.671L518.547 351.129ZM510.63 382H486.31V384H510.63V382ZM487.269 383.284L522.309 264.884L520.391 264.316L485.351 382.716L487.269 383.284ZM521.35 265.6H558.07V263.6H521.35V265.6ZM557.111 264.883L592.071 383.283L593.989 382.717L559.029 264.317L557.111 264.883ZM593.03 382H568.47V384H593.03V382ZM525.35 331.76H553.67V329.76H525.35V331.76ZM554.633 330.489L540.473 280.169L538.547 280.711L552.707 331.031L554.633 330.489ZM538.547 280.169L524.387 330.489L526.313 331.031L540.473 280.711L538.547 280.169ZM675.959 264.6V263.6H674.959V264.6H675.959ZM699.239 264.6H700.239V263.6H699.239V264.6ZM699.239 383V384H700.239V383H699.239ZM674.279 383L673.423 383.518L673.715 384H674.279V383ZM626.759 304.52L627.614 304.002L625.759 300.938V304.52H626.759ZM626.759 383V384H627.759V383H626.759ZM603.399 383H602.399V384H603.399V383ZM603.399 264.6V263.6H602.399V264.6H603.399ZM628.359 264.6L629.214 264.082L628.922 263.6H628.359V264.6ZM675.959 343.24L675.103 343.758L676.959 346.823V343.24H675.959ZM675.959 265.6H699.239V263.6H675.959V265.6ZM698.239 264.6V383H700.239V264.6H698.239ZM699.239 382H674.279V384H699.239V382ZM675.134 382.482L627.614 304.002L625.903 305.038L673.423 383.518L675.134 382.482ZM625.759 304.52V383H627.759V304.52H625.759ZM626.759 382H603.399V384H626.759V382ZM604.399 383V264.6H602.399V383H604.399ZM603.399 265.6H628.359V263.6H603.399V265.6ZM627.503 265.118L675.103 343.758L676.814 342.722L629.214 264.082L627.503 265.118ZM676.959 343.24V264.6H674.959V343.24H676.959ZM729.515 370.04L728.812 370.751L729.515 370.04ZM730.075 278.28L730.78 278.989L730.782 278.987L730.075 278.28ZM797.355 265.8H798.355V265.018L797.596 264.829L797.355 265.8ZM797.355 286.68L797.112 287.65L798.355 287.961V286.68H797.355ZM756.235 287.88L756.693 288.769L756.235 287.88ZM744.795 300.6L745.71 301.003L745.712 301L744.795 300.6ZM744.715 347.4L743.795 347.793L743.8 347.803L744.715 347.4ZM755.995 359.88L755.544 360.773L755.995 359.88ZM797.355 359.72H798.355V358.35L797.05 358.768L797.355 359.72ZM797.355 380.6L797.689 381.543L798.355 381.307V380.6H797.355ZM785.515 383.48L785.67 384.468L785.515 383.48ZM772.075 383.52C753.629 383.52 739.732 378.739 730.218 369.329L728.812 370.751C738.818 380.648 753.294 385.52 772.075 385.52V383.52ZM730.218 369.329C720.728 359.943 715.875 344.925 715.875 324.04H713.875C713.875 345.181 718.782 360.83 728.812 370.751L730.218 369.329ZM715.875 324.04C715.875 303.764 720.904 288.813 730.78 278.989L729.37 277.571C718.979 287.907 713.875 303.462 713.875 324.04H715.875ZM730.782 278.987C740.674 269.095 754.893 264.08 773.595 264.08V262.08C754.537 262.08 739.743 267.198 729.368 277.573L730.782 278.987ZM773.595 264.08C782.058 264.08 789.896 264.979 797.114 266.771L797.596 264.829C790.201 262.994 782.199 262.08 773.595 262.08V264.08ZM796.355 265.8V286.68H798.355V265.8H796.355ZM797.598 285.71C790.267 283.877 782.933 282.96 775.595 282.96V284.96C782.764 284.96 789.936 285.856 797.112 287.65L797.598 285.71ZM775.595 282.96C767.652 282.96 761.028 284.283 755.777 286.991L756.693 288.769C761.575 286.251 767.858 284.96 775.595 284.96V282.96ZM755.777 286.991C750.48 289.723 746.518 294.15 743.878 300.2L745.712 301C748.192 295.317 751.856 291.264 756.693 288.769L755.777 286.991ZM743.88 300.197C741.243 306.185 739.955 314.045 739.955 323.72H741.955C741.955 314.195 743.227 306.641 745.71 301.003L743.88 300.197ZM739.955 323.72C739.955 333.708 741.215 341.752 743.795 347.793L745.635 347.007C743.202 341.314 741.955 333.572 741.955 323.72H739.955ZM743.8 347.803C746.439 353.796 750.348 358.147 755.544 360.773L756.446 358.988C751.722 356.6 748.111 352.63 745.63 346.997L743.8 347.803ZM755.544 360.773C760.688 363.372 767.231 364.64 775.115 364.64V362.64C767.426 362.64 761.222 361.401 756.446 358.988L755.544 360.773ZM775.115 364.64C781.91 364.64 789.428 363.309 797.66 360.672L797.05 358.768C788.962 361.358 781.654 362.64 775.115 362.64V364.64ZM796.355 359.72V380.6H798.355V359.72H796.355ZM797.021 379.657C793.624 380.86 789.739 381.806 785.36 382.492L785.67 384.468C790.145 383.767 794.153 382.794 797.689 381.543L797.021 379.657ZM785.36 382.492C780.985 383.177 776.557 383.52 772.075 383.52V385.52C776.66 385.52 781.191 385.169 785.67 384.468L785.36 382.492ZM834.677 362.2H833.677V363.2H834.677V362.2ZM888.518 362.2H889.518V361.2H888.518V362.2ZM888.518 383V384H889.518V383H888.518ZM810.117 383H809.117V384H810.117V383ZM810.117 264.6V263.6H809.117V264.6H810.117ZM887.718 264.6H888.718V263.6H887.718V264.6ZM887.718 285.4V286.4H888.718V285.4H887.718ZM834.677 285.4V284.4H833.677V285.4H834.677ZM834.677 312.04H833.677V313.04H834.677V312.04ZM879.638 312.04H880.638V311.04H879.638V312.04ZM879.638 332.84V333.84H880.638V332.84H879.638ZM834.677 332.84V331.84H833.677V332.84H834.677ZM834.677 363.2H888.518V361.2H834.677V363.2ZM887.518 362.2V383H889.518V362.2H887.518ZM888.518 382H810.117V384H888.518V382ZM811.117 383V264.6H809.117V383H811.117ZM810.117 265.6H887.718V263.6H810.117V265.6ZM886.718 264.6V285.4H888.718V264.6H886.718ZM887.718 284.4H834.677V286.4H887.718V284.4ZM833.677 285.4V312.04H835.677V285.4H833.677ZM834.677 313.04H879.638V311.04H834.677V313.04ZM878.638 312.04V332.84H880.638V312.04H878.638ZM879.638 331.84H834.677V333.84H879.638V331.84ZM833.677 332.84V362.2H835.677V332.84H833.677ZM1013.63 383L1012.66 383.273L1012.87 384H1013.63V383ZM1004.67 351.4L1005.63 351.127L1005.42 350.4H1004.67V351.4ZM964.666 351.4V350.4H963.909L963.704 351.129L964.666 351.4ZM955.786 383V384H956.544L956.749 383.271L955.786 383ZM931.466 383L930.507 382.716L930.127 384H931.466V383ZM966.506 264.6V263.6H965.759L965.547 264.316L966.506 264.6ZM1003.23 264.6L1004.19 264.317L1003.97 263.6H1003.23V264.6ZM1038.19 383V384H1039.52L1039.15 382.717L1038.19 383ZM970.506 330.76L969.544 330.489L969.186 331.76H970.506V330.76ZM998.826 330.76V331.76H1000.15L999.789 330.489L998.826 330.76ZM984.666 280.44L985.629 280.169L984.666 276.748L983.704 280.169L984.666 280.44ZM1014.59 382.727L1005.63 351.127L1003.7 351.673L1012.66 383.273L1014.59 382.727ZM1004.67 350.4H964.666V352.4H1004.67V350.4ZM963.704 351.129L954.824 382.729L956.749 383.271L965.629 351.671L963.704 351.129ZM955.786 382H931.466V384H955.786V382ZM932.425 383.284L967.465 264.884L965.547 264.316L930.507 382.716L932.425 383.284ZM966.506 265.6H1003.23V263.6H966.506V265.6ZM1002.27 264.883L1037.23 383.283L1039.15 382.717L1004.19 264.317L1002.27 264.883ZM1038.19 382H1013.63V384H1038.19V382ZM970.506 331.76H998.826V329.76H970.506V331.76ZM999.789 330.489L985.629 280.169L983.704 280.711L997.864 331.031L999.789 330.489ZM983.704 280.169L969.544 330.489L971.469 331.031L985.629 280.711L983.704 280.169ZM1048.55 383H1047.55V384H1048.55V383ZM1048.55 264.6V263.6H1047.55V264.6H1048.55ZM1073.43 264.6H1074.43V263.6H1073.43V264.6ZM1073.43 383V384H1074.43V383H1073.43ZM1049.55 383V264.6H1047.55V383H1049.55ZM1048.55 265.6H1073.43V263.6H1048.55V265.6ZM1072.43 264.6V383H1074.43V264.6H1072.43ZM1073.43 382H1048.55V384H1073.43V382Z" fill="black" mask="url(#path-1-outside-1_13_9)"/>
</g>
<g filter="url(#filter1_ddi_13_9)">
<mask id="path-3-outside-2_13_9" maskUnits="userSpaceOnUse" x="205" y="262" width="876" height="124" fill="black">
<rect fill="white" x="205" y="262" width="876" height="124"/>
<path d="M272.506 321.88C279.44 323.427 284.826 326.547 288.666 331.24C292.56 335.933 294.506 342.173 294.506 349.96C294.506 361.427 290.053 370.04 281.146 375.8C272.293 381.507 258.08 384.36 238.506 384.36C233.706 384.36 228.4 384.147 222.586 383.72C216.826 383.293 211.493 382.733 206.586 382.04V266.92C212.026 265.747 217.866 264.84 224.106 264.2C230.346 263.507 236.453 263.16 242.426 263.16C253.68 263.16 262.88 264.333 270.026 266.68C277.226 269.027 282.533 272.6 285.946 277.4C289.413 282.2 291.146 288.36 291.146 295.88C291.146 302.227 289.52 307.72 286.266 312.36C283.013 317 278.426 320.173 272.506 321.88ZM246.106 282.04C240.986 282.04 235.92 282.467 230.906 283.32V312.76H246.426C251.653 312.76 255.813 312.227 258.906 311.16C262 310.04 264.24 308.387 265.626 306.2C267.013 303.96 267.706 301.053 267.706 297.48C267.706 293.747 266.986 290.76 265.546 288.52C264.16 286.28 261.893 284.653 258.746 283.64C255.6 282.573 251.386 282.04 246.106 282.04ZM245.146 365.48C251.6 365.48 256.72 364.893 260.506 363.72C264.346 362.547 267.093 360.733 268.746 358.28C270.4 355.827 271.226 352.627 271.226 348.68C271.226 343.027 269.413 338.893 265.786 336.28C262.213 333.613 256.533 332.28 248.746 332.28H230.906V364.76C236.08 365.24 240.826 365.48 245.146 365.48ZM380.876 383L371.916 351.4H331.916L323.036 383H298.716L333.756 264.6H370.476L405.436 383H380.876ZM337.756 330.76H366.076L351.916 280.44L337.756 330.76ZM415.805 383V264.6H440.685V361.4H491.165V383H415.805ZM574.47 383L565.51 351.4H525.51L516.63 383H492.31L527.35 264.6H564.07L599.03 383H574.47ZM531.35 330.76H559.67L545.51 280.44L531.35 330.76ZM681.959 264.6H705.239V383H680.279L632.759 304.52V383H609.399V264.6H634.359L681.959 343.24V264.6ZM778.075 384.52C759.462 384.52 745.275 379.693 735.515 370.04C725.755 360.387 720.875 345.053 720.875 324.04C720.875 303.613 725.942 288.36 736.075 278.28C746.208 268.147 760.715 263.08 779.595 263.08C788.128 263.08 796.048 263.987 803.355 265.8V286.68C796.102 284.867 788.848 283.96 781.595 283.96C773.755 283.96 767.302 285.267 762.235 287.88C757.168 290.493 753.355 294.733 750.795 300.6C748.235 306.413 746.955 314.12 746.955 323.72C746.955 333.64 748.208 341.533 750.715 347.4C753.275 353.213 757.035 357.373 761.995 359.88C766.955 362.387 773.328 363.64 781.115 363.64C787.782 363.64 795.195 362.333 803.355 359.72V380.6C799.888 381.827 795.942 382.787 791.515 383.48C787.088 384.173 782.608 384.52 778.075 384.52ZM840.678 362.2H894.518V383H816.118V264.6H893.718V285.4H840.678V312.04H885.638V332.84H840.678V362.2ZM1019.63 383L1010.67 351.4H970.666L961.786 383H937.466L972.506 264.6H1009.23L1044.19 383H1019.63ZM976.506 330.76H1004.83L990.666 280.44L976.506 330.76ZM1054.56 383V264.6H1079.44V383H1054.56Z"/>
</mask>
<path d="M272.506 321.88C279.44 323.427 284.826 326.547 288.666 331.24C292.56 335.933 294.506 342.173 294.506 349.96C294.506 361.427 290.053 370.04 281.146 375.8C272.293 381.507 258.08 384.36 238.506 384.36C233.706 384.36 228.4 384.147 222.586 383.72C216.826 383.293 211.493 382.733 206.586 382.04V266.92C212.026 265.747 217.866 264.84 224.106 264.2C230.346 263.507 236.453 263.16 242.426 263.16C253.68 263.16 262.88 264.333 270.026 266.68C277.226 269.027 282.533 272.6 285.946 277.4C289.413 282.2 291.146 288.36 291.146 295.88C291.146 302.227 289.52 307.72 286.266 312.36C283.013 317 278.426 320.173 272.506 321.88ZM246.106 282.04C240.986 282.04 235.92 282.467 230.906 283.32V312.76H246.426C251.653 312.76 255.813 312.227 258.906 311.16C262 310.04 264.24 308.387 265.626 306.2C267.013 303.96 267.706 301.053 267.706 297.48C267.706 293.747 266.986 290.76 265.546 288.52C264.16 286.28 261.893 284.653 258.746 283.64C255.6 282.573 251.386 282.04 246.106 282.04ZM245.146 365.48C251.6 365.48 256.72 364.893 260.506 363.72C264.346 362.547 267.093 360.733 268.746 358.28C270.4 355.827 271.226 352.627 271.226 348.68C271.226 343.027 269.413 338.893 265.786 336.28C262.213 333.613 256.533 332.28 248.746 332.28H230.906V364.76C236.08 365.24 240.826 365.48 245.146 365.48ZM380.876 383L371.916 351.4H331.916L323.036 383H298.716L333.756 264.6H370.476L405.436 383H380.876ZM337.756 330.76H366.076L351.916 280.44L337.756 330.76ZM415.805 383V264.6H440.685V361.4H491.165V383H415.805ZM574.47 383L565.51 351.4H525.51L516.63 383H492.31L527.35 264.6H564.07L599.03 383H574.47ZM531.35 330.76H559.67L545.51 280.44L531.35 330.76ZM681.959 264.6H705.239V383H680.279L632.759 304.52V383H609.399V264.6H634.359L681.959 343.24V264.6ZM778.075 384.52C759.462 384.52 745.275 379.693 735.515 370.04C725.755 360.387 720.875 345.053 720.875 324.04C720.875 303.613 725.942 288.36 736.075 278.28C746.208 268.147 760.715 263.08 779.595 263.08C788.128 263.08 796.048 263.987 803.355 265.8V286.68C796.102 284.867 788.848 283.96 781.595 283.96C773.755 283.96 767.302 285.267 762.235 287.88C757.168 290.493 753.355 294.733 750.795 300.6C748.235 306.413 746.955 314.12 746.955 323.72C746.955 333.64 748.208 341.533 750.715 347.4C753.275 353.213 757.035 357.373 761.995 359.88C766.955 362.387 773.328 363.64 781.115 363.64C787.782 363.64 795.195 362.333 803.355 359.72V380.6C799.888 381.827 795.942 382.787 791.515 383.48C787.088 384.173 782.608 384.52 778.075 384.52ZM840.678 362.2H894.518V383H816.118V264.6H893.718V285.4H840.678V312.04H885.638V332.84H840.678V362.2ZM1019.63 383L1010.67 351.4H970.666L961.786 383H937.466L972.506 264.6H1009.23L1044.19 383H1019.63ZM976.506 330.76H1004.83L990.666 280.44L976.506 330.76ZM1054.56 383V264.6H1079.44V383H1054.56Z" fill="white"/>
<path d="M272.506 321.88L272.229 320.919L272.289 322.856L272.506 321.88ZM288.666 331.24L287.892 331.873L287.897 331.878L288.666 331.24ZM281.146 375.8L281.688 376.641L281.689 376.64L281.146 375.8ZM222.586 383.72L222.512 384.717L222.513 384.717L222.586 383.72ZM206.586 382.04H205.586V382.909L206.446 383.03L206.586 382.04ZM206.586 266.92L206.375 265.942L205.586 266.113V266.92H206.586ZM224.106 264.2L224.208 265.195L224.217 265.194L224.106 264.2ZM270.026 266.68L269.714 267.63L269.716 267.631L270.026 266.68ZM285.946 277.4L285.131 277.98L285.136 277.985L285.946 277.4ZM286.266 312.36L287.085 312.934L286.266 312.36ZM230.906 283.32L230.738 282.334L229.906 282.476V283.32H230.906ZM230.906 312.76H229.906V313.76H230.906V312.76ZM258.906 311.16L259.232 312.105L259.239 312.103L259.247 312.1L258.906 311.16ZM265.626 306.2L266.471 306.736L266.477 306.726L265.626 306.2ZM265.546 288.52L264.696 289.046L264.7 289.054L264.705 289.061L265.546 288.52ZM258.746 283.64L258.425 284.587L258.432 284.59L258.44 284.592L258.746 283.64ZM260.506 363.72L260.214 362.764L260.21 362.765L260.506 363.72ZM268.746 358.28L269.576 358.839L268.746 358.28ZM265.786 336.28L265.188 337.081L265.195 337.086L265.202 337.091L265.786 336.28ZM230.906 332.28V331.28H229.906V332.28H230.906ZM230.906 364.76H229.906V365.672L230.814 365.756L230.906 364.76ZM272.289 322.856C279.042 324.363 284.218 327.382 287.892 331.873L289.44 330.607C285.435 325.712 279.837 322.491 272.724 320.904L272.289 322.856ZM287.897 331.878C291.604 336.347 293.506 342.341 293.506 349.96H295.506C295.506 342.006 293.515 335.519 289.436 330.602L287.897 331.878ZM293.506 349.96C293.506 361.12 289.198 369.402 280.603 374.96L281.689 376.64C290.907 370.678 295.506 361.733 295.506 349.96H293.506ZM280.604 374.959C272 380.506 258.028 383.36 238.506 383.36V385.36C258.131 385.36 272.586 382.508 281.688 376.641L280.604 374.959ZM238.506 383.36C233.735 383.36 228.453 383.148 222.659 382.723L222.513 384.717C228.346 385.145 233.677 385.36 238.506 385.36V383.36ZM222.66 382.723C216.919 382.297 211.608 381.74 206.726 381.05L206.446 383.03C211.378 383.727 216.734 384.289 222.512 384.717L222.66 382.723ZM207.586 382.04V266.92H205.586V382.04H207.586ZM206.797 267.898C212.197 266.733 218 265.831 224.208 265.195L224.004 263.205C217.732 263.849 211.856 264.76 206.375 265.942L206.797 267.898ZM224.217 265.194C230.422 264.504 236.492 264.16 242.426 264.16V262.16C236.414 262.16 230.271 262.509 223.996 263.206L224.217 265.194ZM242.426 264.16C253.621 264.16 262.705 265.329 269.714 267.63L270.338 265.73C263.054 263.338 253.738 262.16 242.426 262.16V264.16ZM269.716 267.631C276.771 269.93 281.874 273.398 285.131 277.98L286.761 276.82C283.192 271.802 277.681 268.123 270.336 265.729L269.716 267.631ZM285.136 277.985C288.45 282.574 290.146 288.513 290.146 295.88H292.146C292.146 288.207 290.376 281.826 286.757 276.815L285.136 277.985ZM290.146 295.88C290.146 302.047 288.569 307.334 285.447 311.786L287.085 312.934C290.47 308.106 292.146 302.406 292.146 295.88H290.146ZM285.447 311.786C282.337 316.222 277.95 319.27 272.229 320.919L272.783 322.841C278.902 321.077 283.689 317.778 287.085 312.934L285.447 311.786ZM246.106 281.04C240.93 281.04 235.808 281.471 230.738 282.334L231.074 284.306C236.032 283.462 241.042 283.04 246.106 283.04V281.04ZM229.906 283.32V312.76H231.906V283.32H229.906ZM230.906 313.76H246.426V311.76H230.906V313.76ZM246.426 313.76C251.706 313.76 255.99 313.223 259.232 312.105L258.58 310.215C255.635 311.23 251.6 311.76 246.426 311.76V313.76ZM259.247 312.1C262.491 310.926 264.937 309.155 266.471 306.736L264.782 305.664C263.543 307.619 261.508 309.154 258.566 310.22L259.247 312.1ZM266.477 306.726C267.99 304.281 268.706 301.175 268.706 297.48H266.706C266.706 300.931 266.036 303.639 264.776 305.674L266.477 306.726ZM268.706 297.48C268.706 293.629 267.965 290.433 266.387 287.979L264.705 289.061C266.008 291.087 266.706 293.864 266.706 297.48H268.706ZM266.397 287.994C264.856 285.504 262.366 283.755 259.053 282.688L258.44 284.592C261.42 285.552 263.464 287.056 264.696 289.046L266.397 287.994ZM259.067 282.693C255.775 281.577 251.439 281.04 246.106 281.04V283.04C251.333 283.04 255.424 283.57 258.425 284.587L259.067 282.693ZM245.146 366.48C251.645 366.48 256.879 365.891 260.802 364.675L260.21 362.765C256.56 363.896 251.554 364.48 245.146 364.48V366.48ZM260.798 364.676C264.78 363.46 267.755 361.54 269.576 358.839L267.917 357.721C266.431 359.926 263.913 361.633 260.214 362.764L260.798 364.676ZM269.576 358.839C271.372 356.173 272.226 352.761 272.226 348.68H270.226C270.226 352.493 269.427 355.48 267.917 357.721L269.576 358.839ZM272.226 348.68C272.226 342.8 270.327 338.319 266.371 335.469L265.202 337.091C268.499 339.467 270.226 343.253 270.226 348.68H272.226ZM266.384 335.479C262.551 332.618 256.605 331.28 248.746 331.28V333.28C256.461 333.28 261.875 334.609 265.188 337.081L266.384 335.479ZM248.746 331.28H230.906V333.28H248.746V331.28ZM229.906 332.28V364.76H231.906V332.28H229.906ZM230.814 365.756C236.012 366.238 240.79 366.48 245.146 366.48V364.48C240.863 364.48 236.147 364.242 230.999 363.764L230.814 365.756ZM380.876 383L379.914 383.273L380.12 384H380.876V383ZM371.916 351.4L372.878 351.127L372.672 350.4H371.916V351.4ZM331.916 351.4V350.4H331.159L330.954 351.129L331.916 351.4ZM323.036 383V384H323.794L323.999 383.271L323.036 383ZM298.716 383L297.757 382.716L297.377 384H298.716V383ZM333.756 264.6V263.6H333.009L332.797 264.316L333.756 264.6ZM370.476 264.6L371.435 264.317L371.224 263.6H370.476V264.6ZM405.436 383V384H406.774L406.395 382.717L405.436 383ZM337.756 330.76L336.794 330.489L336.436 331.76H337.756V330.76ZM366.076 330.76V331.76H367.396L367.039 330.489L366.076 330.76ZM351.916 280.44L352.879 280.169L351.916 276.748L350.954 280.169L351.916 280.44ZM381.838 382.727L372.878 351.127L370.954 351.673L379.914 383.273L381.838 382.727ZM371.916 350.4H331.916V352.4H371.916V350.4ZM330.954 351.129L322.074 382.729L323.999 383.271L332.879 351.671L330.954 351.129ZM323.036 382H298.716V384H323.036V382ZM299.675 383.284L334.715 264.884L332.797 264.316L297.757 382.716L299.675 383.284ZM333.756 265.6H370.476V263.6H333.756V265.6ZM369.517 264.883L404.477 383.283L406.395 382.717L371.435 264.317L369.517 264.883ZM405.436 382H380.876V384H405.436V382ZM337.756 331.76H366.076V329.76H337.756V331.76ZM367.039 330.489L352.879 280.169L350.954 280.711L365.114 331.031L367.039 330.489ZM350.954 280.169L336.794 330.489L338.719 331.031L352.879 280.711L350.954 280.169ZM415.805 383H414.805V384H415.805V383ZM415.805 264.6V263.6H414.805V264.6H415.805ZM440.685 264.6H441.685V263.6H440.685V264.6ZM440.685 361.4H439.685V362.4H440.685V361.4ZM491.165 361.4H492.165V360.4H491.165V361.4ZM491.165 383V384H492.165V383H491.165ZM416.805 383V264.6H414.805V383H416.805ZM415.805 265.6H440.685V263.6H415.805V265.6ZM439.685 264.6V361.4H441.685V264.6H439.685ZM440.685 362.4H491.165V360.4H440.685V362.4ZM490.165 361.4V383H492.165V361.4H490.165ZM491.165 382H415.805V384H491.165V382ZM574.47 383L573.508 383.273L573.714 384H574.47V383ZM565.51 351.4L566.472 351.127L566.266 350.4H565.51V351.4ZM525.51 351.4V350.4H524.752L524.547 351.129L525.51 351.4ZM516.63 383V384H517.388L517.593 383.271L516.63 383ZM492.31 383L491.351 382.716L490.971 384H492.31V383ZM527.35 264.6V263.6H526.603L526.391 264.316L527.35 264.6ZM564.07 264.6L565.029 264.317L564.817 263.6H564.07V264.6ZM599.03 383V384H600.368L599.989 382.717L599.03 383ZM531.35 330.76L530.387 330.489L530.03 331.76H531.35V330.76ZM559.67 330.76V331.76H560.99L560.633 330.489L559.67 330.76ZM545.51 280.44L546.473 280.169L545.51 276.748L544.547 280.169L545.51 280.44ZM575.432 382.727L566.472 351.127L564.548 351.673L573.508 383.273L575.432 382.727ZM565.51 350.4H525.51V352.4H565.51V350.4ZM524.547 351.129L515.667 382.729L517.593 383.271L526.473 351.671L524.547 351.129ZM516.63 382H492.31V384H516.63V382ZM493.269 383.284L528.309 264.884L526.391 264.316L491.351 382.716L493.269 383.284ZM527.35 265.6H564.07V263.6H527.35V265.6ZM563.111 264.883L598.071 383.283L599.989 382.717L565.029 264.317L563.111 264.883ZM599.03 382H574.47V384H599.03V382ZM531.35 331.76H559.67V329.76H531.35V331.76ZM560.633 330.489L546.473 280.169L544.547 280.711L558.707 331.031L560.633 330.489ZM544.547 280.169L530.387 330.489L532.313 331.031L546.473 280.711L544.547 280.169ZM681.959 264.6V263.6H680.959V264.6H681.959ZM705.239 264.6H706.239V263.6H705.239V264.6ZM705.239 383V384H706.239V383H705.239ZM680.279 383L679.423 383.518L679.715 384H680.279V383ZM632.759 304.52L633.614 304.002L631.759 300.938V304.52H632.759ZM632.759 383V384H633.759V383H632.759ZM609.399 383H608.399V384H609.399V383ZM609.399 264.6V263.6H608.399V264.6H609.399ZM634.359 264.6L635.214 264.082L634.922 263.6H634.359V264.6ZM681.959 343.24L681.103 343.758L682.959 346.823V343.24H681.959ZM681.959 265.6H705.239V263.6H681.959V265.6ZM704.239 264.6V383H706.239V264.6H704.239ZM705.239 382H680.279V384H705.239V382ZM681.134 382.482L633.614 304.002L631.903 305.038L679.423 383.518L681.134 382.482ZM631.759 304.52V383H633.759V304.52H631.759ZM632.759 382H609.399V384H632.759V382ZM610.399 383V264.6H608.399V383H610.399ZM609.399 265.6H634.359V263.6H609.399V265.6ZM633.503 265.118L681.103 343.758L682.814 342.722L635.214 264.082L633.503 265.118ZM682.959 343.24V264.6H680.959V343.24H682.959ZM735.515 370.04L734.812 370.751L735.515 370.04ZM736.075 278.28L736.78 278.989L736.782 278.987L736.075 278.28ZM803.355 265.8H804.355V265.018L803.596 264.829L803.355 265.8ZM803.355 286.68L803.112 287.65L804.355 287.961V286.68H803.355ZM762.235 287.88L762.693 288.769L762.235 287.88ZM750.795 300.6L751.71 301.003L751.712 301L750.795 300.6ZM750.715 347.4L749.795 347.793L749.8 347.803L750.715 347.4ZM761.995 359.88L761.544 360.773L761.995 359.88ZM803.355 359.72H804.355V358.35L803.05 358.768L803.355 359.72ZM803.355 380.6L803.689 381.543L804.355 381.307V380.6H803.355ZM791.515 383.48L791.67 384.468L791.515 383.48ZM778.075 383.52C759.629 383.52 745.732 378.739 736.218 369.329L734.812 370.751C744.818 380.648 759.294 385.52 778.075 385.52V383.52ZM736.218 369.329C726.728 359.943 721.875 344.925 721.875 324.04H719.875C719.875 345.181 724.782 360.83 734.812 370.751L736.218 369.329ZM721.875 324.04C721.875 303.764 726.904 288.813 736.78 278.989L735.37 277.571C724.979 287.907 719.875 303.462 719.875 324.04H721.875ZM736.782 278.987C746.674 269.095 760.893 264.08 779.595 264.08V262.08C760.537 262.08 745.743 267.198 735.368 277.573L736.782 278.987ZM779.595 264.08C788.058 264.08 795.896 264.979 803.114 266.771L803.596 264.829C796.201 262.994 788.199 262.08 779.595 262.08V264.08ZM802.355 265.8V286.68H804.355V265.8H802.355ZM803.598 285.71C796.267 283.877 788.933 282.96 781.595 282.96V284.96C788.764 284.96 795.936 285.856 803.112 287.65L803.598 285.71ZM781.595 282.96C773.652 282.96 767.028 284.283 761.777 286.991L762.693 288.769C767.575 286.251 773.858 284.96 781.595 284.96V282.96ZM761.777 286.991C756.48 289.723 752.518 294.15 749.878 300.2L751.712 301C754.192 295.317 757.856 291.264 762.693 288.769L761.777 286.991ZM749.88 300.197C747.243 306.185 745.955 314.045 745.955 323.72H747.955C747.955 314.195 749.227 306.641 751.71 301.003L749.88 300.197ZM745.955 323.72C745.955 333.708 747.215 341.752 749.795 347.793L751.635 347.007C749.202 341.314 747.955 333.572 747.955 323.72H745.955ZM749.8 347.803C752.439 353.796 756.348 358.147 761.544 360.773L762.446 358.988C757.722 356.6 754.111 352.63 751.63 346.997L749.8 347.803ZM761.544 360.773C766.688 363.372 773.231 364.64 781.115 364.64V362.64C773.426 362.64 767.222 361.401 762.446 358.988L761.544 360.773ZM781.115 364.64C787.91 364.64 795.428 363.309 803.66 360.672L803.05 358.768C794.962 361.358 787.654 362.64 781.115 362.64V364.64ZM802.355 359.72V380.6H804.355V359.72H802.355ZM803.021 379.657C799.624 380.86 795.739 381.806 791.36 382.492L791.67 384.468C796.145 383.767 800.153 382.794 803.689 381.543L803.021 379.657ZM791.36 382.492C786.985 383.177 782.557 383.52 778.075 383.52V385.52C782.66 385.52 787.191 385.169 791.67 384.468L791.36 382.492ZM840.677 362.2H839.677V363.2H840.677V362.2ZM894.518 362.2H895.518V361.2H894.518V362.2ZM894.518 383V384H895.518V383H894.518ZM816.117 383H815.117V384H816.117V383ZM816.117 264.6V263.6H815.117V264.6H816.117ZM893.718 264.6H894.718V263.6H893.718V264.6ZM893.718 285.4V286.4H894.718V285.4H893.718ZM840.677 285.4V284.4H839.677V285.4H840.677ZM840.677 312.04H839.677V313.04H840.677V312.04ZM885.638 312.04H886.638V311.04H885.638V312.04ZM885.638 332.84V333.84H886.638V332.84H885.638ZM840.677 332.84V331.84H839.677V332.84H840.677ZM840.677 363.2H894.518V361.2H840.677V363.2ZM893.518 362.2V383H895.518V362.2H893.518ZM894.518 382H816.117V384H894.518V382ZM817.117 383V264.6H815.117V383H817.117ZM816.117 265.6H893.718V263.6H816.117V265.6ZM892.718 264.6V285.4H894.718V264.6H892.718ZM893.718 284.4H840.677V286.4H893.718V284.4ZM839.677 285.4V312.04H841.677V285.4H839.677ZM840.677 313.04H885.638V311.04H840.677V313.04ZM884.638 312.04V332.84H886.638V312.04H884.638ZM885.638 331.84H840.677V333.84H885.638V331.84ZM839.677 332.84V362.2H841.677V332.84H839.677ZM1019.63 383L1018.66 383.273L1018.87 384H1019.63V383ZM1010.67 351.4L1011.63 351.127L1011.42 350.4H1010.67V351.4ZM970.666 351.4V350.4H969.909L969.704 351.129L970.666 351.4ZM961.786 383V384H962.544L962.749 383.271L961.786 383ZM937.466 383L936.507 382.716L936.127 384H937.466V383ZM972.506 264.6V263.6H971.759L971.547 264.316L972.506 264.6ZM1009.23 264.6L1010.19 264.317L1009.97 263.6H1009.23V264.6ZM1044.19 383V384H1045.52L1045.15 382.717L1044.19 383ZM976.506 330.76L975.544 330.489L975.186 331.76H976.506V330.76ZM1004.83 330.76V331.76H1006.15L1005.79 330.489L1004.83 330.76ZM990.666 280.44L991.629 280.169L990.666 276.748L989.704 280.169L990.666 280.44ZM1020.59 382.727L1011.63 351.127L1009.7 351.673L1018.66 383.273L1020.59 382.727ZM1010.67 350.4H970.666V352.4H1010.67V350.4ZM969.704 351.129L960.824 382.729L962.749 383.271L971.629 351.671L969.704 351.129ZM961.786 382H937.466V384H961.786V382ZM938.425 383.284L973.465 264.884L971.547 264.316L936.507 382.716L938.425 383.284ZM972.506 265.6H1009.23V263.6H972.506V265.6ZM1008.27 264.883L1043.23 383.283L1045.15 382.717L1010.19 264.317L1008.27 264.883ZM1044.19 382H1019.63V384H1044.19V382ZM976.506 331.76H1004.83V329.76H976.506V331.76ZM1005.79 330.489L991.629 280.169L989.704 280.711L1003.86 331.031L1005.79 330.489ZM989.704 280.169L975.544 330.489L977.469 331.031L991.629 280.711L989.704 280.169ZM1054.55 383H1053.55V384H1054.55V383ZM1054.55 264.6V263.6H1053.55V264.6H1054.55ZM1079.43 264.6H1080.43V263.6H1079.43V264.6ZM1079.43 383V384H1080.43V383H1079.43ZM1055.55 383V264.6H1053.55V383H1055.55ZM1054.55 265.6H1079.43V263.6H1054.55V265.6ZM1078.43 264.6V383H1080.43V264.6H1078.43ZM1079.43 382H1054.55V384H1079.43V382Z" fill="#FFD702" mask="url(#path-3-outside-2_13_9)"/>
</g>
<defs>
<filter id="filter0_dif_13_9" x="196.586" y="259.08" width="880.849" height="133.44" filterUnits="userSpaceOnUse" color-interpolation-filters="sRGB">
<feFlood flood-opacity="0" result="BackgroundImageFix"/>
<feColorMatrix in="SourceAlpha" type="matrix" values="0 0 0 0 0 0 0 0 0 0 0 0 0 0 0 0 0 0 127 0" result="hardAlpha"/>
<feOffset dy="4"/>
<feGaussianBlur stdDeviation="2"/>
<feComposite in2="hardAlpha" operator="out"/>
<feColorMatrix type="matrix" values="0 0 0 0 0 0 0 0 0 0 0 0 0 0 0 0 0 0 0.25 0"/>
<feBlend mode="normal" in2="BackgroundImageFix" result="effect1_dropShadow_13_9"/>
<feBlend mode="normal" in="SourceGraphic" in2="effect1_dropShadow_13_9" result="shape"/>
<feColorMatrix in="SourceAlpha" type="matrix" values="0 0 0 0 0 0 0 0 0 0 0 0 0 0 0 0 0 0 127 0" result="hardAlpha"/>
<feOffset dy="4"/>
<feGaussianBlur stdDeviation="2"/>
<feComposite in2="hardAlpha" operator="arithmetic" k2="-1" k3="1"/>
<feColorMatrix type="matrix" values="0 0 0 0 0 0 0 0 0 0 0 0 0 0 0 0 0 0 0.25 0"/>
<feBlend mode="normal" in2="shape" result="effect2_innerShadow_13_9"/>
<feGaussianBlur stdDeviation="2" result="effect3_foregroundBlur_13_9"/>
</filter>
<filter id="filter1_ddi_13_9" x="202.586" y="263.08" width="880.849" height="129.44" filterUnits="userSpaceOnUse" color-interpolation-filters="sRGB">
<feFlood flood-opacity="0" result="BackgroundImageFix"/>
<feColorMatrix in="SourceAlpha" type="matrix" values="0 0 0 0 0 0 0 0 0 0 0 0 0 0 0 0 0 0 127 0" result="hardAlpha"/>
<feOffset dy="4"/>
<feGaussianBlur stdDeviation="2"/>
<feComposite in2="hardAlpha" operator="out"/>
<feColorMatrix type="matrix" values="0 0 0 0 0 0 0 0 0 0 0 0 0 0 0 0 0 0 0.25 0"/>
<feBlend mode="normal" in2="BackgroundImageFix" result="effect1_dropShadow_13_9"/>
<feColorMatrix in="SourceAlpha" type="matrix" values="0 0 0 0 0 0 0 0 0 0 0 0 0 0 0 0 0 0 127 0" result="hardAlpha"/>
<feOffset dy="4"/>
<feGaussianBlur stdDeviation="2"/>
<feComposite in2="hardAlpha" operator="out"/>
<feColorMatrix type="matrix" values="0 0 0 0 0 0 0 0 0 0 0 0 0 0 0 0 0 0 0.25 0"/>
<feBlend mode="normal" in2="effect1_dropShadow_13_9" result="effect2_dropShadow_13_9"/>
<feBlend mode="normal" in="SourceGraphic" in2="effect2_dropShadow_13_9" result="shape"/>
<feColorMatrix in="SourceAlpha" type="matrix" values="0 0 0 0 0 0 0 0 0 0 0 0 0 0 0 0 0 0 127 0" result="hardAlpha"/>
<feOffset dy="4"/>
<feGaussianBlur stdDeviation="2"/>
<feComposite in2="hardAlpha" operator="arithmetic" k2="-1" k3="1"/>
<feColorMatrix type="matrix" values="0 0 0 0 0 0 0 0 0 0 0 0 0 0 0 0 0 0 0.25 0"/>
<feBlend mode="normal" in2="shape" result="effect3_innerShadow_13_9"/>
</filter>
</defs>
</svg>
