<svg width="427" height="405" viewBox="0 0 427 405" fill="none" xmlns="http://www.w3.org/2000/svg">
<g filter="url(#filter0_d_4_141)">
<path d="M395 15H29C24.5817 15 21 18.5817 21 23V366C21 370.418 24.5817 374 29 374H395C399.418 374 403 370.418 403 366V23C403 18.5817 399.418 15 395 15Z" fill="#323139" fill-opacity="0.3"/>
<mask id="mask0_4_141" style="mask-type:luminance" maskUnits="userSpaceOnUse" x="37" y="35" width="345" height="27">
<path d="M382 35H37V62H382V35Z" fill="white"/>
</mask>
<g mask="url(#mask0_4_141)">
<path d="M65.5 35H50.5C43.0442 35 37 41.0442 37 48.5C37 55.9558 43.0442 62 50.5 62H65.5C72.9558 62 79 55.9558 79 48.5C79 41.0442 72.9558 35 65.5 35Z" fill="#FFC635"/>
<path d="M56.2585 49.788H52.1005L51.2885 52H49.4405L53.1365 42.256H55.2925L58.9885 52H57.0705L56.2585 49.788ZM55.6845 48.22L54.1865 44.076L52.6745 48.22H55.6845ZM60.2938 41.444H62.1418V52H60.2938V41.444ZM64.0776 41.444H65.9256V52H64.0776V41.444Z" fill="#212427"/>
<path d="M167.5 35.5H103.5C96.3203 35.5 90.5 41.3203 90.5 48.5C90.5 55.6797 96.3203 61.5 103.5 61.5H167.5C174.68 61.5 180.5 55.6797 180.5 48.5C180.5 41.3203 174.68 35.5 167.5 35.5Z" stroke="#A3A3A3"/>
<path d="M111.304 46.6927C112.14 47.2924 113.164 47.6453 114.27 47.6453V45.5093C114.061 45.5093 113.852 45.4874 113.647 45.4439V47.1252C112.541 47.1252 111.517 46.7724 110.681 46.1727V50.5317C110.681 52.7123 108.92 54.48 106.747 54.48C105.936 54.48 105.183 54.234 104.557 53.8122C105.271 54.5452 106.267 55 107.37 55C109.542 55 111.304 53.2324 111.304 51.0517V46.6927ZM112.072 44.5377C111.645 44.0693 111.365 43.464 111.304 42.7947V42.52H110.714C110.862 43.3706 111.369 44.0973 112.072 44.5377ZM105.931 52.1388C105.692 51.8247 105.563 51.4405 105.564 51.0454C105.564 50.0481 106.369 49.2395 107.363 49.2395C107.549 49.2394 107.733 49.2679 107.909 49.3241V47.1403C107.703 47.1119 107.495 47.0999 107.287 47.1043V48.8041C107.11 48.7478 106.926 48.7193 106.741 48.7195C105.747 48.7195 104.941 49.528 104.941 50.5255C104.941 51.2308 105.344 51.8414 105.931 52.1388Z" fill="#FF004F"/>
<path d="M110.681 46.1726C111.517 46.7723 112.541 47.1252 113.647 47.1252V45.4438C113.03 45.3118 112.483 44.9881 112.073 44.5377C111.369 44.0972 110.862 43.3705 110.714 42.52H109.163V51.0516C109.16 52.0462 108.355 52.8516 107.364 52.8516C106.779 52.8516 106.26 52.5719 105.931 52.1388C105.344 51.8414 104.941 51.2307 104.941 50.5255C104.941 49.5282 105.747 48.7195 106.741 48.7195C106.931 48.7195 107.115 48.7493 107.287 48.8041V47.1043C105.152 47.1486 103.436 48.8989 103.436 51.0516C103.436 52.1262 103.863 53.1004 104.557 53.8122C105.183 54.234 105.936 54.48 106.747 54.48C108.92 54.48 110.681 52.7123 110.681 50.5317V46.1726Z" fill="#212427"/>
<path d="M113.647 45.4438V44.9892C113.09 44.99 112.545 44.8336 112.072 44.5377C112.491 44.9971 113.041 45.3138 113.647 45.4438ZM110.714 42.52C110.699 42.4387 110.689 42.3569 110.681 42.2747V42H108.54V50.5317C108.537 51.5262 107.732 52.3315 106.74 52.3315C106.449 52.3315 106.174 52.2621 105.931 52.1389C106.26 52.5719 106.779 52.8515 107.363 52.8515C108.355 52.8515 109.16 52.0462 109.163 51.0516V42.52H110.714ZM107.287 47.1043V46.6204C107.108 46.5958 106.927 46.5835 106.747 46.5836C104.574 46.5836 102.812 48.3513 102.812 50.5317C102.812 51.8987 103.505 53.1034 104.557 53.8121C103.863 53.1004 103.435 52.1262 103.435 51.0516C103.435 48.8989 105.152 47.1486 107.287 47.1043Z" fill="#00F2EA"/>
<path d="M127.115 43.488H124.175V42.256H131.287V43.488H128.347V52H127.115V43.488ZM134.026 43.04C133.765 43.04 133.55 42.956 133.382 42.788C133.224 42.62 133.144 42.4053 133.144 42.144C133.144 41.8827 133.224 41.668 133.382 41.5C133.55 41.332 133.765 41.248 134.026 41.248C134.288 41.248 134.498 41.332 134.656 41.5C134.824 41.668 134.908 41.8827 134.908 42.144C134.908 42.4053 134.824 42.62 134.656 42.788C134.498 42.956 134.288 43.04 134.026 43.04ZM134.642 44.692V52H133.41V44.692H134.642ZM139.784 48.584L138.636 49.872V52H137.404V41.444H138.636V48.262L141.828 44.692H143.284L140.61 47.674L143.452 52H141.94L139.784 48.584ZM147.695 43.488H144.755V42.256H151.867V43.488H148.927V52H147.695V43.488ZM156.292 52.168C155.228 52.168 154.398 51.8227 153.8 51.132C153.203 50.432 152.904 49.5033 152.904 48.346C152.904 47.1887 153.203 46.2647 153.8 45.574C154.398 44.874 155.228 44.524 156.292 44.524C157.356 44.524 158.187 44.874 158.784 45.574C159.382 46.2647 159.68 47.1887 159.68 48.346C159.68 49.5033 159.382 50.432 158.784 51.132C158.187 51.8227 157.356 52.168 156.292 52.168ZM156.292 51.104C156.974 51.104 157.487 50.852 157.832 50.348C158.178 49.844 158.35 49.1767 158.35 48.346C158.35 47.5153 158.178 46.848 157.832 46.344C157.487 45.84 156.974 45.588 156.292 45.588C155.611 45.588 155.098 45.84 154.752 46.344C154.416 46.848 154.248 47.5153 154.248 48.346C154.248 49.1767 154.416 49.844 154.752 50.348C155.098 50.852 155.611 51.104 156.292 51.104ZM164.562 48.584L163.414 49.872V52H162.182V41.444H163.414V48.262L166.606 44.692H168.062L165.388 47.674L168.23 52H166.718L164.562 48.584Z" fill="#E0E0E0"/>
<path d="M292.5 35.5H205.5C198.32 35.5 192.5 41.3203 192.5 48.5C192.5 55.6797 198.32 61.5 205.5 61.5H292.5C299.68 61.5 305.5 55.6797 305.5 48.5C305.5 41.3203 299.68 35.5 292.5 35.5Z" stroke="#A3A3A3"/>
<mask id="mask1_4_141" style="mask-type:luminance" maskUnits="userSpaceOnUse" x="204" y="41" width="15" height="15">
<path d="M219 41H204V56H219V41Z" fill="white"/>
</mask>
<g mask="url(#mask1_4_141)">
<path d="M219 48.5C219 44.3579 215.642 41 211.5 41C207.358 41 204 44.3579 204 48.5C204 52.0172 206.422 54.9686 209.688 55.7792V50.792H208.142V48.5H209.688V47.5124C209.688 44.9597 210.844 43.7765 213.35 43.7765C213.825 43.7765 214.645 43.8698 214.98 43.9628V46.0403C214.803 46.0217 214.496 46.0124 214.114 46.0124C212.884 46.0124 212.409 46.4783 212.409 47.6894V48.5H214.859L214.438 50.792H212.409V55.9451C216.123 55.4966 219 52.3346 219 48.5Z" fill="#0866FF"/>
<path d="M214.438 50.792L214.859 48.5H212.409V47.6894C212.409 46.4783 212.884 46.0124 214.114 46.0124C214.496 46.0124 214.803 46.0217 214.98 46.0403V43.9628C214.645 43.8695 213.825 43.7765 213.35 43.7765C210.843 43.7765 209.688 44.9597 209.688 47.5124V48.5H208.142V50.792H209.688V55.7792C210.268 55.9232 210.875 56 211.5 56C211.807 56 212.111 55.9811 212.409 55.9451V50.792H214.437H214.438Z" fill="#A3A3A3"/>
</g>
<path d="M230.38 43.432V46.68H233.908V47.8H230.38V52H229.148V42.256H234.832V43.432H230.38ZM241.329 52L241.133 50.95C240.769 51.3513 240.373 51.6547 239.943 51.86C239.523 52.0653 239.047 52.168 238.515 52.168C237.853 52.168 237.316 51.9813 236.905 51.608C236.495 51.2253 236.289 50.7213 236.289 50.096C236.289 49.284 236.616 48.6867 237.269 48.304C237.923 47.9213 238.763 47.73 239.789 47.73C240.163 47.73 240.573 47.7533 241.021 47.8V47.296C241.021 46.792 240.881 46.3907 240.601 46.092C240.331 45.784 239.976 45.63 239.537 45.63C239.015 45.63 238.539 45.7 238.109 45.84C237.689 45.98 237.255 46.1993 236.807 46.498V45.308C237.246 45.0187 237.694 44.818 238.151 44.706C238.609 44.5847 239.131 44.524 239.719 44.524C240.466 44.524 241.073 44.762 241.539 45.238C242.015 45.714 242.253 46.344 242.253 47.128V50.376L242.561 52H241.329ZM238.767 51.132C239.215 51.132 239.617 51.0387 239.971 50.852C240.326 50.6653 240.676 50.3947 241.021 50.04V48.668H239.733C238.324 48.668 237.619 49.1207 237.619 50.026C237.619 50.362 237.727 50.6327 237.941 50.838C238.156 51.034 238.431 51.132 238.767 51.132ZM247.56 52.168C246.879 52.168 246.282 52.0047 245.768 51.678C245.255 51.3513 244.863 50.9033 244.592 50.334C244.322 49.7553 244.186 49.102 244.186 48.374C244.186 47.6367 244.322 46.9787 244.592 46.4C244.863 45.812 245.255 45.3547 245.768 45.028C246.282 44.692 246.884 44.524 247.574 44.524C248.06 44.524 248.484 44.5753 248.848 44.678C249.212 44.7807 249.558 44.9673 249.884 45.238V46.428H249.828C249.492 46.148 249.142 45.9473 248.778 45.826C248.424 45.7047 248.018 45.644 247.56 45.644C246.898 45.644 246.384 45.9007 246.02 46.414C245.666 46.9273 245.488 47.5853 245.488 48.388C245.488 49.1627 245.666 49.802 246.02 50.306C246.384 50.8007 246.893 51.048 247.546 51.048C248.032 51.048 248.466 50.9733 248.848 50.824C249.231 50.6653 249.609 50.418 249.982 50.082H250.038V51.272C249.693 51.5987 249.32 51.832 248.918 51.972C248.526 52.1027 248.074 52.168 247.56 52.168ZM258.229 48.752H253.049C253.124 49.4707 253.362 50.0447 253.763 50.474C254.174 50.894 254.729 51.104 255.429 51.104C255.849 51.104 256.255 51.02 256.647 50.852C257.048 50.6747 257.454 50.418 257.865 50.082H257.921V51.314C257.51 51.6127 257.104 51.832 256.703 51.972C256.302 52.1027 255.872 52.168 255.415 52.168C254.668 52.168 254.02 52.0047 253.469 51.678C252.918 51.3513 252.494 50.8987 252.195 50.32C251.906 49.732 251.761 49.06 251.761 48.304C251.761 47.5853 251.892 46.9413 252.153 46.372C252.424 45.7933 252.806 45.3407 253.301 45.014C253.796 44.6873 254.374 44.524 255.037 44.524C255.709 44.524 256.283 44.692 256.759 45.028C257.244 45.3547 257.608 45.8073 257.851 46.386C258.103 46.9647 258.229 47.618 258.229 48.346V48.752ZM255.051 45.546C254.472 45.546 254.01 45.756 253.665 46.176C253.32 46.596 253.114 47.1373 253.049 47.8H256.955C256.89 47.1187 256.698 46.5727 256.381 46.162C256.073 45.7513 255.63 45.546 255.051 45.546ZM263.949 44.524C264.584 44.524 265.125 44.692 265.573 45.028C266.021 45.364 266.357 45.8213 266.581 46.4C266.815 46.9787 266.931 47.632 266.931 48.36C266.931 49.088 266.796 49.7413 266.525 50.32C266.264 50.8893 265.881 51.3373 265.377 51.664C264.883 51.9907 264.295 52.154 263.613 52.154C263.268 52.154 262.946 52.1167 262.647 52.042C262.349 51.9673 262.031 51.86 261.695 51.72V52H260.463V41.444H261.695V45.476C262.302 44.8413 263.053 44.524 263.949 44.524ZM263.487 51.062C264.159 51.062 264.677 50.81 265.041 50.306C265.415 49.802 265.601 49.1533 265.601 48.36C265.601 47.5667 265.457 46.918 265.167 46.414C264.887 45.91 264.444 45.658 263.837 45.658C263.408 45.658 263.021 45.7467 262.675 45.924C262.339 46.1013 262.013 46.3627 261.695 46.708V50.782C262.302 50.9687 262.899 51.062 263.487 51.062ZM272.331 52.168C271.267 52.168 270.436 51.8227 269.839 51.132C269.241 50.432 268.943 49.5033 268.943 48.346C268.943 47.1887 269.241 46.2647 269.839 45.574C270.436 44.874 271.267 44.524 272.331 44.524C273.395 44.524 274.225 44.874 274.823 45.574C275.42 46.2647 275.719 47.1887 275.719 48.346C275.719 49.5033 275.42 50.432 274.823 51.132C274.225 51.8227 273.395 52.168 272.331 52.168ZM272.331 51.104C273.012 51.104 273.525 50.852 273.871 50.348C274.216 49.844 274.389 49.1767 274.389 48.346C274.389 47.5153 274.216 46.848 273.871 46.344C273.525 45.84 273.012 45.588 272.331 45.588C271.649 45.588 271.136 45.84 270.791 46.344C270.455 46.848 270.287 47.5153 270.287 48.346C270.287 49.1767 270.455 49.844 270.791 50.348C271.136 50.852 271.649 51.104 272.331 51.104ZM281.146 52.168C280.082 52.168 279.251 51.8227 278.654 51.132C278.056 50.432 277.758 49.5033 277.758 48.346C277.758 47.1887 278.056 46.2647 278.654 45.574C279.251 44.874 280.082 44.524 281.146 44.524C282.21 44.524 283.04 44.874 283.638 45.574C284.235 46.2647 284.534 47.1887 284.534 48.346C284.534 49.5033 284.235 50.432 283.638 51.132C283.04 51.8227 282.21 52.168 281.146 52.168ZM281.146 51.104C281.827 51.104 282.34 50.852 282.686 50.348C283.031 49.844 283.204 49.1767 283.204 48.346C283.204 47.5153 283.031 46.848 282.686 46.344C282.34 45.84 281.827 45.588 281.146 45.588C280.464 45.588 279.951 45.84 279.606 46.344C279.27 46.848 279.102 47.5153 279.102 48.346C279.102 49.1767 279.27 49.844 279.606 50.348C279.951 50.852 280.464 51.104 281.146 51.104ZM289.415 48.584L288.267 49.872V52H287.035V41.444H288.267V48.262L291.459 44.692H292.915L290.241 47.674L293.083 52H291.571L289.415 48.584Z" fill="#E0E0E0"/>
<path d="M417.5 35.5H330.5C323.32 35.5 317.5 41.3203 317.5 48.5C317.5 55.6797 323.32 61.5 330.5 61.5H417.5C424.68 61.5 430.5 55.6797 430.5 48.5C430.5 41.3203 424.68 35.5 417.5 35.5Z" stroke="#A3A3A3"/>
<mask id="mask2_4_141" style="mask-type:luminance" maskUnits="userSpaceOnUse" x="329" y="42" width="13" height="13">
<path d="M342 42H329V55H342V42Z" fill="white"/>
</mask>
<g mask="url(#mask2_4_141)">
<path d="M335.5 43.1705C337.237 43.1705 337.442 43.1781 338.125 43.2086C338.76 43.2365 339.103 43.3432 339.331 43.432C339.634 43.5488 339.852 43.691 340.078 43.917C340.306 44.1455 340.446 44.3613 340.563 44.6635C340.652 44.892 340.758 45.2373 340.786 45.8695C340.817 46.5551 340.824 46.7607 340.824 48.4949C340.824 50.2316 340.817 50.4373 340.786 51.1203C340.758 51.7551 340.652 52.0979 340.563 52.3264C340.446 52.6285 340.304 52.8469 340.078 53.0729C339.849 53.3014 339.634 53.441 339.331 53.5578C339.103 53.6467 338.758 53.7533 338.125 53.7812C337.44 53.8117 337.234 53.8193 335.5 53.8193C333.763 53.8193 333.558 53.8117 332.875 53.7812C332.24 53.7533 331.897 53.6467 331.669 53.5578C331.366 53.441 331.148 53.2988 330.922 53.0729C330.694 52.8443 330.554 52.6285 330.437 52.3264C330.348 52.0979 330.242 51.7525 330.214 51.1203C330.183 50.4348 330.176 50.2291 330.176 48.4949C330.176 46.7582 330.183 46.5525 330.214 45.8695C330.242 45.2348 330.348 44.892 330.437 44.6635C330.554 44.3613 330.696 44.143 330.922 43.917C331.151 43.6885 331.366 43.5488 331.669 43.432C331.897 43.3432 332.242 43.2365 332.875 43.2086C333.558 43.1781 333.763 43.1705 335.5 43.1705ZM335.5 42C333.735 42 333.514 42.0076 332.821 42.0381C332.131 42.0686 331.656 42.1803 331.245 42.3402C330.815 42.5078 330.452 42.7287 330.092 43.0918C329.729 43.4523 329.508 43.8154 329.34 44.242C329.18 44.6559 329.069 45.1281 329.038 45.8187C329.008 46.5145 329 46.7354 329 48.5C329 50.2646 329.008 50.4855 329.038 51.1787C329.069 51.8693 329.18 52.3441 329.34 52.7555C329.508 53.1846 329.729 53.5477 330.092 53.9082C330.452 54.2688 330.815 54.4922 331.242 54.6572C331.656 54.8172 332.128 54.9289 332.819 54.9594C333.512 54.9898 333.733 54.9975 335.497 54.9975C337.262 54.9975 337.483 54.9898 338.176 54.9594C338.867 54.9289 339.342 54.8172 339.753 54.6572C340.179 54.4922 340.543 54.2688 340.903 53.9082C341.264 53.5477 341.487 53.1846 341.652 52.758C341.812 52.3441 341.924 51.8719 341.954 51.1813C341.985 50.4881 341.992 50.2672 341.992 48.5025C341.992 46.7379 341.985 46.517 341.954 45.8238C341.924 45.1332 341.812 44.6584 341.652 44.2471C341.492 43.8154 341.271 43.4523 340.908 43.0918C340.548 42.7313 340.185 42.5078 339.758 42.3428C339.344 42.1828 338.872 42.0711 338.181 42.0406C337.486 42.0076 337.265 42 335.5 42Z" fill="url(#paint0_linear_4_141)"/>
<path d="M335.5 45.1611C333.657 45.1611 332.161 46.6566 332.161 48.5C332.161 50.3434 333.657 51.8389 335.5 51.8389C337.343 51.8389 338.839 50.3434 338.839 48.5C338.839 46.6566 337.343 45.1611 335.5 45.1611ZM335.5 50.6658C334.304 50.6658 333.334 49.6959 333.334 48.5C333.334 47.3041 334.304 46.3342 335.5 46.3342C336.696 46.3342 337.666 47.3041 337.666 48.5C337.666 49.6959 336.696 50.6658 335.5 50.6658Z" fill="url(#paint1_linear_4_141)"/>
<path d="M339.75 45.0291C339.75 45.4607 339.4 45.8086 338.971 45.8086C338.539 45.8086 338.191 45.4582 338.191 45.0291C338.191 44.5975 338.542 44.2496 338.971 44.2496C339.4 44.2496 339.75 44.6 339.75 45.0291Z" fill="url(#paint2_linear_4_141)"/>
</g>
<path d="M351.677 42.256H352.909V52H351.677V42.256ZM359.704 44.524C360.394 44.524 360.917 44.7387 361.272 45.168C361.626 45.588 361.804 46.176 361.804 46.932V52H360.572V47.1C360.572 46.6333 360.474 46.274 360.278 46.022C360.082 45.7607 359.783 45.63 359.382 45.63C358.924 45.63 358.537 45.7047 358.22 45.854C357.912 46.0033 357.566 46.246 357.184 46.582V52H355.952V46.316L355.644 44.692H356.876L357.072 45.714C357.51 45.294 357.916 44.9907 358.29 44.804C358.672 44.6173 359.144 44.524 359.704 44.524ZM366.573 52.168C366.125 52.168 365.681 52.1027 365.243 51.972C364.813 51.832 364.407 51.636 364.025 51.384V50.096C364.874 50.7493 365.714 51.076 366.545 51.076C367.03 51.076 367.422 50.978 367.721 50.782C368.019 50.5767 368.169 50.306 368.169 49.97C368.169 49.7367 368.094 49.5453 367.945 49.396C367.805 49.2467 367.627 49.13 367.413 49.046C367.198 48.962 366.89 48.8593 366.489 48.738C365.994 48.598 365.583 48.4627 365.257 48.332C364.939 48.192 364.669 47.9913 364.445 47.73C364.221 47.4593 364.109 47.1093 364.109 46.68C364.109 46.0267 364.356 45.504 364.851 45.112C365.345 44.72 365.994 44.524 366.797 44.524C367.599 44.524 368.327 44.734 368.981 45.154V46.4C368.617 46.12 368.262 45.9193 367.917 45.798C367.581 45.6767 367.226 45.616 366.853 45.616C366.386 45.616 366.017 45.7 365.747 45.868C365.476 46.036 365.341 46.2693 365.341 46.568C365.341 46.7827 365.411 46.96 365.551 47.1C365.7 47.24 365.882 47.352 366.097 47.436C366.311 47.52 366.619 47.6227 367.021 47.744C367.525 47.8933 367.935 48.038 368.253 48.178C368.57 48.3087 368.841 48.514 369.065 48.794C369.289 49.0647 369.401 49.4193 369.401 49.858C369.401 50.306 369.279 50.7073 369.037 51.062C368.794 51.4073 368.458 51.678 368.029 51.874C367.599 52.07 367.114 52.168 366.573 52.168ZM373.055 44.692H375.071V45.756H373.055V49.942C373.055 50.2873 373.129 50.5673 373.279 50.782C373.437 50.9873 373.666 51.09 373.965 51.09C374.17 51.09 374.352 51.0713 374.511 51.034C374.679 50.9873 374.865 50.9173 375.071 50.824V51.916C374.856 52.0187 374.651 52.084 374.455 52.112C374.259 52.1493 374.021 52.168 373.741 52.168C373.143 52.168 372.672 51.9767 372.327 51.594C371.991 51.2113 371.823 50.7027 371.823 50.068V45.756H370.423V44.692H371.823V42.732L373.055 42.088V44.692ZM381.488 52L381.292 50.95C380.928 51.3513 380.531 51.6547 380.102 51.86C379.682 52.0653 379.206 52.168 378.674 52.168C378.011 52.168 377.475 51.9813 377.064 51.608C376.653 51.2253 376.448 50.7213 376.448 50.096C376.448 49.284 376.775 48.6867 377.428 48.304C378.081 47.9213 378.921 47.73 379.948 47.73C380.321 47.73 380.732 47.7533 381.18 47.8V47.296C381.18 46.792 381.04 46.3907 380.76 46.092C380.489 45.784 380.135 45.63 379.696 45.63C379.173 45.63 378.697 45.7 378.268 45.84C377.848 45.98 377.414 46.1993 376.966 46.498V45.308C377.405 45.0187 377.853 44.818 378.31 44.706C378.767 44.5847 379.29 44.524 379.878 44.524C380.625 44.524 381.231 44.762 381.698 45.238C382.174 45.714 382.412 46.344 382.412 47.128V50.376L382.72 52H381.488ZM378.926 51.132C379.374 51.132 379.775 51.0387 380.13 50.852C380.485 50.6653 380.835 50.3947 381.18 50.04V48.668H379.892C378.483 48.668 377.778 49.1207 377.778 50.026C377.778 50.362 377.885 50.6327 378.1 50.838C378.315 51.034 378.59 51.132 378.926 51.132ZM391.219 44.678L390.911 46.302V51.524C390.911 52.756 390.627 53.7127 390.057 54.394C389.488 55.0753 388.643 55.416 387.523 55.416C386.898 55.416 386.385 55.3553 385.983 55.234C385.582 55.1127 385.167 54.87 384.737 54.506V53.26C385.195 53.6427 385.624 53.904 386.025 54.044C386.427 54.1933 386.926 54.268 387.523 54.268C388.242 54.268 388.779 54.0393 389.133 53.582C389.497 53.134 389.679 52.504 389.679 51.692V51.328C389.371 51.5333 389.059 51.6827 388.741 51.776C388.433 51.86 388.065 51.902 387.635 51.902C386.581 51.902 385.783 51.5847 385.241 50.95C384.709 50.3153 384.443 49.424 384.443 48.276C384.443 47.0907 384.723 46.1713 385.283 45.518C385.843 44.8553 386.674 44.524 387.775 44.524C388.177 44.524 388.522 44.566 388.811 44.65C389.11 44.7247 389.469 44.8553 389.889 45.042L389.987 44.678H391.219ZM387.649 50.768C388.06 50.768 388.419 50.7167 388.727 50.614C389.035 50.5113 389.353 50.348 389.679 50.124V45.896C389.381 45.7933 389.096 45.7233 388.825 45.686C388.564 45.6393 388.261 45.616 387.915 45.616C387.187 45.616 386.646 45.8493 386.291 46.316C385.946 46.7827 385.773 47.4313 385.773 48.262C385.773 49.9327 386.399 50.768 387.649 50.768ZM397.129 44.524V45.882H396.919C396.48 45.882 396.083 45.9613 395.729 46.12C395.383 46.2787 395.094 46.5073 394.861 46.806V52H393.629V46.316L393.321 44.692H394.553L394.805 45.994C395.187 45.434 395.509 45.0513 395.771 44.846C396.041 44.6313 396.349 44.524 396.695 44.524H397.129ZM403.75 52L403.554 50.95C403.19 51.3513 402.793 51.6547 402.364 51.86C401.944 52.0653 401.468 52.168 400.936 52.168C400.273 52.168 399.736 51.9813 399.326 51.608C398.915 51.2253 398.71 50.7213 398.71 50.096C398.71 49.284 399.036 48.6867 399.69 48.304C400.343 47.9213 401.183 47.73 402.21 47.73C402.583 47.73 402.994 47.7533 403.442 47.8V47.296C403.442 46.792 403.302 46.3907 403.022 46.092C402.751 45.784 402.396 45.63 401.958 45.63C401.435 45.63 400.959 45.7 400.53 45.84C400.11 45.98 399.676 46.1993 399.228 46.498V45.308C399.666 45.0187 400.114 44.818 400.572 44.706C401.029 44.5847 401.552 44.524 402.14 44.524C402.886 44.524 403.493 44.762 403.96 45.238C404.436 45.714 404.674 46.344 404.674 47.128V50.376L404.982 52H403.75ZM401.188 51.132C401.636 51.132 402.037 51.0387 402.392 50.852C402.746 50.6653 403.096 50.3947 403.442 50.04V48.668H402.154C400.744 48.668 400.04 49.1207 400.04 50.026C400.04 50.362 400.147 50.6327 400.362 50.838C400.576 51.034 400.852 51.132 401.188 51.132ZM415.287 44.524C415.977 44.524 416.5 44.7387 416.855 45.168C417.209 45.588 417.387 46.176 417.387 46.932V52H416.155V47.1C416.155 46.6333 416.057 46.274 415.861 46.022C415.665 45.7607 415.366 45.63 414.965 45.63C414.554 45.63 414.209 45.7047 413.929 45.854C413.649 46.0033 413.327 46.246 412.963 46.582C412.972 46.6567 412.977 46.7733 412.977 46.932V52H411.745V47.1C411.745 46.6333 411.647 46.274 411.451 46.022C411.255 45.7607 410.956 45.63 410.555 45.63C410.144 45.63 409.799 45.7047 409.519 45.854C409.239 45.994 408.921 46.232 408.567 46.568V52H407.335V46.316L407.027 44.692H408.259L408.455 45.7C408.875 45.28 409.253 44.9813 409.589 44.804C409.934 44.6173 410.363 44.524 410.877 44.524C411.362 44.524 411.763 44.6313 412.081 44.846C412.407 45.0607 412.645 45.3687 412.795 45.77C413.243 45.322 413.639 45.0047 413.985 44.818C414.33 44.622 414.764 44.524 415.287 44.524Z" fill="#E0E0E0"/>
</g>
<g filter="url(#filter1_d_4_141)">
<path d="M40.8423 90.95H38.0703V89.256H45.4623V90.95H42.6903V99H40.8423V90.95ZM49.7474 99.168C49.0101 99.168 48.3614 99.014 47.8014 98.706C47.2414 98.3887 46.8074 97.9407 46.4994 97.362C46.2007 96.7833 46.0514 96.1113 46.0514 95.346C46.0514 94.5807 46.2007 93.9087 46.4994 93.33C46.8074 92.7513 47.2414 92.308 47.8014 92C48.3614 91.6827 49.0101 91.524 49.7474 91.524C50.4847 91.524 51.1334 91.6827 51.6934 92C52.2534 92.308 52.6827 92.7513 52.9814 93.33C53.2894 93.9087 53.4434 94.5807 53.4434 95.346C53.4434 96.1113 53.2894 96.7833 52.9814 97.362C52.6827 97.9407 52.2534 98.3887 51.6934 98.706C51.1334 99.014 50.4847 99.168 49.7474 99.168ZM49.7474 97.642C50.2981 97.642 50.7274 97.446 51.0354 97.054C51.3434 96.6527 51.4974 96.0833 51.4974 95.346C51.4974 94.5993 51.3434 94.03 51.0354 93.638C50.7274 93.246 50.2981 93.05 49.7474 93.05C49.1967 93.05 48.7674 93.246 48.4594 93.638C48.1514 94.03 47.9974 94.5993 47.9974 95.346C47.9974 96.0833 48.1514 96.6527 48.4594 97.054C48.7674 97.446 49.1967 97.642 49.7474 97.642ZM57.3725 91.692H59.0525V93.064H57.3725V96.592C57.3725 97.3013 57.6431 97.656 58.1845 97.656C58.4365 97.656 58.7305 97.5673 59.0665 97.39V98.916C58.8331 99 58.6138 99.0607 58.4085 99.098C58.2125 99.1447 57.9885 99.168 57.7365 99.168C56.2618 99.168 55.5245 98.3093 55.5245 96.592V93.064H54.4605V91.692H55.5245V89.732L57.3725 89.088V91.692ZM65.2599 99L65.0779 98.118C64.4153 98.818 63.6173 99.168 62.6839 99.168C61.9466 99.168 61.3446 98.9767 60.8779 98.594C60.4206 98.2113 60.1919 97.7073 60.1919 97.082C60.1919 96.27 60.4906 95.64 61.0879 95.192C61.6946 94.7347 62.5673 94.506 63.7059 94.506C64.1166 94.506 64.5273 94.5247 64.9379 94.562V94.296C64.9379 93.8853 64.8213 93.582 64.5879 93.386C64.3546 93.1807 63.9859 93.078 63.4819 93.078C62.9873 93.078 62.5253 93.162 62.0959 93.33C61.6759 93.4887 61.2186 93.75 60.7239 94.114V92.462C61.1533 92.1353 61.6013 91.8973 62.0679 91.748C62.5346 91.5987 63.0479 91.524 63.6079 91.524C64.6439 91.524 65.4326 91.748 65.9739 92.196C66.5246 92.6347 66.7999 93.2787 66.7999 94.128V97.376L67.1079 99H65.2599ZM62.0399 96.942C62.0399 97.4833 62.3479 97.754 62.9639 97.754C63.3186 97.754 63.6546 97.684 63.9719 97.544C64.2893 97.3947 64.6113 97.1613 64.9379 96.844V95.85H63.5939C63.0526 95.85 62.6559 95.9293 62.4039 96.088C62.1613 96.2467 62.0399 96.5313 62.0399 96.942ZM68.565 88.444H70.413V99H68.565V88.444ZM82.1107 99L80.1227 95.29H78.3867V99H76.5387V89.256H80.0527C81.3127 89.256 82.2553 89.508 82.8807 90.012C83.506 90.516 83.8187 91.2487 83.8187 92.21C83.8187 92.8913 83.6647 93.47 83.3567 93.946C83.0487 94.422 82.5913 94.7767 81.9847 95.01L84.1407 99H82.1107ZM78.3867 93.666H80.0667C80.6827 93.666 81.1353 93.5587 81.4247 93.344C81.7233 93.1293 81.8727 92.7653 81.8727 92.252C81.8727 91.7573 81.728 91.4073 81.4387 91.202C81.1493 90.9967 80.6873 90.894 80.0527 90.894H78.3867V93.666ZM92.4594 95.906H87.3774C87.4521 96.466 87.6574 96.8953 87.9934 97.194C88.3387 97.4927 88.7961 97.642 89.3654 97.642C89.7854 97.642 90.2381 97.5673 90.7234 97.418C91.2181 97.2593 91.6754 97.0447 92.0954 96.774H92.1514V98.272C91.7781 98.5613 91.3487 98.7853 90.8634 98.944C90.3874 99.0933 89.8834 99.168 89.3514 99.168C88.5861 99.168 87.9187 99.014 87.3494 98.706C86.7801 98.398 86.3414 97.9547 86.0334 97.376C85.7254 96.7973 85.5714 96.1207 85.5714 95.346C85.5714 94.59 85.7161 93.9227 86.0054 93.344C86.3041 92.7653 86.7194 92.3173 87.2514 92C87.7834 91.6827 88.3994 91.524 89.0994 91.524C89.7807 91.524 90.3734 91.678 90.8774 91.986C91.3907 92.294 91.7827 92.7373 92.0534 93.316C92.3241 93.8947 92.4594 94.5713 92.4594 95.346V95.906ZM89.0994 93.008C88.6607 93.008 88.2921 93.1527 87.9934 93.442C87.7041 93.7313 87.5081 94.1327 87.4054 94.646H90.5554C90.4807 94.114 90.3221 93.708 90.0794 93.428C89.8367 93.148 89.5101 93.008 89.0994 93.008ZM100.784 91.692L98.0819 99H95.7859L93.0839 91.692H94.9599L96.9619 97.46L98.9639 91.692H100.784ZM108.134 95.906H103.052C103.127 96.466 103.332 96.8953 103.668 97.194C104.014 97.4927 104.471 97.642 105.04 97.642C105.46 97.642 105.913 97.5673 106.398 97.418C106.893 97.2593 107.35 97.0447 107.77 96.774H107.826V98.272C107.453 98.5613 107.024 98.7853 106.538 98.944C106.062 99.0933 105.558 99.168 105.026 99.168C104.261 99.168 103.594 99.014 103.024 98.706C102.455 98.398 102.016 97.9547 101.708 97.376C101.4 96.7973 101.246 96.1207 101.246 95.346C101.246 94.59 101.391 93.9227 101.68 93.344C101.979 92.7653 102.394 92.3173 102.926 92C103.458 91.6827 104.074 91.524 104.774 91.524C105.456 91.524 106.048 91.678 106.552 91.986C107.066 92.294 107.458 92.7373 107.728 93.316C107.999 93.8947 108.134 94.5713 108.134 95.346V95.906ZM104.774 93.008C104.336 93.008 103.967 93.1527 103.668 93.442C103.379 93.7313 103.183 94.1327 103.08 94.646H106.23C106.156 94.114 105.997 93.708 105.754 93.428C105.512 93.148 105.185 93.008 104.774 93.008ZM113.939 91.524C114.676 91.524 115.269 91.7433 115.717 92.182C116.174 92.6113 116.403 93.1807 116.403 93.89V99H114.555V94.94C114.555 94.3053 114.457 93.8527 114.261 93.582C114.074 93.302 113.762 93.162 113.323 93.162C112.838 93.162 112.324 93.4327 111.783 93.974V99H109.935V93.316L109.627 91.692H111.321L111.587 92.63C111.988 92.238 112.376 91.958 112.749 91.79C113.122 91.6127 113.519 91.524 113.939 91.524ZM123.776 99L123.51 98.048C123.034 98.468 122.614 98.762 122.25 98.93C121.895 99.0887 121.489 99.168 121.032 99.168C120.593 99.168 120.192 99.0653 119.828 98.86C119.473 98.6547 119.193 98.3747 118.988 98.02C118.792 97.656 118.694 97.25 118.694 96.802V91.692H120.542V95.752C120.542 96.34 120.635 96.7833 120.822 97.082C121.009 97.3807 121.279 97.53 121.634 97.53C121.933 97.53 122.213 97.4647 122.474 97.334C122.735 97.2033 123.015 96.9933 123.314 96.704V91.692H125.162V97.376L125.47 99H123.776ZM134.019 95.906H128.937C129.012 96.466 129.217 96.8953 129.553 97.194C129.899 97.4927 130.356 97.642 130.925 97.642C131.345 97.642 131.798 97.5673 132.283 97.418C132.778 97.2593 133.235 97.0447 133.655 96.774H133.711V98.272C133.338 98.5613 132.909 98.7853 132.423 98.944C131.947 99.0933 131.443 99.168 130.911 99.168C130.146 99.168 129.479 99.014 128.909 98.706C128.34 98.398 127.901 97.9547 127.593 97.376C127.285 96.7973 127.131 96.1207 127.131 95.346C127.131 94.59 127.276 93.9227 127.565 93.344C127.864 92.7653 128.279 92.3173 128.811 92C129.343 91.6827 129.959 91.524 130.659 91.524C131.341 91.524 131.933 91.678 132.437 91.986C132.951 92.294 133.343 92.7373 133.613 93.316C133.884 93.8947 134.019 94.5713 134.019 95.346V95.906ZM130.659 93.008C130.221 93.008 129.852 93.1527 129.553 93.442C129.264 93.7313 129.068 94.1327 128.965 94.646H132.115C132.041 94.114 131.882 93.708 131.639 93.428C131.397 93.148 131.07 93.008 130.659 93.008Z" fill="#E0E0E0"/>
</g>
<path d="M50.2508 126.296C50.2508 127.608 49.8268 128.696 48.9788 129.56C48.1468 130.424 47.0028 130.968 45.5468 131.192V133.784H43.5788V131.288C42.6668 131.24 41.7308 131.104 40.7708 130.88C39.8268 130.64 38.9388 130.328 38.1068 129.944V126.872C40.1548 127.944 41.9788 128.504 43.5788 128.552V123.584C42.4748 123.168 41.6028 122.8 40.9628 122.48C40.3228 122.144 39.7708 121.672 39.3068 121.064C38.8428 120.456 38.6108 119.68 38.6108 118.736C38.6108 117.456 39.0508 116.408 39.9308 115.592C40.8268 114.776 42.0428 114.272 43.5788 114.08V111.512H45.5468V114.032C47.0988 114.112 48.4908 114.464 49.7228 115.088V118.088C48.3148 117.272 46.9228 116.832 45.5468 116.768V121.28C46.5068 121.632 47.3068 122 47.9468 122.384C48.6028 122.752 49.1468 123.256 49.5788 123.896C50.0268 124.536 50.2508 125.336 50.2508 126.296ZM41.8508 118.544C41.8508 118.976 41.9948 119.344 42.2828 119.648C42.5868 119.952 43.0188 120.232 43.5788 120.488V116.888C43.0348 117 42.6108 117.2 42.3068 117.488C42.0028 117.76 41.8508 118.112 41.8508 118.544ZM45.5468 128.312C46.5068 127.976 46.9868 127.368 46.9868 126.488C46.9868 126.04 46.8588 125.656 46.6028 125.336C46.3628 125 46.0108 124.704 45.5468 124.448V128.312ZM64.5728 128.216V131H52.9088V128.216H57.5888V117.992L54.5168 119.336H54.4208L53.7488 117.296V117.2L58.5248 114.296H60.7568V128.216H64.5728ZM73.6236 131.288C71.3676 131.288 69.7036 130.504 68.6316 128.936C67.5596 127.352 67.0236 125.256 67.0236 122.648C67.0236 120.04 67.5596 117.952 68.6316 116.384C69.7036 114.8 71.3676 114.008 73.6236 114.008C75.8796 114.008 77.5436 114.8 78.6156 116.384C79.6876 117.952 80.2236 120.04 80.2236 122.648C80.2236 125.256 79.6876 127.352 78.6156 128.936C77.5436 130.504 75.8796 131.288 73.6236 131.288ZM73.6236 128.576C74.7756 128.576 75.6076 128.032 76.1196 126.944C76.6316 125.856 76.8876 124.424 76.8876 122.648C76.8876 120.872 76.6316 119.44 76.1196 118.352C75.6076 117.264 74.7756 116.72 73.6236 116.72C72.4716 116.72 71.6396 117.264 71.1276 118.352C70.6156 119.44 70.3596 120.872 70.3596 122.648C70.3596 124.424 70.6156 125.856 71.1276 126.944C71.6396 128.032 72.4716 128.576 73.6236 128.576ZM85.9144 127.4C85.9144 128.472 85.7704 129.576 85.4824 130.712C85.1944 131.848 84.6824 133.144 83.9464 134.6H80.7784C81.3064 133.64 81.6904 132.736 81.9304 131.888C82.1704 131.056 82.3144 130.32 82.3624 129.68C82.4264 129.024 82.4584 128.264 82.4584 127.4H85.9144ZM97.9808 122.264C98.7968 122.696 99.4288 123.28 99.8768 124.016C100.341 124.736 100.573 125.536 100.573 126.416C100.573 127.392 100.301 128.248 99.7568 128.984C99.2128 129.72 98.4448 130.288 97.4528 130.688C96.4608 131.088 95.3328 131.288 94.0688 131.288C93.1408 131.288 92.2528 131.176 91.4048 130.952C90.5728 130.728 89.7408 130.384 88.9088 129.92V126.824H89.0048C90.6688 127.976 92.3168 128.552 93.9488 128.552C94.9728 128.552 95.7888 128.352 96.3968 127.952C97.0048 127.536 97.3088 126.968 97.3088 126.248C97.3088 125.464 96.9648 124.832 96.2768 124.352C95.5888 123.856 94.6608 123.608 93.4928 123.608H92.4848V120.968H93.4928C94.5808 120.968 95.4368 120.768 96.0608 120.368C96.6848 119.968 96.9968 119.416 96.9968 118.712C96.9968 118.088 96.7328 117.608 96.2048 117.272C95.6928 116.936 94.9728 116.768 94.0448 116.768C93.3248 116.768 92.5968 116.88 91.8608 117.104C91.1408 117.328 90.3488 117.68 89.4848 118.16H89.3888V115.184C90.9088 114.4 92.5088 114.008 94.1888 114.008C96.0128 114.008 97.4688 114.408 98.5568 115.208C99.6608 115.992 100.213 117.064 100.213 118.424C100.213 119.224 100.013 119.96 99.6128 120.632C99.2288 121.288 98.6848 121.832 97.9808 122.264ZM109.624 131.288C107.368 131.288 105.704 130.504 104.632 128.936C103.56 127.352 103.024 125.256 103.024 122.648C103.024 120.04 103.56 117.952 104.632 116.384C105.704 114.8 107.368 114.008 109.624 114.008C111.88 114.008 113.544 114.8 114.616 116.384C115.688 117.952 116.224 120.04 116.224 122.648C116.224 125.256 115.688 127.352 114.616 128.936C113.544 130.504 111.88 131.288 109.624 131.288ZM109.624 128.576C110.776 128.576 111.608 128.032 112.12 126.944C112.632 125.856 112.888 124.424 112.888 122.648C112.888 120.872 112.632 119.44 112.12 118.352C111.608 117.264 110.776 116.72 109.624 116.72C108.472 116.72 107.64 117.264 107.128 118.352C106.616 119.44 106.36 120.872 106.36 122.648C106.36 124.424 106.616 125.856 107.128 126.944C107.64 128.032 108.472 128.576 109.624 128.576ZM130.338 114.296V115.904L123.882 131H120.978L120.402 130.904L126.642 117.056H119.226V114.296H130.338Z" fill="white"/>
<path d="M153.5 129V121M153.5 121L150 124.2M153.5 121L157 124.2" stroke="#75DB92" stroke-width="1.25" stroke-linecap="round" stroke-linejoin="round"/>
<path d="M164.732 128.144C164.108 128.144 163.552 128.04 163.064 127.832C162.576 127.624 162.196 127.332 161.924 126.956C161.652 126.58 161.516 126.156 161.516 125.684C161.516 125.228 161.64 124.82 161.888 124.46C162.144 124.1 162.464 123.848 162.848 123.704C162.488 123.584 162.2 123.344 161.984 122.984C161.776 122.624 161.672 122.232 161.672 121.808C161.672 121.352 161.8 120.948 162.056 120.596C162.32 120.244 162.684 119.976 163.148 119.792C163.612 119.6 164.136 119.504 164.72 119.504C165.312 119.504 165.836 119.6 166.292 119.792C166.756 119.976 167.116 120.244 167.372 120.596C167.636 120.94 167.768 121.34 167.768 121.796C167.768 122.22 167.66 122.612 167.444 122.972C167.228 123.332 166.94 123.576 166.58 123.704C167.004 123.856 167.332 124.116 167.564 124.484C167.804 124.844 167.924 125.244 167.924 125.684C167.924 126.164 167.788 126.592 167.516 126.968C167.244 127.336 166.864 127.624 166.376 127.832C165.896 128.04 165.348 128.144 164.732 128.144ZM164.72 123.02C165.176 123.02 165.528 122.928 165.776 122.744C166.032 122.552 166.16 122.28 166.16 121.928C166.16 121.576 166.036 121.304 165.788 121.112C165.54 120.92 165.184 120.824 164.72 120.824C164.256 120.824 163.9 120.92 163.652 121.112C163.404 121.304 163.28 121.576 163.28 121.928C163.28 122.28 163.404 122.552 163.652 122.744C163.9 122.928 164.256 123.02 164.72 123.02ZM164.72 126.812C165.224 126.812 165.612 126.704 165.884 126.488C166.156 126.272 166.292 125.972 166.292 125.588C166.292 125.196 166.156 124.896 165.884 124.688C165.612 124.472 165.224 124.364 164.72 124.364C164.224 124.364 163.836 124.472 163.556 124.688C163.284 124.896 163.148 125.196 163.148 125.588C163.148 125.98 163.284 126.284 163.556 126.5C163.828 126.708 164.216 126.812 164.72 126.812ZM171.585 124.508C170.809 124.508 170.233 124.28 169.857 123.824C169.489 123.36 169.305 122.752 169.305 122C169.305 121.248 169.489 120.644 169.857 120.188C170.233 119.724 170.809 119.492 171.585 119.492C172.361 119.492 172.933 119.724 173.301 120.188C173.677 120.644 173.865 121.248 173.865 122C173.865 122.752 173.677 123.36 173.301 123.824C172.933 124.28 172.361 124.508 171.585 124.508ZM178.341 119.648L171.729 128H170.541L177.153 119.648H178.341ZM171.585 123.476C171.913 123.476 172.157 123.34 172.317 123.068C172.477 122.788 172.557 122.432 172.557 122C172.557 121.576 172.473 121.224 172.305 120.944C172.145 120.664 171.905 120.524 171.585 120.524C171.265 120.524 171.021 120.664 170.853 120.944C170.693 121.224 170.613 121.576 170.613 122C170.613 122.432 170.693 122.788 170.853 123.068C171.013 123.34 171.257 123.476 171.585 123.476ZM177.297 128.156C176.521 128.156 175.945 127.928 175.569 127.472C175.201 127.008 175.017 126.4 175.017 125.648C175.017 124.896 175.201 124.292 175.569 123.836C175.945 123.372 176.521 123.14 177.297 123.14C178.073 123.14 178.645 123.372 179.013 123.836C179.389 124.292 179.577 124.896 179.577 125.648C179.577 126.4 179.389 127.008 179.013 127.472C178.645 127.928 178.073 128.156 177.297 128.156ZM177.297 127.124C177.625 127.124 177.869 126.988 178.029 126.716C178.189 126.436 178.269 126.08 178.269 125.648C178.269 125.224 178.185 124.872 178.017 124.592C177.857 124.312 177.617 124.172 177.297 124.172C176.977 124.172 176.733 124.312 176.565 124.592C176.405 124.872 176.325 125.224 176.325 125.648C176.325 126.08 176.405 126.436 176.565 126.716C176.725 126.988 176.969 127.124 177.297 127.124Z" fill="#75DB92"/>
<path d="M191.045 126.608V128H185.213V126.608H187.553V121.496L186.017 122.168H185.969L185.633 121.148V121.1L188.021 119.648H189.137V126.608H191.045ZM202.975 128H201.391V121.652L199.183 128H197.527L195.271 121.664V128H193.687V119.648H196.171L198.379 125.84L200.527 119.648H202.975V128Z" fill="#E0E0E0"/>
<path d="M37 273L121.194 224.924C123.007 223.889 125.058 223.345 127.145 223.345H212.54H225.255C227.534 223.345 229.765 222.696 231.689 221.475L243.347 214.071C247.005 211.748 251.632 211.578 255.451 213.626L266.961 219.799C271.007 221.968 275.936 221.64 279.657 218.952L331.463 181.547C333.508 180.07 335.965 179.276 338.487 179.276H350.414C352.446 179.276 354.445 178.76 356.223 177.776L367.105 171.755C367.764 171.39 368.456 171.089 369.171 170.854L387 165" stroke="#70C1DB" stroke-width="2.5"/>
<path d="M131.565 317.04L129.375 324H127.835L126.355 319L124.875 324H123.335L121.145 317.04H122.575L124.125 322.39L125.655 317.04H127.105L128.635 322.39L130.185 317.04H131.565ZM134.5 318.2V319.94H137.5V321.03H134.5V322.84H137.72V324H133.18V317.04H137.72V318.2H134.5ZM141.397 318.2V319.94H144.397V321.03H141.397V322.84H144.617V324H140.077V317.04H144.617V318.2H141.397ZM149.053 321.12L148.293 322V324H146.973V317.04H148.293V320.2L150.963 317.04H152.583L149.953 320.08L152.743 324H151.113L149.053 321.12Z" fill="#A3A3A3"/>
<path d="M174.972 324H173.652V318.71L171.812 324H170.432L168.552 318.72V324H167.232V317.04H169.302L171.142 322.2L172.932 317.04H174.972V324ZM180.707 324.12C179.994 324.12 179.38 323.973 178.867 323.68C178.354 323.387 177.964 322.97 177.697 322.43C177.43 321.89 177.297 321.253 177.297 320.52C177.297 319.787 177.43 319.15 177.697 318.61C177.964 318.07 178.354 317.653 178.867 317.36C179.38 317.067 179.994 316.92 180.707 316.92C181.42 316.92 182.034 317.067 182.547 317.36C183.06 317.653 183.45 318.07 183.717 318.61C183.984 319.15 184.117 319.787 184.117 320.52C184.117 321.253 183.984 321.89 183.717 322.43C183.45 322.97 183.06 323.387 182.547 323.68C182.034 323.973 181.42 324.12 180.707 324.12ZM180.707 322.9C181.334 322.9 181.827 322.697 182.187 322.29C182.547 321.877 182.727 321.287 182.727 320.52C182.727 319.753 182.547 319.167 182.187 318.76C181.827 318.347 181.334 318.14 180.707 318.14C180.08 318.14 179.587 318.347 179.227 318.76C178.867 319.167 178.687 319.753 178.687 320.52C178.687 321.287 178.867 321.877 179.227 322.29C179.587 322.697 180.08 322.9 180.707 322.9ZM192.375 317.04V324H191.055L187.755 319.4V324H186.435V317.04H187.755L191.055 321.63V317.04H192.375ZM196.443 318.25H194.463V317.04H199.743V318.25H197.763V324H196.443V318.25ZM207.77 317.04V324H206.45V320.94H203.15V324H201.83V317.04H203.15V319.77H206.45V317.04H207.77Z" fill="#FFB526"/>
<path d="M228.539 317.04L226.009 321.6V324H224.689V321.6L222.159 317.04H223.569L225.359 320.42L227.179 317.04H228.539ZM231.5 318.2V319.94H234.5V321.03H231.5V322.84H234.72V324H230.18V317.04H234.72V318.2H231.5ZM241.207 322.42H238.237L237.657 324H236.337L238.977 317.04H240.517L243.157 324H241.787L241.207 322.42ZM240.797 321.3L239.727 318.34L238.647 321.3H240.797ZM248.959 324L247.539 321.35H246.299V324H244.979V317.04H247.489C248.389 317.04 249.063 317.22 249.509 317.58C249.956 317.94 250.179 318.463 250.179 319.15C250.179 319.637 250.069 320.05 249.849 320.39C249.629 320.73 249.303 320.983 248.869 321.15L250.409 324H248.959ZM246.299 320.19H247.499C247.939 320.19 248.263 320.113 248.469 319.96C248.683 319.807 248.789 319.547 248.789 319.18C248.789 318.827 248.686 318.577 248.479 318.43C248.273 318.283 247.943 318.21 247.489 318.21H246.299V320.19Z" fill="#A3A3A3"/>
<path d="M267.387 319.63C267.834 319.63 268.23 319.727 268.577 319.92C268.924 320.113 269.194 320.38 269.387 320.72C269.58 321.06 269.677 321.44 269.677 321.86C269.677 322.313 269.564 322.71 269.337 323.05C269.11 323.39 268.79 323.653 268.377 323.84C267.964 324.02 267.484 324.11 266.937 324.11C266.517 324.11 266.104 324.057 265.697 323.95C265.29 323.837 264.93 323.677 264.617 323.47V322.19H264.657C264.957 322.423 265.317 322.613 265.737 322.76C266.157 322.907 266.547 322.98 266.907 322.98C267.334 322.98 267.677 322.877 267.937 322.67C268.197 322.457 268.327 322.18 268.327 321.84C268.327 321.52 268.214 321.26 267.987 321.06C267.767 320.86 267.477 320.76 267.117 320.76C266.637 320.76 266.18 320.937 265.747 321.29H265.707L264.837 321.02V320.97L265.287 317.04H269.347V318.19H266.387L266.197 319.89C266.577 319.717 266.974 319.63 267.387 319.63ZM280.541 317.04L278.011 321.6V324H276.691V321.6L274.161 317.04H275.571L277.361 320.42L279.181 317.04H280.541ZM283.502 318.2V319.94H286.502V321.03H283.502V322.84H286.722V324H282.182V317.04H286.722V318.2H283.502ZM293.209 322.42H290.239L289.659 324H288.339L290.979 317.04H292.519L295.159 324H293.789L293.209 322.42ZM292.799 321.3L291.729 318.34L290.649 321.3H292.799ZM300.961 324L299.541 321.35H298.301V324H296.981V317.04H299.491C300.391 317.04 301.065 317.22 301.511 317.58C301.958 317.94 302.181 318.463 302.181 319.15C302.181 319.637 302.071 320.05 301.851 320.39C301.631 320.73 301.305 320.983 300.871 321.15L302.411 324H300.961ZM298.301 320.19H299.501C299.941 320.19 300.265 320.113 300.471 319.96C300.685 319.807 300.791 319.547 300.791 319.18C300.791 318.827 300.688 318.577 300.481 318.43C300.275 318.283 299.945 318.21 299.491 318.21H298.301V320.19Z" fill="#A3A3A3"/>
<path d="M200 354C201.657 354 203 352.657 203 351C203 349.343 201.657 348 200 348C198.343 348 197 349.343 197 351C197 352.657 198.343 354 200 354Z" fill="#4E4E4E"/>
<path d="M212 354C213.657 354 215 352.657 215 351C215 349.343 213.657 348 212 348C210.343 348 209 349.343 209 351C209 352.657 210.343 354 212 354Z" fill="#E0E0E0"/>
<path d="M224 354C225.657 354 227 352.657 227 351C227 349.343 225.657 348 224 348C222.343 348 221 349.343 221 351C221 352.657 222.343 354 224 354Z" fill="#E0E0E0"/>
</g>
<defs>
<filter id="filter0_d_4_141" x="-1" y="-1" width="430" height="407" filterUnits="userSpaceOnUse" color-interpolation-filters="sRGB">
<feFlood flood-opacity="0" result="BackgroundImageFix"/>
<feColorMatrix in="SourceAlpha" type="matrix" values="0 0 0 0 0 0 0 0 0 0 0 0 0 0 0 0 0 0 127 0" result="hardAlpha"/>
<feOffset dx="2" dy="8"/>
<feGaussianBlur stdDeviation="12"/>
<feComposite in2="hardAlpha" operator="out"/>
<feColorMatrix type="matrix" values="0 0 0 0 0 0 0 0 0 0 0 0 0 0 0 0 0 0 0.25 0"/>
<feBlend mode="normal" in2="BackgroundImageFix" result="effect1_dropShadow_4_141"/>
<feBlend mode="normal" in="SourceGraphic" in2="effect1_dropShadow_4_141" result="shape"/>
</filter>
<filter id="filter1_d_4_141" x="31.0703" y="82.444" width="111.949" height="26.724" filterUnits="userSpaceOnUse" color-interpolation-filters="sRGB">
<feFlood flood-opacity="0" result="BackgroundImageFix"/>
<feColorMatrix in="SourceAlpha" type="matrix" values="0 0 0 0 0 0 0 0 0 0 0 0 0 0 0 0 0 0 127 0" result="hardAlpha"/>
<feOffset dx="1" dy="2"/>
<feGaussianBlur stdDeviation="4"/>
<feComposite in2="hardAlpha" operator="out"/>
<feColorMatrix type="matrix" values="0 0 0 0 0 0 0 0 0 0 0 0 0 0 0 0 0 0 0.15 0"/>
<feBlend mode="normal" in2="BackgroundImageFix" result="effect1_dropShadow_4_141"/>
<feBlend mode="normal" in="SourceGraphic" in2="effect1_dropShadow_4_141" result="shape"/>
</filter>
<linearGradient id="paint0_linear_4_141" x1="335.496" y1="42" x2="335.496" y2="54.9975" gradientUnits="userSpaceOnUse">
<stop stop-color="#AF00EC"/>
<stop offset="1" stop-color="#FF577F"/>
</linearGradient>
<linearGradient id="paint1_linear_4_141" x1="335.5" y1="45.1611" x2="335.5" y2="51.8389" gradientUnits="userSpaceOnUse">
<stop stop-color="#AF00EC"/>
<stop offset="1" stop-color="#FF577F"/>
</linearGradient>
<linearGradient id="paint2_linear_4_141" x1="338.971" y1="44.2496" x2="338.971" y2="45.8086" gradientUnits="userSpaceOnUse">
<stop stop-color="#AF00EC"/>
<stop offset="1" stop-color="#FF577F"/>
</linearGradient>
</defs>
</svg>
