<svg width="335" height="254" viewBox="0 0 335 254" fill="none" xmlns="http://www.w3.org/2000/svg">
<rect y="0.369263" width="335" height="253" rx="8" fill="#080811"/>
<g filter="url(#filter0_d_4_74)">
<path d="M31.4104 24.2333V35.3693H29.2984L24.0184 28.0093V35.3693H21.9064V24.2333H24.0184L29.2984 31.5773V24.2333H31.4104ZM38.0153 35.5613C37.1726 35.5613 36.4313 35.3853 35.7913 35.0333C35.1513 34.6706 34.6553 34.1586 34.3033 33.4973C33.962 32.8359 33.7913 32.0679 33.7913 31.1933C33.7913 30.3186 33.962 29.5506 34.3033 28.8893C34.6553 28.2279 35.1513 27.7213 35.7913 27.3693C36.4313 27.0066 37.1726 26.8253 38.0153 26.8253C38.858 26.8253 39.5993 27.0066 40.2393 27.3693C40.8793 27.7213 41.37 28.2279 41.7113 28.8893C42.0633 29.5506 42.2393 30.3186 42.2393 31.1933C42.2393 32.0679 42.0633 32.8359 41.7113 33.4973C41.37 34.1586 40.8793 34.6706 40.2393 35.0333C39.5993 35.3853 38.858 35.5613 38.0153 35.5613ZM38.0153 33.8173C38.6446 33.8173 39.1353 33.5933 39.4873 33.1453C39.8393 32.6866 40.0153 32.0359 40.0153 31.1933C40.0153 30.3399 39.8393 29.6893 39.4873 29.2413C39.1353 28.7933 38.6446 28.5693 38.0153 28.5693C37.386 28.5693 36.8953 28.7933 36.5433 29.2413C36.1913 29.6893 36.0153 30.3399 36.0153 31.1933C36.0153 32.0359 36.1913 32.6866 36.5433 33.1453C36.8953 33.5933 37.386 33.8173 38.0153 33.8173ZM51.5372 27.0173L48.4492 35.3693H45.8252L42.7372 27.0173H44.8812L47.1692 33.6093L49.4572 27.0173H51.5372ZM59.9378 31.8333H54.1298C54.2151 32.4733 54.4498 32.9639 54.8338 33.3053C55.2285 33.6466 55.7511 33.8173 56.4018 33.8173C56.8818 33.8173 57.3991 33.7319 57.9538 33.5613C58.5191 33.3799 59.0418 33.1346 59.5218 32.8253H59.5858V34.5373C59.1591 34.8679 58.6685 35.1239 58.1138 35.3053C57.5698 35.4759 56.9938 35.5613 56.3858 35.5613C55.5111 35.5613 54.7485 35.3853 54.0978 35.0333C53.4471 34.6813 52.9458 34.1746 52.5938 33.5133C52.2418 32.8519 52.0658 32.0786 52.0658 31.1933C52.0658 30.3293 52.2311 29.5666 52.5618 28.9053C52.9031 28.2439 53.3778 27.7319 53.9858 27.3693C54.5938 27.0066 55.2978 26.8253 56.0978 26.8253C56.8765 26.8253 57.5538 27.0013 58.1298 27.3533C58.7165 27.7053 59.1645 28.2119 59.4738 28.8733C59.7831 29.5346 59.9378 30.3079 59.9378 31.1933V31.8333ZM56.0978 28.5213C55.5965 28.5213 55.1751 28.6866 54.8338 29.0173C54.5031 29.3479 54.2791 29.8066 54.1618 30.3933H57.7618C57.6765 29.7853 57.4951 29.3213 57.2178 29.0013C56.9405 28.6813 56.5671 28.5213 56.0978 28.5213ZM71.5316 26.8253C72.3316 26.8253 72.9716 27.0759 73.4516 27.5773C73.9422 28.0679 74.1876 28.7186 74.1876 29.5293V35.3693H72.0756V30.7293C72.0756 30.0039 71.9796 29.4866 71.7876 29.1773C71.5956 28.8573 71.2756 28.6973 70.8276 28.6973C70.2836 28.6973 69.7236 29.0013 69.1476 29.6093V35.3693H67.0356V30.7293C67.0356 30.0039 66.9396 29.4866 66.7476 29.1773C66.5556 28.8573 66.2356 28.6973 65.7876 28.6973C65.2436 28.6973 64.6836 29.0013 64.1076 29.6093V35.3693H61.9956V28.8733L61.6436 27.0173H63.5796L63.8836 28.0893C64.3102 27.6413 64.7316 27.3213 65.1476 27.1293C65.5636 26.9266 66.0116 26.8253 66.4916 26.8253C67.0249 26.8253 67.4942 26.9479 67.8996 27.1933C68.3156 27.4279 68.6302 27.7533 68.8436 28.1693C69.2916 27.6893 69.7236 27.3479 70.1396 27.1453C70.5662 26.9319 71.0302 26.8253 71.5316 26.8253ZM81.2824 26.8253C81.9758 26.8253 82.5838 27.0066 83.1064 27.3693C83.6398 27.7319 84.0558 28.2493 84.3544 28.9213C84.6531 29.5826 84.8024 30.3506 84.8024 31.2253C84.8024 32.5799 84.4504 33.6413 83.7464 34.4093C83.0531 35.1666 82.1038 35.5453 80.8984 35.5453C80.5464 35.5453 80.2158 35.5079 79.9064 35.4333C79.5971 35.3586 79.2451 35.2253 78.8504 35.0333V35.3693H76.7384V23.3053H78.8504V27.8333C79.5224 27.1613 80.3331 26.8253 81.2824 26.8253ZM80.6904 33.7693C81.3518 33.7693 81.8318 33.5666 82.1304 33.1613C82.4291 32.7559 82.5784 32.0999 82.5784 31.1933C82.5784 30.3293 82.4558 29.6893 82.2104 29.2733C81.9651 28.8573 81.5811 28.6493 81.0584 28.6493C80.3118 28.6493 79.5758 28.9906 78.8504 29.6733V33.5773C79.1384 33.6626 79.4211 33.7159 79.6984 33.7373C79.9758 33.7586 80.3064 33.7693 80.6904 33.7693ZM94.3328 31.8333H88.5248C88.6101 32.4733 88.8448 32.9639 89.2288 33.3053C89.6235 33.6466 90.1461 33.8173 90.7968 33.8173C91.2768 33.8173 91.7941 33.7319 92.3488 33.5613C92.9141 33.3799 93.4368 33.1346 93.9168 32.8253H93.9808V34.5373C93.5541 34.8679 93.0635 35.1239 92.5088 35.3053C91.9648 35.4759 91.3888 35.5613 90.7808 35.5613C89.9061 35.5613 89.1435 35.3853 88.4928 35.0333C87.8421 34.6813 87.3408 34.1746 86.9888 33.5133C86.6368 32.8519 86.4608 32.0786 86.4608 31.1933C86.4608 30.3293 86.6261 29.5666 86.9568 28.9053C87.2981 28.2439 87.7728 27.7319 88.3808 27.3693C88.9888 27.0066 89.6928 26.8253 90.4928 26.8253C91.2715 26.8253 91.9488 27.0013 92.5248 27.3533C93.1115 27.7053 93.5595 28.2119 93.8688 28.8733C94.1781 29.5346 94.3328 30.3079 94.3328 31.1933V31.8333ZM90.4928 28.5213C89.9915 28.5213 89.5701 28.6866 89.2288 29.0173C88.8981 29.3479 88.6741 29.8066 88.5568 30.3933H92.1568C92.0715 29.7853 91.8901 29.3213 91.6128 29.0013C91.3355 28.6813 90.9621 28.5213 90.4928 28.5213ZM100.839 26.8253V28.9053H100.567C99.7346 28.9053 99.0572 29.1346 98.5346 29.5933V35.3693H96.4226V28.8733L96.0706 27.0173H98.1826L98.3906 28.1213C98.7426 27.6413 99.0626 27.3053 99.3506 27.1133C99.6386 26.9213 99.9586 26.8253 100.311 26.8253H100.839ZM110.954 35.5613C110.356 35.5613 109.722 35.4813 109.05 35.3213C108.378 35.1613 107.743 34.9426 107.146 34.6653V32.6173C108.532 33.3639 109.77 33.7373 110.858 33.7373C111.402 33.7373 111.839 33.6199 112.17 33.3853C112.511 33.1506 112.682 32.8199 112.682 32.3933C112.682 32.0946 112.586 31.8439 112.394 31.6413C112.212 31.4279 111.983 31.2573 111.706 31.1293C111.428 30.9906 111.034 30.8253 110.522 30.6333C109.828 30.3773 109.263 30.1319 108.826 29.8973C108.388 29.6626 108.015 29.3319 107.706 28.9053C107.396 28.4679 107.242 27.9079 107.242 27.2253C107.242 26.2226 107.588 25.4439 108.282 24.8893C108.975 24.3239 109.924 24.0413 111.13 24.0413C111.695 24.0413 112.25 24.1053 112.794 24.2333C113.338 24.3506 113.839 24.5266 114.298 24.7613V26.7613C113.22 26.1639 112.18 25.8653 111.178 25.8653C110.623 25.8653 110.186 25.9666 109.866 26.1693C109.556 26.3613 109.402 26.6386 109.402 27.0013C109.402 27.3639 109.562 27.6519 109.882 27.8653C110.212 28.0679 110.719 28.2919 111.402 28.5373C112.116 28.8039 112.703 29.0599 113.162 29.3053C113.62 29.5506 114.015 29.9079 114.346 30.3773C114.687 30.8359 114.868 31.4333 114.89 32.1693C114.89 33.2253 114.532 34.0573 113.818 34.6653C113.103 35.2626 112.148 35.5613 110.954 35.5613ZM122.052 26.8413C122.681 26.8413 123.236 27.0226 123.716 27.3853C124.207 27.7373 124.585 28.2386 124.852 28.8893C125.129 29.5293 125.268 30.2706 125.268 31.1133C125.268 31.9453 125.108 32.7026 124.788 33.3853C124.468 34.0573 124.025 34.5906 123.46 34.9853C122.905 35.3693 122.276 35.5613 121.572 35.5613C120.719 35.5613 119.961 35.3853 119.3 35.0333V39.0813H117.188V28.8733L116.836 27.0173H118.772L119.108 28.2013C119.492 27.7639 119.94 27.4279 120.452 27.1933C120.964 26.9586 121.497 26.8413 122.052 26.8413ZM121.14 33.8173C122.409 33.8173 123.044 32.9266 123.044 31.1453C123.044 30.3239 122.916 29.6893 122.66 29.2413C122.415 28.7933 122.052 28.5693 121.572 28.5693C120.804 28.5693 120.047 28.9426 119.3 29.6893V33.5613C119.983 33.7319 120.596 33.8173 121.14 33.8173ZM134.798 31.8333H128.99C129.076 32.4733 129.31 32.9639 129.694 33.3053C130.089 33.6466 130.612 33.8173 131.262 33.8173C131.742 33.8173 132.26 33.7319 132.814 33.5613C133.38 33.3799 133.902 33.1346 134.382 32.8253H134.446V34.5373C134.02 34.8679 133.529 35.1239 132.974 35.3053C132.43 35.4759 131.854 35.5613 131.246 35.5613C130.372 35.5613 129.609 35.3853 128.958 35.0333C128.308 34.6813 127.806 34.1746 127.454 33.5133C127.102 32.8519 126.926 32.0786 126.926 31.1933C126.926 30.3293 127.092 29.5666 127.422 28.9053C127.764 28.2439 128.238 27.7319 128.846 27.3693C129.454 27.0066 130.158 26.8253 130.958 26.8253C131.737 26.8253 132.414 27.0013 132.99 27.3533C133.577 27.7053 134.025 28.2119 134.334 28.8733C134.644 29.5346 134.798 30.3079 134.798 31.1933V31.8333ZM130.958 28.5213C130.457 28.5213 130.036 28.6866 129.694 29.0173C129.364 29.3479 129.14 29.8066 129.022 30.3933H132.622C132.537 29.7853 132.356 29.3213 132.078 29.0013C131.801 28.6813 131.428 28.5213 130.958 28.5213ZM141.432 26.8253C142.275 26.8253 142.952 27.0759 143.464 27.5773C143.987 28.0679 144.248 28.7186 144.248 29.5293V35.3693H142.136V30.7293C142.136 30.0039 142.024 29.4866 141.8 29.1773C141.587 28.8573 141.23 28.6973 140.728 28.6973C140.174 28.6973 139.587 29.0066 138.968 29.6253V35.3693H136.856V28.8733L136.504 27.0173H138.44L138.744 28.0893C139.203 27.6413 139.646 27.3213 140.072 27.1293C140.499 26.9266 140.952 26.8253 141.432 26.8253ZM152.835 35.3693L152.515 34.2493C152.131 34.6653 151.683 34.9853 151.171 35.2093C150.669 35.4333 150.141 35.5453 149.587 35.5453C148.605 35.5453 147.827 35.1613 147.251 34.3933C146.685 33.6253 146.403 32.5799 146.403 31.2573C146.403 29.8599 146.728 28.7719 147.379 27.9933C148.04 27.2146 148.968 26.8253 150.163 26.8253C150.931 26.8253 151.645 26.9906 152.307 27.3213V23.3053H154.419V33.5133L154.771 35.3693H152.835ZM148.627 31.2253C148.627 32.0573 148.755 32.6973 149.011 33.1453C149.267 33.5933 149.645 33.8173 150.147 33.8173C150.851 33.8173 151.571 33.4653 152.307 32.7613V28.8093C151.688 28.6493 151.123 28.5693 150.611 28.5693C149.928 28.5693 149.427 28.7879 149.107 29.2253C148.787 29.6519 148.627 30.3186 148.627 31.2253ZM157.821 25.7693C157.458 25.7693 157.149 25.6466 156.893 25.4013C156.637 25.1559 156.509 24.8359 156.509 24.4413C156.509 24.0466 156.637 23.7266 156.893 23.4813C157.149 23.2359 157.458 23.1133 157.821 23.1133C158.184 23.1133 158.493 23.2359 158.749 23.4813C159.005 23.7266 159.133 24.0466 159.133 24.4413C159.133 24.8359 159.005 25.1559 158.749 25.4013C158.493 25.6466 158.184 25.7693 157.821 25.7693ZM158.877 27.0173V35.3693H156.765V27.0333L158.877 27.0173ZM165.905 26.8253C166.748 26.8253 167.425 27.0759 167.937 27.5773C168.46 28.0679 168.721 28.7186 168.721 29.5293V35.3693H166.609V30.7293C166.609 30.0039 166.497 29.4866 166.273 29.1773C166.06 28.8573 165.703 28.6973 165.201 28.6973C164.647 28.6973 164.06 29.0066 163.441 29.6253V35.3693H161.329V28.8733L160.977 27.0173H162.913L163.217 28.0893C163.676 27.6413 164.119 27.3213 164.545 27.1293C164.972 26.9266 165.425 26.8253 165.905 26.8253ZM179.132 27.0173L178.78 28.8573V35.3693C178.78 36.6386 178.406 37.6039 177.66 38.2653C176.913 38.9373 175.894 39.2733 174.604 39.2733C173.921 39.2733 173.308 39.1826 172.764 39.0013C172.22 38.8199 171.697 38.5746 171.196 38.2653V36.2813C172.198 37.0493 173.276 37.4333 174.428 37.4333C175.921 37.4333 176.668 36.7453 176.668 35.3693V34.7133C176.006 35.0759 175.281 35.2573 174.492 35.2573C173.372 35.2573 172.486 34.8893 171.836 34.1533C171.196 33.4066 170.876 32.3826 170.876 31.0813C170.876 29.7586 171.212 28.7186 171.884 27.9613C172.566 27.2039 173.489 26.8253 174.652 26.8253C175.025 26.8253 175.382 26.8679 175.724 26.9533C176.065 27.0279 176.47 27.1613 176.94 27.3533L177.02 27.0173H179.132ZM174.572 33.4333C175.244 33.4333 175.942 33.2199 176.668 32.7933V28.7933C176.39 28.7079 176.113 28.6546 175.836 28.6333C175.569 28.6119 175.244 28.6013 174.86 28.6013C174.241 28.6013 173.793 28.7986 173.516 29.1933C173.238 29.5879 173.1 30.2173 173.1 31.0813C173.1 31.9026 173.217 32.4999 173.452 32.8733C173.686 33.2466 174.06 33.4333 174.572 33.4333ZM183.598 35.5613C183.043 35.5613 182.499 35.4866 181.966 35.3373C181.432 35.1773 180.931 34.9533 180.462 34.6653V32.6653C180.974 33.0493 181.459 33.3319 181.918 33.5133C182.376 33.6946 182.872 33.7853 183.406 33.7853C183.95 33.7853 184.35 33.7159 184.606 33.5773C184.872 33.4386 185.006 33.2253 185.006 32.9373C185.006 32.6599 184.878 32.4573 184.622 32.3293C184.376 32.1906 183.982 32.0573 183.438 31.9293C182.84 31.7799 182.355 31.6306 181.982 31.4813C181.608 31.3213 181.283 31.0653 181.006 30.7133C180.739 30.3613 180.606 29.8866 180.606 29.2893C180.606 28.5426 180.91 27.9453 181.518 27.4973C182.136 27.0493 182.963 26.8253 183.998 26.8253C184.499 26.8253 184.963 26.8839 185.39 27.0013C185.816 27.1079 186.254 27.2893 186.702 27.5453V29.4973C186.243 29.1773 185.816 28.9479 185.422 28.8093C185.027 28.6706 184.606 28.6013 184.158 28.6013C183.667 28.6013 183.288 28.6653 183.022 28.7933C182.755 28.9106 182.622 29.0866 182.622 29.3213C182.622 29.5559 182.734 29.7319 182.958 29.8493C183.192 29.9559 183.56 30.0679 184.062 30.1853C184.659 30.3133 185.155 30.4626 185.55 30.6333C185.955 30.7933 186.302 31.0599 186.59 31.4333C186.878 31.7959 187.022 32.3026 187.022 32.9533C187.022 33.4546 186.878 33.9079 186.59 34.3133C186.302 34.7079 185.896 35.0173 185.374 35.2413C184.851 35.4546 184.259 35.5613 183.598 35.5613Z" fill="white"/>
</g>
<path d="M177.123 139.869C177.123 122.633 171.016 105.931 159.844 92.607C148.671 79.2834 133.124 70.1633 115.851 66.8008C98.5778 63.4382 80.6479 66.0411 65.116 74.1661C49.5842 82.2911 37.4114 95.4354 30.6719 111.359C23.9323 127.283 23.0429 145.002 28.1552 161.495C33.2675 177.989 44.0652 192.238 58.7085 201.814C73.3518 211.39 90.9347 215.7 108.461 214.011C125.988 212.321 142.374 204.736 154.827 192.549L101 139.869H177.123Z" fill="#70C1DB"/>
<path d="M177.123 139.869C177.123 129.087 174.731 118.433 170.114 108.644C165.496 98.8542 158.762 90.1624 150.377 83.1684C141.992 76.1745 132.156 71.0452 121.548 68.1347C110.94 65.2242 99.8123 64.602 88.9345 66.311C78.0566 68.02 67.6875 72.0195 58.5431 78.0333C49.3988 84.047 41.6972 91.9317 35.9703 101.143C30.2433 110.354 26.6276 120.672 25.3728 131.384C24.1179 142.096 25.2539 152.947 28.7022 163.187L101 139.869H177.123Z" fill="#BC7CE4"/>
<path d="M101 65.3693C116.056 65.3693 130.773 69.7386 143.291 77.9248C155.81 86.1109 165.567 97.7463 171.328 111.359C177.09 124.972 178.597 139.952 175.66 154.403C172.723 168.855 165.473 182.13 154.827 192.549L101 139.869L101 65.3693Z" fill="#FFC225"/>
<circle cx="100.877" cy="140.369" r="50" fill="#3C3B44"/>
<g filter="url(#filter1_d_4_74)">
<path d="M85.5774 133.625C85.5774 134.391 85.33 135.025 84.8354 135.529C84.35 136.033 83.6827 136.351 82.8334 136.481V137.993H81.6854V136.537C81.1534 136.509 80.6074 136.43 80.0474 136.299C79.4967 136.159 78.9787 135.977 78.4934 135.753V133.961C79.688 134.587 80.752 134.913 81.6854 134.941V132.043C81.0414 131.801 80.5327 131.586 80.1594 131.399C79.786 131.203 79.464 130.928 79.1934 130.573C78.9227 130.219 78.7874 129.766 78.7874 129.215C78.7874 128.469 79.044 127.857 79.5574 127.381C80.08 126.905 80.7894 126.611 81.6854 126.499V125.001H82.8334V126.471C83.7387 126.518 84.5507 126.723 85.2694 127.087V128.837C84.448 128.361 83.636 128.105 82.8334 128.067V130.699C83.3934 130.905 83.86 131.119 84.2334 131.343C84.616 131.558 84.9334 131.852 85.1854 132.225C85.4467 132.599 85.5774 133.065 85.5774 133.625ZM80.6774 129.103C80.6774 129.355 80.7614 129.57 80.9294 129.747C81.1067 129.925 81.3587 130.088 81.6854 130.237V128.137C81.368 128.203 81.1207 128.319 80.9434 128.487C80.766 128.646 80.6774 128.851 80.6774 129.103ZM82.8334 134.801C83.3934 134.605 83.6734 134.251 83.6734 133.737C83.6734 133.476 83.5987 133.252 83.4494 133.065C83.3094 132.869 83.104 132.697 82.8334 132.547V134.801ZM93.7079 134.731V136.369H87.0719V134.969L90.1939 131.693C90.7072 131.161 91.0619 130.718 91.2579 130.363C91.4539 130.009 91.5519 129.668 91.5519 129.341C91.5519 128.483 91.0199 128.053 89.9559 128.053C89.5172 128.053 89.0739 128.119 88.6259 128.249C88.1872 128.38 87.7672 128.576 87.3659 128.837V127.143C88.1872 126.686 89.0785 126.457 90.0399 126.457C91.0759 126.457 91.8972 126.7 92.5039 127.185C93.1199 127.671 93.4279 128.338 93.4279 129.187C93.4279 130.158 92.9892 131.129 92.1119 132.099L89.7179 134.731H93.7079ZM97.4195 134.269C97.4195 134.895 97.3355 135.539 97.1675 136.201C96.9995 136.864 96.7008 137.62 96.2715 138.469H94.4235C94.7315 137.909 94.9555 137.382 95.0955 136.887C95.2355 136.402 95.3195 135.973 95.3475 135.599C95.3848 135.217 95.4035 134.773 95.4035 134.269H97.4195ZM104.318 131.273C104.794 131.525 105.163 131.866 105.424 132.295C105.695 132.715 105.83 133.182 105.83 133.695C105.83 134.265 105.672 134.764 105.354 135.193C105.037 135.623 104.589 135.954 104.01 136.187C103.432 136.421 102.774 136.537 102.036 136.537C101.495 136.537 100.977 136.472 100.482 136.341C99.9969 136.211 99.5116 136.01 99.0262 135.739V133.933H99.0822C100.053 134.605 101.014 134.941 101.966 134.941C102.564 134.941 103.04 134.825 103.394 134.591C103.749 134.349 103.926 134.017 103.926 133.597C103.926 133.14 103.726 132.771 103.324 132.491C102.923 132.202 102.382 132.057 101.7 132.057H101.112V130.517H101.7C102.335 130.517 102.834 130.401 103.198 130.167C103.562 129.934 103.744 129.612 103.744 129.201C103.744 128.837 103.59 128.557 103.282 128.361C102.984 128.165 102.564 128.067 102.022 128.067C101.602 128.067 101.178 128.133 100.748 128.263C100.328 128.394 99.8662 128.599 99.3622 128.879H99.3062V127.143C100.193 126.686 101.126 126.457 102.106 126.457C103.17 126.457 104.02 126.691 104.654 127.157C105.298 127.615 105.62 128.24 105.62 129.033C105.62 129.5 105.504 129.929 105.27 130.321C105.046 130.704 104.729 131.021 104.318 131.273ZM110.9 126.457C112.132 126.457 113.056 126.863 113.672 127.675C114.297 128.487 114.61 129.687 114.61 131.273C114.61 133 114.251 134.311 113.532 135.207C112.813 136.094 111.759 136.537 110.368 136.537C109.883 136.537 109.435 136.481 109.024 136.369C108.613 136.248 108.193 136.052 107.764 135.781V134.059H107.82C108.212 134.339 108.637 134.554 109.094 134.703C109.551 134.853 109.995 134.927 110.424 134.927C111.096 134.927 111.609 134.713 111.964 134.283C112.319 133.854 112.538 133.182 112.622 132.267C112.071 132.631 111.413 132.813 110.648 132.813C109.621 132.813 108.809 132.533 108.212 131.973C107.624 131.404 107.33 130.648 107.33 129.705C107.33 129.043 107.475 128.469 107.764 127.983C108.063 127.489 108.483 127.111 109.024 126.849C109.565 126.588 110.191 126.457 110.9 126.457ZM109.262 129.649C109.262 130.135 109.407 130.522 109.696 130.811C109.985 131.091 110.382 131.231 110.886 131.231C111.465 131.231 112.053 131.04 112.65 130.657C112.603 129.752 112.435 129.094 112.146 128.683C111.866 128.263 111.446 128.053 110.886 128.053C110.391 128.053 109.995 128.198 109.696 128.487C109.407 128.767 109.262 129.155 109.262 129.649ZM122.914 126.625V127.563L119.148 136.369H117.454L117.118 136.313L120.758 128.235H116.432V126.625H122.914Z" fill="white"/>
</g>
<g filter="url(#filter2_d_4_74)">
<path d="M75.4174 147.619H73.4374V146.409H78.7174V147.619H76.7374V153.369H75.4174V147.619ZM81.7781 153.489C81.2515 153.489 80.7881 153.379 80.3881 153.159C79.9881 152.933 79.6781 152.613 79.4581 152.199C79.2448 151.786 79.1381 151.306 79.1381 150.759C79.1381 150.213 79.2448 149.733 79.4581 149.319C79.6781 148.906 79.9881 148.589 80.3881 148.369C80.7881 148.143 81.2515 148.029 81.7781 148.029C82.3048 148.029 82.7681 148.143 83.1681 148.369C83.5681 148.589 83.8748 148.906 84.0881 149.319C84.3081 149.733 84.4181 150.213 84.4181 150.759C84.4181 151.306 84.3081 151.786 84.0881 152.199C83.8748 152.613 83.5681 152.933 83.1681 153.159C82.7681 153.379 82.3048 153.489 81.7781 153.489ZM81.7781 152.399C82.1715 152.399 82.4781 152.259 82.6981 151.979C82.9181 151.693 83.0281 151.286 83.0281 150.759C83.0281 150.226 82.9181 149.819 82.6981 149.539C82.4781 149.259 82.1715 149.119 81.7781 149.119C81.3848 149.119 81.0781 149.259 80.8581 149.539C80.6381 149.819 80.5281 150.226 80.5281 150.759C80.5281 151.286 80.6381 151.693 80.8581 151.979C81.0781 152.259 81.3848 152.399 81.7781 152.399ZM87.2246 148.149H88.4246V149.129H87.2246V151.649C87.2246 152.156 87.418 152.409 87.8046 152.409C87.9846 152.409 88.1946 152.346 88.4346 152.219V153.309C88.268 153.369 88.1113 153.413 87.9646 153.439C87.8246 153.473 87.6646 153.489 87.4846 153.489C86.4313 153.489 85.9046 152.876 85.9046 151.649V149.129H85.1446V148.149H85.9046V146.749L87.2246 146.289V148.149ZM92.8585 153.369L92.7285 152.739C92.2552 153.239 91.6852 153.489 91.0185 153.489C90.4919 153.489 90.0619 153.353 89.7285 153.079C89.4019 152.806 89.2385 152.446 89.2385 151.999C89.2385 151.419 89.4519 150.969 89.8785 150.649C90.3119 150.323 90.9352 150.159 91.7485 150.159C92.0419 150.159 92.3352 150.173 92.6285 150.199V150.009C92.6285 149.716 92.5452 149.499 92.3785 149.359C92.2119 149.213 91.9485 149.139 91.5885 149.139C91.2352 149.139 90.9052 149.199 90.5985 149.319C90.2985 149.433 89.9719 149.619 89.6185 149.879V148.699C89.9252 148.466 90.2452 148.296 90.5785 148.189C90.9119 148.083 91.2785 148.029 91.6785 148.029C92.4185 148.029 92.9819 148.189 93.3685 148.509C93.7619 148.823 93.9585 149.283 93.9585 149.889V152.209L94.1785 153.369H92.8585ZM90.5585 151.899C90.5585 152.286 90.7785 152.479 91.2185 152.479C91.4719 152.479 91.7119 152.429 91.9385 152.329C92.1652 152.223 92.3952 152.056 92.6285 151.829V151.119H91.6685C91.2819 151.119 90.9985 151.176 90.8185 151.289C90.6452 151.403 90.5585 151.606 90.5585 151.899ZM95.2193 145.829H96.5393V153.369H95.2193V145.829ZM103.075 153.489C102.701 153.489 102.305 153.439 101.885 153.339C101.465 153.239 101.068 153.103 100.695 152.929V151.649C101.561 152.116 102.335 152.349 103.015 152.349C103.355 152.349 103.628 152.276 103.835 152.129C104.048 151.983 104.155 151.776 104.155 151.509C104.155 151.323 104.095 151.166 103.975 151.039C103.861 150.906 103.718 150.799 103.545 150.719C103.371 150.633 103.125 150.529 102.805 150.409C102.371 150.249 102.018 150.096 101.745 149.949C101.471 149.803 101.238 149.596 101.045 149.329C100.851 149.056 100.755 148.706 100.755 148.279C100.755 147.653 100.971 147.166 101.405 146.819C101.838 146.466 102.431 146.289 103.185 146.289C103.538 146.289 103.885 146.329 104.225 146.409C104.565 146.483 104.878 146.593 105.165 146.739V147.989C104.491 147.616 103.841 147.429 103.215 147.429C102.868 147.429 102.595 147.493 102.395 147.619C102.201 147.739 102.105 147.913 102.105 148.139C102.105 148.366 102.205 148.546 102.405 148.679C102.611 148.806 102.928 148.946 103.355 149.099C103.801 149.266 104.168 149.426 104.455 149.579C104.741 149.733 104.988 149.956 105.195 150.249C105.408 150.536 105.521 150.909 105.535 151.369C105.535 152.029 105.311 152.549 104.865 152.929C104.418 153.303 103.821 153.489 103.075 153.489ZM110.011 148.039C110.405 148.039 110.751 148.153 111.051 148.379C111.358 148.599 111.595 148.913 111.761 149.319C111.935 149.719 112.021 150.183 112.021 150.709C112.021 151.229 111.921 151.703 111.721 152.129C111.521 152.549 111.245 152.883 110.891 153.129C110.545 153.369 110.151 153.489 109.711 153.489C109.178 153.489 108.705 153.379 108.291 153.159V155.689H106.971V149.309L106.751 148.149H107.961L108.171 148.889C108.411 148.616 108.691 148.406 109.011 148.259C109.331 148.113 109.665 148.039 110.011 148.039ZM109.441 152.399C110.235 152.399 110.631 151.843 110.631 150.729C110.631 150.216 110.551 149.819 110.391 149.539C110.238 149.259 110.011 149.119 109.711 149.119C109.231 149.119 108.758 149.353 108.291 149.819V152.239C108.718 152.346 109.101 152.399 109.441 152.399ZM117.978 151.159H114.348C114.401 151.559 114.548 151.866 114.788 152.079C115.034 152.293 115.361 152.399 115.768 152.399C116.068 152.399 116.391 152.346 116.738 152.239C117.091 152.126 117.418 151.973 117.718 151.779H117.758V152.849C117.491 153.056 117.184 153.216 116.838 153.329C116.498 153.436 116.138 153.489 115.758 153.489C115.211 153.489 114.734 153.379 114.328 153.159C113.921 152.939 113.608 152.623 113.388 152.209C113.168 151.796 113.058 151.313 113.058 150.759C113.058 150.219 113.161 149.743 113.368 149.329C113.581 148.916 113.878 148.596 114.258 148.369C114.638 148.143 115.078 148.029 115.578 148.029C116.064 148.029 116.488 148.139 116.848 148.359C117.214 148.579 117.494 148.896 117.688 149.309C117.881 149.723 117.978 150.206 117.978 150.759V151.159ZM115.578 149.089C115.264 149.089 115.001 149.193 114.788 149.399C114.581 149.606 114.441 149.893 114.368 150.259H116.618C116.564 149.879 116.451 149.589 116.278 149.389C116.104 149.189 115.871 149.089 115.578 149.089ZM122.124 148.029C122.651 148.029 123.074 148.186 123.394 148.499C123.721 148.806 123.884 149.213 123.884 149.719V153.369H122.564V150.469C122.564 150.016 122.494 149.693 122.354 149.499C122.221 149.299 121.997 149.199 121.684 149.199C121.337 149.199 120.971 149.393 120.584 149.779V153.369H119.264V149.309L119.044 148.149H120.254L120.444 148.819C120.731 148.539 121.007 148.339 121.274 148.219C121.541 148.093 121.824 148.029 122.124 148.029ZM127.02 148.149H128.22V149.129H127.02V151.649C127.02 152.156 127.214 152.409 127.6 152.409C127.78 152.409 127.99 152.346 128.23 152.219V153.309C128.064 153.369 127.907 153.413 127.76 153.439C127.62 153.473 127.46 153.489 127.28 153.489C126.227 153.489 125.7 152.876 125.7 151.649V149.129H124.94V148.149H125.7V146.749L127.02 146.289V148.149Z" fill="white"/>
</g>
<path d="M219.663 68.6193H217.683V67.4093H222.963V68.6193H220.983V74.3693H219.663V68.6193ZM227.819 74.4893C227.105 74.4893 226.492 74.3426 225.979 74.0493C225.465 73.7559 225.075 73.3393 224.809 72.7993C224.542 72.2593 224.409 71.6226 224.409 70.8893C224.409 70.1559 224.542 69.5193 224.809 68.9793C225.075 68.4393 225.465 68.0226 225.979 67.7293C226.492 67.4359 227.105 67.2893 227.819 67.2893C228.532 67.2893 229.145 67.4359 229.659 67.7293C230.172 68.0226 230.562 68.4393 230.829 68.9793C231.095 69.5193 231.229 70.1559 231.229 70.8893C231.229 71.6226 231.095 72.2593 230.829 72.7993C230.562 73.3393 230.172 73.7559 229.659 74.0493C229.145 74.3426 228.532 74.4893 227.819 74.4893ZM227.819 73.2693C228.445 73.2693 228.939 73.0659 229.299 72.6593C229.659 72.2459 229.839 71.6559 229.839 70.8893C229.839 70.1226 229.659 69.5359 229.299 69.1293C228.939 68.7159 228.445 68.5093 227.819 68.5093C227.192 68.5093 226.699 68.7159 226.339 69.1293C225.979 69.5359 225.799 70.1226 225.799 70.8893C225.799 71.6559 225.979 72.2459 226.339 72.6593C226.699 73.0659 227.192 73.2693 227.819 73.2693ZM233.547 67.4093H235.847C236.807 67.4093 237.524 67.6059 237.997 67.9993C238.47 68.3859 238.707 68.9493 238.707 69.6893C238.707 70.4359 238.474 71.0159 238.007 71.4293C237.54 71.8426 236.86 72.0493 235.967 72.0493H234.867V74.3693H233.547V67.4093ZM235.857 70.8993C236.357 70.8993 236.724 70.8093 236.957 70.6293C237.197 70.4493 237.317 70.1459 237.317 69.7193C237.317 69.3059 237.2 69.0126 236.967 68.8393C236.734 68.6659 236.36 68.5793 235.847 68.5793H234.867V70.8993H235.857ZM247.371 70.7293C247.711 70.9093 247.975 71.1526 248.161 71.4593C248.355 71.7593 248.451 72.0926 248.451 72.4593C248.451 72.8659 248.338 73.2226 248.111 73.5293C247.885 73.8359 247.565 74.0726 247.151 74.2393C246.738 74.4059 246.268 74.4893 245.741 74.4893C245.355 74.4893 244.985 74.4426 244.631 74.3493C244.285 74.2559 243.938 74.1126 243.591 73.9193V72.6293H243.631C244.325 73.1093 245.011 73.3493 245.691 73.3493C246.118 73.3493 246.458 73.2659 246.711 73.0993C246.965 72.9259 247.091 72.6893 247.091 72.3893C247.091 72.0626 246.948 71.7993 246.661 71.5993C246.375 71.3926 245.988 71.2893 245.501 71.2893H245.081V70.1893H245.501C245.955 70.1893 246.311 70.1059 246.571 69.9393C246.831 69.7726 246.961 69.5426 246.961 69.2493C246.961 68.9893 246.851 68.7893 246.631 68.6493C246.418 68.5093 246.118 68.4393 245.731 68.4393C245.431 68.4393 245.128 68.4859 244.821 68.5793C244.521 68.6726 244.191 68.8193 243.831 69.0193H243.791V67.7793C244.425 67.4526 245.091 67.2893 245.791 67.2893C246.551 67.2893 247.158 67.4559 247.611 67.7893C248.071 68.1159 248.301 68.5626 248.301 69.1293C248.301 69.4626 248.218 69.7693 248.051 70.0493C247.891 70.3226 247.665 70.5493 247.371 70.7293ZM255.275 68.5693V70.3093H258.275V71.3993H255.275V73.2093H258.495V74.3693H253.955V67.4093H258.495V68.5693H255.275ZM265.062 74.3693L263.292 71.8193L261.552 74.3693H260.132L262.602 70.8193L260.252 67.4093H261.702L263.352 69.7893L264.972 67.4093H266.392L264.042 70.7893L266.512 74.3693H265.062ZM268.354 67.4093H270.654C271.614 67.4093 272.33 67.6059 272.804 67.9993C273.277 68.3859 273.514 68.9493 273.514 69.6893C273.514 70.4359 273.28 71.0159 272.814 71.4293C272.347 71.8426 271.667 72.0493 270.774 72.0493H269.674V74.3693H268.354V67.4093ZM270.664 70.8993C271.164 70.8993 271.53 70.8093 271.764 70.6293C272.004 70.4493 272.124 70.1459 272.124 69.7193C272.124 69.3059 272.007 69.0126 271.774 68.8393C271.54 68.6659 271.167 68.5793 270.654 68.5793H269.674V70.8993H270.664ZM276.775 68.5693V70.3093H279.775V71.3993H276.775V73.2093H279.995V74.3693H275.455V67.4093H279.995V68.5693H276.775ZM288.292 67.4093V74.3693H286.972L283.672 69.7693V74.3693H282.352V67.4093H283.672L286.972 71.9993V67.4093H288.292ZM293.01 74.4893C292.637 74.4893 292.24 74.4393 291.82 74.3393C291.4 74.2393 291.003 74.1026 290.63 73.9293V72.6493C291.497 73.1159 292.27 73.3493 292.95 73.3493C293.29 73.3493 293.563 73.2759 293.77 73.1293C293.983 72.9826 294.09 72.7759 294.09 72.5093C294.09 72.3226 294.03 72.1659 293.91 72.0393C293.797 71.9059 293.653 71.7993 293.48 71.7193C293.307 71.6326 293.06 71.5293 292.74 71.4093C292.307 71.2493 291.953 71.0959 291.68 70.9493C291.407 70.8026 291.173 70.5959 290.98 70.3293C290.787 70.0559 290.69 69.7059 290.69 69.2793C290.69 68.6526 290.907 68.1659 291.34 67.8193C291.773 67.4659 292.367 67.2893 293.12 67.2893C293.473 67.2893 293.82 67.3293 294.16 67.4093C294.5 67.4826 294.813 67.5926 295.1 67.7393V68.9893C294.427 68.6159 293.777 68.4293 293.15 68.4293C292.803 68.4293 292.53 68.4926 292.33 68.6193C292.137 68.7393 292.04 68.9126 292.04 69.1393C292.04 69.3659 292.14 69.5459 292.34 69.6793C292.547 69.8059 292.863 69.9459 293.29 70.0993C293.737 70.2659 294.103 70.4259 294.39 70.5793C294.677 70.7326 294.923 70.9559 295.13 71.2493C295.343 71.5359 295.457 71.9093 295.47 72.3693C295.47 73.0293 295.247 73.5493 294.8 73.9293C294.353 74.3026 293.757 74.4893 293.01 74.4893ZM299.066 68.5693V70.3093H302.066V71.3993H299.066V73.2093H302.286V74.3693H297.746V67.4093H302.286V68.5693H299.066ZM306.803 74.4893C306.43 74.4893 306.033 74.4393 305.613 74.3393C305.193 74.2393 304.796 74.1026 304.423 73.9293V72.6493C305.29 73.1159 306.063 73.3493 306.743 73.3493C307.083 73.3493 307.356 73.2759 307.563 73.1293C307.776 72.9826 307.883 72.7759 307.883 72.5093C307.883 72.3226 307.823 72.1659 307.703 72.0393C307.59 71.9059 307.446 71.7993 307.273 71.7193C307.1 71.6326 306.853 71.5293 306.533 71.4093C306.1 71.2493 305.746 71.0959 305.473 70.9493C305.2 70.8026 304.966 70.5959 304.773 70.3293C304.58 70.0559 304.483 69.7059 304.483 69.2793C304.483 68.6526 304.7 68.1659 305.133 67.8193C305.566 67.4659 306.16 67.2893 306.913 67.2893C307.266 67.2893 307.613 67.3293 307.953 67.4093C308.293 67.4826 308.606 67.5926 308.893 67.7393V68.9893C308.22 68.6159 307.57 68.4293 306.943 68.4293C306.596 68.4293 306.323 68.4926 306.123 68.6193C305.93 68.7393 305.833 68.9126 305.833 69.1393C305.833 69.3659 305.933 69.5459 306.133 69.6793C306.34 69.8059 306.656 69.9459 307.083 70.0993C307.53 70.2659 307.896 70.4259 308.183 70.5793C308.47 70.7326 308.716 70.9559 308.923 71.2493C309.136 71.5359 309.25 71.9093 309.263 72.3693C309.263 73.0293 309.04 73.5493 308.593 73.9293C308.146 74.3026 307.55 74.4893 306.803 74.4893Z" fill="#E0E0E0"/>
<ellipse cx="225.297" cy="101.369" rx="8.17424" ry="8" fill="#FFC225"/>
<g filter="url(#filter3_d_4_74)">
<path d="M252.701 101.273C253.177 101.525 253.546 101.866 253.807 102.295C254.078 102.715 254.213 103.182 254.213 103.695C254.213 104.265 254.054 104.764 253.737 105.193C253.42 105.623 252.972 105.954 252.393 106.187C251.814 106.421 251.156 106.537 250.419 106.537C249.878 106.537 249.36 106.472 248.865 106.341C248.38 106.211 247.894 106.01 247.409 105.739V103.933H247.465C248.436 104.605 249.397 104.941 250.349 104.941C250.946 104.941 251.422 104.825 251.777 104.591C252.132 104.349 252.309 104.017 252.309 103.597C252.309 103.14 252.108 102.771 251.707 102.491C251.306 102.202 250.764 102.057 250.083 102.057H249.495V100.517H250.083C250.718 100.517 251.217 100.401 251.581 100.167C251.945 99.9339 252.127 99.6119 252.127 99.2013C252.127 98.8373 251.973 98.5573 251.665 98.3613C251.366 98.1653 250.946 98.0673 250.405 98.0673C249.985 98.0673 249.56 98.1326 249.131 98.2633C248.711 98.3939 248.249 98.5993 247.745 98.8793H247.689V97.1433C248.576 96.6859 249.509 96.4573 250.489 96.4573C251.553 96.4573 252.402 96.6906 253.037 97.1573C253.681 97.6146 254.003 98.2399 254.003 99.0333C254.003 99.4999 253.886 99.9293 253.653 100.321C253.429 100.704 253.112 101.021 252.701 101.273ZM262.755 96.6253V97.5633L258.989 106.369H257.295L256.959 106.313L260.599 98.2353H256.273V96.6253H262.755ZM266.522 102.295C265.617 102.295 264.945 102.029 264.506 101.497C264.077 100.956 263.862 100.247 263.862 99.3693C263.862 98.4919 264.077 97.7873 264.506 97.2553C264.945 96.7139 265.617 96.4433 266.522 96.4433C267.428 96.4433 268.095 96.7139 268.524 97.2553C268.963 97.7873 269.182 98.4919 269.182 99.3693C269.182 100.247 268.963 100.956 268.524 101.497C268.095 102.029 267.428 102.295 266.522 102.295ZM274.404 96.6253L266.69 106.369H265.304L273.018 96.6253H274.404ZM266.522 101.091C266.905 101.091 267.19 100.933 267.376 100.615C267.563 100.289 267.656 99.8733 267.656 99.3693C267.656 98.8746 267.558 98.4639 267.362 98.1373C267.176 97.8106 266.896 97.6473 266.522 97.6473C266.149 97.6473 265.864 97.8106 265.668 98.1373C265.482 98.4639 265.388 98.8746 265.388 99.3693C265.388 99.8733 265.482 100.289 265.668 100.615C265.855 100.933 266.14 101.091 266.522 101.091ZM273.186 106.551C272.281 106.551 271.609 106.285 271.17 105.753C270.741 105.212 270.526 104.503 270.526 103.625C270.526 102.748 270.741 102.043 271.17 101.511C271.609 100.97 272.281 100.699 273.186 100.699C274.092 100.699 274.759 100.97 275.188 101.511C275.627 102.043 275.846 102.748 275.846 103.625C275.846 104.503 275.627 105.212 275.188 105.753C274.759 106.285 274.092 106.551 273.186 106.551ZM273.186 105.347C273.569 105.347 273.854 105.189 274.04 104.871C274.227 104.545 274.32 104.129 274.32 103.625C274.32 103.131 274.222 102.72 274.026 102.393C273.84 102.067 273.56 101.903 273.186 101.903C272.813 101.903 272.528 102.067 272.332 102.393C272.146 102.72 272.052 103.131 272.052 103.625C272.052 104.129 272.146 104.545 272.332 104.871C272.519 105.189 272.804 105.347 273.186 105.347Z" fill="white"/>
</g>
<path d="M251.821 123.529H248.471L247.761 125.369H246.881L249.561 118.409H250.781L253.461 125.369H252.531L251.821 123.529ZM251.531 122.779L250.151 119.179L248.761 122.779H251.531ZM258.463 125.369L258.333 124.679C258.093 124.946 257.823 125.146 257.523 125.279C257.223 125.413 256.887 125.479 256.513 125.479C255.867 125.479 255.37 125.229 255.023 124.729C254.677 124.229 254.503 123.589 254.503 122.809C254.503 122.276 254.597 121.799 254.783 121.379C254.977 120.959 255.25 120.629 255.603 120.389C255.963 120.149 256.39 120.029 256.883 120.029C257.123 120.029 257.35 120.059 257.563 120.119C257.777 120.173 258.003 120.253 258.243 120.359V117.829H259.123V124.209L259.343 125.369H258.463ZM256.653 124.669C256.973 124.669 257.257 124.606 257.503 124.479C257.757 124.346 258.003 124.153 258.243 123.899V121.029C257.817 120.883 257.393 120.809 256.973 120.809C256.487 120.809 256.11 120.996 255.843 121.369C255.583 121.736 255.453 122.209 255.453 122.789C255.453 123.343 255.547 123.796 255.733 124.149C255.927 124.496 256.233 124.669 256.653 124.669ZM263.33 125.489C262.943 125.489 262.54 125.439 262.12 125.339C261.7 125.239 261.303 125.103 260.93 124.929V123.979C261.37 124.219 261.777 124.396 262.15 124.509C262.53 124.623 262.903 124.679 263.27 124.679C263.73 124.679 264.087 124.576 264.34 124.369C264.593 124.163 264.72 123.879 264.72 123.519C264.72 123.273 264.65 123.066 264.51 122.899C264.37 122.733 264.193 122.599 263.98 122.499C263.767 122.399 263.48 122.289 263.12 122.169C262.687 122.023 262.337 121.883 262.07 121.749C261.81 121.616 261.587 121.426 261.4 121.179C261.213 120.933 261.12 120.613 261.12 120.219C261.12 119.633 261.333 119.166 261.76 118.819C262.187 118.466 262.76 118.289 263.48 118.289C264.18 118.289 264.823 118.439 265.41 118.739V119.659C264.75 119.286 264.107 119.099 263.48 119.099C263.02 119.099 262.66 119.193 262.4 119.379C262.14 119.559 262.01 119.809 262.01 120.129C262.01 120.349 262.077 120.533 262.21 120.679C262.343 120.826 262.507 120.946 262.7 121.039C262.893 121.126 263.167 121.233 263.52 121.359C263.96 121.506 264.32 121.649 264.6 121.789C264.88 121.929 265.117 122.133 265.31 122.399C265.51 122.666 265.61 123.009 265.61 123.429C265.61 123.843 265.517 124.206 265.33 124.519C265.143 124.826 264.877 125.066 264.53 125.239C264.183 125.406 263.783 125.489 263.33 125.489ZM271.686 123.049H267.986C268.04 123.563 268.21 123.973 268.496 124.279C268.79 124.579 269.186 124.729 269.686 124.729C269.986 124.729 270.276 124.669 270.556 124.549C270.843 124.423 271.133 124.239 271.426 123.999H271.466V124.879C271.173 125.093 270.883 125.249 270.596 125.349C270.31 125.443 270.003 125.489 269.676 125.489C269.143 125.489 268.68 125.373 268.286 125.139C267.893 124.906 267.59 124.583 267.376 124.169C267.17 123.749 267.066 123.269 267.066 122.729C267.066 122.216 267.16 121.756 267.346 121.349C267.54 120.936 267.813 120.613 268.166 120.379C268.52 120.146 268.933 120.029 269.406 120.029C269.886 120.029 270.296 120.149 270.636 120.389C270.983 120.623 271.243 120.946 271.416 121.359C271.596 121.773 271.686 122.239 271.686 122.759V123.049ZM269.416 120.759C269.003 120.759 268.673 120.909 268.426 121.209C268.18 121.509 268.033 121.896 267.986 122.369H270.776C270.73 121.883 270.593 121.493 270.366 121.199C270.146 120.906 269.83 120.759 269.416 120.759ZM276.053 120.029C276.546 120.029 276.919 120.183 277.173 120.489C277.426 120.789 277.553 121.209 277.553 121.749V125.369H276.673V121.869C276.673 121.536 276.603 121.279 276.463 121.099C276.323 120.913 276.109 120.819 275.823 120.819C275.496 120.819 275.219 120.873 274.993 120.979C274.773 121.086 274.526 121.259 274.253 121.499V125.369H273.373V121.309L273.153 120.149H274.033L274.173 120.879C274.486 120.579 274.776 120.363 275.043 120.229C275.316 120.096 275.653 120.029 276.053 120.029ZM280.959 125.489C280.639 125.489 280.322 125.443 280.009 125.349C279.702 125.249 279.412 125.109 279.139 124.929V124.009C279.746 124.476 280.346 124.709 280.939 124.709C281.286 124.709 281.566 124.639 281.779 124.499C281.992 124.353 282.099 124.159 282.099 123.919C282.099 123.753 282.046 123.616 281.939 123.509C281.839 123.403 281.712 123.319 281.559 123.259C281.406 123.199 281.186 123.126 280.899 123.039C280.546 122.939 280.252 122.843 280.019 122.749C279.792 122.649 279.599 122.506 279.439 122.319C279.279 122.126 279.199 121.876 279.199 121.569C279.199 121.103 279.376 120.729 279.729 120.449C280.082 120.169 280.546 120.029 281.119 120.029C281.692 120.029 282.212 120.179 282.679 120.479V121.369C282.419 121.169 282.166 121.026 281.919 120.939C281.679 120.853 281.426 120.809 281.159 120.809C280.826 120.809 280.562 120.869 280.369 120.989C280.176 121.109 280.079 121.276 280.079 121.489C280.079 121.643 280.129 121.769 280.229 121.869C280.336 121.969 280.466 122.049 280.619 122.109C280.772 122.169 280.992 122.243 281.279 122.329C281.639 122.436 281.932 122.539 282.159 122.639C282.386 122.733 282.579 122.879 282.739 123.079C282.899 123.273 282.979 123.526 282.979 123.839C282.979 124.159 282.892 124.446 282.719 124.699C282.546 124.946 282.306 125.139 281.999 125.279C281.692 125.419 281.346 125.489 280.959 125.489ZM288.779 123.049H285.079C285.132 123.563 285.302 123.973 285.589 124.279C285.882 124.579 286.279 124.729 286.779 124.729C287.079 124.729 287.369 124.669 287.649 124.549C287.936 124.423 288.226 124.239 288.519 123.999H288.559V124.879C288.266 125.093 287.976 125.249 287.689 125.349C287.402 125.443 287.096 125.489 286.769 125.489C286.236 125.489 285.772 125.373 285.379 125.139C284.986 124.906 284.682 124.583 284.469 124.169C284.262 123.749 284.159 123.269 284.159 122.729C284.159 122.216 284.252 121.756 284.439 121.349C284.632 120.936 284.906 120.613 285.259 120.379C285.612 120.146 286.026 120.029 286.499 120.029C286.979 120.029 287.389 120.149 287.729 120.389C288.076 120.623 288.336 120.946 288.509 121.359C288.689 121.773 288.779 122.239 288.779 122.759V123.049ZM286.509 120.759C286.096 120.759 285.766 120.909 285.519 121.209C285.272 121.509 285.126 121.896 285.079 122.369H287.869C287.822 121.883 287.686 121.493 287.459 121.199C287.239 120.906 286.922 120.759 286.509 120.759Z" fill="#E0E0E0"/>
<ellipse cx="225.297" cy="150.369" rx="8.17424" ry="8" fill="#70C1DB"/>
<g filter="url(#filter4_d_4_74)">
<path d="M252.701 150.273C253.177 150.525 253.546 150.866 253.807 151.295C254.078 151.715 254.213 152.182 254.213 152.695C254.213 153.265 254.054 153.764 253.737 154.193C253.42 154.623 252.972 154.954 252.393 155.187C251.814 155.421 251.156 155.537 250.419 155.537C249.878 155.537 249.36 155.472 248.865 155.341C248.38 155.211 247.894 155.01 247.409 154.739V152.933H247.465C248.436 153.605 249.397 153.941 250.349 153.941C250.946 153.941 251.422 153.825 251.777 153.591C252.132 153.349 252.309 153.017 252.309 152.597C252.309 152.14 252.108 151.771 251.707 151.491C251.306 151.202 250.764 151.057 250.083 151.057H249.495V149.517H250.083C250.718 149.517 251.217 149.401 251.581 149.167C251.945 148.934 252.127 148.612 252.127 148.201C252.127 147.837 251.973 147.557 251.665 147.361C251.366 147.165 250.946 147.067 250.405 147.067C249.985 147.067 249.56 147.133 249.131 147.263C248.711 147.394 248.249 147.599 247.745 147.879H247.689V146.143C248.576 145.686 249.509 145.457 250.489 145.457C251.553 145.457 252.402 145.691 253.037 146.157C253.681 146.615 254.003 147.24 254.003 148.033C254.003 148.5 253.886 148.929 253.653 149.321C253.429 149.704 253.112 150.021 252.701 150.273ZM261.243 150.273C261.719 150.525 262.087 150.866 262.349 151.295C262.619 151.715 262.755 152.182 262.755 152.695C262.755 153.265 262.596 153.764 262.279 154.193C261.961 154.623 261.513 154.954 260.935 155.187C260.356 155.421 259.698 155.537 258.961 155.537C258.419 155.537 257.901 155.472 257.407 155.341C256.921 155.211 256.436 155.01 255.951 154.739V152.933H256.007C256.977 153.605 257.939 153.941 258.891 153.941C259.488 153.941 259.964 153.825 260.319 153.591C260.673 153.349 260.851 153.017 260.851 152.597C260.851 152.14 260.65 151.771 260.249 151.491C259.847 151.202 259.306 151.057 258.625 151.057H258.037V149.517H258.625C259.259 149.517 259.759 149.401 260.123 149.167C260.487 148.934 260.669 148.612 260.669 148.201C260.669 147.837 260.515 147.557 260.207 147.361C259.908 147.165 259.488 147.067 258.947 147.067C258.527 147.067 258.102 147.133 257.673 147.263C257.253 147.394 256.791 147.599 256.287 147.879H256.231V146.143C257.117 145.686 258.051 145.457 259.031 145.457C260.095 145.457 260.944 145.691 261.579 146.157C262.223 146.615 262.545 147.24 262.545 148.033C262.545 148.5 262.428 148.929 262.195 149.321C261.971 149.704 261.653 150.021 261.243 150.273ZM266.522 151.295C265.617 151.295 264.945 151.029 264.506 150.497C264.077 149.956 263.862 149.247 263.862 148.369C263.862 147.492 264.077 146.787 264.506 146.255C264.945 145.714 265.617 145.443 266.522 145.443C267.428 145.443 268.095 145.714 268.524 146.255C268.963 146.787 269.182 147.492 269.182 148.369C269.182 149.247 268.963 149.956 268.524 150.497C268.095 151.029 267.428 151.295 266.522 151.295ZM274.404 145.625L266.69 155.369H265.304L273.018 145.625H274.404ZM266.522 150.091C266.905 150.091 267.19 149.933 267.376 149.615C267.563 149.289 267.656 148.873 267.656 148.369C267.656 147.875 267.558 147.464 267.362 147.137C267.176 146.811 266.896 146.647 266.522 146.647C266.149 146.647 265.864 146.811 265.668 147.137C265.482 147.464 265.388 147.875 265.388 148.369C265.388 148.873 265.482 149.289 265.668 149.615C265.855 149.933 266.14 150.091 266.522 150.091ZM273.186 155.551C272.281 155.551 271.609 155.285 271.17 154.753C270.741 154.212 270.526 153.503 270.526 152.625C270.526 151.748 270.741 151.043 271.17 150.511C271.609 149.97 272.281 149.699 273.186 149.699C274.092 149.699 274.759 149.97 275.188 150.511C275.627 151.043 275.846 151.748 275.846 152.625C275.846 153.503 275.627 154.212 275.188 154.753C274.759 155.285 274.092 155.551 273.186 155.551ZM273.186 154.347C273.569 154.347 273.854 154.189 274.04 153.871C274.227 153.545 274.32 153.129 274.32 152.625C274.32 152.131 274.222 151.72 274.026 151.393C273.84 151.067 273.56 150.903 273.186 150.903C272.813 150.903 272.528 151.067 272.332 151.393C272.146 151.72 272.052 152.131 272.052 152.625C272.052 153.129 272.146 153.545 272.332 153.871C272.519 154.189 272.804 154.347 273.186 154.347Z" fill="white"/>
</g>
<path d="M247.721 167.409H249.981C251.714 167.409 252.581 168.169 252.581 169.689C252.581 170.456 252.364 171.043 251.931 171.449C251.504 171.849 250.878 172.049 250.051 172.049H248.601V174.369H247.721V167.409ZM250.021 171.229C250.594 171.229 251.004 171.113 251.251 170.879C251.504 170.646 251.631 170.263 251.631 169.729C251.631 169.196 251.504 168.816 251.251 168.589C251.004 168.363 250.581 168.249 249.981 168.249H248.601V171.229H250.021ZM257.223 174.369L257.083 173.619C256.823 173.906 256.539 174.123 256.233 174.269C255.933 174.416 255.593 174.489 255.213 174.489C254.739 174.489 254.356 174.356 254.063 174.089C253.769 173.816 253.623 173.456 253.623 173.009C253.623 172.429 253.856 172.003 254.323 171.729C254.789 171.456 255.389 171.319 256.123 171.319C256.389 171.319 256.683 171.336 257.003 171.369V171.009C257.003 170.649 256.903 170.363 256.703 170.149C256.509 169.929 256.256 169.819 255.943 169.819C255.569 169.819 255.229 169.869 254.923 169.969C254.623 170.069 254.313 170.226 253.993 170.439V169.589C254.306 169.383 254.626 169.239 254.953 169.159C255.279 169.073 255.653 169.029 256.073 169.029C256.606 169.029 257.039 169.199 257.373 169.539C257.713 169.879 257.883 170.329 257.883 170.889V173.209L258.103 174.369H257.223ZM255.393 173.749C255.713 173.749 255.999 173.683 256.253 173.549C256.506 173.416 256.756 173.223 257.003 172.969V171.989H256.083C255.076 171.989 254.573 172.313 254.573 172.959C254.573 173.199 254.649 173.393 254.803 173.539C254.956 173.679 255.153 173.749 255.393 173.749ZM264.003 169.149L261.013 176.689H260.113L261.013 174.429L258.943 169.149H259.843L261.473 173.429L263.063 169.149H264.003ZM267.789 169.029V169.999H267.639C267.326 169.999 267.042 170.056 266.789 170.169C266.542 170.283 266.336 170.446 266.169 170.659V174.369H265.289V170.309L265.069 169.149H265.949L266.129 170.079C266.402 169.679 266.632 169.406 266.819 169.259C267.012 169.106 267.232 169.029 267.479 169.029H267.789ZM271.273 174.489C270.513 174.489 269.92 174.243 269.493 173.749C269.066 173.249 268.853 172.586 268.853 171.759C268.853 170.933 269.066 170.273 269.493 169.779C269.92 169.279 270.513 169.029 271.273 169.029C272.033 169.029 272.626 169.279 273.053 169.779C273.48 170.273 273.693 170.933 273.693 171.759C273.693 172.586 273.48 173.249 273.053 173.749C272.626 174.243 272.033 174.489 271.273 174.489ZM271.273 173.729C271.76 173.729 272.126 173.549 272.373 173.189C272.62 172.829 272.743 172.353 272.743 171.759C272.743 171.166 272.62 170.689 272.373 170.329C272.126 169.969 271.76 169.789 271.273 169.789C270.786 169.789 270.42 169.969 270.173 170.329C269.933 170.689 269.813 171.166 269.813 171.759C269.813 172.353 269.933 172.829 270.173 173.189C270.42 173.549 270.786 173.729 271.273 173.729ZM275.33 166.829H276.21V174.369H275.33V166.829ZM278.032 166.829H278.912V174.369H278.032V166.829Z" fill="#E0E0E0"/>
<ellipse cx="225.297" cy="199.369" rx="8.17424" ry="8" fill="#BC7CE4"/>
<g filter="url(#filter5_d_4_74)">
<path d="M252.701 199.273C253.177 199.525 253.546 199.866 253.807 200.295C254.078 200.715 254.213 201.182 254.213 201.695C254.213 202.265 254.054 202.764 253.737 203.193C253.42 203.623 252.972 203.954 252.393 204.187C251.814 204.421 251.156 204.537 250.419 204.537C249.878 204.537 249.36 204.472 248.865 204.341C248.38 204.211 247.894 204.01 247.409 203.739V201.933H247.465C248.436 202.605 249.397 202.941 250.349 202.941C250.946 202.941 251.422 202.825 251.777 202.591C252.132 202.349 252.309 202.017 252.309 201.597C252.309 201.14 252.108 200.771 251.707 200.491C251.306 200.202 250.764 200.057 250.083 200.057H249.495V198.517H250.083C250.718 198.517 251.217 198.401 251.581 198.167C251.945 197.934 252.127 197.612 252.127 197.201C252.127 196.837 251.973 196.557 251.665 196.361C251.366 196.165 250.946 196.067 250.405 196.067C249.985 196.067 249.56 196.133 249.131 196.263C248.711 196.394 248.249 196.599 247.745 196.879H247.689V195.143C248.576 194.686 249.509 194.457 250.489 194.457C251.553 194.457 252.402 194.691 253.037 195.157C253.681 195.615 254.003 196.24 254.003 197.033C254.003 197.5 253.886 197.929 253.653 198.321C253.429 198.704 253.112 199.021 252.701 199.273ZM259.353 204.537C258.037 204.537 257.066 204.08 256.441 203.165C255.815 202.241 255.503 201.019 255.503 199.497C255.503 197.976 255.815 196.758 256.441 195.843C257.066 194.919 258.037 194.457 259.353 194.457C260.669 194.457 261.639 194.919 262.265 195.843C262.89 196.758 263.203 197.976 263.203 199.497C263.203 201.019 262.89 202.241 262.265 203.165C261.639 204.08 260.669 204.537 259.353 204.537ZM259.353 202.955C260.025 202.955 260.51 202.638 260.809 202.003C261.107 201.369 261.257 200.533 261.257 199.497C261.257 198.461 261.107 197.626 260.809 196.991C260.51 196.357 260.025 196.039 259.353 196.039C258.681 196.039 258.195 196.357 257.897 196.991C257.598 197.626 257.449 198.461 257.449 199.497C257.449 200.533 257.598 201.369 257.897 202.003C258.195 202.638 258.681 202.955 259.353 202.955ZM266.522 200.295C265.617 200.295 264.945 200.029 264.506 199.497C264.077 198.956 263.862 198.247 263.862 197.369C263.862 196.492 264.077 195.787 264.506 195.255C264.945 194.714 265.617 194.443 266.522 194.443C267.428 194.443 268.095 194.714 268.524 195.255C268.963 195.787 269.182 196.492 269.182 197.369C269.182 198.247 268.963 198.956 268.524 199.497C268.095 200.029 267.428 200.295 266.522 200.295ZM274.404 194.625L266.69 204.369H265.304L273.018 194.625H274.404ZM266.522 199.091C266.905 199.091 267.19 198.933 267.376 198.615C267.563 198.289 267.656 197.873 267.656 197.369C267.656 196.875 267.558 196.464 267.362 196.137C267.176 195.811 266.896 195.647 266.522 195.647C266.149 195.647 265.864 195.811 265.668 196.137C265.482 196.464 265.388 196.875 265.388 197.369C265.388 197.873 265.482 198.289 265.668 198.615C265.855 198.933 266.14 199.091 266.522 199.091ZM273.186 204.551C272.281 204.551 271.609 204.285 271.17 203.753C270.741 203.212 270.526 202.503 270.526 201.625C270.526 200.748 270.741 200.043 271.17 199.511C271.609 198.97 272.281 198.699 273.186 198.699C274.092 198.699 274.759 198.97 275.188 199.511C275.627 200.043 275.846 200.748 275.846 201.625C275.846 202.503 275.627 203.212 275.188 203.753C274.759 204.285 274.092 204.551 273.186 204.551ZM273.186 203.347C273.569 203.347 273.854 203.189 274.04 202.871C274.227 202.545 274.32 202.129 274.32 201.625C274.32 201.131 274.222 200.72 274.026 200.393C273.84 200.067 273.56 199.903 273.186 199.903C272.813 199.903 272.528 200.067 272.332 200.393C272.146 200.72 272.052 201.131 272.052 201.625C272.052 202.129 272.146 202.545 272.332 202.871C272.519 203.189 272.804 203.347 273.186 203.347Z" fill="white"/>
</g>
<path d="M251.711 223.369L250.301 220.639H250.201H248.601V223.369H247.721V216.409H250.081C250.914 216.409 251.534 216.586 251.941 216.939C252.348 217.286 252.551 217.796 252.551 218.469C252.551 218.969 252.441 219.393 252.221 219.739C252.001 220.086 251.678 220.333 251.251 220.479L252.771 223.369H251.711ZM250.091 219.809C250.611 219.809 250.991 219.709 251.231 219.509C251.478 219.303 251.601 218.956 251.601 218.469C251.601 218.023 251.478 217.709 251.231 217.529C250.991 217.343 250.608 217.249 250.081 217.249H248.601V219.809H250.091ZM258.693 221.049H254.993C255.046 221.563 255.216 221.973 255.503 222.279C255.796 222.579 256.193 222.729 256.693 222.729C256.993 222.729 257.283 222.669 257.563 222.549C257.85 222.423 258.14 222.239 258.433 221.999H258.473V222.879C258.18 223.093 257.89 223.249 257.603 223.349C257.316 223.443 257.01 223.489 256.683 223.489C256.15 223.489 255.686 223.373 255.293 223.139C254.9 222.906 254.596 222.583 254.383 222.169C254.176 221.749 254.073 221.269 254.073 220.729C254.073 220.216 254.166 219.756 254.353 219.349C254.546 218.936 254.82 218.613 255.173 218.379C255.526 218.146 255.94 218.029 256.413 218.029C256.893 218.029 257.303 218.149 257.643 218.389C257.99 218.623 258.25 218.946 258.423 219.359C258.603 219.773 258.693 220.239 258.693 220.759V221.049ZM256.423 218.759C256.01 218.759 255.68 218.909 255.433 219.209C255.186 219.509 255.04 219.896 254.993 220.369H257.783C257.736 219.883 257.6 219.493 257.373 219.199C257.153 218.906 256.836 218.759 256.423 218.759ZM263.059 218.029C263.552 218.029 263.926 218.183 264.179 218.489C264.432 218.789 264.559 219.209 264.559 219.749V223.369H263.679V219.869C263.679 219.536 263.609 219.279 263.469 219.099C263.329 218.913 263.116 218.819 262.829 218.819C262.502 218.819 262.226 218.873 261.999 218.979C261.779 219.086 261.532 219.259 261.259 219.499V223.369H260.379V219.309L260.159 218.149H261.039L261.179 218.879C261.492 218.579 261.782 218.363 262.049 218.229C262.322 218.096 262.659 218.029 263.059 218.029ZM267.696 218.149H269.136V218.909H267.696V221.899C267.696 222.146 267.749 222.346 267.856 222.499C267.969 222.646 268.132 222.719 268.346 222.719C268.492 222.719 268.622 222.706 268.736 222.679C268.856 222.646 268.989 222.596 269.136 222.529V223.309C268.982 223.383 268.836 223.429 268.696 223.449C268.556 223.476 268.386 223.489 268.186 223.489C267.759 223.489 267.422 223.353 267.176 223.079C266.936 222.806 266.816 222.443 266.816 221.989V218.909H265.816V218.149H266.816V216.749L267.696 216.289V218.149Z" fill="#E0E0E0"/>
<defs>
<filter id="filter0_d_4_74" x="14.9064" y="17.1133" width="181.115" height="32.16" filterUnits="userSpaceOnUse" color-interpolation-filters="sRGB">
<feFlood flood-opacity="0" result="BackgroundImageFix"/>
<feColorMatrix in="SourceAlpha" type="matrix" values="0 0 0 0 0 0 0 0 0 0 0 0 0 0 0 0 0 0 127 0" result="hardAlpha"/>
<feOffset dx="1" dy="2"/>
<feGaussianBlur stdDeviation="4"/>
<feComposite in2="hardAlpha" operator="out"/>
<feColorMatrix type="matrix" values="0 0 0 0 0 0 0 0 0 0 0 0 0 0 0 0 0 0 0.15 0"/>
<feBlend mode="normal" in2="BackgroundImageFix" result="effect1_dropShadow_4_74"/>
<feBlend mode="normal" in="SourceGraphic" in2="effect1_dropShadow_4_74" result="shape"/>
</filter>
<filter id="filter1_d_4_74" x="71.4934" y="119.001" width="60.4201" height="29.468" filterUnits="userSpaceOnUse" color-interpolation-filters="sRGB">
<feFlood flood-opacity="0" result="BackgroundImageFix"/>
<feColorMatrix in="SourceAlpha" type="matrix" values="0 0 0 0 0 0 0 0 0 0 0 0 0 0 0 0 0 0 127 0" result="hardAlpha"/>
<feOffset dx="1" dy="2"/>
<feGaussianBlur stdDeviation="4"/>
<feComposite in2="hardAlpha" operator="out"/>
<feColorMatrix type="matrix" values="0 0 0 0 0 0 0 0 0 0 0 0 0 0 0 0 0 0 0.15 0"/>
<feBlend mode="normal" in2="BackgroundImageFix" result="effect1_dropShadow_4_74"/>
<feBlend mode="normal" in="SourceGraphic" in2="effect1_dropShadow_4_74" result="shape"/>
</filter>
<filter id="filter2_d_4_74" x="66.4374" y="139.829" width="70.793" height="25.86" filterUnits="userSpaceOnUse" color-interpolation-filters="sRGB">
<feFlood flood-opacity="0" result="BackgroundImageFix"/>
<feColorMatrix in="SourceAlpha" type="matrix" values="0 0 0 0 0 0 0 0 0 0 0 0 0 0 0 0 0 0 127 0" result="hardAlpha"/>
<feOffset dx="1" dy="2"/>
<feGaussianBlur stdDeviation="4"/>
<feComposite in2="hardAlpha" operator="out"/>
<feColorMatrix type="matrix" values="0 0 0 0 0 0 0 0 0 0 0 0 0 0 0 0 0 0 0.15 0"/>
<feBlend mode="normal" in2="BackgroundImageFix" result="effect1_dropShadow_4_74"/>
<feBlend mode="normal" in="SourceGraphic" in2="effect1_dropShadow_4_74" result="shape"/>
</filter>
<filter id="filter3_d_4_74" x="240.409" y="90.4433" width="44.4373" height="26.108" filterUnits="userSpaceOnUse" color-interpolation-filters="sRGB">
<feFlood flood-opacity="0" result="BackgroundImageFix"/>
<feColorMatrix in="SourceAlpha" type="matrix" values="0 0 0 0 0 0 0 0 0 0 0 0 0 0 0 0 0 0 127 0" result="hardAlpha"/>
<feOffset dx="1" dy="2"/>
<feGaussianBlur stdDeviation="4"/>
<feComposite in2="hardAlpha" operator="out"/>
<feColorMatrix type="matrix" values="0 0 0 0 0 0 0 0 0 0 0 0 0 0 0 0 0 0 0.15 0"/>
<feBlend mode="normal" in2="BackgroundImageFix" result="effect1_dropShadow_4_74"/>
<feBlend mode="normal" in="SourceGraphic" in2="effect1_dropShadow_4_74" result="shape"/>
</filter>
<filter id="filter4_d_4_74" x="240.409" y="139.443" width="44.4373" height="26.108" filterUnits="userSpaceOnUse" color-interpolation-filters="sRGB">
<feFlood flood-opacity="0" result="BackgroundImageFix"/>
<feColorMatrix in="SourceAlpha" type="matrix" values="0 0 0 0 0 0 0 0 0 0 0 0 0 0 0 0 0 0 127 0" result="hardAlpha"/>
<feOffset dx="1" dy="2"/>
<feGaussianBlur stdDeviation="4"/>
<feComposite in2="hardAlpha" operator="out"/>
<feColorMatrix type="matrix" values="0 0 0 0 0 0 0 0 0 0 0 0 0 0 0 0 0 0 0.15 0"/>
<feBlend mode="normal" in2="BackgroundImageFix" result="effect1_dropShadow_4_74"/>
<feBlend mode="normal" in="SourceGraphic" in2="effect1_dropShadow_4_74" result="shape"/>
</filter>
<filter id="filter5_d_4_74" x="240.409" y="188.443" width="44.4373" height="26.108" filterUnits="userSpaceOnUse" color-interpolation-filters="sRGB">
<feFlood flood-opacity="0" result="BackgroundImageFix"/>
<feColorMatrix in="SourceAlpha" type="matrix" values="0 0 0 0 0 0 0 0 0 0 0 0 0 0 0 0 0 0 127 0" result="hardAlpha"/>
<feOffset dx="1" dy="2"/>
<feGaussianBlur stdDeviation="4"/>
<feComposite in2="hardAlpha" operator="out"/>
<feColorMatrix type="matrix" values="0 0 0 0 0 0 0 0 0 0 0 0 0 0 0 0 0 0 0.15 0"/>
<feBlend mode="normal" in2="BackgroundImageFix" result="effect1_dropShadow_4_74"/>
<feBlend mode="normal" in="SourceGraphic" in2="effect1_dropShadow_4_74" result="shape"/>
</filter>
</defs>
</svg>
