<svg width="382" height="359" viewBox="0 0 382 359" fill="none" xmlns="http://www.w3.org/2000/svg">
<rect width="382" height="359" rx="8" fill="#080811"/>
<g clip-path="url(#clip0_2_193)">
<rect x="16" y="20" width="42" height="27" rx="13.5" fill="#FFC635"/>
<path d="M35.2585 34.788H31.1005L30.2885 37H28.4405L32.1365 27.256H34.2925L37.9885 37H36.0705L35.2585 34.788ZM34.6845 33.22L33.1865 29.076L31.6745 33.22H34.6845ZM39.2938 26.444H41.1418V37H39.2938V26.444ZM43.0776 26.444H44.9256V37H43.0776V26.444Z" fill="#212427"/>
<rect x="69.5" y="20.5" width="90" height="26" rx="13" stroke="#A3A3A3"/>
<path d="M90.304 31.6927C91.1399 32.2924 92.1641 32.6453 93.2701 32.6453V30.5093C93.0608 30.5093 92.852 30.4874 92.6472 30.4439V32.1252C91.5412 32.1252 90.5172 31.7724 89.681 31.1727V35.5317C89.681 37.7123 87.9196 39.48 85.7468 39.48C84.9361 39.48 84.1826 39.234 83.5567 38.8122C84.2711 39.5452 85.2674 40 86.3696 40C88.5425 40 90.304 38.2324 90.304 36.0517V31.6927H90.304V31.6927ZM91.0724 29.5377C90.6452 29.0693 90.3646 28.464 90.304 27.7947V27.52H89.7136C89.8622 28.3706 90.369 29.0973 91.0724 29.5377ZM84.9309 37.1388C84.6922 36.8247 84.5633 36.4405 84.5638 36.0454C84.5638 35.0481 85.3695 34.2395 86.3635 34.2395C86.5487 34.2394 86.7329 34.2679 86.9094 34.3241V32.1403C86.7031 32.1119 86.4949 32.0999 86.2868 32.1043V33.8041C86.1101 33.7478 85.9259 33.7193 85.7406 33.7195C84.7466 33.7195 83.941 34.528 83.941 35.5255C83.941 36.2308 84.3437 36.8414 84.9309 37.1388Z" fill="#FF004F"/>
<path d="M89.681 31.1726C90.5172 31.7723 91.5412 32.1252 92.6472 32.1252V30.4438C92.0298 30.3118 91.4833 29.9881 91.0724 29.5377C90.369 29.0972 89.8622 28.3705 89.7136 27.52H88.163V36.0516C88.1595 37.0462 87.3552 37.8515 86.3634 37.8515C85.7789 37.8515 85.2596 37.5719 84.9308 37.1388C84.3435 36.8414 83.9408 36.2307 83.9408 35.5255C83.9408 34.5282 84.7465 33.7195 85.7405 33.7195C85.9309 33.7195 86.1145 33.7493 86.2866 33.8041V32.1043C84.1521 32.1486 82.4354 33.8989 82.4354 36.0516C82.4354 37.1262 82.8629 38.1004 83.5567 38.8122C84.1826 39.234 84.9362 39.48 85.7469 39.48C87.9196 39.48 89.681 37.7123 89.681 35.5317V31.1726H89.681Z" fill="#212427"/>
<path d="M92.6472 30.4438V29.9892C92.0905 29.99 91.5447 29.8336 91.0724 29.5377C91.4905 29.9971 92.0411 30.3138 92.6472 30.4438ZM89.7136 27.52C89.6995 27.4387 89.6886 27.3569 89.681 27.2747V27H87.5401V35.5317C87.5367 36.5262 86.7324 37.3315 85.7405 37.3315C85.4492 37.3315 85.1743 37.2621 84.9308 37.1389C85.2596 37.5719 85.7789 37.8515 86.3634 37.8515C87.3552 37.8515 88.1596 37.0462 88.1631 36.0516V27.52H89.7136ZM86.2867 32.1043V31.6204C86.1079 31.5958 85.9275 31.5835 85.7469 31.5836C83.574 31.5836 81.8125 33.3513 81.8125 35.5317C81.8125 36.8987 82.5048 38.1034 83.5568 38.8121C82.8629 38.1004 82.4354 37.1262 82.4354 36.0516C82.4354 33.8989 84.1521 32.1486 86.2867 32.1043Z" fill="#00F2EA"/>
<path d="M106.115 28.488H103.175V27.256H110.287V28.488H107.347V37H106.115V28.488ZM113.026 28.04C112.765 28.04 112.55 27.956 112.382 27.788C112.224 27.62 112.144 27.4053 112.144 27.144C112.144 26.8827 112.224 26.668 112.382 26.5C112.55 26.332 112.765 26.248 113.026 26.248C113.288 26.248 113.498 26.332 113.656 26.5C113.824 26.668 113.908 26.8827 113.908 27.144C113.908 27.4053 113.824 27.62 113.656 27.788C113.498 27.956 113.288 28.04 113.026 28.04ZM113.642 29.692V37H112.41V29.692H113.642ZM118.784 33.584L117.636 34.872V37H116.404V26.444H117.636V33.262L120.828 29.692H122.284L119.61 32.674L122.452 37H120.94L118.784 33.584ZM126.695 28.488H123.755V27.256H130.867V28.488H127.927V37H126.695V28.488ZM135.292 37.168C134.228 37.168 133.398 36.8227 132.8 36.132C132.203 35.432 131.904 34.5033 131.904 33.346C131.904 32.1887 132.203 31.2647 132.8 30.574C133.398 29.874 134.228 29.524 135.292 29.524C136.356 29.524 137.187 29.874 137.784 30.574C138.382 31.2647 138.68 32.1887 138.68 33.346C138.68 34.5033 138.382 35.432 137.784 36.132C137.187 36.8227 136.356 37.168 135.292 37.168ZM135.292 36.104C135.974 36.104 136.487 35.852 136.832 35.348C137.178 34.844 137.35 34.1767 137.35 33.346C137.35 32.5153 137.178 31.848 136.832 31.344C136.487 30.84 135.974 30.588 135.292 30.588C134.611 30.588 134.098 30.84 133.752 31.344C133.416 31.848 133.248 32.5153 133.248 33.346C133.248 34.1767 133.416 34.844 133.752 35.348C134.098 35.852 134.611 36.104 135.292 36.104ZM143.562 33.584L142.414 34.872V37H141.182V26.444H142.414V33.262L145.606 29.692H147.062L144.388 32.674L147.23 37H145.718L143.562 33.584Z" fill="#E0E0E0"/>
<rect x="171.5" y="20.5" width="113" height="26" rx="13" stroke="#A3A3A3"/>
<g clip-path="url(#clip1_2_193)">
<path d="M198 33.5C198 29.3579 194.642 26 190.5 26C186.358 26 183 29.3579 183 33.5C183 37.0172 185.422 39.9686 188.688 40.7792V35.792H187.142V33.5H188.688V32.5124C188.688 29.9597 189.844 28.7765 192.35 28.7765C192.825 28.7765 193.645 28.8698 193.98 28.9628V31.0403C193.803 31.0217 193.496 31.0124 193.114 31.0124C191.884 31.0124 191.409 31.4783 191.409 32.6894V33.5H193.859L193.438 35.792H191.409V40.9451C195.123 40.4966 198 37.3346 198 33.5H198Z" fill="#0866FF"/>
<path d="M193.438 35.792L193.859 33.5H191.409V32.6894C191.409 31.4783 191.884 31.0124 193.114 31.0124C193.495 31.0124 193.803 31.0217 193.98 31.0403V28.9628C193.645 28.8695 192.825 28.7765 192.349 28.7765C189.843 28.7765 188.688 29.9597 188.688 32.5124V33.5H187.141V35.792H188.688V40.7792C189.268 40.9232 189.875 41 190.5 41C190.807 41 191.11 40.9811 191.408 40.9451V35.792H193.437H193.438Z" fill="#A3A3A3"/>
</g>
<path d="M209.38 28.432V31.68H212.908V32.8H209.38V37H208.148V27.256H213.832V28.432H209.38ZM220.329 37L220.133 35.95C219.769 36.3513 219.373 36.6547 218.943 36.86C218.523 37.0653 218.047 37.168 217.515 37.168C216.853 37.168 216.316 36.9813 215.905 36.608C215.495 36.2253 215.289 35.7213 215.289 35.096C215.289 34.284 215.616 33.6867 216.269 33.304C216.923 32.9213 217.763 32.73 218.789 32.73C219.163 32.73 219.573 32.7533 220.021 32.8V32.296C220.021 31.792 219.881 31.3907 219.601 31.092C219.331 30.784 218.976 30.63 218.537 30.63C218.015 30.63 217.539 30.7 217.109 30.84C216.689 30.98 216.255 31.1993 215.807 31.498V30.308C216.246 30.0187 216.694 29.818 217.151 29.706C217.609 29.5847 218.131 29.524 218.719 29.524C219.466 29.524 220.073 29.762 220.539 30.238C221.015 30.714 221.253 31.344 221.253 32.128V35.376L221.561 37H220.329ZM217.767 36.132C218.215 36.132 218.617 36.0387 218.971 35.852C219.326 35.6653 219.676 35.3947 220.021 35.04V33.668H218.733C217.324 33.668 216.619 34.1207 216.619 35.026C216.619 35.362 216.727 35.6327 216.941 35.838C217.156 36.034 217.431 36.132 217.767 36.132ZM226.56 37.168C225.879 37.168 225.282 37.0047 224.768 36.678C224.255 36.3513 223.863 35.9033 223.592 35.334C223.322 34.7553 223.186 34.102 223.186 33.374C223.186 32.6367 223.322 31.9787 223.592 31.4C223.863 30.812 224.255 30.3547 224.768 30.028C225.282 29.692 225.884 29.524 226.574 29.524C227.06 29.524 227.484 29.5753 227.848 29.678C228.212 29.7807 228.558 29.9673 228.884 30.238V31.428H228.828C228.492 31.148 228.142 30.9473 227.778 30.826C227.424 30.7047 227.018 30.644 226.56 30.644C225.898 30.644 225.384 30.9007 225.02 31.414C224.666 31.9273 224.488 32.5853 224.488 33.388C224.488 34.1627 224.666 34.802 225.02 35.306C225.384 35.8007 225.893 36.048 226.546 36.048C227.032 36.048 227.466 35.9733 227.848 35.824C228.231 35.6653 228.609 35.418 228.982 35.082H229.038V36.272C228.693 36.5987 228.32 36.832 227.918 36.972C227.526 37.1027 227.074 37.168 226.56 37.168ZM237.229 33.752H232.049C232.124 34.4707 232.362 35.0447 232.763 35.474C233.174 35.894 233.729 36.104 234.429 36.104C234.849 36.104 235.255 36.02 235.647 35.852C236.048 35.6747 236.454 35.418 236.865 35.082H236.921V36.314C236.51 36.6127 236.104 36.832 235.703 36.972C235.302 37.1027 234.872 37.168 234.415 37.168C233.668 37.168 233.02 37.0047 232.469 36.678C231.918 36.3513 231.494 35.8987 231.195 35.32C230.906 34.732 230.761 34.06 230.761 33.304C230.761 32.5853 230.892 31.9413 231.153 31.372C231.424 30.7933 231.806 30.3407 232.301 30.014C232.796 29.6873 233.374 29.524 234.037 29.524C234.709 29.524 235.283 29.692 235.759 30.028C236.244 30.3547 236.608 30.8073 236.851 31.386C237.103 31.9647 237.229 32.618 237.229 33.346V33.752ZM234.051 30.546C233.472 30.546 233.01 30.756 232.665 31.176C232.32 31.596 232.114 32.1373 232.049 32.8H235.955C235.89 32.1187 235.698 31.5727 235.381 31.162C235.073 30.7513 234.63 30.546 234.051 30.546ZM242.949 29.524C243.584 29.524 244.125 29.692 244.573 30.028C245.021 30.364 245.357 30.8213 245.581 31.4C245.815 31.9787 245.931 32.632 245.931 33.36C245.931 34.088 245.796 34.7413 245.525 35.32C245.264 35.8893 244.881 36.3373 244.377 36.664C243.883 36.9907 243.295 37.154 242.613 37.154C242.268 37.154 241.946 37.1167 241.647 37.042C241.349 36.9673 241.031 36.86 240.695 36.72V37H239.463V26.444H240.695V30.476C241.302 29.8413 242.053 29.524 242.949 29.524ZM242.487 36.062C243.159 36.062 243.677 35.81 244.041 35.306C244.415 34.802 244.601 34.1533 244.601 33.36C244.601 32.5667 244.457 31.918 244.167 31.414C243.887 30.91 243.444 30.658 242.837 30.658C242.408 30.658 242.021 30.7467 241.675 30.924C241.339 31.1013 241.013 31.3627 240.695 31.708V35.782C241.302 35.9687 241.899 36.062 242.487 36.062ZM251.331 37.168C250.267 37.168 249.436 36.8227 248.839 36.132C248.241 35.432 247.943 34.5033 247.943 33.346C247.943 32.1887 248.241 31.2647 248.839 30.574C249.436 29.874 250.267 29.524 251.331 29.524C252.395 29.524 253.225 29.874 253.823 30.574C254.42 31.2647 254.719 32.1887 254.719 33.346C254.719 34.5033 254.42 35.432 253.823 36.132C253.225 36.8227 252.395 37.168 251.331 37.168ZM251.331 36.104C252.012 36.104 252.525 35.852 252.871 35.348C253.216 34.844 253.389 34.1767 253.389 33.346C253.389 32.5153 253.216 31.848 252.871 31.344C252.525 30.84 252.012 30.588 251.331 30.588C250.649 30.588 250.136 30.84 249.791 31.344C249.455 31.848 249.287 32.5153 249.287 33.346C249.287 34.1767 249.455 34.844 249.791 35.348C250.136 35.852 250.649 36.104 251.331 36.104ZM260.146 37.168C259.082 37.168 258.251 36.8227 257.654 36.132C257.056 35.432 256.758 34.5033 256.758 33.346C256.758 32.1887 257.056 31.2647 257.654 30.574C258.251 29.874 259.082 29.524 260.146 29.524C261.21 29.524 262.04 29.874 262.638 30.574C263.235 31.2647 263.534 32.1887 263.534 33.346C263.534 34.5033 263.235 35.432 262.638 36.132C262.04 36.8227 261.21 37.168 260.146 37.168ZM260.146 36.104C260.827 36.104 261.34 35.852 261.686 35.348C262.031 34.844 262.204 34.1767 262.204 33.346C262.204 32.5153 262.031 31.848 261.686 31.344C261.34 30.84 260.827 30.588 260.146 30.588C259.464 30.588 258.951 30.84 258.606 31.344C258.27 31.848 258.102 32.5153 258.102 33.346C258.102 34.1767 258.27 34.844 258.606 35.348C258.951 35.852 259.464 36.104 260.146 36.104ZM268.415 33.584L267.267 34.872V37H266.035V26.444H267.267V33.262L270.459 29.692H271.915L269.241 32.674L272.083 37H270.571L268.415 33.584Z" fill="#E0E0E0"/>
<rect x="296.5" y="20.5" width="113" height="26" rx="13" stroke="#A3A3A3"/>
<g clip-path="url(#clip2_2_193)">
<path d="M314.5 28.1705C316.237 28.1705 316.442 28.1781 317.125 28.2086C317.76 28.2365 318.103 28.3432 318.331 28.432C318.634 28.5488 318.852 28.691 319.078 28.917C319.306 29.1455 319.446 29.3613 319.563 29.6635C319.652 29.892 319.758 30.2373 319.786 30.8695C319.817 31.5551 319.824 31.7607 319.824 33.4949C319.824 35.2316 319.817 35.4373 319.786 36.1203C319.758 36.7551 319.652 37.0979 319.563 37.3264C319.446 37.6285 319.304 37.8469 319.078 38.0729C318.849 38.3014 318.634 38.441 318.331 38.5578C318.103 38.6467 317.758 38.7533 317.125 38.7813C316.44 38.8117 316.234 38.8193 314.5 38.8193C312.763 38.8193 312.558 38.8117 311.875 38.7813C311.24 38.7533 310.897 38.6467 310.669 38.5578C310.366 38.441 310.148 38.2988 309.922 38.0729C309.694 37.8443 309.554 37.6285 309.437 37.3264C309.348 37.0979 309.242 36.7525 309.214 36.1203C309.183 35.4348 309.176 35.2291 309.176 33.4949C309.176 31.7582 309.183 31.5525 309.214 30.8695C309.242 30.2348 309.348 29.892 309.437 29.6635C309.554 29.3613 309.696 29.143 309.922 28.917C310.151 28.6885 310.366 28.5488 310.669 28.432C310.897 28.3432 311.242 28.2365 311.875 28.2086C312.558 28.1781 312.763 28.1705 314.5 28.1705ZM314.5 27C312.735 27 312.514 27.0076 311.821 27.0381C311.131 27.0686 310.656 27.1803 310.245 27.3402C309.815 27.5078 309.452 27.7287 309.092 28.0918C308.729 28.4523 308.508 28.8154 308.34 29.242C308.18 29.6559 308.069 30.1281 308.038 30.8187C308.008 31.5145 308 31.7354 308 33.5C308 35.2646 308.008 35.4855 308.038 36.1787C308.069 36.8693 308.18 37.3441 308.34 37.7555C308.508 38.1846 308.729 38.5477 309.092 38.9082C309.452 39.2688 309.815 39.4922 310.242 39.6572C310.656 39.8172 311.128 39.9289 311.819 39.9594C312.512 39.9898 312.733 39.9975 314.497 39.9975C316.262 39.9975 316.483 39.9898 317.176 39.9594C317.867 39.9289 318.342 39.8172 318.753 39.6572C319.179 39.4922 319.543 39.2688 319.903 38.9082C320.264 38.5477 320.487 38.1846 320.652 37.758C320.812 37.3441 320.924 36.8719 320.954 36.1813C320.985 35.4881 320.992 35.2672 320.992 33.5025C320.992 31.7379 320.985 31.517 320.954 30.8238C320.924 30.1332 320.812 29.6584 320.652 29.2471C320.492 28.8154 320.271 28.4523 319.908 28.0918C319.548 27.7313 319.185 27.5078 318.758 27.3428C318.344 27.1828 317.872 27.0711 317.181 27.0406C316.486 27.0076 316.265 27 314.5 27Z" fill="url(#paint0_linear_2_193)"/>
<path d="M314.5 30.1611C312.657 30.1611 311.161 31.6566 311.161 33.5C311.161 35.3434 312.657 36.8389 314.5 36.8389C316.343 36.8389 317.839 35.3434 317.839 33.5C317.839 31.6566 316.343 30.1611 314.5 30.1611ZM314.5 35.6658C313.304 35.6658 312.334 34.6959 312.334 33.5C312.334 32.3041 313.304 31.3342 314.5 31.3342C315.696 31.3342 316.666 32.3041 316.666 33.5C316.666 34.6959 315.696 35.6658 314.5 35.6658Z" fill="url(#paint1_linear_2_193)"/>
<path d="M318.75 30.0291C318.75 30.4608 318.4 30.8086 317.971 30.8086C317.539 30.8086 317.191 30.4582 317.191 30.0291C317.191 29.5975 317.542 29.2496 317.971 29.2496C318.4 29.2496 318.75 29.6 318.75 30.0291Z" fill="url(#paint2_linear_2_193)"/>
</g>
<path d="M330.677 27.256H331.909V37H330.677V27.256ZM338.704 29.524C339.394 29.524 339.917 29.7387 340.272 30.168C340.626 30.588 340.804 31.176 340.804 31.932V37H339.572V32.1C339.572 31.6333 339.474 31.274 339.278 31.022C339.082 30.7607 338.783 30.63 338.382 30.63C337.924 30.63 337.537 30.7047 337.22 30.854C336.912 31.0033 336.566 31.246 336.184 31.582V37H334.952V31.316L334.644 29.692H335.876L336.072 30.714C336.51 30.294 336.916 29.9907 337.29 29.804C337.672 29.6173 338.144 29.524 338.704 29.524ZM345.573 37.168C345.125 37.168 344.681 37.1027 344.243 36.972C343.813 36.832 343.407 36.636 343.025 36.384V35.096C343.874 35.7493 344.714 36.076 345.545 36.076C346.03 36.076 346.422 35.978 346.721 35.782C347.019 35.5767 347.169 35.306 347.169 34.97C347.169 34.7367 347.094 34.5453 346.945 34.396C346.805 34.2467 346.627 34.13 346.413 34.046C346.198 33.962 345.89 33.8593 345.489 33.738C344.994 33.598 344.583 33.4627 344.257 33.332C343.939 33.192 343.669 32.9913 343.445 32.73C343.221 32.4593 343.109 32.1093 343.109 31.68C343.109 31.0267 343.356 30.504 343.851 30.112C344.345 29.72 344.994 29.524 345.797 29.524C346.599 29.524 347.327 29.734 347.981 30.154V31.4C347.617 31.12 347.262 30.9193 346.917 30.798C346.581 30.6767 346.226 30.616 345.853 30.616C345.386 30.616 345.017 30.7 344.747 30.868C344.476 31.036 344.341 31.2693 344.341 31.568C344.341 31.7827 344.411 31.96 344.551 32.1C344.7 32.24 344.882 32.352 345.097 32.436C345.311 32.52 345.619 32.6227 346.021 32.744C346.525 32.8933 346.935 33.038 347.253 33.178C347.57 33.3087 347.841 33.514 348.065 33.794C348.289 34.0647 348.401 34.4193 348.401 34.858C348.401 35.306 348.279 35.7073 348.037 36.062C347.794 36.4073 347.458 36.678 347.029 36.874C346.599 37.07 346.114 37.168 345.573 37.168ZM352.055 29.692H354.071V30.756H352.055V34.942C352.055 35.2873 352.129 35.5673 352.279 35.782C352.437 35.9873 352.666 36.09 352.965 36.09C353.17 36.09 353.352 36.0713 353.511 36.034C353.679 35.9873 353.865 35.9173 354.071 35.824V36.916C353.856 37.0187 353.651 37.084 353.455 37.112C353.259 37.1493 353.021 37.168 352.741 37.168C352.143 37.168 351.672 36.9767 351.327 36.594C350.991 36.2113 350.823 35.7027 350.823 35.068V30.756H349.423V29.692H350.823V27.732L352.055 27.088V29.692ZM360.488 37L360.292 35.95C359.928 36.3513 359.531 36.6547 359.102 36.86C358.682 37.0653 358.206 37.168 357.674 37.168C357.011 37.168 356.475 36.9813 356.064 36.608C355.653 36.2253 355.448 35.7213 355.448 35.096C355.448 34.284 355.775 33.6867 356.428 33.304C357.081 32.9213 357.921 32.73 358.948 32.73C359.321 32.73 359.732 32.7533 360.18 32.8V32.296C360.18 31.792 360.04 31.3907 359.76 31.092C359.489 30.784 359.135 30.63 358.696 30.63C358.173 30.63 357.697 30.7 357.268 30.84C356.848 30.98 356.414 31.1993 355.966 31.498V30.308C356.405 30.0187 356.853 29.818 357.31 29.706C357.767 29.5847 358.29 29.524 358.878 29.524C359.625 29.524 360.231 29.762 360.698 30.238C361.174 30.714 361.412 31.344 361.412 32.128V35.376L361.72 37H360.488ZM357.926 36.132C358.374 36.132 358.775 36.0387 359.13 35.852C359.485 35.6653 359.835 35.3947 360.18 35.04V33.668H358.892C357.483 33.668 356.778 34.1207 356.778 35.026C356.778 35.362 356.885 35.6327 357.1 35.838C357.315 36.034 357.59 36.132 357.926 36.132ZM370.219 29.678L369.911 31.302V36.524C369.911 37.756 369.627 38.7127 369.057 39.394C368.488 40.0753 367.643 40.416 366.523 40.416C365.898 40.416 365.385 40.3553 364.983 40.234C364.582 40.1127 364.167 39.87 363.737 39.506V38.26C364.195 38.6427 364.624 38.904 365.025 39.044C365.427 39.1933 365.926 39.268 366.523 39.268C367.242 39.268 367.779 39.0393 368.133 38.582C368.497 38.134 368.679 37.504 368.679 36.692V36.328C368.371 36.5333 368.059 36.6827 367.741 36.776C367.433 36.86 367.065 36.902 366.635 36.902C365.581 36.902 364.783 36.5847 364.241 35.95C363.709 35.3153 363.443 34.424 363.443 33.276C363.443 32.0907 363.723 31.1713 364.283 30.518C364.843 29.8553 365.674 29.524 366.775 29.524C367.177 29.524 367.522 29.566 367.811 29.65C368.11 29.7247 368.469 29.8553 368.889 30.042L368.987 29.678H370.219ZM366.649 35.768C367.06 35.768 367.419 35.7167 367.727 35.614C368.035 35.5113 368.353 35.348 368.679 35.124V30.896C368.381 30.7933 368.096 30.7233 367.825 30.686C367.564 30.6393 367.261 30.616 366.915 30.616C366.187 30.616 365.646 30.8493 365.291 31.316C364.946 31.7827 364.773 32.4313 364.773 33.262C364.773 34.9327 365.399 35.768 366.649 35.768ZM376.129 29.524V30.882H375.919C375.48 30.882 375.083 30.9613 374.729 31.12C374.383 31.2787 374.094 31.5073 373.861 31.806V37H372.629V31.316L372.321 29.692H373.553L373.805 30.994C374.187 30.434 374.509 30.0513 374.771 29.846C375.041 29.6313 375.349 29.524 375.695 29.524H376.129ZM382.75 37L382.554 35.95C382.19 36.3513 381.793 36.6547 381.364 36.86C380.944 37.0653 380.468 37.168 379.936 37.168C379.273 37.168 378.736 36.9813 378.326 36.608C377.915 36.2253 377.71 35.7213 377.71 35.096C377.71 34.284 378.036 33.6867 378.69 33.304C379.343 32.9213 380.183 32.73 381.21 32.73C381.583 32.73 381.994 32.7533 382.442 32.8V32.296C382.442 31.792 382.302 31.3907 382.022 31.092C381.751 30.784 381.396 30.63 380.958 30.63C380.435 30.63 379.959 30.7 379.53 30.84C379.11 30.98 378.676 31.1993 378.228 31.498V30.308C378.666 30.0187 379.114 29.818 379.572 29.706C380.029 29.5847 380.552 29.524 381.14 29.524C381.886 29.524 382.493 29.762 382.96 30.238C383.436 30.714 383.674 31.344 383.674 32.128V35.376L383.982 37H382.75ZM380.188 36.132C380.636 36.132 381.037 36.0387 381.392 35.852C381.746 35.6653 382.096 35.3947 382.442 35.04V33.668H381.154C379.744 33.668 379.04 34.1207 379.04 35.026C379.04 35.362 379.147 35.6327 379.362 35.838C379.576 36.034 379.852 36.132 380.188 36.132ZM394.287 29.524C394.977 29.524 395.5 29.7387 395.855 30.168C396.209 30.588 396.387 31.176 396.387 31.932V37H395.155V32.1C395.155 31.6333 395.057 31.274 394.861 31.022C394.665 30.7607 394.366 30.63 393.965 30.63C393.554 30.63 393.209 30.7047 392.929 30.854C392.649 31.0033 392.327 31.246 391.963 31.582C391.972 31.6567 391.977 31.7733 391.977 31.932V37H390.745V32.1C390.745 31.6333 390.647 31.274 390.451 31.022C390.255 30.7607 389.956 30.63 389.555 30.63C389.144 30.63 388.799 30.7047 388.519 30.854C388.239 30.994 387.921 31.232 387.567 31.568V37H386.335V31.316L386.027 29.692H387.259L387.455 30.7C387.875 30.28 388.253 29.9813 388.589 29.804C388.934 29.6173 389.363 29.524 389.877 29.524C390.362 29.524 390.763 29.6313 391.081 29.846C391.407 30.0607 391.645 30.3687 391.795 30.77C392.243 30.322 392.639 30.0047 392.985 29.818C393.33 29.622 393.764 29.524 394.287 29.524Z" fill="#E0E0E0"/>
</g>
<g filter="url(#filter0_d_2_193)">
<path d="M19.8423 75.95H17.0703V74.256H24.4623V75.95H21.6903V84H19.8423V75.95ZM28.7474 84.168C28.0101 84.168 27.3614 84.014 26.8014 83.706C26.2414 83.3887 25.8074 82.9407 25.4994 82.362C25.2007 81.7833 25.0514 81.1113 25.0514 80.346C25.0514 79.5807 25.2007 78.9087 25.4994 78.33C25.8074 77.7513 26.2414 77.308 26.8014 77C27.3614 76.6827 28.0101 76.524 28.7474 76.524C29.4847 76.524 30.1334 76.6827 30.6934 77C31.2534 77.308 31.6827 77.7513 31.9814 78.33C32.2894 78.9087 32.4434 79.5807 32.4434 80.346C32.4434 81.1113 32.2894 81.7833 31.9814 82.362C31.6827 82.9407 31.2534 83.3887 30.6934 83.706C30.1334 84.014 29.4847 84.168 28.7474 84.168ZM28.7474 82.642C29.2981 82.642 29.7274 82.446 30.0354 82.054C30.3434 81.6527 30.4974 81.0833 30.4974 80.346C30.4974 79.5993 30.3434 79.03 30.0354 78.638C29.7274 78.246 29.2981 78.05 28.7474 78.05C28.1967 78.05 27.7674 78.246 27.4594 78.638C27.1514 79.03 26.9974 79.5993 26.9974 80.346C26.9974 81.0833 27.1514 81.6527 27.4594 82.054C27.7674 82.446 28.1967 82.642 28.7474 82.642ZM36.3725 76.692H38.0525V78.064H36.3725V81.592C36.3725 82.3013 36.6431 82.656 37.1845 82.656C37.4365 82.656 37.7305 82.5673 38.0665 82.39V83.916C37.8331 84 37.6138 84.0607 37.4085 84.098C37.2125 84.1447 36.9885 84.168 36.7365 84.168C35.2618 84.168 34.5245 83.3093 34.5245 81.592V78.064H33.4605V76.692H34.5245V74.732L36.3725 74.088V76.692ZM44.2599 84L44.0779 83.118C43.4153 83.818 42.6173 84.168 41.6839 84.168C40.9466 84.168 40.3446 83.9767 39.8779 83.594C39.4206 83.2113 39.1919 82.7073 39.1919 82.082C39.1919 81.27 39.4906 80.64 40.0879 80.192C40.6946 79.7347 41.5673 79.506 42.7059 79.506C43.1166 79.506 43.5273 79.5247 43.9379 79.562V79.296C43.9379 78.8853 43.8213 78.582 43.5879 78.386C43.3546 78.1807 42.9859 78.078 42.4819 78.078C41.9873 78.078 41.5253 78.162 41.0959 78.33C40.6759 78.4887 40.2186 78.75 39.7239 79.114V77.462C40.1533 77.1353 40.6013 76.8973 41.0679 76.748C41.5346 76.5987 42.0479 76.524 42.6079 76.524C43.6439 76.524 44.4326 76.748 44.9739 77.196C45.5246 77.6347 45.7999 78.2787 45.7999 79.128V82.376L46.1079 84H44.2599ZM41.0399 81.942C41.0399 82.4833 41.3479 82.754 41.9639 82.754C42.3186 82.754 42.6546 82.684 42.9719 82.544C43.2893 82.3947 43.6113 82.1613 43.9379 81.844V80.85H42.5939C42.0526 80.85 41.6559 80.9293 41.4039 81.088C41.1613 81.2467 41.0399 81.5313 41.0399 81.942ZM47.565 73.444H49.413V84H47.565V73.444ZM61.1107 84L59.1227 80.29H57.3867V84H55.5387V74.256H59.0527C60.3127 74.256 61.2553 74.508 61.8807 75.012C62.506 75.516 62.8187 76.2487 62.8187 77.21C62.8187 77.8913 62.6647 78.47 62.3567 78.946C62.0487 79.422 61.5913 79.7767 60.9847 80.01L63.1407 84H61.1107ZM57.3867 78.666H59.0667C59.6827 78.666 60.1353 78.5587 60.4247 78.344C60.7233 78.1293 60.8727 77.7653 60.8727 77.252C60.8727 76.7573 60.728 76.4073 60.4387 76.202C60.1493 75.9967 59.6873 75.894 59.0527 75.894H57.3867V78.666ZM71.4594 80.906H66.3774C66.4521 81.466 66.6574 81.8953 66.9934 82.194C67.3387 82.4927 67.7961 82.642 68.3654 82.642C68.7854 82.642 69.2381 82.5673 69.7234 82.418C70.2181 82.2593 70.6754 82.0447 71.0954 81.774H71.1514V83.272C70.7781 83.5613 70.3487 83.7853 69.8634 83.944C69.3874 84.0933 68.8834 84.168 68.3514 84.168C67.5861 84.168 66.9187 84.014 66.3494 83.706C65.7801 83.398 65.3414 82.9547 65.0334 82.376C64.7254 81.7973 64.5714 81.1207 64.5714 80.346C64.5714 79.59 64.7161 78.9227 65.0054 78.344C65.3041 77.7653 65.7194 77.3173 66.2514 77C66.7834 76.6827 67.3994 76.524 68.0994 76.524C68.7807 76.524 69.3734 76.678 69.8774 76.986C70.3907 77.294 70.7827 77.7373 71.0534 78.316C71.3241 78.8947 71.4594 79.5713 71.4594 80.346V80.906ZM68.0994 78.008C67.6607 78.008 67.2921 78.1527 66.9934 78.442C66.7041 78.7313 66.5081 79.1327 66.4054 79.646H69.5554C69.4807 79.114 69.3221 78.708 69.0794 78.428C68.8367 78.148 68.5101 78.008 68.0994 78.008ZM79.7839 76.692L77.0819 84H74.7859L72.0839 76.692H73.9599L75.9619 82.46L77.9639 76.692H79.7839ZM87.1345 80.906H82.0525C82.1272 81.466 82.3325 81.8953 82.6685 82.194C83.0138 82.4927 83.4712 82.642 84.0405 82.642C84.4605 82.642 84.9132 82.5673 85.3985 82.418C85.8932 82.2593 86.3505 82.0447 86.7705 81.774H86.8265V83.272C86.4532 83.5613 86.0238 83.7853 85.5385 83.944C85.0625 84.0933 84.5585 84.168 84.0265 84.168C83.2612 84.168 82.5938 84.014 82.0245 83.706C81.4552 83.398 81.0165 82.9547 80.7085 82.376C80.4005 81.7973 80.2465 81.1207 80.2465 80.346C80.2465 79.59 80.3912 78.9227 80.6805 78.344C80.9792 77.7653 81.3945 77.3173 81.9265 77C82.4585 76.6827 83.0745 76.524 83.7745 76.524C84.4558 76.524 85.0485 76.678 85.5525 76.986C86.0658 77.294 86.4578 77.7373 86.7285 78.316C86.9992 78.8947 87.1345 79.5713 87.1345 80.346V80.906ZM83.7745 78.008C83.3358 78.008 82.9672 78.1527 82.6685 78.442C82.3792 78.7313 82.1832 79.1327 82.0805 79.646H85.2305C85.1558 79.114 84.9972 78.708 84.7545 78.428C84.5118 78.148 84.1852 78.008 83.7745 78.008ZM92.939 76.524C93.6764 76.524 94.269 76.7433 94.717 77.182C95.1744 77.6113 95.403 78.1807 95.403 78.89V84H93.555V79.94C93.555 79.3053 93.457 78.8527 93.261 78.582C93.0744 78.302 92.7617 78.162 92.323 78.162C91.8377 78.162 91.3244 78.4327 90.783 78.974V84H88.935V78.316L88.627 76.692H90.321L90.587 77.63C90.9884 77.238 91.3757 76.958 91.749 76.79C92.1224 76.6127 92.519 76.524 92.939 76.524ZM102.776 84L102.51 83.048C102.034 83.468 101.614 83.762 101.25 83.93C100.895 84.0887 100.489 84.168 100.032 84.168C99.5934 84.168 99.1921 84.0653 98.8281 83.86C98.4734 83.6547 98.1934 83.3747 97.9881 83.02C97.7921 82.656 97.6941 82.25 97.6941 81.802V76.692H99.5421V80.752C99.5421 81.34 99.6354 81.7833 99.8221 82.082C100.009 82.3807 100.279 82.53 100.634 82.53C100.933 82.53 101.213 82.4647 101.474 82.334C101.735 82.2033 102.015 81.9933 102.314 81.704V76.692H104.162V82.376L104.47 84H102.776ZM113.019 80.906H107.937C108.012 81.466 108.217 81.8953 108.553 82.194C108.899 82.4927 109.356 82.642 109.925 82.642C110.345 82.642 110.798 82.5673 111.283 82.418C111.778 82.2593 112.235 82.0447 112.655 81.774H112.711V83.272C112.338 83.5613 111.909 83.7853 111.423 83.944C110.947 84.0933 110.443 84.168 109.911 84.168C109.146 84.168 108.479 84.014 107.909 83.706C107.34 83.398 106.901 82.9547 106.593 82.376C106.285 81.7973 106.131 81.1207 106.131 80.346C106.131 79.59 106.276 78.9227 106.565 78.344C106.864 77.7653 107.279 77.3173 107.811 77C108.343 76.6827 108.959 76.524 109.659 76.524C110.341 76.524 110.933 76.678 111.437 76.986C111.951 77.294 112.343 77.7373 112.613 78.316C112.884 78.8947 113.019 79.5713 113.019 80.346V80.906ZM109.659 78.008C109.221 78.008 108.852 78.1527 108.553 78.442C108.264 78.7313 108.068 79.1327 107.965 79.646H111.115C111.041 79.114 110.882 78.708 110.639 78.428C110.397 78.148 110.07 78.008 109.659 78.008Z" fill="#E0E0E0"/>
</g>
<path d="M29.2508 111.296C29.2508 112.608 28.8268 113.696 27.9788 114.56C27.1468 115.424 26.0028 115.968 24.5468 116.192V118.784H22.5788V116.288C21.6668 116.24 20.7308 116.104 19.7708 115.88C18.8268 115.64 17.9388 115.328 17.1068 114.944V111.872C19.1548 112.944 20.9788 113.504 22.5788 113.552V108.584C21.4748 108.168 20.6028 107.8 19.9628 107.48C19.3228 107.144 18.7708 106.672 18.3068 106.064C17.8428 105.456 17.6108 104.68 17.6108 103.736C17.6108 102.456 18.0508 101.408 18.9308 100.592C19.8268 99.776 21.0428 99.272 22.5788 99.08V96.512H24.5468V99.032C26.0988 99.112 27.4908 99.464 28.7228 100.088V103.088C27.3148 102.272 25.9228 101.832 24.5468 101.768V106.28C25.5068 106.632 26.3068 107 26.9468 107.384C27.6028 107.752 28.1468 108.256 28.5788 108.896C29.0268 109.536 29.2508 110.336 29.2508 111.296ZM20.8508 103.544C20.8508 103.976 20.9948 104.344 21.2828 104.648C21.5868 104.952 22.0188 105.232 22.5788 105.488V101.888C22.0348 102 21.6108 102.2 21.3068 102.488C21.0028 102.76 20.8508 103.112 20.8508 103.544ZM24.5468 113.312C25.5068 112.976 25.9868 112.368 25.9868 111.488C25.9868 111.04 25.8588 110.656 25.6028 110.336C25.3628 110 25.0108 109.704 24.5468 109.448V113.312ZM43.5728 113.216V116H31.9088V113.216H36.5888V102.992L33.5168 104.336H33.4208L32.7488 102.296V102.2L37.5248 99.296H39.7568V113.216H43.5728ZM52.6236 116.288C50.3676 116.288 48.7036 115.504 47.6316 113.936C46.5596 112.352 46.0236 110.256 46.0236 107.648C46.0236 105.04 46.5596 102.952 47.6316 101.384C48.7036 99.8 50.3676 99.008 52.6236 99.008C54.8796 99.008 56.5436 99.8 57.6156 101.384C58.6876 102.952 59.2236 105.04 59.2236 107.648C59.2236 110.256 58.6876 112.352 57.6156 113.936C56.5436 115.504 54.8796 116.288 52.6236 116.288ZM52.6236 113.576C53.7756 113.576 54.6076 113.032 55.1196 111.944C55.6316 110.856 55.8876 109.424 55.8876 107.648C55.8876 105.872 55.6316 104.44 55.1196 103.352C54.6076 102.264 53.7756 101.72 52.6236 101.72C51.4716 101.72 50.6396 102.264 50.1276 103.352C49.6156 104.44 49.3596 105.872 49.3596 107.648C49.3596 109.424 49.6156 110.856 50.1276 111.944C50.6396 113.032 51.4716 113.576 52.6236 113.576ZM64.9144 112.4C64.9144 113.472 64.7704 114.576 64.4824 115.712C64.1944 116.848 63.6824 118.144 62.9464 119.6H59.7784C60.3064 118.64 60.6904 117.736 60.9304 116.888C61.1704 116.056 61.3144 115.32 61.3624 114.68C61.4264 114.024 61.4584 113.264 61.4584 112.4H64.9144ZM76.9808 107.264C77.7968 107.696 78.4288 108.28 78.8768 109.016C79.3408 109.736 79.5728 110.536 79.5728 111.416C79.5728 112.392 79.3008 113.248 78.7568 113.984C78.2128 114.72 77.4448 115.288 76.4528 115.688C75.4608 116.088 74.3328 116.288 73.0688 116.288C72.1408 116.288 71.2528 116.176 70.4048 115.952C69.5728 115.728 68.7408 115.384 67.9088 114.92V111.824H68.0048C69.6688 112.976 71.3168 113.552 72.9488 113.552C73.9728 113.552 74.7888 113.352 75.3968 112.952C76.0048 112.536 76.3088 111.968 76.3088 111.248C76.3088 110.464 75.9648 109.832 75.2768 109.352C74.5888 108.856 73.6608 108.608 72.4928 108.608H71.4848V105.968H72.4928C73.5808 105.968 74.4368 105.768 75.0608 105.368C75.6848 104.968 75.9968 104.416 75.9968 103.712C75.9968 103.088 75.7328 102.608 75.2048 102.272C74.6928 101.936 73.9728 101.768 73.0448 101.768C72.3248 101.768 71.5968 101.88 70.8608 102.104C70.1408 102.328 69.3488 102.68 68.4848 103.16H68.3888V100.184C69.9088 99.4 71.5088 99.008 73.1888 99.008C75.0128 99.008 76.4688 99.408 77.5568 100.208C78.6608 100.992 79.2128 102.064 79.2128 103.424C79.2128 104.224 79.0128 104.96 78.6128 105.632C78.2288 106.288 77.6848 106.832 76.9808 107.264ZM88.6236 116.288C86.3676 116.288 84.7036 115.504 83.6316 113.936C82.5596 112.352 82.0236 110.256 82.0236 107.648C82.0236 105.04 82.5596 102.952 83.6316 101.384C84.7036 99.8 86.3676 99.008 88.6236 99.008C90.8796 99.008 92.5436 99.8 93.6156 101.384C94.6876 102.952 95.2236 105.04 95.2236 107.648C95.2236 110.256 94.6876 112.352 93.6156 113.936C92.5436 115.504 90.8796 116.288 88.6236 116.288ZM88.6236 113.576C89.7756 113.576 90.6076 113.032 91.1196 111.944C91.6316 110.856 91.8876 109.424 91.8876 107.648C91.8876 105.872 91.6316 104.44 91.1196 103.352C90.6076 102.264 89.7756 101.72 88.6236 101.72C87.4716 101.72 86.6396 102.264 86.1276 103.352C85.6156 104.44 85.3596 105.872 85.3596 107.648C85.3596 109.424 85.6156 110.856 86.1276 111.944C86.6396 113.032 87.4716 113.576 88.6236 113.576ZM109.338 99.296V100.904L102.882 116H99.9784L99.4024 115.904L105.642 102.056H98.2264V99.296H109.338Z" fill="white"/>
<path d="M132.5 114V106M132.5 106L129 109.2M132.5 106L136 109.2" stroke="#75DB92" stroke-width="1.25" stroke-linecap="round" stroke-linejoin="round"/>
<path d="M143.732 113.144C143.108 113.144 142.552 113.04 142.064 112.832C141.576 112.624 141.196 112.332 140.924 111.956C140.652 111.58 140.516 111.156 140.516 110.684C140.516 110.228 140.64 109.82 140.888 109.46C141.144 109.1 141.464 108.848 141.848 108.704C141.488 108.584 141.2 108.344 140.984 107.984C140.776 107.624 140.672 107.232 140.672 106.808C140.672 106.352 140.8 105.948 141.056 105.596C141.32 105.244 141.684 104.976 142.148 104.792C142.612 104.6 143.136 104.504 143.72 104.504C144.312 104.504 144.836 104.6 145.292 104.792C145.756 104.976 146.116 105.244 146.372 105.596C146.636 105.94 146.768 106.34 146.768 106.796C146.768 107.22 146.66 107.612 146.444 107.972C146.228 108.332 145.94 108.576 145.58 108.704C146.004 108.856 146.332 109.116 146.564 109.484C146.804 109.844 146.924 110.244 146.924 110.684C146.924 111.164 146.788 111.592 146.516 111.968C146.244 112.336 145.864 112.624 145.376 112.832C144.896 113.04 144.348 113.144 143.732 113.144ZM143.72 108.02C144.176 108.02 144.528 107.928 144.776 107.744C145.032 107.552 145.16 107.28 145.16 106.928C145.16 106.576 145.036 106.304 144.788 106.112C144.54 105.92 144.184 105.824 143.72 105.824C143.256 105.824 142.9 105.92 142.652 106.112C142.404 106.304 142.28 106.576 142.28 106.928C142.28 107.28 142.404 107.552 142.652 107.744C142.9 107.928 143.256 108.02 143.72 108.02ZM143.72 111.812C144.224 111.812 144.612 111.704 144.884 111.488C145.156 111.272 145.292 110.972 145.292 110.588C145.292 110.196 145.156 109.896 144.884 109.688C144.612 109.472 144.224 109.364 143.72 109.364C143.224 109.364 142.836 109.472 142.556 109.688C142.284 109.896 142.148 110.196 142.148 110.588C142.148 110.98 142.284 111.284 142.556 111.5C142.828 111.708 143.216 111.812 143.72 111.812ZM150.585 109.508C149.809 109.508 149.233 109.28 148.857 108.824C148.489 108.36 148.305 107.752 148.305 107C148.305 106.248 148.489 105.644 148.857 105.188C149.233 104.724 149.809 104.492 150.585 104.492C151.361 104.492 151.933 104.724 152.301 105.188C152.677 105.644 152.865 106.248 152.865 107C152.865 107.752 152.677 108.36 152.301 108.824C151.933 109.28 151.361 109.508 150.585 109.508ZM157.341 104.648L150.729 113H149.541L156.153 104.648H157.341ZM150.585 108.476C150.913 108.476 151.157 108.34 151.317 108.068C151.477 107.788 151.557 107.432 151.557 107C151.557 106.576 151.473 106.224 151.305 105.944C151.145 105.664 150.905 105.524 150.585 105.524C150.265 105.524 150.021 105.664 149.853 105.944C149.693 106.224 149.613 106.576 149.613 107C149.613 107.432 149.693 107.788 149.853 108.068C150.013 108.34 150.257 108.476 150.585 108.476ZM156.297 113.156C155.521 113.156 154.945 112.928 154.569 112.472C154.201 112.008 154.017 111.4 154.017 110.648C154.017 109.896 154.201 109.292 154.569 108.836C154.945 108.372 155.521 108.14 156.297 108.14C157.073 108.14 157.645 108.372 158.013 108.836C158.389 109.292 158.577 109.896 158.577 110.648C158.577 111.4 158.389 112.008 158.013 112.472C157.645 112.928 157.073 113.156 156.297 113.156ZM156.297 112.124C156.625 112.124 156.869 111.988 157.029 111.716C157.189 111.436 157.269 111.08 157.269 110.648C157.269 110.224 157.185 109.872 157.017 109.592C156.857 109.312 156.617 109.172 156.297 109.172C155.977 109.172 155.733 109.312 155.565 109.592C155.405 109.872 155.325 110.224 155.325 110.648C155.325 111.08 155.405 111.436 155.565 111.716C155.725 111.988 155.969 112.124 156.297 112.124Z" fill="#75DB92"/>
<path d="M170.045 111.608V113H164.213V111.608H166.553V106.496L165.017 107.168H164.969L164.633 106.148V106.1L167.021 104.648H168.137V111.608H170.045ZM181.975 113H180.391V106.652L178.183 113H176.527L174.271 106.664V113H172.687V104.648H175.171L177.379 110.84L179.527 104.648H181.975V113Z" fill="#E0E0E0"/>
<path d="M16 258L100.194 209.924C102.007 208.889 104.058 208.345 106.145 208.345H191.54H204.255C206.534 208.345 208.765 207.696 210.689 206.475L222.347 199.071C226.005 196.748 230.632 196.578 234.451 198.626L245.961 204.799C250.007 206.968 254.936 206.64 258.657 203.952L310.463 166.547C312.508 165.07 314.965 164.276 317.487 164.276H329.414C331.446 164.276 333.445 163.76 335.223 162.776L346.105 156.755C346.764 156.39 347.456 156.089 348.171 155.854L366 150" stroke="#70C1DB" stroke-width="2.5"/>
<path d="M110.565 302.04L108.375 309H106.835L105.355 304L103.875 309H102.335L100.145 302.04H101.575L103.125 307.39L104.655 302.04H106.105L107.635 307.39L109.185 302.04H110.565ZM113.5 303.2V304.94H116.5V306.03H113.5V307.84H116.72V309H112.18V302.04H116.72V303.2H113.5ZM120.397 303.2V304.94H123.397V306.03H120.397V307.84H123.617V309H119.077V302.04H123.617V303.2H120.397ZM128.053 306.12L127.293 307V309H125.973V302.04H127.293V305.2L129.963 302.04H131.583L128.953 305.08L131.743 309H130.113L128.053 306.12Z" fill="#A3A3A3"/>
<path d="M153.972 309H152.652V303.71L150.812 309H149.432L147.552 303.72V309H146.232V302.04H148.302L150.142 307.2L151.932 302.04H153.972V309ZM159.707 309.12C158.994 309.12 158.38 308.973 157.867 308.68C157.354 308.387 156.964 307.97 156.697 307.43C156.43 306.89 156.297 306.253 156.297 305.52C156.297 304.787 156.43 304.15 156.697 303.61C156.964 303.07 157.354 302.653 157.867 302.36C158.38 302.067 158.994 301.92 159.707 301.92C160.42 301.92 161.034 302.067 161.547 302.36C162.06 302.653 162.45 303.07 162.717 303.61C162.984 304.15 163.117 304.787 163.117 305.52C163.117 306.253 162.984 306.89 162.717 307.43C162.45 307.97 162.06 308.387 161.547 308.68C161.034 308.973 160.42 309.12 159.707 309.12ZM159.707 307.9C160.334 307.9 160.827 307.697 161.187 307.29C161.547 306.877 161.727 306.287 161.727 305.52C161.727 304.753 161.547 304.167 161.187 303.76C160.827 303.347 160.334 303.14 159.707 303.14C159.08 303.14 158.587 303.347 158.227 303.76C157.867 304.167 157.687 304.753 157.687 305.52C157.687 306.287 157.867 306.877 158.227 307.29C158.587 307.697 159.08 307.9 159.707 307.9ZM171.375 302.04V309H170.055L166.755 304.4V309H165.435V302.04H166.755L170.055 306.63V302.04H171.375ZM175.443 303.25H173.463V302.04H178.743V303.25H176.763V309H175.443V303.25ZM186.77 302.04V309H185.45V305.94H182.15V309H180.83V302.04H182.15V304.77H185.45V302.04H186.77Z" fill="#FFB526"/>
<path d="M207.539 302.04L205.009 306.6V309H203.689V306.6L201.159 302.04H202.569L204.359 305.42L206.179 302.04H207.539ZM210.5 303.2V304.94H213.5V306.03H210.5V307.84H213.72V309H209.18V302.04H213.72V303.2H210.5ZM220.207 307.42H217.237L216.657 309H215.337L217.977 302.04H219.517L222.157 309H220.787L220.207 307.42ZM219.797 306.3L218.727 303.34L217.647 306.3H219.797ZM227.959 309L226.539 306.35H225.299V309H223.979V302.04H226.489C227.389 302.04 228.063 302.22 228.509 302.58C228.956 302.94 229.179 303.463 229.179 304.15C229.179 304.637 229.069 305.05 228.849 305.39C228.629 305.73 228.303 305.983 227.869 306.15L229.409 309H227.959ZM225.299 305.19H226.499C226.939 305.19 227.263 305.113 227.469 304.96C227.683 304.807 227.789 304.547 227.789 304.18C227.789 303.827 227.686 303.577 227.479 303.43C227.273 303.283 226.943 303.21 226.489 303.21H225.299V305.19Z" fill="#A3A3A3"/>
<path d="M246.387 304.63C246.834 304.63 247.23 304.727 247.577 304.92C247.924 305.113 248.194 305.38 248.387 305.72C248.58 306.06 248.677 306.44 248.677 306.86C248.677 307.313 248.564 307.71 248.337 308.05C248.11 308.39 247.79 308.653 247.377 308.84C246.964 309.02 246.484 309.11 245.937 309.11C245.517 309.11 245.104 309.057 244.697 308.95C244.29 308.837 243.93 308.677 243.617 308.47V307.19H243.657C243.957 307.423 244.317 307.613 244.737 307.76C245.157 307.907 245.547 307.98 245.907 307.98C246.334 307.98 246.677 307.877 246.937 307.67C247.197 307.457 247.327 307.18 247.327 306.84C247.327 306.52 247.214 306.26 246.987 306.06C246.767 305.86 246.477 305.76 246.117 305.76C245.637 305.76 245.18 305.937 244.747 306.29H244.707L243.837 306.02V305.97L244.287 302.04H248.347V303.19H245.387L245.197 304.89C245.577 304.717 245.974 304.63 246.387 304.63ZM259.541 302.04L257.011 306.6V309H255.691V306.6L253.161 302.04H254.571L256.361 305.42L258.181 302.04H259.541ZM262.502 303.2V304.94H265.502V306.03H262.502V307.84H265.722V309H261.182V302.04H265.722V303.2H262.502ZM272.209 307.42H269.239L268.659 309H267.339L269.979 302.04H271.519L274.159 309H272.789L272.209 307.42ZM271.799 306.3L270.729 303.34L269.649 306.3H271.799ZM279.961 309L278.541 306.35H277.301V309H275.981V302.04H278.491C279.391 302.04 280.065 302.22 280.511 302.58C280.958 302.94 281.181 303.463 281.181 304.15C281.181 304.637 281.071 305.05 280.851 305.39C280.631 305.73 280.305 305.983 279.871 306.15L281.411 309H279.961ZM277.301 305.19H278.501C278.941 305.19 279.265 305.113 279.471 304.96C279.685 304.807 279.791 304.547 279.791 304.18C279.791 303.827 279.688 303.577 279.481 303.43C279.275 303.283 278.945 303.21 278.491 303.21H277.301V305.19Z" fill="#A3A3A3"/>
<circle cx="179" cy="336" r="3" fill="#4E4E4E"/>
<circle cx="191" cy="336" r="3" fill="#E0E0E0"/>
<circle cx="203" cy="336" r="3" fill="#E0E0E0"/>
<defs>
<filter id="filter0_d_2_193" x="10.0703" y="67.444" width="111.949" height="26.724" filterUnits="userSpaceOnUse" color-interpolation-filters="sRGB">
<feFlood flood-opacity="0" result="BackgroundImageFix"/>
<feColorMatrix in="SourceAlpha" type="matrix" values="0 0 0 0 0 0 0 0 0 0 0 0 0 0 0 0 0 0 127 0" result="hardAlpha"/>
<feOffset dx="1" dy="2"/>
<feGaussianBlur stdDeviation="4"/>
<feComposite in2="hardAlpha" operator="out"/>
<feColorMatrix type="matrix" values="0 0 0 0 0 0 0 0 0 0 0 0 0 0 0 0 0 0 0.15 0"/>
<feBlend mode="normal" in2="BackgroundImageFix" result="effect1_dropShadow_2_193"/>
<feBlend mode="normal" in="SourceGraphic" in2="effect1_dropShadow_2_193" result="shape"/>
</filter>
<linearGradient id="paint0_linear_2_193" x1="314.496" y1="27" x2="314.496" y2="39.9975" gradientUnits="userSpaceOnUse">
<stop stop-color="#AF00EC"/>
<stop offset="1" stop-color="#FF577F"/>
</linearGradient>
<linearGradient id="paint1_linear_2_193" x1="314.5" y1="30.1611" x2="314.5" y2="36.8389" gradientUnits="userSpaceOnUse">
<stop stop-color="#AF00EC"/>
<stop offset="1" stop-color="#FF577F"/>
</linearGradient>
<linearGradient id="paint2_linear_2_193" x1="317.971" y1="29.2496" x2="317.971" y2="30.8086" gradientUnits="userSpaceOnUse">
<stop stop-color="#AF00EC"/>
<stop offset="1" stop-color="#FF577F"/>
</linearGradient>
<clipPath id="clip0_2_193">
<rect width="345" height="27" fill="white" transform="translate(16 20)"/>
</clipPath>
<clipPath id="clip1_2_193">
<rect width="15" height="15" fill="white" transform="translate(183 26)"/>
</clipPath>
<clipPath id="clip2_2_193">
<rect width="13" height="13" fill="white" transform="translate(308 27)"/>
</clipPath>
</defs>
</svg>
