<svg width="382" height="466" viewBox="0 0 382 466" fill="none" xmlns="http://www.w3.org/2000/svg">
<g clip-path="url(#clip0_1_34)">
<rect width="382" height="465.145" rx="8" fill="#080811"/>
<path d="M19.6043 28.95H16.8323V27.256H24.2243V28.95H21.4523V37H19.6043V28.95ZM28.5094 37.168C27.7721 37.168 27.1234 37.014 26.5634 36.706C26.0034 36.3887 25.5694 35.9407 25.2614 35.362C24.9627 34.7833 24.8134 34.1113 24.8134 33.346C24.8134 32.5807 24.9627 31.9087 25.2614 31.33C25.5694 30.7513 26.0034 30.308 26.5634 30C27.1234 29.6827 27.7721 29.524 28.5094 29.524C29.2467 29.524 29.8954 29.6827 30.4554 30C31.0154 30.308 31.4447 30.7513 31.7434 31.33C32.0514 31.9087 32.2054 32.5807 32.2054 33.346C32.2054 34.1113 32.0514 34.7833 31.7434 35.362C31.4447 35.9407 31.0154 36.3887 30.4554 36.706C29.8954 37.014 29.2467 37.168 28.5094 37.168ZM28.5094 35.642C29.0601 35.642 29.4894 35.446 29.7974 35.054C30.1054 34.6527 30.2594 34.0833 30.2594 33.346C30.2594 32.5993 30.1054 32.03 29.7974 31.638C29.4894 31.246 29.0601 31.05 28.5094 31.05C27.9587 31.05 27.5294 31.246 27.2214 31.638C26.9134 32.03 26.7594 32.5993 26.7594 33.346C26.7594 34.0833 26.9134 34.6527 27.2214 35.054C27.5294 35.446 27.9587 35.642 28.5094 35.642ZM38.2065 29.538C38.7572 29.538 39.2425 29.6967 39.6625 30.014C40.0918 30.322 40.4232 30.7607 40.6565 31.33C40.8992 31.89 41.0205 32.5387 41.0205 33.276C41.0205 34.004 40.8805 34.6667 40.6005 35.264C40.3205 35.852 39.9332 36.3187 39.4385 36.664C38.9532 37 38.4025 37.168 37.7865 37.168C37.0398 37.168 36.3772 37.014 35.7985 36.706V40.248H33.9505V31.316L33.6425 29.692H35.3365L35.6305 30.728C35.9665 30.3453 36.3585 30.0513 36.8065 29.846C37.2545 29.6407 37.7212 29.538 38.2065 29.538ZM37.4085 35.642C38.5192 35.642 39.0745 34.8627 39.0745 33.304C39.0745 32.5853 38.9625 32.03 38.7385 31.638C38.5238 31.246 38.2065 31.05 37.7865 31.05C37.1145 31.05 36.4518 31.3767 35.7985 32.03V35.418C36.3958 35.5673 36.9325 35.642 37.4085 35.642ZM48.7334 28.88V31.316H52.9334V32.842H48.7334V35.376H53.2414V37H46.8854V27.256H53.2414V28.88H48.7334ZM60.1385 37L58.0945 34.368L56.1205 37H54.1745L57.1425 33.136L54.4825 29.692H56.5265L58.2625 31.932L59.9285 29.692H61.8745L59.2145 33.164L62.1825 37H60.1385ZM67.3145 29.538C67.8651 29.538 68.3505 29.6967 68.7705 30.014C69.1998 30.322 69.5311 30.7607 69.7645 31.33C70.0071 31.89 70.1285 32.5387 70.1285 33.276C70.1285 34.004 69.9885 34.6667 69.7085 35.264C69.4285 35.852 69.0411 36.3187 68.5465 36.664C68.0611 37 67.5105 37.168 66.8945 37.168C66.1478 37.168 65.4851 37.014 64.9065 36.706V40.248H63.0585V31.316L62.7505 29.692H64.4445L64.7385 30.728C65.0745 30.3453 65.4665 30.0513 65.9145 29.846C66.3625 29.6407 66.8291 29.538 67.3145 29.538ZM66.5165 35.642C67.6271 35.642 68.1825 34.8627 68.1825 33.304C68.1825 32.5853 68.0705 32.03 67.8465 31.638C67.6318 31.246 67.3145 31.05 66.8945 31.05C66.2225 31.05 65.5598 31.3767 64.9065 32.03V35.418C65.5038 35.5673 66.0405 35.642 66.5165 35.642ZM78.4675 33.906H73.3855C73.4602 34.466 73.6655 34.8953 74.0015 35.194C74.3469 35.4927 74.8042 35.642 75.3735 35.642C75.7935 35.642 76.2462 35.5673 76.7315 35.418C77.2262 35.2593 77.6835 35.0447 78.1035 34.774H78.1595V36.272C77.7862 36.5613 77.3569 36.7853 76.8715 36.944C76.3955 37.0933 75.8915 37.168 75.3595 37.168C74.5942 37.168 73.9269 37.014 73.3575 36.706C72.7882 36.398 72.3495 35.9547 72.0415 35.376C71.7335 34.7973 71.5795 34.1207 71.5795 33.346C71.5795 32.59 71.7242 31.9227 72.0135 31.344C72.3122 30.7653 72.7275 30.3173 73.2595 30C73.7915 29.6827 74.4075 29.524 75.1075 29.524C75.7889 29.524 76.3815 29.678 76.8855 29.986C77.3989 30.294 77.7909 30.7373 78.0615 31.316C78.3322 31.8947 78.4675 32.5713 78.4675 33.346V33.906ZM75.1075 31.008C74.6689 31.008 74.3002 31.1527 74.0015 31.442C73.7122 31.7313 73.5162 32.1327 73.4135 32.646H76.5635C76.4889 32.114 76.3302 31.708 76.0875 31.428C75.8449 31.148 75.5182 31.008 75.1075 31.008ZM84.2721 29.524C85.0094 29.524 85.6021 29.7433 86.0501 30.182C86.5074 30.6113 86.7361 31.1807 86.7361 31.89V37H84.8881V32.94C84.8881 32.3053 84.7901 31.8527 84.5941 31.582C84.4074 31.302 84.0947 31.162 83.6561 31.162C83.1707 31.162 82.6574 31.4327 82.1161 31.974V37H80.2681V31.316L79.9601 29.692H81.6541L81.9201 30.63C82.3214 30.238 82.7087 29.958 83.0821 29.79C83.4554 29.6127 83.8521 29.524 84.2721 29.524ZM91.2111 37.168C90.7258 37.168 90.2498 37.1027 89.7831 36.972C89.3165 36.832 88.8778 36.636 88.4671 36.384V34.634C88.9151 34.97 89.3398 35.2173 89.7411 35.376C90.1425 35.5347 90.5765 35.614 91.0431 35.614C91.5191 35.614 91.8691 35.5533 92.0931 35.432C92.3265 35.3107 92.4431 35.124 92.4431 34.872C92.4431 34.6293 92.3311 34.452 92.1071 34.34C91.8925 34.2187 91.5471 34.102 91.0711 33.99C90.5485 33.8593 90.1238 33.7287 89.7971 33.598C89.4705 33.458 89.1858 33.234 88.9431 32.926C88.7098 32.618 88.5931 32.2027 88.5931 31.68C88.5931 31.0267 88.8591 30.504 89.3911 30.112C89.9325 29.72 90.6558 29.524 91.5611 29.524C91.9998 29.524 92.4058 29.5753 92.7791 29.678C93.1525 29.7713 93.5351 29.93 93.9271 30.154V31.862C93.5258 31.582 93.1525 31.3813 92.8071 31.26C92.4618 31.1387 92.0931 31.078 91.7011 31.078C91.2718 31.078 90.9405 31.134 90.7071 31.246C90.4738 31.3487 90.3571 31.5027 90.3571 31.708C90.3571 31.9133 90.4551 32.0673 90.6511 32.17C90.8565 32.2633 91.1785 32.3613 91.6171 32.464C92.1398 32.576 92.5738 32.7067 92.9191 32.856C93.2738 32.996 93.5771 33.2293 93.8291 33.556C94.0811 33.8733 94.2071 34.3167 94.2071 34.886C94.2071 35.3247 94.0811 35.7213 93.8291 36.076C93.5771 36.4213 93.2225 36.692 92.7651 36.888C92.3078 37.0747 91.7898 37.168 91.2111 37.168ZM102.397 33.906H97.3151C97.3898 34.466 97.5951 34.8953 97.9311 35.194C98.2765 35.4927 98.7338 35.642 99.3031 35.642C99.7231 35.642 100.176 35.5673 100.661 35.418C101.156 35.2593 101.613 35.0447 102.033 34.774H102.089V36.272C101.716 36.5613 101.286 36.7853 100.801 36.944C100.325 37.0933 99.8211 37.168 99.2891 37.168C98.5238 37.168 97.8565 37.014 97.2871 36.706C96.7178 36.398 96.2791 35.9547 95.9711 35.376C95.6631 34.7973 95.5091 34.1207 95.5091 33.346C95.5091 32.59 95.6538 31.9227 95.9431 31.344C96.2418 30.7653 96.6571 30.3173 97.1891 30C97.7211 29.6827 98.3371 29.524 99.0371 29.524C99.7185 29.524 100.311 29.678 100.815 29.986C101.328 30.294 101.72 30.7373 101.991 31.316C102.262 31.8947 102.397 32.5713 102.397 33.346V33.906ZM99.0371 31.008C98.5985 31.008 98.2298 31.1527 97.9311 31.442C97.6418 31.7313 97.4458 32.1327 97.3431 32.646H100.493C100.418 32.114 100.26 31.708 100.017 31.428C99.7745 31.148 99.4478 31.008 99.0371 31.008ZM106.326 37.168C105.84 37.168 105.364 37.1027 104.898 36.972C104.431 36.832 103.992 36.636 103.582 36.384V34.634C104.03 34.97 104.454 35.2173 104.856 35.376C105.257 35.5347 105.691 35.614 106.158 35.614C106.634 35.614 106.984 35.5533 107.208 35.432C107.441 35.3107 107.558 35.124 107.558 34.872C107.558 34.6293 107.446 34.452 107.222 34.34C107.007 34.2187 106.662 34.102 106.186 33.99C105.663 33.8593 105.238 33.7287 104.912 33.598C104.585 33.458 104.3 33.234 104.058 32.926C103.824 32.618 103.708 32.2027 103.708 31.68C103.708 31.0267 103.974 30.504 104.506 30.112C105.047 29.72 105.77 29.524 106.676 29.524C107.114 29.524 107.52 29.5753 107.894 29.678C108.267 29.7713 108.65 29.93 109.042 30.154V31.862C108.64 31.582 108.267 31.3813 107.922 31.26C107.576 31.1387 107.208 31.078 106.816 31.078C106.386 31.078 106.055 31.134 105.822 31.246C105.588 31.3487 105.472 31.5027 105.472 31.708C105.472 31.9133 105.57 32.0673 105.766 32.17C105.971 32.2633 106.293 32.3613 106.732 32.464C107.254 32.576 107.688 32.7067 108.034 32.856C108.388 32.996 108.692 33.2293 108.944 33.556C109.196 33.8733 109.322 34.3167 109.322 34.886C109.322 35.3247 109.196 35.7213 108.944 36.076C108.692 36.4213 108.337 36.692 107.88 36.888C107.422 37.0747 106.904 37.168 106.326 37.168Z" fill="#E0E0E0"/>
<path d="M29.6922 68.296C29.6922 69.608 29.2682 70.696 28.4202 71.56C27.5882 72.424 26.4442 72.968 24.9882 73.192V75.784H23.0202V73.288C22.1082 73.24 21.1722 73.104 20.2122 72.88C19.2682 72.64 18.3802 72.328 17.5482 71.944V68.872C19.5962 69.944 21.4202 70.504 23.0202 70.552V65.584C21.9162 65.168 21.0442 64.8 20.4042 64.48C19.7642 64.144 19.2122 63.672 18.7482 63.064C18.2842 62.456 18.0522 61.68 18.0522 60.736C18.0522 59.456 18.4922 58.408 19.3722 57.592C20.2682 56.776 21.4842 56.272 23.0202 56.08V53.512H24.9882V56.032C26.5402 56.112 27.9322 56.464 29.1642 57.088V60.088C27.7562 59.272 26.3642 58.832 24.9882 58.768V63.28C25.9482 63.632 26.7482 64 27.3882 64.384C28.0442 64.752 28.5882 65.256 29.0202 65.896C29.4682 66.536 29.6922 67.336 29.6922 68.296ZM21.2922 60.544C21.2922 60.976 21.4362 61.344 21.7242 61.648C22.0282 61.952 22.4602 62.232 23.0202 62.488V58.888C22.4762 59 22.0522 59.2 21.7482 59.488C21.4442 59.76 21.2922 60.112 21.2922 60.544ZM24.9882 70.312C25.9482 69.976 26.4282 69.368 26.4282 68.488C26.4282 68.04 26.3002 67.656 26.0442 67.336C25.8042 67 25.4522 66.704 24.9882 66.448V70.312ZM38.7582 62.512C39.8302 62.512 40.7822 62.744 41.6142 63.208C42.4462 63.672 43.0942 64.312 43.5582 65.128C44.0222 65.944 44.2542 66.856 44.2542 67.864C44.2542 68.952 43.9822 69.904 43.4382 70.72C42.8942 71.536 42.1262 72.168 41.1342 72.616C40.1422 73.048 38.9902 73.264 37.6782 73.264C36.6702 73.264 35.6782 73.136 34.7022 72.88C33.7262 72.608 32.8622 72.224 32.1102 71.728V68.656H32.2062C32.9262 69.216 33.7902 69.672 34.7982 70.024C35.8062 70.376 36.7422 70.552 37.6062 70.552C38.6302 70.552 39.4542 70.304 40.0782 69.808C40.7022 69.296 41.0142 68.632 41.0142 67.816C41.0142 67.048 40.7422 66.424 40.1982 65.944C39.6702 65.464 38.9742 65.224 38.1102 65.224C36.9582 65.224 35.8622 65.648 34.8222 66.496H34.7262L32.6382 65.848V65.728L33.7182 56.296H43.4622V59.056H36.3582L35.9022 63.136C36.8142 62.72 37.7662 62.512 38.7582 62.512ZM50.473 69.4C50.473 70.472 50.329 71.576 50.041 72.712C49.753 73.848 49.241 75.144 48.505 76.6H45.337C45.865 75.64 46.249 74.736 46.489 73.888C46.729 73.056 46.873 72.32 46.921 71.68C46.985 71.024 47.017 70.264 47.017 69.4H50.473ZM62.5394 64.264C63.3554 64.696 63.9874 65.28 64.4354 66.016C64.8994 66.736 65.1314 67.536 65.1314 68.416C65.1314 69.392 64.8594 70.248 64.3154 70.984C63.7714 71.72 63.0034 72.288 62.0114 72.688C61.0194 73.088 59.8914 73.288 58.6274 73.288C57.6994 73.288 56.8114 73.176 55.9634 72.952C55.1314 72.728 54.2994 72.384 53.4674 71.92V68.824H53.5634C55.2274 69.976 56.8754 70.552 58.5074 70.552C59.5314 70.552 60.3474 70.352 60.9554 69.952C61.5634 69.536 61.8674 68.968 61.8674 68.248C61.8674 67.464 61.5234 66.832 60.8354 66.352C60.1474 65.856 59.2194 65.608 58.0514 65.608H57.0434V62.968H58.0514C59.1394 62.968 59.9954 62.768 60.6194 62.368C61.2434 61.968 61.5554 61.416 61.5554 60.712C61.5554 60.088 61.2914 59.608 60.7634 59.272C60.2514 58.936 59.5314 58.768 58.6034 58.768C57.8834 58.768 57.1554 58.88 56.4194 59.104C55.6994 59.328 54.9074 59.68 54.0434 60.16H53.9474V57.184C55.4674 56.4 57.0674 56.008 58.7474 56.008C60.5714 56.008 62.0274 56.408 63.1154 57.208C64.2194 57.992 64.7714 59.064 64.7714 60.424C64.7714 61.224 64.5714 61.96 64.1714 62.632C63.7874 63.288 63.2434 63.832 62.5394 64.264ZM80.0142 56.296V57.904L73.5582 73H70.6542L70.0782 72.904L76.3182 59.056H68.9022V56.296H80.0142ZM89.065 73.288C86.809 73.288 85.145 72.504 84.073 70.936C83.001 69.352 82.465 67.256 82.465 64.648C82.465 62.04 83.001 59.952 84.073 58.384C85.145 56.8 86.809 56.008 89.065 56.008C91.321 56.008 92.985 56.8 94.057 58.384C95.129 59.952 95.665 62.04 95.665 64.648C95.665 67.256 95.129 69.352 94.057 70.936C92.985 72.504 91.321 73.288 89.065 73.288ZM89.065 70.576C90.217 70.576 91.049 70.032 91.561 68.944C92.073 67.856 92.329 66.424 92.329 64.648C92.329 62.872 92.073 61.44 91.561 60.352C91.049 59.264 90.217 58.72 89.065 58.72C87.913 58.72 87.081 59.264 86.569 60.352C86.057 61.44 85.801 62.872 85.801 64.648C85.801 66.424 86.057 67.856 86.569 68.944C87.081 70.032 87.913 70.576 89.065 70.576Z" fill="white"/>
<path d="M118.5 64V72M118.5 72L122 68.8M118.5 72L115 68.8" stroke="#FF7B69" stroke-width="1.25" stroke-linecap="round" stroke-linejoin="round"/>
<path d="M129.11 70.62C128.59 70.62 128.127 70.5333 127.72 70.36C127.313 70.1867 126.997 69.9433 126.77 69.63C126.543 69.3167 126.43 68.9633 126.43 68.57C126.43 68.19 126.533 67.85 126.74 67.55C126.953 67.25 127.22 67.04 127.54 66.92C127.24 66.82 127 66.62 126.82 66.32C126.647 66.02 126.56 65.6933 126.56 65.34C126.56 64.96 126.667 64.6233 126.88 64.33C127.1 64.0367 127.403 63.8133 127.79 63.66C128.177 63.5 128.613 63.42 129.1 63.42C129.593 63.42 130.03 63.5 130.41 63.66C130.797 63.8133 131.097 64.0367 131.31 64.33C131.53 64.6167 131.64 64.95 131.64 65.33C131.64 65.6833 131.55 66.01 131.37 66.31C131.19 66.61 130.95 66.8133 130.65 66.92C131.003 67.0467 131.277 67.2633 131.47 67.57C131.67 67.87 131.77 68.2033 131.77 68.57C131.77 68.97 131.657 69.3267 131.43 69.64C131.203 69.9467 130.887 70.1867 130.48 70.36C130.08 70.5333 129.623 70.62 129.11 70.62ZM129.1 66.35C129.48 66.35 129.773 66.2733 129.98 66.12C130.193 65.96 130.3 65.7333 130.3 65.44C130.3 65.1467 130.197 64.92 129.99 64.76C129.783 64.6 129.487 64.52 129.1 64.52C128.713 64.52 128.417 64.6 128.21 64.76C128.003 64.92 127.9 65.1467 127.9 65.44C127.9 65.7333 128.003 65.96 128.21 66.12C128.417 66.2733 128.713 66.35 129.1 66.35ZM129.1 69.51C129.52 69.51 129.843 69.42 130.07 69.24C130.297 69.06 130.41 68.81 130.41 68.49C130.41 68.1633 130.297 67.9133 130.07 67.74C129.843 67.56 129.52 67.47 129.1 67.47C128.687 67.47 128.363 67.56 128.13 67.74C127.903 67.9133 127.79 68.1633 127.79 68.49C127.79 68.8167 127.903 69.07 128.13 69.25C128.357 69.4233 128.68 69.51 129.1 69.51ZM134.821 67.59C134.175 67.59 133.695 67.4 133.381 67.02C133.075 66.6333 132.921 66.1267 132.921 65.5C132.921 64.8733 133.075 64.37 133.381 63.99C133.695 63.6033 134.175 63.41 134.821 63.41C135.468 63.41 135.945 63.6033 136.251 63.99C136.565 64.37 136.721 64.8733 136.721 65.5C136.721 66.1267 136.565 66.6333 136.251 67.02C135.945 67.4 135.468 67.59 134.821 67.59ZM140.451 63.54L134.941 70.5H133.951L139.461 63.54H140.451ZM134.821 66.73C135.095 66.73 135.298 66.6167 135.431 66.39C135.565 66.1567 135.631 65.86 135.631 65.5C135.631 65.1467 135.561 64.8533 135.421 64.62C135.288 64.3867 135.088 64.27 134.821 64.27C134.555 64.27 134.351 64.3867 134.211 64.62C134.078 64.8533 134.011 65.1467 134.011 65.5C134.011 65.86 134.078 66.1567 134.211 66.39C134.345 66.6167 134.548 66.73 134.821 66.73ZM139.581 70.63C138.935 70.63 138.455 70.44 138.141 70.06C137.835 69.6733 137.681 69.1667 137.681 68.54C137.681 67.9133 137.835 67.41 138.141 67.03C138.455 66.6433 138.935 66.45 139.581 66.45C140.228 66.45 140.705 66.6433 141.011 67.03C141.325 67.41 141.481 67.9133 141.481 68.54C141.481 69.1667 141.325 69.6733 141.011 70.06C140.705 70.44 140.228 70.63 139.581 70.63ZM139.581 69.77C139.855 69.77 140.058 69.6567 140.191 69.43C140.325 69.1967 140.391 68.9 140.391 68.54C140.391 68.1867 140.321 67.8933 140.181 67.66C140.048 67.4267 139.848 67.31 139.581 67.31C139.315 67.31 139.111 67.4267 138.971 67.66C138.838 67.8933 138.771 68.1867 138.771 68.54C138.771 68.9 138.838 69.1967 138.971 69.43C139.105 69.6567 139.308 69.77 139.581 69.77Z" fill="#FF7B69"/>
<path d="M151.038 69.34V70.5H146.178V69.34H148.128V65.08L146.848 65.64H146.808L146.528 64.79V64.75L148.518 63.54H149.448V69.34H151.038ZM160.979 70.5H159.659V65.21L157.819 70.5H156.439L154.559 65.22V70.5H153.239V63.54H155.309L157.149 68.7L158.939 63.54H160.979V70.5Z" fill="#E0E0E0"/>
<g filter="url(#filter0_d_1_34)">
<path d="M119 112.5H131" stroke="#BC7CE4" stroke-width="2"/>
<path d="M142.867 106.256H146.031C148.458 106.256 149.671 107.32 149.671 109.448C149.671 110.521 149.368 111.343 148.761 111.912C148.164 112.472 147.287 112.752 146.129 112.752H144.099V116H142.867V106.256ZM146.087 111.604C146.89 111.604 147.464 111.441 147.809 111.114C148.164 110.787 148.341 110.251 148.341 109.504C148.341 108.757 148.164 108.225 147.809 107.908C147.464 107.591 146.871 107.432 146.031 107.432H144.099V111.604H146.087ZM156.169 116L155.973 114.95C155.609 115.351 155.213 115.655 154.783 115.86C154.363 116.065 153.887 116.168 153.355 116.168C152.693 116.168 152.156 115.981 151.745 115.608C151.335 115.225 151.129 114.721 151.129 114.096C151.129 113.284 151.456 112.687 152.109 112.304C152.763 111.921 153.603 111.73 154.629 111.73C155.003 111.73 155.413 111.753 155.861 111.8V111.296C155.861 110.792 155.721 110.391 155.441 110.092C155.171 109.784 154.816 109.63 154.377 109.63C153.855 109.63 153.379 109.7 152.949 109.84C152.529 109.98 152.095 110.199 151.647 110.498V109.308C152.086 109.019 152.534 108.818 152.991 108.706C153.449 108.585 153.971 108.524 154.559 108.524C155.306 108.524 155.913 108.762 156.379 109.238C156.855 109.714 157.093 110.344 157.093 111.128V114.376L157.401 116H156.169ZM153.607 115.132C154.055 115.132 154.457 115.039 154.811 114.852C155.166 114.665 155.516 114.395 155.861 114.04V112.668H154.573C153.164 112.668 152.459 113.121 152.459 114.026C152.459 114.362 152.567 114.633 152.781 114.838C152.996 115.034 153.271 115.132 153.607 115.132ZM165.663 108.692L161.477 119.248H160.217L161.477 116.084L158.579 108.692H159.839L162.121 114.684L164.347 108.692H165.663ZM170.963 108.524V109.882H170.753C170.314 109.882 169.917 109.961 169.563 110.12C169.217 110.279 168.928 110.507 168.695 110.806V116H167.463V110.316L167.155 108.692H168.387L168.639 109.994C169.021 109.434 169.343 109.051 169.605 108.846C169.875 108.631 170.183 108.524 170.529 108.524H170.963ZM175.84 116.168C174.776 116.168 173.945 115.823 173.348 115.132C172.751 114.432 172.452 113.503 172.452 112.346C172.452 111.189 172.751 110.265 173.348 109.574C173.945 108.874 174.776 108.524 175.84 108.524C176.904 108.524 177.735 108.874 178.332 109.574C178.929 110.265 179.228 111.189 179.228 112.346C179.228 113.503 178.929 114.432 178.332 115.132C177.735 115.823 176.904 116.168 175.84 116.168ZM175.84 115.104C176.521 115.104 177.035 114.852 177.38 114.348C177.725 113.844 177.898 113.177 177.898 112.346C177.898 111.515 177.725 110.848 177.38 110.344C177.035 109.84 176.521 109.588 175.84 109.588C175.159 109.588 174.645 109.84 174.3 110.344C173.964 110.848 173.796 111.515 173.796 112.346C173.796 113.177 173.964 113.844 174.3 114.348C174.645 114.852 175.159 115.104 175.84 115.104ZM181.519 105.444H182.751V116H181.519V105.444ZM185.303 105.444H186.535V116H185.303V105.444Z" fill="white"/>
<path d="M208 112.5H220" stroke="#FFD19C" stroke-width="2"/>
<path d="M237.621 113.424H232.931L231.937 116H230.705L234.457 106.256H236.165L239.917 116H238.615L237.621 113.424ZM237.215 112.374L235.283 107.334L233.337 112.374H237.215ZM246.92 116L246.738 115.034C246.402 115.407 246.024 115.687 245.604 115.874C245.184 116.061 244.713 116.154 244.19 116.154C243.285 116.154 242.59 115.804 242.104 115.104C241.619 114.404 241.376 113.508 241.376 112.416C241.376 111.669 241.507 111.002 241.768 110.414C242.039 109.826 242.422 109.364 242.916 109.028C243.42 108.692 244.018 108.524 244.708 108.524C245.044 108.524 245.362 108.566 245.66 108.65C245.959 108.725 246.276 108.837 246.612 108.986V105.444H247.844V114.376L248.152 116H246.92ZM244.386 115.02C244.834 115.02 245.231 114.931 245.576 114.754C245.931 114.567 246.276 114.297 246.612 113.942V109.924C246.015 109.719 245.422 109.616 244.834 109.616C244.153 109.616 243.626 109.877 243.252 110.4C242.888 110.913 242.706 111.576 242.706 112.388C242.706 113.163 242.837 113.797 243.098 114.292C243.369 114.777 243.798 115.02 244.386 115.02ZM252.529 116.168C252.081 116.168 251.638 116.103 251.199 115.972C250.77 115.832 250.364 115.636 249.981 115.384V114.096C250.831 114.749 251.671 115.076 252.501 115.076C252.987 115.076 253.379 114.978 253.677 114.782C253.976 114.577 254.125 114.306 254.125 113.97C254.125 113.737 254.051 113.545 253.901 113.396C253.761 113.247 253.584 113.13 253.369 113.046C253.155 112.962 252.847 112.859 252.445 112.738C251.951 112.598 251.54 112.463 251.213 112.332C250.896 112.192 250.625 111.991 250.401 111.73C250.177 111.459 250.065 111.109 250.065 110.68C250.065 110.027 250.313 109.504 250.807 109.112C251.302 108.72 251.951 108.524 252.753 108.524C253.556 108.524 254.284 108.734 254.937 109.154V110.4C254.573 110.12 254.219 109.919 253.873 109.798C253.537 109.677 253.183 109.616 252.809 109.616C252.343 109.616 251.974 109.7 251.703 109.868C251.433 110.036 251.297 110.269 251.297 110.568C251.297 110.783 251.367 110.96 251.507 111.1C251.657 111.24 251.839 111.352 252.053 111.436C252.268 111.52 252.576 111.623 252.977 111.744C253.481 111.893 253.892 112.038 254.209 112.178C254.527 112.309 254.797 112.514 255.021 112.794C255.245 113.065 255.357 113.419 255.357 113.858C255.357 114.306 255.236 114.707 254.993 115.062C254.751 115.407 254.415 115.678 253.985 115.874C253.556 116.07 253.071 116.168 252.529 116.168ZM260.929 108.524C261.564 108.524 262.105 108.692 262.553 109.028C263.001 109.364 263.337 109.821 263.561 110.4C263.795 110.979 263.911 111.632 263.911 112.36C263.911 113.088 263.776 113.741 263.505 114.32C263.244 114.889 262.861 115.337 262.357 115.664C261.863 115.991 261.275 116.154 260.593 116.154C260.248 116.154 259.926 116.117 259.627 116.042C259.329 115.967 259.011 115.86 258.675 115.72V119.248H257.443V110.316L257.135 108.692H258.367L258.549 109.63C259.184 108.893 259.977 108.524 260.929 108.524ZM260.467 115.062C261.139 115.062 261.657 114.81 262.021 114.306C262.395 113.802 262.581 113.153 262.581 112.36C262.581 111.567 262.437 110.918 262.147 110.414C261.867 109.91 261.424 109.658 260.817 109.658C260.388 109.658 260.001 109.747 259.655 109.924C259.319 110.101 258.993 110.363 258.675 110.708V114.782C259.282 114.969 259.879 115.062 260.467 115.062ZM272.292 112.752H267.112C267.187 113.471 267.425 114.045 267.826 114.474C268.237 114.894 268.792 115.104 269.492 115.104C269.912 115.104 270.318 115.02 270.71 114.852C271.112 114.675 271.518 114.418 271.928 114.082H271.984V115.314C271.574 115.613 271.168 115.832 270.766 115.972C270.365 116.103 269.936 116.168 269.478 116.168C268.732 116.168 268.083 116.005 267.532 115.678C266.982 115.351 266.557 114.899 266.258 114.32C265.969 113.732 265.824 113.06 265.824 112.304C265.824 111.585 265.955 110.941 266.216 110.372C266.487 109.793 266.87 109.341 267.364 109.014C267.859 108.687 268.438 108.524 269.1 108.524C269.772 108.524 270.346 108.692 270.822 109.028C271.308 109.355 271.672 109.807 271.914 110.386C272.166 110.965 272.292 111.618 272.292 112.346V112.752ZM269.114 109.546C268.536 109.546 268.074 109.756 267.728 110.176C267.383 110.596 267.178 111.137 267.112 111.8H271.018C270.953 111.119 270.762 110.573 270.444 110.162C270.136 109.751 269.693 109.546 269.114 109.546ZM278.405 108.524C279.096 108.524 279.618 108.739 279.973 109.168C280.328 109.588 280.505 110.176 280.505 110.932V116H279.273V111.1C279.273 110.633 279.175 110.274 278.979 110.022C278.783 109.761 278.484 109.63 278.083 109.63C277.626 109.63 277.238 109.705 276.921 109.854C276.613 110.003 276.268 110.246 275.885 110.582V116H274.653V110.316L274.345 108.692H275.577L275.773 109.714C276.212 109.294 276.618 108.991 276.991 108.804C277.374 108.617 277.845 108.524 278.405 108.524ZM288.48 116L288.298 115.034C287.962 115.407 287.584 115.687 287.164 115.874C286.744 116.061 286.273 116.154 285.75 116.154C284.845 116.154 284.149 115.804 283.664 115.104C283.179 114.404 282.936 113.508 282.936 112.416C282.936 111.669 283.067 111.002 283.328 110.414C283.599 109.826 283.981 109.364 284.476 109.028C284.98 108.692 285.577 108.524 286.268 108.524C286.604 108.524 286.921 108.566 287.22 108.65C287.519 108.725 287.836 108.837 288.172 108.986V105.444H289.404V114.376L289.712 116H288.48ZM285.946 115.02C286.394 115.02 286.791 114.931 287.136 114.754C287.491 114.567 287.836 114.297 288.172 113.942V109.924C287.575 109.719 286.982 109.616 286.394 109.616C285.713 109.616 285.185 109.877 284.812 110.4C284.448 110.913 284.266 111.576 284.266 112.388C284.266 113.163 284.397 113.797 284.658 114.292C284.929 114.777 285.358 115.02 285.946 115.02Z" fill="white"/>
<path d="M311 112.5H323" stroke="#EBEAF6" stroke-width="2"/>
<path d="M340.667 116L338.693 112.178H338.553H336.313V116H335.081V106.256H338.385C339.552 106.256 340.42 106.503 340.989 106.998C341.558 107.483 341.843 108.197 341.843 109.14C341.843 109.84 341.689 110.433 341.381 110.918C341.073 111.403 340.62 111.749 340.023 111.954L342.151 116H340.667ZM338.399 111.016C339.127 111.016 339.659 110.876 339.995 110.596C340.34 110.307 340.513 109.821 340.513 109.14C340.513 108.515 340.34 108.076 339.995 107.824C339.659 107.563 339.122 107.432 338.385 107.432H336.313V111.016H338.399ZM350.442 112.752H345.262C345.336 113.471 345.574 114.045 345.976 114.474C346.386 114.894 346.942 115.104 347.642 115.104C348.062 115.104 348.468 115.02 348.86 114.852C349.261 114.675 349.667 114.418 350.078 114.082H350.134V115.314C349.723 115.613 349.317 115.832 348.916 115.972C348.514 116.103 348.085 116.168 347.628 116.168C346.881 116.168 346.232 116.005 345.682 115.678C345.131 115.351 344.706 114.899 344.408 114.32C344.118 113.732 343.974 113.06 343.974 112.304C343.974 111.585 344.104 110.941 344.366 110.372C344.636 109.793 345.019 109.341 345.514 109.014C346.008 108.687 346.587 108.524 347.25 108.524C347.922 108.524 348.496 108.692 348.972 109.028C349.457 109.355 349.821 109.807 350.064 110.386C350.316 110.965 350.442 111.618 350.442 112.346V112.752ZM347.264 109.546C346.685 109.546 346.223 109.756 345.878 110.176C345.532 110.596 345.327 111.137 345.262 111.8H349.168C349.102 111.119 348.911 110.573 348.594 110.162C348.286 109.751 347.842 109.546 347.264 109.546ZM356.554 108.524C357.245 108.524 357.768 108.739 358.122 109.168C358.477 109.588 358.654 110.176 358.654 110.932V116H357.422V111.1C357.422 110.633 357.324 110.274 357.128 110.022C356.932 109.761 356.634 109.63 356.232 109.63C355.775 109.63 355.388 109.705 355.07 109.854C354.762 110.003 354.417 110.246 354.034 110.582V116H352.802V110.316L352.494 108.692H353.726L353.922 109.714C354.361 109.294 354.767 108.991 355.14 108.804C355.523 108.617 355.994 108.524 356.554 108.524ZM363.045 108.692H365.061V109.756H363.045V113.942C363.045 114.287 363.12 114.567 363.269 114.782C363.428 114.987 363.657 115.09 363.955 115.09C364.161 115.09 364.343 115.071 364.501 115.034C364.669 114.987 364.856 114.917 365.061 114.824V115.916C364.847 116.019 364.641 116.084 364.445 116.112C364.249 116.149 364.011 116.168 363.731 116.168C363.134 116.168 362.663 115.977 362.317 115.594C361.981 115.211 361.813 114.703 361.813 114.068V109.756H360.413V108.692H361.813V106.732L363.045 106.088V108.692Z" fill="white"/>
<path d="M292.273 378.145H290.953V372.855L289.113 378.145H287.733L285.853 372.865V378.145H284.533V371.185H286.603L288.443 376.345L290.233 371.185H292.273V378.145ZM298.967 376.565H295.997L295.417 378.145H294.097L296.737 371.185H298.277L300.917 378.145H299.547L298.967 376.565ZM298.557 375.445L297.487 372.485L296.407 375.445H298.557ZM307.604 371.185L305.074 375.745V378.145H303.754V375.745L301.224 371.185H302.634L304.424 374.565L306.244 371.185H307.604Z" fill="#A3A3A3"/>
<path d="M229.774 376.565H226.804L226.224 378.145H224.904L227.544 371.185H229.084L231.724 378.145H230.354L229.774 376.565ZM229.364 375.445L228.294 372.485L227.214 375.445H229.364ZM233.546 371.185H235.846C236.806 371.185 237.523 371.381 237.996 371.775C238.47 372.161 238.706 372.725 238.706 373.465C238.706 374.211 238.473 374.791 238.006 375.205C237.54 375.618 236.86 375.825 235.966 375.825H234.866V378.145H233.546V371.185ZM235.856 374.675C236.356 374.675 236.723 374.585 236.956 374.405C237.196 374.225 237.316 373.921 237.316 373.495C237.316 373.081 237.2 372.788 236.966 372.615C236.733 372.441 236.36 372.355 235.846 372.355H234.866V374.675H235.856ZM244.628 378.145L243.208 375.495H241.968V378.145H240.648V371.185H243.158C244.058 371.185 244.731 371.365 245.178 371.725C245.625 372.085 245.848 372.608 245.848 373.295C245.848 373.781 245.738 374.195 245.518 374.535C245.298 374.875 244.971 375.128 244.538 375.295L246.078 378.145H244.628ZM241.968 374.335H243.168C243.608 374.335 243.931 374.258 244.138 374.105C244.351 373.951 244.458 373.691 244.458 373.325C244.458 372.971 244.355 372.721 244.148 372.575C243.941 372.428 243.611 372.355 243.158 372.355H241.968V374.335Z" fill="#A3A3A3"/>
<path d="M174.654 378.145H173.334V372.855L171.494 378.145H170.114L168.234 372.865V378.145H166.914V371.185H168.984L170.824 376.345L172.614 371.185H174.654V378.145ZM181.349 376.565H178.379L177.799 378.145H176.479L179.119 371.185H180.659L183.299 378.145H181.929L181.349 376.565ZM180.939 375.445L179.869 372.485L178.789 375.445H180.939ZM189.101 378.145L187.681 375.495H186.441V378.145H185.121V371.185H187.631C188.531 371.185 189.205 371.365 189.651 371.725C190.098 372.085 190.321 372.608 190.321 373.295C190.321 373.781 190.211 374.195 189.991 374.535C189.771 374.875 189.445 375.128 189.011 375.295L190.551 378.145H189.101ZM186.441 374.335H187.641C188.081 374.335 188.405 374.258 188.611 374.105C188.825 373.951 188.931 373.691 188.931 373.325C188.931 372.971 188.828 372.721 188.621 372.575C188.415 372.428 188.085 372.355 187.631 372.355H186.441V374.335Z" fill="#A3A3A3"/>
<path d="M113.754 372.345V374.195H116.344V375.295H113.754V378.145H112.434V371.185H117.004V372.345H113.754ZM120.25 372.345V374.085H123.25V375.175H120.25V376.985H123.47V378.145H118.93V371.185H123.47V372.345H120.25ZM129.986 374.525C130.346 374.678 130.62 374.895 130.806 375.175C130.993 375.455 131.086 375.795 131.086 376.195C131.086 376.828 130.856 377.311 130.396 377.645C129.936 377.978 129.27 378.145 128.396 378.145H125.826V371.185H128.516C129.27 371.185 129.85 371.345 130.256 371.665C130.663 371.978 130.866 372.428 130.866 373.015C130.866 373.715 130.573 374.218 129.986 374.525ZM127.146 372.345V374.005H128.396C128.756 374.005 129.026 373.931 129.206 373.785C129.386 373.638 129.476 373.425 129.476 373.145C129.476 372.838 129.396 372.628 129.236 372.515C129.083 372.401 128.806 372.345 128.406 372.345H127.146ZM128.396 376.975C128.87 376.975 129.203 376.908 129.396 376.775C129.596 376.635 129.696 376.398 129.696 376.065C129.696 375.751 129.59 375.521 129.376 375.375C129.17 375.228 128.846 375.155 128.406 375.155H127.146V376.975H128.396Z" fill="#A3A3A3"/>
<path d="M344.522 378.265C344.056 378.265 343.622 378.141 343.222 377.895V376.715C343.596 376.955 343.966 377.075 344.332 377.075C344.559 377.075 344.719 377.025 344.812 376.925C344.912 376.825 344.969 376.688 344.982 376.515C345.002 376.341 345.012 376.048 345.012 375.635V371.185H346.332V376.005C346.332 376.805 346.172 377.381 345.852 377.735C345.539 378.088 345.096 378.265 344.522 378.265ZM351.657 378.265C350.73 378.265 350.003 377.998 349.477 377.465C348.95 376.931 348.687 376.198 348.687 375.265V371.185H350.007V375.235C350.007 375.875 350.15 376.348 350.437 376.655C350.723 376.955 351.13 377.105 351.657 377.105C352.19 377.105 352.597 376.951 352.877 376.645C353.163 376.331 353.307 375.861 353.307 375.235V371.185H354.627V375.265C354.627 376.198 354.363 376.931 353.837 377.465C353.31 377.998 352.583 378.265 351.657 378.265ZM363.029 371.185V378.145H361.709L358.409 373.545V378.145H357.089V371.185H358.409L361.709 375.775V371.185H363.029Z" fill="#A3A3A3"/>
<path d="M53.8326 378.265C53.366 378.265 52.9326 378.141 52.5326 377.895V376.715C52.906 376.955 53.276 377.075 53.6426 377.075C53.8693 377.075 54.0293 377.025 54.1226 376.925C54.2226 376.825 54.2793 376.688 54.2926 376.515C54.3126 376.341 54.3226 376.048 54.3226 375.635V371.185H55.6426V376.005C55.6426 376.805 55.4826 377.381 55.1626 377.735C54.8493 378.088 54.406 378.265 53.8326 378.265ZM62.2269 376.565H59.2569L58.6769 378.145H57.3569L59.9969 371.185H61.5369L64.1769 378.145H62.8069L62.2269 376.565ZM61.8169 375.445L60.7469 372.485L59.6669 375.445H61.8169ZM71.9393 371.185V378.145H70.6193L67.3193 373.545V378.145H65.9993V371.185H67.3193L70.6193 375.775V371.185H71.9393Z" fill="#A3A3A3"/>
<path d="M22.813 162.83V164H18.073V163L20.303 160.66C20.6697 160.28 20.923 159.963 21.063 159.71C21.203 159.457 21.273 159.213 21.273 158.98C21.273 158.367 20.893 158.06 20.133 158.06C19.8197 158.06 19.503 158.107 19.183 158.2C18.8697 158.293 18.5697 158.433 18.283 158.62V157.41C18.8697 157.083 19.5063 156.92 20.193 156.92C20.933 156.92 21.5197 157.093 21.953 157.44C22.393 157.787 22.613 158.263 22.613 158.87C22.613 159.563 22.2997 160.257 21.673 160.95L19.963 162.83H22.813ZM27.1542 161.12L26.3942 162V164H25.0742V157.04H26.3942V160.2L29.0642 157.04H30.6842L28.0542 160.08L30.8442 164H29.2142L27.1542 161.12Z" fill="#A3A3A3"/>
<path d="M16.779 204.166V205.326H11.919V204.166H13.869V199.906L12.589 200.466H12.549L12.269 199.616V199.576L14.259 198.366H15.189V204.166H16.779ZM19.2502 205.446C18.9969 205.446 18.7835 205.363 18.6102 205.196C18.4369 205.029 18.3502 204.809 18.3502 204.536C18.3502 204.263 18.4369 204.043 18.6102 203.876C18.7835 203.709 18.9969 203.626 19.2502 203.626C19.5035 203.626 19.7169 203.709 19.8902 203.876C20.0635 204.043 20.1502 204.263 20.1502 204.536C20.1502 204.809 20.0635 205.029 19.8902 205.196C19.7169 205.363 19.5035 205.446 19.2502 205.446ZM24.3879 200.956C24.8345 200.956 25.2312 201.053 25.5779 201.246C25.9245 201.439 26.1945 201.706 26.3879 202.046C26.5812 202.386 26.6779 202.766 26.6779 203.186C26.6779 203.639 26.5645 204.036 26.3379 204.376C26.1112 204.716 25.7912 204.979 25.3779 205.166C24.9645 205.346 24.4845 205.436 23.9379 205.436C23.5179 205.436 23.1045 205.383 22.6979 205.276C22.2912 205.163 21.9312 205.003 21.6179 204.796V203.516H21.6579C21.9579 203.749 22.3179 203.939 22.7379 204.086C23.1579 204.233 23.5479 204.306 23.9079 204.306C24.3345 204.306 24.6779 204.203 24.9379 203.996C25.1979 203.783 25.3279 203.506 25.3279 203.166C25.3279 202.846 25.2145 202.586 24.9879 202.386C24.7679 202.186 24.4779 202.086 24.1179 202.086C23.6379 202.086 23.1812 202.263 22.7479 202.616H22.7079L21.8379 202.346V202.296L22.2879 198.366H26.3479V199.516H23.3879L23.1979 201.216C23.5779 201.043 23.9745 200.956 24.3879 200.956ZM30.859 202.446L30.099 203.326V205.326H28.779V198.366H30.099V201.526L32.769 198.366H34.389L31.759 201.406L34.549 205.326H32.919L30.859 202.446Z" fill="#A3A3A3"/>
<path d="M22.873 253.006V254.166H18.013V253.006H19.963V248.746L18.683 249.306H18.643L18.363 248.456V248.416L20.353 247.206H21.283V253.006H22.873ZM27.1542 251.286L26.3942 252.166V254.166H25.0742V247.206H26.3942V250.366L29.0642 247.206H30.6842L28.0542 250.246L30.8442 254.166H29.2142L27.1542 251.286Z" fill="#A3A3A3"/>
<path d="M18.3161 298.63C18.7628 298.63 19.1595 298.727 19.5061 298.92C19.8528 299.113 20.1228 299.38 20.3161 299.72C20.5095 300.06 20.6061 300.44 20.6061 300.86C20.6061 301.313 20.4928 301.71 20.2661 302.05C20.0395 302.39 19.7195 302.653 19.3061 302.84C18.8928 303.02 18.4128 303.11 17.8661 303.11C17.4461 303.11 17.0328 303.057 16.6261 302.95C16.2195 302.837 15.8595 302.677 15.5461 302.47V301.19H15.5861C15.8861 301.423 16.2461 301.613 16.6661 301.76C17.0861 301.907 17.4761 301.98 17.8361 301.98C18.2628 301.98 18.6061 301.877 18.8661 301.67C19.1261 301.457 19.2561 301.18 19.2561 300.84C19.2561 300.52 19.1428 300.26 18.9161 300.06C18.6961 299.86 18.4061 299.76 18.0461 299.76C17.5661 299.76 17.1095 299.937 16.6761 300.29H16.6361L15.7661 300.02V299.97L16.2161 296.04H20.2761V297.19H17.3161L17.1261 298.89C17.5061 298.717 17.9028 298.63 18.3161 298.63ZM24.7773 303.12C23.8373 303.12 23.144 302.793 22.6973 302.14C22.2506 301.48 22.0273 300.607 22.0273 299.52C22.0273 298.433 22.2506 297.563 22.6973 296.91C23.144 296.25 23.8373 295.92 24.7773 295.92C25.7173 295.92 26.4106 296.25 26.8573 296.91C27.304 297.563 27.5273 298.433 27.5273 299.52C27.5273 300.607 27.304 301.48 26.8573 302.14C26.4106 302.793 25.7173 303.12 24.7773 303.12ZM24.7773 301.99C25.2573 301.99 25.604 301.763 25.8173 301.31C26.0306 300.857 26.1373 300.26 26.1373 299.52C26.1373 298.78 26.0306 298.183 25.8173 297.73C25.604 297.277 25.2573 297.05 24.7773 297.05C24.2973 297.05 23.9506 297.277 23.7373 297.73C23.524 298.183 23.4173 298.78 23.4173 299.52C23.4173 300.26 23.524 300.857 23.7373 301.31C23.9506 301.763 24.2973 301.99 24.7773 301.99ZM31.4785 303.12C30.5385 303.12 29.8452 302.793 29.3985 302.14C28.9518 301.48 28.7285 300.607 28.7285 299.52C28.7285 298.433 28.9518 297.563 29.3985 296.91C29.8452 296.25 30.5385 295.92 31.4785 295.92C32.4185 295.92 33.1118 296.25 33.5585 296.91C34.0052 297.563 34.2285 298.433 34.2285 299.52C34.2285 300.607 34.0052 301.48 33.5585 302.14C33.1118 302.793 32.4185 303.12 31.4785 303.12ZM31.4785 301.99C31.9585 301.99 32.3052 301.763 32.5185 301.31C32.7318 300.857 32.8385 300.26 32.8385 299.52C32.8385 298.78 32.7318 298.183 32.5185 297.73C32.3052 297.277 31.9585 297.05 31.4785 297.05C30.9985 297.05 30.6518 297.277 30.4385 297.73C30.2252 298.183 30.1185 298.78 30.1185 299.52C30.1185 300.26 30.2252 300.857 30.4385 301.31C30.6518 301.763 30.9985 301.99 31.4785 301.99Z" fill="#A3A3A3"/>
<path d="M24.8249 349.455C23.8849 349.455 23.1916 349.129 22.7449 348.475C22.2983 347.815 22.0749 346.942 22.0749 345.855C22.0749 344.769 22.2983 343.899 22.7449 343.245C23.1916 342.585 23.8849 342.255 24.8249 342.255C25.7649 342.255 26.4583 342.585 26.9049 343.245C27.3516 343.899 27.5749 344.769 27.5749 345.855C27.5749 346.942 27.3516 347.815 26.9049 348.475C26.4583 349.129 25.7649 349.455 24.8249 349.455ZM24.8249 348.325C25.3049 348.325 25.6516 348.099 25.8649 347.645C26.0783 347.192 26.1849 346.595 26.1849 345.855C26.1849 345.115 26.0783 344.519 25.8649 344.065C25.6516 343.612 25.3049 343.385 24.8249 343.385C24.3449 343.385 23.9983 343.612 23.7849 344.065C23.5716 344.519 23.4649 345.115 23.4649 345.855C23.4649 346.595 23.5716 347.192 23.7849 347.645C23.9983 348.099 24.3449 348.325 24.8249 348.325Z" fill="#A3A3A3"/>
<path d="M53.0299 347.229H365.999" stroke="#737373" stroke-width="0.5" stroke-linecap="square"/>
<path d="M53.0299 300.894H365.999" stroke="#737373" stroke-width="0.5" stroke-linecap="square"/>
<path d="M53.0299 254.558H365.999" stroke="#737373" stroke-width="0.5" stroke-linecap="square"/>
<path d="M53.0299 208.223H365.999" stroke="#737373" stroke-width="0.5" stroke-linecap="square"/>
<path d="M53.0308 161.888H366" stroke="#737373" stroke-width="0.5" stroke-linecap="square"/>
<path d="M56 229.837C57.3963 227.935 63.3226 232.186 70.5727 229.775C76.2815 227.876 81.2474 221.777 88.5561 219.935C102.428 216.437 113.749 212.842 120.182 204.489C126.615 196.135 139.636 232.622 151.142 232.622C162.649 232.622 165.14 182.543 169.481 192.248C173.639 201.544 181.647 223.871 194.596 226.333C208.888 229.05 220.641 245.619 237.694 248.404C246.783 249.888 252.383 208.978 260.507 204.489C268.631 200 268.722 236.083 286.993 232.622C302.071 229.766 306.015 219.935 320.789 218.752C335.564 217.569 342.397 254.588 357.996 251.498" stroke="#FFD19C" stroke-width="2.50462" stroke-linecap="round" stroke-linejoin="round"/>
<path d="M53 292.027C54.4236 290.125 60.4655 294.376 67.8572 291.965C73.6774 290.066 78.7404 283.967 86.1917 282.125C100.334 278.627 111.877 275.033 118.435 266.679C124.993 258.325 134.838 230 146.569 230C158.3 230 164.271 244.733 168.697 254.438C172.936 263.734 181.1 286.061 194.302 288.523C208.873 291.24 220.855 307.809 238.241 310.594C247.508 312.078 254.931 309.189 263.214 304.7C271.497 300.211 269.875 298.273 288.503 294.812C303.875 291.956 307.896 282.125 322.959 280.942C338.022 279.759 344.989 316.778 360.892 313.688" stroke="#BC7CE4" stroke-width="2.50462" stroke-linecap="round" stroke-linejoin="round"/>
<path d="M364 314.122C362.553 312.217 356.411 316.475 348.896 314.06C342.98 312.158 337.833 306.05 330.258 304.205C315.881 300.702 304.147 297.102 297.479 288.735C290.812 280.368 280.805 252 268.879 252C256.953 252 250.883 266.756 246.384 276.476C242.075 285.786 233.775 308.147 220.354 310.612C205.541 313.334 193.36 329.928 175.686 332.717C166.266 334.204 158.719 331.31 150.299 326.815C141.879 322.319 143.527 320.377 124.59 316.911C108.963 314.051 104.876 304.205 89.5627 303.02C74.2497 301.835 67.1672 338.911 51 335.816" stroke="#EBEAF6" stroke-width="2.50462" stroke-linecap="round" stroke-linejoin="round"/>
</g>
<path d="M110.565 430.185L108.375 437.145H106.835L105.355 432.145L103.875 437.145H102.335L100.145 430.185H101.575L103.125 435.535L104.655 430.185H106.105L107.635 435.535L109.185 430.185H110.565ZM113.5 431.345V433.085H116.5V434.175H113.5V435.985H116.72V437.145H112.18V430.185H116.72V431.345H113.5ZM120.397 431.345V433.085H123.397V434.175H120.397V435.985H123.617V437.145H119.077V430.185H123.617V431.345H120.397ZM128.053 434.265L127.293 435.145V437.145H125.973V430.185H127.293V433.345L129.963 430.185H131.583L128.953 433.225L131.743 437.145H130.113L128.053 434.265Z" fill="#A3A3A3"/>
<path d="M153.972 437.145H152.652V431.855L150.812 437.145H149.432L147.552 431.865V437.145H146.232V430.185H148.302L150.142 435.345L151.932 430.185H153.972V437.145ZM159.707 437.265C158.994 437.265 158.38 437.118 157.867 436.825C157.354 436.531 156.964 436.115 156.697 435.575C156.43 435.035 156.297 434.398 156.297 433.665C156.297 432.931 156.43 432.295 156.697 431.755C156.964 431.215 157.354 430.798 157.867 430.505C158.38 430.211 158.994 430.065 159.707 430.065C160.42 430.065 161.034 430.211 161.547 430.505C162.06 430.798 162.45 431.215 162.717 431.755C162.984 432.295 163.117 432.931 163.117 433.665C163.117 434.398 162.984 435.035 162.717 435.575C162.45 436.115 162.06 436.531 161.547 436.825C161.034 437.118 160.42 437.265 159.707 437.265ZM159.707 436.045C160.334 436.045 160.827 435.841 161.187 435.435C161.547 435.021 161.727 434.431 161.727 433.665C161.727 432.898 161.547 432.311 161.187 431.905C160.827 431.491 160.334 431.285 159.707 431.285C159.08 431.285 158.587 431.491 158.227 431.905C157.867 432.311 157.687 432.898 157.687 433.665C157.687 434.431 157.867 435.021 158.227 435.435C158.587 435.841 159.08 436.045 159.707 436.045ZM171.375 430.185V437.145H170.055L166.755 432.545V437.145H165.435V430.185H166.755L170.055 434.775V430.185H171.375ZM175.443 431.395H173.463V430.185H178.743V431.395H176.763V437.145H175.443V431.395ZM186.77 430.185V437.145H185.45V434.085H182.15V437.145H180.83V430.185H182.15V432.915H185.45V430.185H186.77Z" fill="#A3A3A3"/>
<path d="M207.539 430.185L205.009 434.745V437.145H203.689V434.745L201.159 430.185H202.569L204.359 433.565L206.179 430.185H207.539ZM210.5 431.345V433.085H213.5V434.175H210.5V435.985H213.72V437.145H209.18V430.185H213.72V431.345H210.5ZM220.207 435.565H217.237L216.657 437.145H215.337L217.977 430.185H219.517L222.157 437.145H220.787L220.207 435.565ZM219.797 434.445L218.727 431.485L217.647 434.445H219.797ZM227.959 437.145L226.539 434.495H225.299V437.145H223.979V430.185H226.489C227.389 430.185 228.063 430.365 228.509 430.725C228.956 431.085 229.179 431.608 229.179 432.295C229.179 432.781 229.069 433.195 228.849 433.535C228.629 433.875 228.303 434.128 227.869 434.295L229.409 437.145H227.959ZM225.299 433.335H226.499C226.939 433.335 227.263 433.258 227.469 433.105C227.683 432.951 227.789 432.691 227.789 432.325C227.789 431.971 227.686 431.721 227.479 431.575C227.273 431.428 226.943 431.355 226.489 431.355H225.299V433.335Z" fill="#FFB526"/>
<path d="M246.387 432.775C246.834 432.775 247.23 432.871 247.577 433.065C247.924 433.258 248.194 433.525 248.387 433.865C248.58 434.205 248.677 434.585 248.677 435.005C248.677 435.458 248.564 435.855 248.337 436.195C248.11 436.535 247.79 436.798 247.377 436.985C246.964 437.165 246.484 437.255 245.937 437.255C245.517 437.255 245.104 437.201 244.697 437.095C244.29 436.981 243.93 436.821 243.617 436.615V435.335H243.657C243.957 435.568 244.317 435.758 244.737 435.905C245.157 436.051 245.547 436.125 245.907 436.125C246.334 436.125 246.677 436.021 246.937 435.815C247.197 435.601 247.327 435.325 247.327 434.985C247.327 434.665 247.214 434.405 246.987 434.205C246.767 434.005 246.477 433.905 246.117 433.905C245.637 433.905 245.18 434.081 244.747 434.435H244.707L243.837 434.165V434.115L244.287 430.185H248.347V431.335H245.387L245.197 433.035C245.577 432.861 245.974 432.775 246.387 432.775ZM259.541 430.185L257.011 434.745V437.145H255.691V434.745L253.161 430.185H254.571L256.361 433.565L258.181 430.185H259.541ZM262.502 431.345V433.085H265.502V434.175H262.502V435.985H265.722V437.145H261.182V430.185H265.722V431.345H262.502ZM272.209 435.565H269.239L268.659 437.145H267.339L269.979 430.185H271.519L274.159 437.145H272.789L272.209 435.565ZM271.799 434.445L270.729 431.485L269.649 434.445H271.799ZM279.961 437.145L278.541 434.495H277.301V437.145H275.981V430.185H278.491C279.391 430.185 280.065 430.365 280.511 430.725C280.958 431.085 281.181 431.608 281.181 432.295C281.181 432.781 281.071 433.195 280.851 433.535C280.631 433.875 280.305 434.128 279.871 434.295L281.411 437.145H279.961ZM277.301 433.335H278.501C278.941 433.335 279.265 433.258 279.471 433.105C279.685 432.951 279.791 432.691 279.791 432.325C279.791 431.971 279.688 431.721 279.481 431.575C279.275 431.428 278.945 431.355 278.491 431.355H277.301V433.335Z" fill="#A3A3A3"/>
</g>
<defs>
<filter id="filter0_d_1_34" x="-8.08098" y="87" width="394.331" height="323.145" filterUnits="userSpaceOnUse" color-interpolation-filters="sRGB">
<feFlood flood-opacity="0" result="BackgroundImageFix"/>
<feColorMatrix in="SourceAlpha" type="matrix" values="0 0 0 0 0 0 0 0 0 0 0 0 0 0 0 0 0 0 127 0" result="hardAlpha"/>
<feOffset dy="4"/>
<feGaussianBlur stdDeviation="10"/>
<feComposite in2="hardAlpha" operator="out"/>
<feColorMatrix type="matrix" values="0 0 0 0 0.35498 0 0 0 0 0.279635 0 0 0 0 0.7375 0 0 0 0.3 0"/>
<feBlend mode="normal" in2="BackgroundImageFix" result="effect1_dropShadow_1_34"/>
<feBlend mode="normal" in="SourceGraphic" in2="effect1_dropShadow_1_34" result="shape"/>
</filter>
<clipPath id="clip0_1_34">
<rect width="382" height="465.145" rx="8" fill="white"/>
</clipPath>
</defs>
</svg>
