<svg width="422" height="194" viewBox="0 0 422 194" fill="none" xmlns="http://www.w3.org/2000/svg">
<g clip-path="url(#clip0_5_227)">
<rect width="422" height="194" fill="#323139" fill-opacity="0.3"/>
<g filter="url(#filter0_d_5_227)">
<path d="M192 12H28C23.5817 12 20 15.5817 20 20V70C20 74.4183 23.5817 78 28 78H192C196.418 78 200 74.4183 200 70V20C200 15.5817 196.418 12 192 12Z" fill="#323139"/>
<g filter="url(#filter1_d_5_227)">
<path d="M35.3333 34V26M35.3333 26L32 29.2M35.3333 26L38.6667 29.2" stroke="#75DB92" stroke-width="1.66667" stroke-linecap="round" stroke-linejoin="round"/>
</g>
<g filter="url(#filter2_d_5_227)">
<path d="M51.752 34.128V36H44.168V34.4L47.736 30.656C48.3227 30.048 48.728 29.5413 48.952 29.136C49.176 28.7307 49.288 28.3413 49.288 27.968C49.288 26.9867 48.68 26.496 47.464 26.496C46.9627 26.496 46.456 26.5707 45.944 26.72C45.4427 26.8693 44.9627 27.0933 44.504 27.392V25.456C45.4427 24.9333 46.4613 24.672 47.56 24.672C48.744 24.672 49.6827 24.9493 50.376 25.504C51.08 26.0587 51.432 26.8213 51.432 27.792C51.432 28.9013 50.9307 30.0107 49.928 31.12L47.192 34.128H51.752ZM59.0659 29.008C59.7805 29.008 60.4152 29.1627 60.9699 29.472C61.5245 29.7813 61.9565 30.208 62.2659 30.752C62.5752 31.296 62.7299 31.904 62.7299 32.576C62.7299 33.3013 62.5485 33.936 62.1859 34.48C61.8232 35.024 61.3112 35.4453 60.6499 35.744C59.9885 36.032 59.2205 36.176 58.3459 36.176C57.6739 36.176 57.0125 36.0907 56.3619 35.92C55.7112 35.7387 55.1352 35.4827 54.6339 35.152V33.104H54.6979C55.1779 33.4773 55.7539 33.7813 56.4259 34.016C57.0979 34.2507 57.7219 34.368 58.2979 34.368C58.9805 34.368 59.5299 34.2027 59.9459 33.872C60.3619 33.5307 60.5699 33.088 60.5699 32.544C60.5699 32.032 60.3885 31.616 60.0259 31.296C59.6739 30.976 59.2099 30.816 58.6339 30.816C57.8659 30.816 57.1352 31.0987 56.4419 31.664H56.3779L54.9859 31.232V31.152L55.7059 24.864H62.2019V26.704H57.4659L57.1619 29.424C57.7699 29.1467 58.4045 29.008 59.0659 29.008ZM67.8358 31.344C66.8011 31.344 66.0331 31.04 65.5318 30.432C65.0411 29.8133 64.7958 29.0027 64.7958 28C64.7958 26.9973 65.0411 26.192 65.5318 25.584C66.0331 24.9653 66.8011 24.656 67.8358 24.656C68.8704 24.656 69.6331 24.9653 70.1238 25.584C70.6251 26.192 70.8758 26.9973 70.8758 28C70.8758 29.0027 70.6251 29.8133 70.1238 30.432C69.6331 31.04 68.8704 31.344 67.8358 31.344ZM76.8438 24.864L68.0278 36H66.4438L75.2598 24.864H76.8438ZM67.8358 29.968C68.2731 29.968 68.5984 29.7867 68.8118 29.424C69.0251 29.0507 69.1318 28.576 69.1318 28C69.1318 27.4347 69.0198 26.9653 68.7958 26.592C68.5824 26.2187 68.2624 26.032 67.8358 26.032C67.4091 26.032 67.0838 26.2187 66.8598 26.592C66.6464 26.9653 66.5398 27.4347 66.5398 28C66.5398 28.576 66.6464 29.0507 66.8598 29.424C67.0731 29.7867 67.3984 29.968 67.8358 29.968ZM75.4518 36.208C74.4171 36.208 73.6491 35.904 73.1478 35.296C72.6571 34.6773 72.4118 33.8667 72.4118 32.864C72.4118 31.8613 72.6571 31.056 73.1478 30.448C73.6491 29.8293 74.4171 29.52 75.4518 29.52C76.4864 29.52 77.2491 29.8293 77.7398 30.448C78.2411 31.056 78.4918 31.8613 78.4918 32.864C78.4918 33.8667 78.2411 34.6773 77.7398 35.296C77.2491 35.904 76.4864 36.208 75.4518 36.208ZM75.4518 34.832C75.8891 34.832 76.2144 34.6507 76.4278 34.288C76.6411 33.9147 76.7478 33.44 76.7478 32.864C76.7478 32.2987 76.6358 31.8293 76.4118 31.456C76.1984 31.0827 75.8784 30.896 75.4518 30.896C75.0251 30.896 74.6998 31.0827 74.4758 31.456C74.2624 31.8293 74.1558 32.2987 74.1558 32.864C74.1558 33.44 74.2624 33.9147 74.4758 34.288C74.6891 34.6507 75.0144 34.832 75.4518 34.832Z" fill="#75DB92"/>
</g>
<g filter="url(#filter3_d_5_227)">
<path d="M39.136 60.192C37.9093 60.192 36.8533 59.9573 35.968 59.488C35.0933 59.0187 34.4213 58.352 33.952 57.488C33.4933 56.6133 33.264 55.5947 33.264 54.432C33.264 53.2693 33.4987 52.256 33.968 51.392C34.4373 50.5173 35.12 49.8453 36.016 49.376C36.912 48.9067 37.984 48.672 39.232 48.672C39.7547 48.672 40.2667 48.7253 40.768 48.832C41.28 48.928 41.7387 49.0773 42.144 49.28V51.232H42.08C41.6747 50.9973 41.232 50.8213 40.752 50.704C40.2827 50.5867 39.8347 50.528 39.408 50.528C38.192 50.528 37.232 50.864 36.528 51.536C35.8347 52.208 35.488 53.1733 35.488 54.432C35.488 55.68 35.8293 56.64 36.512 57.312C37.1947 57.984 38.128 58.32 39.312 58.32C39.7707 58.32 40.2347 58.2507 40.704 58.112C41.184 57.9627 41.6427 57.7547 42.08 57.488H42.144V59.456C41.2907 59.9467 40.288 60.192 39.136 60.192ZM49.8836 60L49.6756 58.992C48.9183 59.792 48.0063 60.192 46.9396 60.192C46.097 60.192 45.409 59.9733 44.8756 59.536C44.353 59.0987 44.0916 58.5227 44.0916 57.808C44.0916 56.88 44.433 56.16 45.1156 55.648C45.809 55.1253 46.8063 54.864 48.1076 54.864C48.577 54.864 49.0463 54.8853 49.5156 54.928V54.624C49.5156 54.1547 49.3823 53.808 49.1156 53.584C48.849 53.3493 48.4276 53.232 47.8516 53.232C47.2863 53.232 46.7583 53.328 46.2676 53.52C45.7876 53.7013 45.265 54 44.6996 54.416V52.528C45.1903 52.1547 45.7023 51.8827 46.2356 51.712C46.769 51.5413 47.3556 51.456 47.9956 51.456C49.1796 51.456 50.081 51.712 50.6996 52.224C51.329 52.7253 51.6436 53.4613 51.6436 54.432V58.144L51.9956 60H49.8836ZM46.2036 57.648C46.2036 58.2667 46.5556 58.576 47.2596 58.576C47.665 58.576 48.049 58.496 48.4116 58.336C48.7743 58.1653 49.1423 57.8987 49.5156 57.536V56.4H47.9796C47.361 56.4 46.9076 56.4907 46.6196 56.672C46.3423 56.8533 46.2036 57.1787 46.2036 57.648ZM56.3329 60.192C55.7782 60.192 55.2342 60.1173 54.7009 59.968C54.1675 59.808 53.6662 59.584 53.1969 59.296V57.296C53.7089 57.68 54.1942 57.9627 54.6529 58.144C55.1115 58.3253 55.6075 58.416 56.1409 58.416C56.6849 58.416 57.0849 58.3467 57.3409 58.208C57.6075 58.0693 57.7409 57.856 57.7409 57.568C57.7409 57.2907 57.6129 57.088 57.3569 56.96C57.1115 56.8213 56.7169 56.688 56.1729 56.56C55.5755 56.4107 55.0902 56.2613 54.7169 56.112C54.3435 55.952 54.0182 55.696 53.7409 55.344C53.4742 54.992 53.3409 54.5173 53.3409 53.92C53.3409 53.1733 53.6449 52.576 54.2529 52.128C54.8715 51.68 55.6982 51.456 56.7329 51.456C57.2342 51.456 57.6982 51.5147 58.1249 51.632C58.5515 51.7387 58.9889 51.92 59.4369 52.176V54.128C58.9782 53.808 58.5515 53.5787 58.1569 53.44C57.7622 53.3013 57.3409 53.232 56.8929 53.232C56.4022 53.232 56.0235 53.296 55.7569 53.424C55.4902 53.5413 55.3569 53.7173 55.3569 53.952C55.3569 54.1867 55.4689 54.3627 55.6929 54.48C55.9275 54.5867 56.2955 54.6987 56.7969 54.816C57.3942 54.944 57.8902 55.0933 58.2849 55.264C58.6902 55.424 59.0369 55.6907 59.3249 56.064C59.6129 56.4267 59.7569 56.9333 59.7569 57.584C59.7569 58.0853 59.6129 58.5387 59.3249 58.944C59.0369 59.3387 58.6315 59.648 58.1089 59.872C57.5862 60.0853 56.9942 60.192 56.3329 60.192ZM66.3169 51.456C67.1595 51.456 67.8369 51.7067 68.3489 52.208C68.8715 52.6987 69.1329 53.3493 69.1329 54.16V60H67.0209V55.36C67.0209 54.6347 66.9089 54.1173 66.6849 53.808C66.4715 53.488 66.1142 53.328 65.6129 53.328C65.0475 53.328 64.4609 53.6427 63.8529 54.272V60H61.7409V47.936H63.8529V52.512C64.2689 52.1387 64.6689 51.872 65.0529 51.712C65.4475 51.5413 65.8689 51.456 66.3169 51.456ZM78.4756 50.72V53.68H82.6196V55.44H78.4756V60H76.3636V48.864H83.6756V50.72H78.4756ZM85.3334 47.936H87.4454V60H85.3334V47.936ZM93.5938 60.192C92.7511 60.192 92.0098 60.016 91.3698 59.664C90.7298 59.3013 90.2338 58.7893 89.8818 58.128C89.5404 57.4667 89.3698 56.6987 89.3698 55.824C89.3698 54.9493 89.5404 54.1813 89.8818 53.52C90.2338 52.8587 90.7298 52.352 91.3698 52C92.0098 51.6373 92.7511 51.456 93.5938 51.456C94.4364 51.456 95.1778 51.6373 95.8178 52C96.4578 52.352 96.9484 52.8587 97.2898 53.52C97.6418 54.1813 97.8178 54.9493 97.8178 55.824C97.8178 56.6987 97.6418 57.4667 97.2898 58.128C96.9484 58.7893 96.4578 59.3013 95.8178 59.664C95.1778 60.016 94.4364 60.192 93.5938 60.192ZM93.5938 58.448C94.2231 58.448 94.7138 58.224 95.0658 57.776C95.4178 57.3173 95.5938 56.6667 95.5938 55.824C95.5938 54.9707 95.4178 54.32 95.0658 53.872C94.7138 53.424 94.2231 53.2 93.5938 53.2C92.9644 53.2 92.4738 53.424 92.1218 53.872C91.7698 54.32 91.5938 54.9707 91.5938 55.824C91.5938 56.6667 91.7698 57.3173 92.1218 57.776C92.4738 58.224 92.9644 58.448 93.5938 58.448ZM112.1 51.648L109.556 60H107.028L105.412 54.4L103.828 60H101.3L98.7401 51.648H100.884L102.644 57.84L104.372 51.648H106.516L108.276 57.856L110.02 51.648H112.1Z" fill="white"/>
</g>
<g filter="url(#filter4_d_5_227)">
<path d="M169.53 51.04V51.71L166.84 58H165.63L165.39 57.96L167.99 52.19H164.9V51.04H169.53ZM172.001 58.12C171.748 58.12 171.535 58.0367 171.361 57.87C171.188 57.7033 171.101 57.4833 171.101 57.21C171.101 56.9367 171.188 56.7167 171.361 56.55C171.535 56.3833 171.748 56.3 172.001 56.3C172.255 56.3 172.468 56.3833 172.641 56.55C172.815 56.7167 172.901 56.9367 172.901 57.21C172.901 57.4833 172.815 57.7033 172.641 57.87C172.468 58.0367 172.255 58.12 172.001 58.12ZM177.139 53.63C177.585 53.63 177.982 53.7267 178.329 53.92C178.675 54.1133 178.945 54.38 179.139 54.72C179.332 55.06 179.429 55.44 179.429 55.86C179.429 56.3133 179.315 56.71 179.089 57.05C178.862 57.39 178.542 57.6533 178.129 57.84C177.715 58.02 177.235 58.11 176.689 58.11C176.269 58.11 175.855 58.0567 175.449 57.95C175.042 57.8367 174.682 57.6767 174.369 57.47V56.19H174.409C174.709 56.4233 175.069 56.6133 175.489 56.76C175.909 56.9067 176.299 56.98 176.659 56.98C177.085 56.98 177.429 56.8767 177.689 56.67C177.949 56.4567 178.079 56.18 178.079 55.84C178.079 55.52 177.965 55.26 177.739 55.06C177.519 54.86 177.229 54.76 176.869 54.76C176.389 54.76 175.932 54.9367 175.499 55.29H175.459L174.589 55.02V54.97L175.039 51.04H179.099V52.19H176.139L175.949 53.89C176.329 53.7167 176.725 53.63 177.139 53.63ZM183.61 55.12L182.85 56V58H181.53V51.04H182.85V54.2L185.52 51.04H187.14L184.51 54.08L187.3 58H185.67L183.61 55.12Z" fill="#A3A3A3"/>
</g>
</g>
<g filter="url(#filter5_d_5_227)">
<path d="M394 12H230C225.582 12 222 15.5817 222 20V70C222 74.4183 225.582 78 230 78H394C398.418 78 402 74.4183 402 70V20C402 15.5817 398.418 12 394 12Z" fill="#323139"/>
<g filter="url(#filter6_d_5_227)">
<path d="M237.333 34V26M237.333 26L234 29.2M237.333 26L240.667 29.2" stroke="#FF7B69" stroke-width="1.66667" stroke-linecap="round" stroke-linejoin="round"/>
</g>
<g filter="url(#filter7_d_5_227)">
<path d="M253.848 34.144V36H246.072V34.144H249.192V27.328L247.144 28.224H247.08L246.632 26.864V26.8L249.816 24.864H251.304V34.144H253.848ZM264.474 34.128V36H256.89V34.4L260.458 30.656C261.045 30.048 261.45 29.5413 261.674 29.136C261.898 28.7307 262.01 28.3413 262.01 27.968C262.01 26.9867 261.402 26.496 260.186 26.496C259.685 26.496 259.178 26.5707 258.666 26.72C258.165 26.8693 257.685 27.0933 257.226 27.392V25.456C258.165 24.9333 259.183 24.672 260.282 24.672C261.466 24.672 262.405 24.9493 263.098 25.504C263.802 26.0587 264.154 26.8213 264.154 27.792C264.154 28.9013 263.653 30.0107 262.65 31.12L259.914 34.128H264.474ZM269.836 31.344C268.801 31.344 268.033 31.04 267.532 30.432C267.041 29.8133 266.796 29.0027 266.796 28C266.796 26.9973 267.041 26.192 267.532 25.584C268.033 24.9653 268.801 24.656 269.836 24.656C270.87 24.656 271.633 24.9653 272.124 25.584C272.625 26.192 272.876 26.9973 272.876 28C272.876 29.0027 272.625 29.8133 272.124 30.432C271.633 31.04 270.87 31.344 269.836 31.344ZM278.844 24.864L270.028 36H268.444L277.26 24.864H278.844ZM269.836 29.968C270.273 29.968 270.598 29.7867 270.812 29.424C271.025 29.0507 271.132 28.576 271.132 28C271.132 27.4347 271.02 26.9653 270.796 26.592C270.582 26.2187 270.262 26.032 269.836 26.032C269.409 26.032 269.084 26.2187 268.86 26.592C268.646 26.9653 268.54 27.4347 268.54 28C268.54 28.576 268.646 29.0507 268.86 29.424C269.073 29.7867 269.398 29.968 269.836 29.968ZM277.452 36.208C276.417 36.208 275.649 35.904 275.148 35.296C274.657 34.6773 274.412 33.8667 274.412 32.864C274.412 31.8613 274.657 31.056 275.148 30.448C275.649 29.8293 276.417 29.52 277.452 29.52C278.486 29.52 279.249 29.8293 279.74 30.448C280.241 31.056 280.492 31.8613 280.492 32.864C280.492 33.8667 280.241 34.6773 279.74 35.296C279.249 35.904 278.486 36.208 277.452 36.208ZM277.452 34.832C277.889 34.832 278.214 34.6507 278.428 34.288C278.641 33.9147 278.748 33.44 278.748 32.864C278.748 32.2987 278.636 31.8293 278.412 31.456C278.198 31.0827 277.878 30.896 277.452 30.896C277.025 30.896 276.7 31.0827 276.476 31.456C276.262 31.8293 276.156 32.2987 276.156 32.864C276.156 33.44 276.262 33.9147 276.476 34.288C276.689 34.6507 277.014 34.832 277.452 34.832Z" fill="#FF7B69"/>
</g>
<g filter="url(#filter8_d_5_227)">
<path d="M237.76 50.72V53.504H242.56V55.248H237.76V58.144H242.912V60H235.648V48.864H242.912V50.72H237.76ZM250.794 60L248.458 56.992L246.202 60H243.978L247.37 55.584L244.33 51.648H246.666L248.65 54.208L250.554 51.648H252.778L249.738 55.616L253.13 60H250.794ZM258.996 51.472C259.625 51.472 260.18 51.6533 260.66 52.016C261.15 52.368 261.529 52.8693 261.796 53.52C262.073 54.16 262.212 54.9013 262.212 55.744C262.212 56.576 262.052 57.3333 261.732 58.016C261.412 58.688 260.969 59.2213 260.404 59.616C259.849 60 259.22 60.192 258.516 60.192C257.662 60.192 256.905 60.016 256.244 59.664V63.712H254.132V53.504L253.78 51.648H255.716L256.052 52.832C256.436 52.3947 256.884 52.0587 257.396 51.824C257.908 51.5893 258.441 51.472 258.996 51.472ZM258.084 58.448C259.353 58.448 259.988 57.5573 259.988 55.776C259.988 54.9547 259.86 54.32 259.604 53.872C259.358 53.424 258.996 53.2 258.516 53.2C257.748 53.2 256.99 53.5733 256.244 54.32V58.192C256.926 58.3627 257.54 58.448 258.084 58.448ZM271.742 56.464H265.934C266.019 57.104 266.254 57.5947 266.638 57.936C267.033 58.2773 267.555 58.448 268.206 58.448C268.686 58.448 269.203 58.3627 269.758 58.192C270.323 58.0107 270.846 57.7653 271.326 57.456H271.39V59.168C270.963 59.4987 270.473 59.7547 269.918 59.936C269.374 60.1067 268.798 60.192 268.19 60.192C267.315 60.192 266.553 60.016 265.902 59.664C265.251 59.312 264.75 58.8053 264.398 58.144C264.046 57.4827 263.87 56.7093 263.87 55.824C263.87 54.96 264.035 54.1973 264.366 53.536C264.707 52.8747 265.182 52.3627 265.79 52C266.398 51.6373 267.102 51.456 267.902 51.456C268.681 51.456 269.358 51.632 269.934 51.984C270.521 52.336 270.969 52.8427 271.278 53.504C271.587 54.1653 271.742 54.9387 271.742 55.824V56.464ZM267.902 53.152C267.401 53.152 266.979 53.3173 266.638 53.648C266.307 53.9787 266.083 54.4373 265.966 55.024H269.566C269.481 54.416 269.299 53.952 269.022 53.632C268.745 53.312 268.371 53.152 267.902 53.152ZM278.376 51.456C279.218 51.456 279.896 51.7067 280.408 52.208C280.93 52.6987 281.192 53.3493 281.192 54.16V60H279.08V55.36C279.08 54.6347 278.968 54.1173 278.744 53.808C278.53 53.488 278.173 53.328 277.672 53.328C277.117 53.328 276.53 53.6373 275.912 54.256V60H273.8V53.504L273.448 51.648H275.384L275.688 52.72C276.146 52.272 276.589 51.952 277.016 51.76C277.442 51.5573 277.896 51.456 278.376 51.456ZM286.306 60.192C285.751 60.192 285.207 60.1173 284.674 59.968C284.141 59.808 283.639 59.584 283.17 59.296V57.296C283.682 57.68 284.167 57.9627 284.626 58.144C285.085 58.3253 285.581 58.416 286.114 58.416C286.658 58.416 287.058 58.3467 287.314 58.208C287.581 58.0693 287.714 57.856 287.714 57.568C287.714 57.2907 287.586 57.088 287.33 56.96C287.085 56.8213 286.69 56.688 286.146 56.56C285.549 56.4107 285.063 56.2613 284.69 56.112C284.317 55.952 283.991 55.696 283.714 55.344C283.447 54.992 283.314 54.5173 283.314 53.92C283.314 53.1733 283.618 52.576 284.226 52.128C284.845 51.68 285.671 51.456 286.706 51.456C287.207 51.456 287.671 51.5147 288.098 51.632C288.525 51.7387 288.962 51.92 289.41 52.176V54.128C288.951 53.808 288.525 53.5787 288.13 53.44C287.735 53.3013 287.314 53.232 286.866 53.232C286.375 53.232 285.997 53.296 285.73 53.424C285.463 53.5413 285.33 53.7173 285.33 53.952C285.33 54.1867 285.442 54.3627 285.666 54.48C285.901 54.5867 286.269 54.6987 286.77 54.816C287.367 54.944 287.863 55.0933 288.258 55.264C288.663 55.424 289.01 55.6907 289.298 56.064C289.586 56.4267 289.73 56.9333 289.73 57.584C289.73 58.0853 289.586 58.5387 289.298 58.944C289.01 59.3387 288.605 59.648 288.082 59.872C287.559 60.0853 286.967 60.192 286.306 60.192ZM299.09 56.464H293.282C293.367 57.104 293.602 57.5947 293.986 57.936C294.381 58.2773 294.903 58.448 295.554 58.448C296.034 58.448 296.551 58.3627 297.106 58.192C297.671 58.0107 298.194 57.7653 298.674 57.456H298.738V59.168C298.311 59.4987 297.821 59.7547 297.266 59.936C296.722 60.1067 296.146 60.192 295.538 60.192C294.663 60.192 293.901 60.016 293.25 59.664C292.599 59.312 292.098 58.8053 291.746 58.144C291.394 57.4827 291.218 56.7093 291.218 55.824C291.218 54.96 291.383 54.1973 291.714 53.536C292.055 52.8747 292.53 52.3627 293.138 52C293.746 51.6373 294.45 51.456 295.25 51.456C296.029 51.456 296.706 51.632 297.282 51.984C297.869 52.336 298.317 52.8427 298.626 53.504C298.935 54.1653 299.09 54.9387 299.09 55.824V56.464ZM295.25 53.152C294.749 53.152 294.327 53.3173 293.986 53.648C293.655 53.9787 293.431 54.4373 293.314 55.024H296.914C296.829 54.416 296.647 53.952 296.37 53.632C296.093 53.312 295.719 53.152 295.25 53.152ZM303.58 60.192C303.025 60.192 302.481 60.1173 301.948 59.968C301.414 59.808 300.913 59.584 300.444 59.296V57.296C300.956 57.68 301.441 57.9627 301.9 58.144C302.358 58.3253 302.854 58.416 303.388 58.416C303.932 58.416 304.332 58.3467 304.588 58.208C304.854 58.0693 304.988 57.856 304.988 57.568C304.988 57.2907 304.86 57.088 304.604 56.96C304.358 56.8213 303.964 56.688 303.42 56.56C302.822 56.4107 302.337 56.2613 301.964 56.112C301.59 55.952 301.265 55.696 300.988 55.344C300.721 54.992 300.588 54.5173 300.588 53.92C300.588 53.1733 300.892 52.576 301.5 52.128C302.118 51.68 302.945 51.456 303.98 51.456C304.481 51.456 304.945 51.5147 305.372 51.632C305.798 51.7387 306.236 51.92 306.684 52.176V54.128C306.225 53.808 305.798 53.5787 305.404 53.44C305.009 53.3013 304.588 53.232 304.14 53.232C303.649 53.232 303.27 53.296 303.004 53.424C302.737 53.5413 302.604 53.7173 302.604 53.952C302.604 54.1867 302.716 54.3627 302.94 54.48C303.174 54.5867 303.542 54.6987 304.044 54.816C304.641 54.944 305.137 55.0933 305.532 55.264C305.937 55.424 306.284 55.6907 306.572 56.064C306.86 56.4267 307.004 56.9333 307.004 57.584C307.004 58.0853 306.86 58.5387 306.572 58.944C306.284 59.3387 305.878 59.648 305.356 59.872C304.833 60.0853 304.241 60.192 303.58 60.192Z" fill="white"/>
</g>
<g filter="url(#filter9_d_5_227)">
<path d="M371.79 56.48H370.83V58H369.51V56.48H366.39V55.45L369.51 51.04H370.83V55.35H371.79V56.48ZM369.51 55.35V52.9L367.93 55.35H369.51ZM374.001 58.12C373.748 58.12 373.535 58.0367 373.361 57.87C373.188 57.7033 373.101 57.4833 373.101 57.21C373.101 56.9367 373.188 56.7167 373.361 56.55C373.535 56.3833 373.748 56.3 374.001 56.3C374.255 56.3 374.468 56.3833 374.641 56.55C374.815 56.7167 374.901 56.9367 374.901 57.21C374.901 57.4833 374.815 57.7033 374.641 57.87C374.468 58.0367 374.255 58.12 374.001 58.12ZM379.139 53.63C379.585 53.63 379.982 53.7267 380.329 53.92C380.675 54.1133 380.945 54.38 381.139 54.72C381.332 55.06 381.429 55.44 381.429 55.86C381.429 56.3133 381.315 56.71 381.089 57.05C380.862 57.39 380.542 57.6533 380.129 57.84C379.715 58.02 379.235 58.11 378.689 58.11C378.269 58.11 377.855 58.0567 377.449 57.95C377.042 57.8367 376.682 57.6767 376.369 57.47V56.19H376.409C376.709 56.4233 377.069 56.6133 377.489 56.76C377.909 56.9067 378.299 56.98 378.659 56.98C379.085 56.98 379.429 56.8767 379.689 56.67C379.949 56.4567 380.079 56.18 380.079 55.84C380.079 55.52 379.965 55.26 379.739 55.06C379.519 54.86 379.229 54.76 378.869 54.76C378.389 54.76 377.932 54.9367 377.499 55.29H377.459L376.589 55.02V54.97L377.039 51.04H381.099V52.19H378.139L377.949 53.89C378.329 53.7167 378.725 53.63 379.139 53.63ZM385.61 55.12L384.85 56V58H383.53V51.04H384.85V54.2L387.52 51.04H389.14L386.51 54.08L389.3 58H387.67L385.61 55.12Z" fill="#A3A3A3"/>
</g>
</g>
<g filter="url(#filter10_d_5_227)">
<path d="M192 100H28C23.5817 100 20 103.582 20 108V158C20 162.418 23.5817 166 28 166H192C196.418 166 200 162.418 200 158V108C200 103.582 196.418 100 192 100Z" fill="#323139"/>
<g filter="url(#filter11_d_5_227)">
<path d="M35.3337 114V122M35.3337 122L38.667 118.8M35.3337 122L32.0003 118.8" stroke="#FF7B69" stroke-width="1.66667" stroke-linecap="round" stroke-linejoin="round"/>
</g>
<g filter="url(#filter12_d_5_227)">
<path d="M48.344 117.008C49.0587 117.008 49.6933 117.163 50.248 117.472C50.8027 117.781 51.2347 118.208 51.544 118.752C51.8533 119.296 52.008 119.904 52.008 120.576C52.008 121.301 51.8267 121.936 51.464 122.48C51.1013 123.024 50.5893 123.445 49.928 123.744C49.2667 124.032 48.4987 124.176 47.624 124.176C46.952 124.176 46.2907 124.091 45.64 123.92C44.9893 123.739 44.4133 123.483 43.912 123.152V121.104H43.976C44.456 121.477 45.032 121.781 45.704 122.016C46.376 122.251 47 122.368 47.576 122.368C48.2587 122.368 48.808 122.203 49.224 121.872C49.64 121.531 49.848 121.088 49.848 120.544C49.848 120.032 49.6667 119.616 49.304 119.296C48.952 118.976 48.488 118.816 47.912 118.816C47.144 118.816 46.4133 119.099 45.72 119.664H45.656L44.264 119.232V119.152L44.984 112.864H51.48V114.704H46.744L46.44 117.424C47.048 117.147 47.6827 117.008 48.344 117.008ZM57.1139 119.344C56.0792 119.344 55.3112 119.04 54.8099 118.432C54.3192 117.813 54.0739 117.003 54.0739 116C54.0739 114.997 54.3192 114.192 54.8099 113.584C55.3112 112.965 56.0792 112.656 57.1139 112.656C58.1485 112.656 58.9112 112.965 59.4019 113.584C59.9032 114.192 60.1539 114.997 60.1539 116C60.1539 117.003 59.9032 117.813 59.4019 118.432C58.9112 119.04 58.1485 119.344 57.1139 119.344ZM66.1219 112.864L57.3059 124H55.7219L64.5379 112.864H66.1219ZM57.1139 117.968C57.5512 117.968 57.8765 117.787 58.0899 117.424C58.3032 117.051 58.4099 116.576 58.4099 116C58.4099 115.435 58.2979 114.965 58.0739 114.592C57.8605 114.219 57.5405 114.032 57.1139 114.032C56.6872 114.032 56.3619 114.219 56.1379 114.592C55.9245 114.965 55.8179 115.435 55.8179 116C55.8179 116.576 55.9245 117.051 56.1379 117.424C56.3512 117.787 56.6765 117.968 57.1139 117.968ZM64.7299 124.208C63.6952 124.208 62.9272 123.904 62.4259 123.296C61.9352 122.677 61.6899 121.867 61.6899 120.864C61.6899 119.861 61.9352 119.056 62.4259 118.448C62.9272 117.829 63.6952 117.52 64.7299 117.52C65.7645 117.52 66.5272 117.829 67.0179 118.448C67.5192 119.056 67.7699 119.861 67.7699 120.864C67.7699 121.867 67.5192 122.677 67.0179 123.296C66.5272 123.904 65.7645 124.208 64.7299 124.208ZM64.7299 122.832C65.1672 122.832 65.4925 122.651 65.7059 122.288C65.9192 121.915 66.0259 121.44 66.0259 120.864C66.0259 120.299 65.9139 119.829 65.6899 119.456C65.4765 119.083 65.1565 118.896 64.7299 118.896C64.3032 118.896 63.9779 119.083 63.7539 119.456C63.5405 119.829 63.4339 120.299 63.4339 120.864C63.4339 121.44 63.5405 121.915 63.7539 122.288C63.9672 122.651 64.2925 122.832 64.7299 122.832Z" fill="#FF7B69"/>
</g>
<g filter="url(#filter13_d_5_227)">
<path d="M33.648 136.864H37.328C38.864 136.864 40.0107 137.179 40.768 137.808C41.5253 138.427 41.904 139.328 41.904 140.512C41.904 141.707 41.5307 142.635 40.784 143.296C40.0373 143.957 38.9493 144.288 37.52 144.288H35.76V148H33.648V136.864ZM37.344 142.448C38.144 142.448 38.7307 142.304 39.104 142.016C39.488 141.728 39.68 141.243 39.68 140.56C39.68 139.899 39.4933 139.429 39.12 139.152C38.7467 138.875 38.1493 138.736 37.328 138.736H35.76V142.448H37.344ZM48.2745 139.456V141.536H48.0025C47.1705 141.536 46.4932 141.765 45.9705 142.224V148H43.8585V141.504L43.5065 139.648H45.6185L45.8265 140.752C46.1785 140.272 46.4985 139.936 46.7865 139.744C47.0745 139.552 47.3945 139.456 47.7465 139.456H48.2745ZM53.7688 148.192C52.9261 148.192 52.1848 148.016 51.5448 147.664C50.9048 147.301 50.4088 146.789 50.0568 146.128C49.7154 145.467 49.5448 144.699 49.5448 143.824C49.5448 142.949 49.7154 142.181 50.0568 141.52C50.4088 140.859 50.9048 140.352 51.5448 140C52.1848 139.637 52.9261 139.456 53.7688 139.456C54.6114 139.456 55.3528 139.637 55.9928 140C56.6328 140.352 57.1234 140.859 57.4648 141.52C57.8168 142.181 57.9928 142.949 57.9928 143.824C57.9928 144.699 57.8168 145.467 57.4648 146.128C57.1234 146.789 56.6328 147.301 55.9928 147.664C55.3528 148.016 54.6114 148.192 53.7688 148.192ZM53.7688 146.448C54.3981 146.448 54.8888 146.224 55.2408 145.776C55.5928 145.317 55.7688 144.667 55.7688 143.824C55.7688 142.971 55.5928 142.32 55.2408 141.872C54.8888 141.424 54.3981 141.2 53.7688 141.2C53.1394 141.2 52.6488 141.424 52.2968 141.872C51.9448 142.32 51.7688 142.971 51.7688 143.824C51.7688 144.667 51.9448 145.317 52.2968 145.776C52.6488 146.224 53.1394 146.448 53.7688 146.448ZM60.3391 141.216H59.0911V139.648H60.3391V138.688C60.3391 137.696 60.5685 136.96 61.0271 136.48C61.4858 135.989 62.1525 135.744 63.0271 135.744C63.3578 135.744 63.6405 135.776 63.8751 135.84C64.1098 135.904 64.3391 136 64.5631 136.128V137.872C64.0938 137.627 63.6725 137.504 63.2991 137.504C62.9898 137.504 62.7711 137.595 62.6431 137.776C62.5151 137.947 62.4511 138.251 62.4511 138.688V139.648H64.4031V141.216H62.4511V148H60.3391V141.216ZM66.7231 138.4C66.3605 138.4 66.0511 138.277 65.7951 138.032C65.5391 137.787 65.4111 137.467 65.4111 137.072C65.4111 136.677 65.5391 136.357 65.7951 136.112C66.0511 135.867 66.3605 135.744 66.7231 135.744C67.0858 135.744 67.3951 135.867 67.6511 136.112C67.9071 136.357 68.0351 136.677 68.0351 137.072C68.0351 137.467 67.9071 137.787 67.6511 138.032C67.3951 138.277 67.0858 138.4 66.7231 138.4ZM67.7791 139.648V148H65.6671V139.664L67.7791 139.648ZM72.5575 139.648H74.4775V141.216H72.5575V145.248C72.5575 146.059 72.8668 146.464 73.4855 146.464C73.7735 146.464 74.1095 146.363 74.4935 146.16V147.904C74.2268 148 73.9762 148.069 73.7415 148.112C73.5175 148.165 73.2615 148.192 72.9735 148.192C71.2882 148.192 70.4455 147.211 70.4455 145.248V141.216H69.2295V139.648H70.4455V137.408L72.5575 136.672V139.648ZM93.4001 148H91.2881V139.536L88.3441 148H86.1361L83.1281 139.552V148H81.0161V136.864H84.3281L87.2721 145.12L90.1361 136.864H93.4001V148ZM101.424 148L101.216 146.992C100.458 147.792 99.5463 148.192 98.4796 148.192C97.637 148.192 96.949 147.973 96.4156 147.536C95.893 147.099 95.6316 146.523 95.6316 145.808C95.6316 144.88 95.973 144.16 96.6556 143.648C97.349 143.125 98.3463 142.864 99.6476 142.864C100.117 142.864 100.586 142.885 101.056 142.928V142.624C101.056 142.155 100.922 141.808 100.656 141.584C100.389 141.349 99.9676 141.232 99.3916 141.232C98.8263 141.232 98.2983 141.328 97.8076 141.52C97.3276 141.701 96.805 142 96.2396 142.416V140.528C96.7303 140.155 97.2423 139.883 97.7756 139.712C98.309 139.541 98.8956 139.456 99.5356 139.456C100.72 139.456 101.621 139.712 102.24 140.224C102.869 140.725 103.184 141.461 103.184 142.432V146.144L103.536 148H101.424ZM97.7436 145.648C97.7436 146.267 98.0956 146.576 98.7996 146.576C99.205 146.576 99.589 146.496 99.9516 146.336C100.314 146.165 100.682 145.899 101.056 145.536V144.4H99.5196C98.901 144.4 98.4476 144.491 98.1596 144.672C97.8823 144.853 97.7436 145.179 97.7436 145.648ZM109.889 139.456V141.536H109.617C108.785 141.536 108.108 141.765 107.585 142.224V148H105.473V141.504L105.121 139.648H107.233L107.441 140.752C107.793 140.272 108.113 139.936 108.401 139.744C108.689 139.552 109.009 139.456 109.361 139.456H109.889ZM119.728 139.648L119.376 141.488V148C119.376 149.269 119.002 150.235 118.256 150.896C117.509 151.568 116.49 151.904 115.2 151.904C114.517 151.904 113.904 151.813 113.36 151.632C112.816 151.451 112.293 151.205 111.792 150.896V148.912C112.794 149.68 113.872 150.064 115.024 150.064C116.517 150.064 117.264 149.376 117.264 148V147.344C116.602 147.707 115.877 147.888 115.088 147.888C113.968 147.888 113.082 147.52 112.432 146.784C111.792 146.037 111.472 145.013 111.472 143.712C111.472 142.389 111.808 141.349 112.48 140.592C113.162 139.835 114.085 139.456 115.248 139.456C115.621 139.456 115.978 139.499 116.32 139.584C116.661 139.659 117.066 139.792 117.536 139.984L117.616 139.648H119.728ZM115.168 146.064C115.84 146.064 116.538 145.851 117.264 145.424V141.424C116.986 141.339 116.709 141.285 116.432 141.264C116.165 141.243 115.84 141.232 115.456 141.232C114.837 141.232 114.389 141.429 114.112 141.824C113.834 142.219 113.696 142.848 113.696 143.712C113.696 144.533 113.813 145.131 114.048 145.504C114.282 145.877 114.656 146.064 115.168 146.064ZM122.578 138.4C122.215 138.4 121.906 138.277 121.65 138.032C121.394 137.787 121.266 137.467 121.266 137.072C121.266 136.677 121.394 136.357 121.65 136.112C121.906 135.867 122.215 135.744 122.578 135.744C122.94 135.744 123.25 135.867 123.506 136.112C123.762 136.357 123.89 136.677 123.89 137.072C123.89 137.467 123.762 137.787 123.506 138.032C123.25 138.277 122.94 138.4 122.578 138.4ZM123.634 139.648V148H121.522V139.664L123.634 139.648ZM130.662 139.456C131.505 139.456 132.182 139.707 132.694 140.208C133.217 140.699 133.478 141.349 133.478 142.16V148H131.366V143.36C131.366 142.635 131.254 142.117 131.03 141.808C130.817 141.488 130.459 141.328 129.958 141.328C129.403 141.328 128.817 141.637 128.198 142.256V148H126.086V141.504L125.734 139.648H127.67L127.974 140.72C128.433 140.272 128.875 139.952 129.302 139.76C129.729 139.557 130.182 139.456 130.662 139.456Z" fill="white"/>
</g>
<g filter="url(#filter14_d_5_227)">
<path d="M160.53 144.84V146H155.67V144.84H157.62V140.58L156.34 141.14H156.3L156.02 140.29V140.25L158.01 139.04H158.94V144.84H160.53ZM167.171 144.83V146H162.431V145L164.661 142.66C165.028 142.28 165.281 141.963 165.421 141.71C165.561 141.457 165.631 141.213 165.631 140.98C165.631 140.367 165.251 140.06 164.491 140.06C164.178 140.06 163.861 140.107 163.541 140.2C163.228 140.293 162.928 140.433 162.641 140.62V139.41C163.228 139.083 163.865 138.92 164.551 138.92C165.291 138.92 165.878 139.093 166.311 139.44C166.751 139.787 166.971 140.263 166.971 140.87C166.971 141.563 166.658 142.257 166.031 142.95L164.321 144.83H167.171ZM169.702 146.12C169.449 146.12 169.236 146.037 169.062 145.87C168.889 145.703 168.802 145.483 168.802 145.21C168.802 144.937 168.889 144.717 169.062 144.55C169.236 144.383 169.449 144.3 169.702 144.3C169.956 144.3 170.169 144.383 170.342 144.55C170.516 144.717 170.602 144.937 170.602 145.21C170.602 145.483 170.516 145.703 170.342 145.87C170.169 146.037 169.956 146.12 169.702 146.12ZM174.84 141.63C175.287 141.63 175.683 141.727 176.03 141.92C176.377 142.113 176.647 142.38 176.84 142.72C177.033 143.06 177.13 143.44 177.13 143.86C177.13 144.313 177.017 144.71 176.79 145.05C176.563 145.39 176.243 145.653 175.83 145.84C175.417 146.02 174.937 146.11 174.39 146.11C173.97 146.11 173.557 146.057 173.15 145.95C172.743 145.837 172.383 145.677 172.07 145.47V144.19H172.11C172.41 144.423 172.77 144.613 173.19 144.76C173.61 144.907 174 144.98 174.36 144.98C174.787 144.98 175.13 144.877 175.39 144.67C175.65 144.457 175.78 144.18 175.78 143.84C175.78 143.52 175.667 143.26 175.44 143.06C175.22 142.86 174.93 142.76 174.57 142.76C174.09 142.76 173.633 142.937 173.2 143.29H173.16L172.29 143.02V142.97L172.74 139.04H176.8V140.19H173.84L173.65 141.89C174.03 141.717 174.427 141.63 174.84 141.63ZM180.321 143.09C179.675 143.09 179.195 142.9 178.881 142.52C178.575 142.133 178.421 141.627 178.421 141C178.421 140.373 178.575 139.87 178.881 139.49C179.195 139.103 179.675 138.91 180.321 138.91C180.968 138.91 181.445 139.103 181.751 139.49C182.065 139.87 182.221 140.373 182.221 141C182.221 141.627 182.065 142.133 181.751 142.52C181.445 142.9 180.968 143.09 180.321 143.09ZM185.951 139.04L180.441 146H179.451L184.961 139.04H185.951ZM180.321 142.23C180.595 142.23 180.798 142.117 180.931 141.89C181.065 141.657 181.131 141.36 181.131 141C181.131 140.647 181.061 140.353 180.921 140.12C180.788 139.887 180.588 139.77 180.321 139.77C180.055 139.77 179.851 139.887 179.711 140.12C179.578 140.353 179.511 140.647 179.511 141C179.511 141.36 179.578 141.657 179.711 141.89C179.845 142.117 180.048 142.23 180.321 142.23ZM185.081 146.13C184.435 146.13 183.955 145.94 183.641 145.56C183.335 145.173 183.181 144.667 183.181 144.04C183.181 143.413 183.335 142.91 183.641 142.53C183.955 142.143 184.435 141.95 185.081 141.95C185.728 141.95 186.205 142.143 186.511 142.53C186.825 142.91 186.981 143.413 186.981 144.04C186.981 144.667 186.825 145.173 186.511 145.56C186.205 145.94 185.728 146.13 185.081 146.13ZM185.081 145.27C185.355 145.27 185.558 145.157 185.691 144.93C185.825 144.697 185.891 144.4 185.891 144.04C185.891 143.687 185.821 143.393 185.681 143.16C185.548 142.927 185.348 142.81 185.081 142.81C184.815 142.81 184.611 142.927 184.471 143.16C184.338 143.393 184.271 143.687 184.271 144.04C184.271 144.4 184.338 144.697 184.471 144.93C184.605 145.157 184.808 145.27 185.081 145.27Z" fill="#A3A3A3"/>
</g>
</g>
<g filter="url(#filter15_d_5_227)">
<path d="M394 100H230C225.582 100 222 103.582 222 108V158C222 162.418 225.582 166 230 166H394C398.418 166 402 162.418 402 158V108C402 103.582 398.418 100 394 100Z" fill="#323139"/>
<g filter="url(#filter16_d_5_227)">
<path d="M237.333 122V114M237.333 114L234 117.2M237.333 114L240.667 117.2" stroke="#75DB92" stroke-width="1.66667" stroke-linecap="round" stroke-linejoin="round"/>
</g>
<g filter="url(#filter17_d_5_227)">
<path d="M253.848 112.864V113.936L249.544 124H247.608L247.224 123.936L251.384 114.704H246.44V112.864H253.848ZM257.802 124.192C257.397 124.192 257.055 124.059 256.778 123.792C256.501 123.525 256.362 123.173 256.362 122.736C256.362 122.299 256.501 121.947 256.778 121.68C257.055 121.413 257.397 121.28 257.802 121.28C258.207 121.28 258.549 121.413 258.826 121.68C259.103 121.947 259.242 122.299 259.242 122.736C259.242 123.173 259.103 123.525 258.826 123.792C258.549 124.059 258.207 124.192 257.802 124.192ZM269.43 122.128V124H261.846V122.4L265.414 118.656C266.001 118.048 266.406 117.541 266.63 117.136C266.854 116.731 266.966 116.341 266.966 115.968C266.966 114.987 266.358 114.496 265.142 114.496C264.641 114.496 264.134 114.571 263.622 114.72C263.121 114.869 262.641 115.093 262.182 115.392V113.456C263.121 112.933 264.139 112.672 265.238 112.672C266.422 112.672 267.361 112.949 268.054 113.504C268.758 114.059 269.11 114.821 269.11 115.792C269.11 116.901 268.609 118.011 267.606 119.12L264.87 122.128H269.43ZM274.792 119.344C273.757 119.344 272.989 119.04 272.488 118.432C271.997 117.813 271.752 117.003 271.752 116C271.752 114.997 271.997 114.192 272.488 113.584C272.989 112.965 273.757 112.656 274.792 112.656C275.827 112.656 276.589 112.965 277.08 113.584C277.581 114.192 277.832 114.997 277.832 116C277.832 117.003 277.581 117.813 277.08 118.432C276.589 119.04 275.827 119.344 274.792 119.344ZM283.8 112.864L274.984 124H273.4L282.216 112.864H283.8ZM274.792 117.968C275.229 117.968 275.555 117.787 275.768 117.424C275.981 117.051 276.088 116.576 276.088 116C276.088 115.435 275.976 114.965 275.752 114.592C275.539 114.219 275.219 114.032 274.792 114.032C274.365 114.032 274.04 114.219 273.816 114.592C273.603 114.965 273.496 115.435 273.496 116C273.496 116.576 273.603 117.051 273.816 117.424C274.029 117.787 274.355 117.968 274.792 117.968ZM282.408 124.208C281.373 124.208 280.605 123.904 280.104 123.296C279.613 122.677 279.368 121.867 279.368 120.864C279.368 119.861 279.613 119.056 280.104 118.448C280.605 117.829 281.373 117.52 282.408 117.52C283.443 117.52 284.205 117.829 284.696 118.448C285.197 119.056 285.448 119.861 285.448 120.864C285.448 121.867 285.197 122.677 284.696 123.296C284.205 123.904 283.443 124.208 282.408 124.208ZM282.408 122.832C282.845 122.832 283.171 122.651 283.384 122.288C283.597 121.915 283.704 121.44 283.704 120.864C283.704 120.299 283.592 119.829 283.368 119.456C283.155 119.083 282.835 118.896 282.408 118.896C281.981 118.896 281.656 119.083 281.432 119.456C281.219 119.829 281.112 120.299 281.112 120.864C281.112 121.44 281.219 121.915 281.432 122.288C281.645 122.651 281.971 122.832 282.408 122.832Z" fill="#75DB92"/>
</g>
<g filter="url(#filter18_d_5_227)">
<path d="M238.064 138.8H234.896V136.864H243.344V138.8H240.176V148H238.064V138.8ZM248.241 148.192C247.399 148.192 246.657 148.016 246.017 147.664C245.377 147.301 244.881 146.789 244.529 146.128C244.188 145.467 244.017 144.699 244.017 143.824C244.017 142.949 244.188 142.181 244.529 141.52C244.881 140.859 245.377 140.352 246.017 140C246.657 139.637 247.399 139.456 248.241 139.456C249.084 139.456 249.825 139.637 250.465 140C251.105 140.352 251.596 140.859 251.937 141.52C252.289 142.181 252.465 142.949 252.465 143.824C252.465 144.699 252.289 145.467 251.937 146.128C251.596 146.789 251.105 147.301 250.465 147.664C249.825 148.016 249.084 148.192 248.241 148.192ZM248.241 146.448C248.871 146.448 249.361 146.224 249.713 145.776C250.065 145.317 250.241 144.667 250.241 143.824C250.241 142.971 250.065 142.32 249.713 141.872C249.361 141.424 248.871 141.2 248.241 141.2C247.612 141.2 247.121 141.424 246.769 141.872C246.417 142.32 246.241 142.971 246.241 143.824C246.241 144.667 246.417 145.317 246.769 145.776C247.121 146.224 247.612 146.448 248.241 146.448ZM256.956 139.648H258.876V141.216H256.956V145.248C256.956 146.059 257.265 146.464 257.884 146.464C258.172 146.464 258.508 146.363 258.892 146.16V147.904C258.625 148 258.374 148.069 258.14 148.112C257.916 148.165 257.66 148.192 257.372 148.192C255.686 148.192 254.844 147.211 254.844 145.248V141.216H253.628V139.648H254.844V137.408L256.956 136.672V139.648ZM265.97 148L265.762 146.992C265.005 147.792 264.093 148.192 263.026 148.192C262.183 148.192 261.495 147.973 260.962 147.536C260.439 147.099 260.178 146.523 260.178 145.808C260.178 144.88 260.519 144.16 261.202 143.648C261.895 143.125 262.893 142.864 264.194 142.864C264.663 142.864 265.133 142.885 265.602 142.928V142.624C265.602 142.155 265.469 141.808 265.202 141.584C264.935 141.349 264.514 141.232 263.938 141.232C263.373 141.232 262.845 141.328 262.354 141.52C261.874 141.701 261.351 142 260.786 142.416V140.528C261.277 140.155 261.789 139.883 262.322 139.712C262.855 139.541 263.442 139.456 264.082 139.456C265.266 139.456 266.167 139.712 266.786 140.224C267.415 140.725 267.73 141.461 267.73 142.432V146.144L268.082 148H265.97ZM262.29 145.648C262.29 146.267 262.642 146.576 263.346 146.576C263.751 146.576 264.135 146.496 264.498 146.336C264.861 146.165 265.229 145.899 265.602 145.536V144.4H264.066C263.447 144.4 262.994 144.491 262.706 144.672C262.429 144.853 262.29 145.179 262.29 145.648ZM269.747 135.936H271.859V148H269.747V135.936ZM285.228 148L282.956 143.76H280.972V148H278.86V136.864H282.876C284.316 136.864 285.393 137.152 286.108 137.728C286.823 138.304 287.18 139.141 287.18 140.24C287.18 141.019 287.004 141.68 286.652 142.224C286.3 142.768 285.777 143.173 285.084 143.44L287.548 148H285.228ZM280.972 141.904H282.892C283.596 141.904 284.113 141.781 284.444 141.536C284.785 141.291 284.956 140.875 284.956 140.288C284.956 139.723 284.791 139.323 284.46 139.088C284.129 138.853 283.601 138.736 282.876 138.736H280.972V141.904ZM297.055 144.464H291.247C291.332 145.104 291.567 145.595 291.951 145.936C292.346 146.277 292.868 146.448 293.519 146.448C293.999 146.448 294.516 146.363 295.071 146.192C295.636 146.011 296.159 145.765 296.639 145.456H296.703V147.168C296.276 147.499 295.786 147.755 295.231 147.936C294.687 148.107 294.111 148.192 293.503 148.192C292.628 148.192 291.866 148.016 291.215 147.664C290.564 147.312 290.063 146.805 289.711 146.144C289.359 145.483 289.183 144.709 289.183 143.824C289.183 142.96 289.348 142.197 289.679 141.536C290.02 140.875 290.495 140.363 291.103 140C291.711 139.637 292.415 139.456 293.215 139.456C293.994 139.456 294.671 139.632 295.247 139.984C295.834 140.336 296.282 140.843 296.591 141.504C296.9 142.165 297.055 142.939 297.055 143.824V144.464ZM293.215 141.152C292.714 141.152 292.292 141.317 291.951 141.648C291.62 141.979 291.396 142.437 291.279 143.024H294.879C294.794 142.416 294.612 141.952 294.335 141.632C294.058 141.312 293.684 141.152 293.215 141.152ZM306.569 139.648L303.481 148H300.857L297.769 139.648H299.913L302.201 146.24L304.489 139.648H306.569ZM314.969 144.464H309.161C309.247 145.104 309.481 145.595 309.865 145.936C310.26 146.277 310.783 146.448 311.433 146.448C311.913 146.448 312.431 146.363 312.985 146.192C313.551 146.011 314.073 145.765 314.553 145.456H314.617V147.168C314.191 147.499 313.7 147.755 313.145 147.936C312.601 148.107 312.025 148.192 311.417 148.192C310.543 148.192 309.78 148.016 309.129 147.664C308.479 147.312 307.977 146.805 307.625 146.144C307.273 145.483 307.097 144.709 307.097 143.824C307.097 142.96 307.263 142.197 307.593 141.536C307.935 140.875 308.409 140.363 309.017 140C309.625 139.637 310.329 139.456 311.129 139.456C311.908 139.456 312.585 139.632 313.161 139.984C313.748 140.336 314.196 140.843 314.505 141.504C314.815 142.165 314.969 142.939 314.969 143.824V144.464ZM311.129 141.152C310.628 141.152 310.207 141.317 309.865 141.648C309.535 141.979 309.311 142.437 309.193 143.024H312.793C312.708 142.416 312.527 141.952 312.249 141.632C311.972 141.312 311.599 141.152 311.129 141.152ZM321.603 139.456C322.446 139.456 323.123 139.707 323.635 140.208C324.158 140.699 324.419 141.349 324.419 142.16V148H322.307V143.36C322.307 142.635 322.195 142.117 321.971 141.808C321.758 141.488 321.4 141.328 320.899 141.328C320.344 141.328 319.758 141.637 319.139 142.256V148H317.027V141.504L316.675 139.648H318.611L318.915 140.72C319.374 140.272 319.816 139.952 320.243 139.76C320.67 139.557 321.123 139.456 321.603 139.456ZM332.845 148L332.541 146.912C331.997 147.392 331.517 147.728 331.101 147.92C330.696 148.101 330.232 148.192 329.709 148.192C329.208 148.192 328.749 148.075 328.333 147.84C327.928 147.605 327.608 147.285 327.373 146.88C327.149 146.464 327.037 146 327.037 145.488V139.648H329.149V144.288C329.149 144.96 329.256 145.467 329.469 145.808C329.683 146.149 329.992 146.32 330.397 146.32C330.739 146.32 331.059 146.245 331.357 146.096C331.656 145.947 331.976 145.707 332.317 145.376V139.648H334.429V146.144L334.781 148H332.845ZM344.552 144.464H338.744C338.829 145.104 339.064 145.595 339.448 145.936C339.843 146.277 340.365 146.448 341.016 146.448C341.496 146.448 342.013 146.363 342.568 146.192C343.133 146.011 343.656 145.765 344.136 145.456H344.2V147.168C343.773 147.499 343.283 147.755 342.728 147.936C342.184 148.107 341.608 148.192 341 148.192C340.125 148.192 339.363 148.016 338.712 147.664C338.061 147.312 337.56 146.805 337.208 146.144C336.856 145.483 336.68 144.709 336.68 143.824C336.68 142.96 336.845 142.197 337.176 141.536C337.517 140.875 337.992 140.363 338.6 140C339.208 139.637 339.912 139.456 340.712 139.456C341.491 139.456 342.168 139.632 342.744 139.984C343.331 140.336 343.779 140.843 344.088 141.504C344.397 142.165 344.552 142.939 344.552 143.824V144.464ZM340.712 141.152C340.211 141.152 339.789 141.317 339.448 141.648C339.117 141.979 338.893 142.437 338.776 143.024H342.376C342.291 142.416 342.109 141.952 341.832 141.632C341.555 141.312 341.181 141.152 340.712 141.152Z" fill="white"/>
</g>
<g filter="url(#filter19_d_5_227)">
<path d="M364.47 144.83V146H359.73V145L361.96 142.66C362.327 142.28 362.58 141.963 362.72 141.71C362.86 141.457 362.93 141.213 362.93 140.98C362.93 140.367 362.55 140.06 361.79 140.06C361.477 140.06 361.16 140.107 360.84 140.2C360.527 140.293 360.227 140.433 359.94 140.62V139.41C360.527 139.083 361.163 138.92 361.85 138.92C362.59 138.92 363.177 139.093 363.61 139.44C364.05 139.787 364.27 140.263 364.27 140.87C364.27 141.563 363.957 142.257 363.33 142.95L361.62 144.83H364.47ZM370.151 142.36C370.491 142.54 370.755 142.783 370.941 143.09C371.135 143.39 371.231 143.723 371.231 144.09C371.231 144.497 371.118 144.853 370.891 145.16C370.665 145.467 370.345 145.703 369.931 145.87C369.518 146.037 369.048 146.12 368.521 146.12C368.135 146.12 367.765 146.073 367.411 145.98C367.065 145.887 366.718 145.743 366.371 145.55V144.26H366.411C367.105 144.74 367.791 144.98 368.471 144.98C368.898 144.98 369.238 144.897 369.491 144.73C369.745 144.557 369.871 144.32 369.871 144.02C369.871 143.693 369.728 143.43 369.441 143.23C369.155 143.023 368.768 142.92 368.281 142.92H367.861V141.82H368.281C368.735 141.82 369.091 141.737 369.351 141.57C369.611 141.403 369.741 141.173 369.741 140.88C369.741 140.62 369.631 140.42 369.411 140.28C369.198 140.14 368.898 140.07 368.511 140.07C368.211 140.07 367.908 140.117 367.601 140.21C367.301 140.303 366.971 140.45 366.611 140.65H366.571V139.41C367.205 139.083 367.871 138.92 368.571 138.92C369.331 138.92 369.938 139.087 370.391 139.42C370.851 139.747 371.081 140.193 371.081 140.76C371.081 141.093 370.998 141.4 370.831 141.68C370.671 141.953 370.445 142.18 370.151 142.36ZM373.702 146.12C373.449 146.12 373.236 146.037 373.062 145.87C372.889 145.703 372.802 145.483 372.802 145.21C372.802 144.937 372.889 144.717 373.062 144.55C373.236 144.383 373.449 144.3 373.702 144.3C373.956 144.3 374.169 144.383 374.342 144.55C374.516 144.717 374.602 144.937 374.602 145.21C374.602 145.483 374.516 145.703 374.342 145.87C374.169 146.037 373.956 146.12 373.702 146.12ZM378.61 146.12C378.09 146.12 377.627 146.033 377.22 145.86C376.813 145.687 376.497 145.443 376.27 145.13C376.043 144.817 375.93 144.463 375.93 144.07C375.93 143.69 376.033 143.35 376.24 143.05C376.453 142.75 376.72 142.54 377.04 142.42C376.74 142.32 376.5 142.12 376.32 141.82C376.147 141.52 376.06 141.193 376.06 140.84C376.06 140.46 376.167 140.123 376.38 139.83C376.6 139.537 376.903 139.313 377.29 139.16C377.677 139 378.113 138.92 378.6 138.92C379.093 138.92 379.53 139 379.91 139.16C380.297 139.313 380.597 139.537 380.81 139.83C381.03 140.117 381.14 140.45 381.14 140.83C381.14 141.183 381.05 141.51 380.87 141.81C380.69 142.11 380.45 142.313 380.15 142.42C380.503 142.547 380.777 142.763 380.97 143.07C381.17 143.37 381.27 143.703 381.27 144.07C381.27 144.47 381.157 144.827 380.93 145.14C380.703 145.447 380.387 145.687 379.98 145.86C379.58 146.033 379.123 146.12 378.61 146.12ZM378.6 141.85C378.98 141.85 379.273 141.773 379.48 141.62C379.693 141.46 379.8 141.233 379.8 140.94C379.8 140.647 379.697 140.42 379.49 140.26C379.283 140.1 378.987 140.02 378.6 140.02C378.213 140.02 377.917 140.1 377.71 140.26C377.503 140.42 377.4 140.647 377.4 140.94C377.4 141.233 377.503 141.46 377.71 141.62C377.917 141.773 378.213 141.85 378.6 141.85ZM378.6 145.01C379.02 145.01 379.343 144.92 379.57 144.74C379.797 144.56 379.91 144.31 379.91 143.99C379.91 143.663 379.797 143.413 379.57 143.24C379.343 143.06 379.02 142.97 378.6 142.97C378.187 142.97 377.863 143.06 377.63 143.24C377.403 143.413 377.29 143.663 377.29 143.99C377.29 144.317 377.403 144.57 377.63 144.75C377.857 144.923 378.18 145.01 378.6 145.01ZM385.311 143.12L384.551 144V146H383.231V139.04H384.551V142.2L387.221 139.04H388.841L386.211 142.08L389.001 146H387.371L385.311 143.12Z" fill="#A3A3A3"/>
</g>
</g>
</g>
<defs>
<filter id="filter0_d_5_227" x="0" y="0" width="220" height="106" filterUnits="userSpaceOnUse" color-interpolation-filters="sRGB">
<feFlood flood-opacity="0" result="BackgroundImageFix"/>
<feColorMatrix in="SourceAlpha" type="matrix" values="0 0 0 0 0 0 0 0 0 0 0 0 0 0 0 0 0 0 127 0" result="hardAlpha"/>
<feOffset dy="8"/>
<feGaussianBlur stdDeviation="10"/>
<feComposite in2="hardAlpha" operator="out"/>
<feColorMatrix type="matrix" values="0 0 0 0 0 0 0 0 0 0 0 0 0 0 0 0 0 0 0.15 0"/>
<feBlend mode="normal" in2="BackgroundImageFix" result="effect1_dropShadow_5_227"/>
<feBlend mode="normal" in="SourceGraphic" in2="effect1_dropShadow_5_227" result="shape"/>
</filter>
<filter id="filter1_d_5_227" x="27.1667" y="21.1667" width="16.3334" height="17.6667" filterUnits="userSpaceOnUse" color-interpolation-filters="sRGB">
<feFlood flood-opacity="0" result="BackgroundImageFix"/>
<feColorMatrix in="SourceAlpha" type="matrix" values="0 0 0 0 0 0 0 0 0 0 0 0 0 0 0 0 0 0 127 0" result="hardAlpha"/>
<feOffset/>
<feGaussianBlur stdDeviation="2"/>
<feComposite in2="hardAlpha" operator="out"/>
<feColorMatrix type="matrix" values="0 0 0 0 0 0 0 0 0 0 0 0 0 0 0 0 0 0 0.1 0"/>
<feBlend mode="normal" in2="BackgroundImageFix" result="effect1_dropShadow_5_227"/>
<feBlend mode="normal" in="SourceGraphic" in2="effect1_dropShadow_5_227" result="shape"/>
</filter>
<filter id="filter2_d_5_227" x="40.168" y="20.656" width="42.3238" height="19.552" filterUnits="userSpaceOnUse" color-interpolation-filters="sRGB">
<feFlood flood-opacity="0" result="BackgroundImageFix"/>
<feColorMatrix in="SourceAlpha" type="matrix" values="0 0 0 0 0 0 0 0 0 0 0 0 0 0 0 0 0 0 127 0" result="hardAlpha"/>
<feOffset/>
<feGaussianBlur stdDeviation="2"/>
<feComposite in2="hardAlpha" operator="out"/>
<feColorMatrix type="matrix" values="0 0 0 0 0 0 0 0 0 0 0 0 0 0 0 0 0 0 0.1 0"/>
<feBlend mode="normal" in2="BackgroundImageFix" result="effect1_dropShadow_5_227"/>
<feBlend mode="normal" in="SourceGraphic" in2="effect1_dropShadow_5_227" result="shape"/>
</filter>
<filter id="filter3_d_5_227" x="29.264" y="43.936" width="86.836" height="20.256" filterUnits="userSpaceOnUse" color-interpolation-filters="sRGB">
<feFlood flood-opacity="0" result="BackgroundImageFix"/>
<feColorMatrix in="SourceAlpha" type="matrix" values="0 0 0 0 0 0 0 0 0 0 0 0 0 0 0 0 0 0 127 0" result="hardAlpha"/>
<feOffset/>
<feGaussianBlur stdDeviation="2"/>
<feComposite in2="hardAlpha" operator="out"/>
<feColorMatrix type="matrix" values="0 0 0 0 0 0 0 0 0 0 0 0 0 0 0 0 0 0 0.1 0"/>
<feBlend mode="normal" in2="BackgroundImageFix" result="effect1_dropShadow_5_227"/>
<feBlend mode="normal" in="SourceGraphic" in2="effect1_dropShadow_5_227" result="shape"/>
</filter>
<filter id="filter4_d_5_227" x="160.9" y="47.04" width="30.4" height="15.08" filterUnits="userSpaceOnUse" color-interpolation-filters="sRGB">
<feFlood flood-opacity="0" result="BackgroundImageFix"/>
<feColorMatrix in="SourceAlpha" type="matrix" values="0 0 0 0 0 0 0 0 0 0 0 0 0 0 0 0 0 0 127 0" result="hardAlpha"/>
<feOffset/>
<feGaussianBlur stdDeviation="2"/>
<feComposite in2="hardAlpha" operator="out"/>
<feColorMatrix type="matrix" values="0 0 0 0 0 0 0 0 0 0 0 0 0 0 0 0 0 0 0.1 0"/>
<feBlend mode="normal" in2="BackgroundImageFix" result="effect1_dropShadow_5_227"/>
<feBlend mode="normal" in="SourceGraphic" in2="effect1_dropShadow_5_227" result="shape"/>
</filter>
<filter id="filter5_d_5_227" x="202" y="0" width="220" height="106" filterUnits="userSpaceOnUse" color-interpolation-filters="sRGB">
<feFlood flood-opacity="0" result="BackgroundImageFix"/>
<feColorMatrix in="SourceAlpha" type="matrix" values="0 0 0 0 0 0 0 0 0 0 0 0 0 0 0 0 0 0 127 0" result="hardAlpha"/>
<feOffset dy="8"/>
<feGaussianBlur stdDeviation="10"/>
<feComposite in2="hardAlpha" operator="out"/>
<feColorMatrix type="matrix" values="0 0 0 0 0 0 0 0 0 0 0 0 0 0 0 0 0 0 0.15 0"/>
<feBlend mode="normal" in2="BackgroundImageFix" result="effect1_dropShadow_5_227"/>
<feBlend mode="normal" in="SourceGraphic" in2="effect1_dropShadow_5_227" result="shape"/>
</filter>
<filter id="filter6_d_5_227" x="229.167" y="21.1667" width="16.3337" height="17.6667" filterUnits="userSpaceOnUse" color-interpolation-filters="sRGB">
<feFlood flood-opacity="0" result="BackgroundImageFix"/>
<feColorMatrix in="SourceAlpha" type="matrix" values="0 0 0 0 0 0 0 0 0 0 0 0 0 0 0 0 0 0 127 0" result="hardAlpha"/>
<feOffset/>
<feGaussianBlur stdDeviation="2"/>
<feComposite in2="hardAlpha" operator="out"/>
<feColorMatrix type="matrix" values="0 0 0 0 0 0 0 0 0 0 0 0 0 0 0 0 0 0 0.1 0"/>
<feBlend mode="normal" in2="BackgroundImageFix" result="effect1_dropShadow_5_227"/>
<feBlend mode="normal" in="SourceGraphic" in2="effect1_dropShadow_5_227" result="shape"/>
</filter>
<filter id="filter7_d_5_227" x="242.072" y="20.656" width="42.42" height="19.552" filterUnits="userSpaceOnUse" color-interpolation-filters="sRGB">
<feFlood flood-opacity="0" result="BackgroundImageFix"/>
<feColorMatrix in="SourceAlpha" type="matrix" values="0 0 0 0 0 0 0 0 0 0 0 0 0 0 0 0 0 0 127 0" result="hardAlpha"/>
<feOffset/>
<feGaussianBlur stdDeviation="2"/>
<feComposite in2="hardAlpha" operator="out"/>
<feColorMatrix type="matrix" values="0 0 0 0 0 0 0 0 0 0 0 0 0 0 0 0 0 0 0.1 0"/>
<feBlend mode="normal" in2="BackgroundImageFix" result="effect1_dropShadow_5_227"/>
<feBlend mode="normal" in="SourceGraphic" in2="effect1_dropShadow_5_227" result="shape"/>
</filter>
<filter id="filter8_d_5_227" x="231.648" y="44.864" width="79.356" height="22.848" filterUnits="userSpaceOnUse" color-interpolation-filters="sRGB">
<feFlood flood-opacity="0" result="BackgroundImageFix"/>
<feColorMatrix in="SourceAlpha" type="matrix" values="0 0 0 0 0 0 0 0 0 0 0 0 0 0 0 0 0 0 127 0" result="hardAlpha"/>
<feOffset/>
<feGaussianBlur stdDeviation="2"/>
<feComposite in2="hardAlpha" operator="out"/>
<feColorMatrix type="matrix" values="0 0 0 0 0 0 0 0 0 0 0 0 0 0 0 0 0 0 0.1 0"/>
<feBlend mode="normal" in2="BackgroundImageFix" result="effect1_dropShadow_5_227"/>
<feBlend mode="normal" in="SourceGraphic" in2="effect1_dropShadow_5_227" result="shape"/>
</filter>
<filter id="filter9_d_5_227" x="362.39" y="47.04" width="30.91" height="15.08" filterUnits="userSpaceOnUse" color-interpolation-filters="sRGB">
<feFlood flood-opacity="0" result="BackgroundImageFix"/>
<feColorMatrix in="SourceAlpha" type="matrix" values="0 0 0 0 0 0 0 0 0 0 0 0 0 0 0 0 0 0 127 0" result="hardAlpha"/>
<feOffset/>
<feGaussianBlur stdDeviation="2"/>
<feComposite in2="hardAlpha" operator="out"/>
<feColorMatrix type="matrix" values="0 0 0 0 0 0 0 0 0 0 0 0 0 0 0 0 0 0 0.1 0"/>
<feBlend mode="normal" in2="BackgroundImageFix" result="effect1_dropShadow_5_227"/>
<feBlend mode="normal" in="SourceGraphic" in2="effect1_dropShadow_5_227" result="shape"/>
</filter>
<filter id="filter10_d_5_227" x="0" y="88" width="220" height="106" filterUnits="userSpaceOnUse" color-interpolation-filters="sRGB">
<feFlood flood-opacity="0" result="BackgroundImageFix"/>
<feColorMatrix in="SourceAlpha" type="matrix" values="0 0 0 0 0 0 0 0 0 0 0 0 0 0 0 0 0 0 127 0" result="hardAlpha"/>
<feOffset dy="8"/>
<feGaussianBlur stdDeviation="10"/>
<feComposite in2="hardAlpha" operator="out"/>
<feColorMatrix type="matrix" values="0 0 0 0 0 0 0 0 0 0 0 0 0 0 0 0 0 0 0.15 0"/>
<feBlend mode="normal" in2="BackgroundImageFix" result="effect1_dropShadow_5_227"/>
<feBlend mode="normal" in="SourceGraphic" in2="effect1_dropShadow_5_227" result="shape"/>
</filter>
<filter id="filter11_d_5_227" x="27.167" y="109.167" width="16.3334" height="17.6667" filterUnits="userSpaceOnUse" color-interpolation-filters="sRGB">
<feFlood flood-opacity="0" result="BackgroundImageFix"/>
<feColorMatrix in="SourceAlpha" type="matrix" values="0 0 0 0 0 0 0 0 0 0 0 0 0 0 0 0 0 0 127 0" result="hardAlpha"/>
<feOffset/>
<feGaussianBlur stdDeviation="2"/>
<feComposite in2="hardAlpha" operator="out"/>
<feColorMatrix type="matrix" values="0 0 0 0 0 0 0 0 0 0 0 0 0 0 0 0 0 0 0.1 0"/>
<feBlend mode="normal" in2="BackgroundImageFix" result="effect1_dropShadow_5_227"/>
<feBlend mode="normal" in="SourceGraphic" in2="effect1_dropShadow_5_227" result="shape"/>
</filter>
<filter id="filter12_d_5_227" x="39.912" y="108.656" width="31.8579" height="19.552" filterUnits="userSpaceOnUse" color-interpolation-filters="sRGB">
<feFlood flood-opacity="0" result="BackgroundImageFix"/>
<feColorMatrix in="SourceAlpha" type="matrix" values="0 0 0 0 0 0 0 0 0 0 0 0 0 0 0 0 0 0 127 0" result="hardAlpha"/>
<feOffset/>
<feGaussianBlur stdDeviation="2"/>
<feComposite in2="hardAlpha" operator="out"/>
<feColorMatrix type="matrix" values="0 0 0 0 0 0 0 0 0 0 0 0 0 0 0 0 0 0 0.1 0"/>
<feBlend mode="normal" in2="BackgroundImageFix" result="effect1_dropShadow_5_227"/>
<feBlend mode="normal" in="SourceGraphic" in2="effect1_dropShadow_5_227" result="shape"/>
</filter>
<filter id="filter13_d_5_227" x="29.648" y="131.744" width="107.83" height="24.16" filterUnits="userSpaceOnUse" color-interpolation-filters="sRGB">
<feFlood flood-opacity="0" result="BackgroundImageFix"/>
<feColorMatrix in="SourceAlpha" type="matrix" values="0 0 0 0 0 0 0 0 0 0 0 0 0 0 0 0 0 0 127 0" result="hardAlpha"/>
<feOffset/>
<feGaussianBlur stdDeviation="2"/>
<feComposite in2="hardAlpha" operator="out"/>
<feColorMatrix type="matrix" values="0 0 0 0 0 0 0 0 0 0 0 0 0 0 0 0 0 0 0.1 0"/>
<feBlend mode="normal" in2="BackgroundImageFix" result="effect1_dropShadow_5_227"/>
<feBlend mode="normal" in="SourceGraphic" in2="effect1_dropShadow_5_227" result="shape"/>
</filter>
<filter id="filter14_d_5_227" x="151.67" y="134.91" width="39.311" height="15.22" filterUnits="userSpaceOnUse" color-interpolation-filters="sRGB">
<feFlood flood-opacity="0" result="BackgroundImageFix"/>
<feColorMatrix in="SourceAlpha" type="matrix" values="0 0 0 0 0 0 0 0 0 0 0 0 0 0 0 0 0 0 127 0" result="hardAlpha"/>
<feOffset/>
<feGaussianBlur stdDeviation="2"/>
<feComposite in2="hardAlpha" operator="out"/>
<feColorMatrix type="matrix" values="0 0 0 0 0 0 0 0 0 0 0 0 0 0 0 0 0 0 0.1 0"/>
<feBlend mode="normal" in2="BackgroundImageFix" result="effect1_dropShadow_5_227"/>
<feBlend mode="normal" in="SourceGraphic" in2="effect1_dropShadow_5_227" result="shape"/>
</filter>
<filter id="filter15_d_5_227" x="202" y="88" width="220" height="106" filterUnits="userSpaceOnUse" color-interpolation-filters="sRGB">
<feFlood flood-opacity="0" result="BackgroundImageFix"/>
<feColorMatrix in="SourceAlpha" type="matrix" values="0 0 0 0 0 0 0 0 0 0 0 0 0 0 0 0 0 0 127 0" result="hardAlpha"/>
<feOffset dy="8"/>
<feGaussianBlur stdDeviation="10"/>
<feComposite in2="hardAlpha" operator="out"/>
<feColorMatrix type="matrix" values="0 0 0 0 0 0 0 0 0 0 0 0 0 0 0 0 0 0 0.15 0"/>
<feBlend mode="normal" in2="BackgroundImageFix" result="effect1_dropShadow_5_227"/>
<feBlend mode="normal" in="SourceGraphic" in2="effect1_dropShadow_5_227" result="shape"/>
</filter>
<filter id="filter16_d_5_227" x="229.167" y="109.167" width="16.3337" height="17.6667" filterUnits="userSpaceOnUse" color-interpolation-filters="sRGB">
<feFlood flood-opacity="0" result="BackgroundImageFix"/>
<feColorMatrix in="SourceAlpha" type="matrix" values="0 0 0 0 0 0 0 0 0 0 0 0 0 0 0 0 0 0 127 0" result="hardAlpha"/>
<feOffset/>
<feGaussianBlur stdDeviation="2"/>
<feComposite in2="hardAlpha" operator="out"/>
<feColorMatrix type="matrix" values="0 0 0 0 0 0 0 0 0 0 0 0 0 0 0 0 0 0 0.1 0"/>
<feBlend mode="normal" in2="BackgroundImageFix" result="effect1_dropShadow_5_227"/>
<feBlend mode="normal" in="SourceGraphic" in2="effect1_dropShadow_5_227" result="shape"/>
</filter>
<filter id="filter17_d_5_227" x="242.44" y="108.656" width="47.008" height="19.552" filterUnits="userSpaceOnUse" color-interpolation-filters="sRGB">
<feFlood flood-opacity="0" result="BackgroundImageFix"/>
<feColorMatrix in="SourceAlpha" type="matrix" values="0 0 0 0 0 0 0 0 0 0 0 0 0 0 0 0 0 0 127 0" result="hardAlpha"/>
<feOffset/>
<feGaussianBlur stdDeviation="2"/>
<feComposite in2="hardAlpha" operator="out"/>
<feColorMatrix type="matrix" values="0 0 0 0 0 0 0 0 0 0 0 0 0 0 0 0 0 0 0.1 0"/>
<feBlend mode="normal" in2="BackgroundImageFix" result="effect1_dropShadow_5_227"/>
<feBlend mode="normal" in="SourceGraphic" in2="effect1_dropShadow_5_227" result="shape"/>
</filter>
<filter id="filter18_d_5_227" x="230.896" y="131.936" width="117.656" height="20.256" filterUnits="userSpaceOnUse" color-interpolation-filters="sRGB">
<feFlood flood-opacity="0" result="BackgroundImageFix"/>
<feColorMatrix in="SourceAlpha" type="matrix" values="0 0 0 0 0 0 0 0 0 0 0 0 0 0 0 0 0 0 127 0" result="hardAlpha"/>
<feOffset/>
<feGaussianBlur stdDeviation="2"/>
<feComposite in2="hardAlpha" operator="out"/>
<feColorMatrix type="matrix" values="0 0 0 0 0 0 0 0 0 0 0 0 0 0 0 0 0 0 0.1 0"/>
<feBlend mode="normal" in2="BackgroundImageFix" result="effect1_dropShadow_5_227"/>
<feBlend mode="normal" in="SourceGraphic" in2="effect1_dropShadow_5_227" result="shape"/>
</filter>
<filter id="filter19_d_5_227" x="355.73" y="134.92" width="37.271" height="15.2" filterUnits="userSpaceOnUse" color-interpolation-filters="sRGB">
<feFlood flood-opacity="0" result="BackgroundImageFix"/>
<feColorMatrix in="SourceAlpha" type="matrix" values="0 0 0 0 0 0 0 0 0 0 0 0 0 0 0 0 0 0 127 0" result="hardAlpha"/>
<feOffset/>
<feGaussianBlur stdDeviation="2"/>
<feComposite in2="hardAlpha" operator="out"/>
<feColorMatrix type="matrix" values="0 0 0 0 0 0 0 0 0 0 0 0 0 0 0 0 0 0 0.1 0"/>
<feBlend mode="normal" in2="BackgroundImageFix" result="effect1_dropShadow_5_227"/>
<feBlend mode="normal" in="SourceGraphic" in2="effect1_dropShadow_5_227" result="shape"/>
</filter>
<clipPath id="clip0_5_227">
<rect width="422" height="194" fill="white"/>
</clipPath>
</defs>
</svg>
