<svg width="48" height="48" viewBox="0 0 48 48" fill="none" xmlns="http://www.w3.org/2000/svg">
<mask id="path-1-inside-1_4063_4672" fill="white">
<path fill-rule="evenodd" clip-rule="evenodd" d="M48 23.7999C48 23.7999 47.9999 23.7999 47.9999 23.7999C42.0353 23.7999 37.2 18.9646 37.1999 13H34.7999C34.7999 18.9646 29.9646 23.7999 24 23.7999V26.1999C29.9646 26.2 34.7999 31.0353 34.7999 36.9999V37H37.1999V36.9999C37.1999 31.0352 42.0352 26.1999 47.9999 26.1999H48V23.7999Z"/>
</mask>
<path d="M48 23.7999H50V21.7999H48V23.7999ZM37.1999 13L39.1999 13L39.1999 11H37.1999V13ZM34.7999 13V11H32.7999L32.7999 13L34.7999 13ZM24 23.7999L24 21.7999L22 21.7999V23.7999H24ZM24 26.1999H22V28.1999L24 28.1999L24 26.1999ZM34.7999 37H32.7999V39H34.7999V37ZM37.1999 37V39H39.1999V37H37.1999ZM48 26.1999V28.1999H50V26.1999H48ZM48 21.7999C48 21.7999 48 21.7999 48 21.7999C48 21.7999 48 21.7999 48 21.7999C48 21.7999 48 21.7999 48 21.7999C48 21.7999 48 21.7999 48 21.7999C48 21.7999 48 21.7999 48 21.7999C48 21.7999 48 21.7999 48 21.7999C48 21.7999 48 21.7999 48 21.7999C48 21.7999 48 21.7999 48 21.7999C48 21.7999 48 21.7999 48 21.7999C48 21.7999 48 21.7999 48 21.7999C48 21.7999 48 21.7999 48 21.7999C48 21.7999 48 21.7999 48 21.7999C48 21.7999 48 21.7999 48 21.7999C48 21.7999 48 21.7999 48 21.7999C48 21.7999 48 21.7999 48 21.7999C48 21.7999 48 21.7999 48 21.7999C48 21.7999 48 21.7999 48 21.7999C48 21.7999 48 21.7999 48 21.7999C48 21.7999 48 21.7999 48 21.7999C48 21.7999 48 21.7999 48 21.7999C48 21.7999 48 21.7999 48 21.7999C48 21.7999 48 21.7999 48 21.7999C48 21.7999 48 21.7999 48 21.7999C48 21.7999 48 21.7999 48 21.7999C48 21.7999 48 21.7999 48 21.7999C48 21.7999 48 21.7999 48 21.7999C48 21.7999 48 21.7999 48 21.7999C48 21.7999 48 21.7999 48 21.7999C48 21.7999 48 21.7999 48 21.7999C48 21.7999 48 21.7999 48 21.7999C48 21.7999 48 21.7999 48 21.7999C48 21.7999 48 21.7999 48 21.7999C48 21.7999 48 21.7999 48 21.7999C48 21.7999 48 21.7999 48 21.7999C48 21.7999 48 21.7999 48 21.7999C48 21.7999 48 21.7999 48 21.7999C48 21.7999 48 21.7999 48 21.7999C48 21.7999 48 21.7999 48 21.7999C48 21.7999 48 21.7999 48 21.7999C48 21.7999 48 21.7999 48 21.7999C48 21.7999 48 21.7999 48 21.7999C48 21.7999 48 21.7999 48 21.7999C48 21.7999 48 21.7999 48 21.7999C48 21.7999 48 21.7999 48 21.7999C48 21.7999 48 21.7999 48 21.7999C48 21.7999 48 21.7999 48 21.7999C48 21.7999 48 21.7999 48 21.7999C48 21.7999 48 21.7999 48 21.7999C48 21.7999 48 21.7999 48 21.7999C48 21.7999 48 21.7999 48 21.7999C48 21.7999 48 21.7999 48 21.7999C48 21.7999 48 21.7999 48 21.7999C48 21.7999 48 21.7999 48 21.7999C48 21.7999 48 21.7999 48 21.7999C48 21.7999 48 21.7999 48 21.7999C48 21.7999 48 21.7999 48 21.7999C48 21.7999 48 21.7999 48 21.7999C48 21.7999 48 21.7999 48 21.7999C48 21.7999 48 21.7999 48 21.7999C48 21.7999 48 21.7999 48 21.7999C48 21.7999 48 21.7999 48 21.7999C48 21.7999 48 21.7999 48 21.7999C48 21.7999 48 21.7999 48 21.7999C48 21.7999 48 21.7999 48 21.7999C48 21.7999 48 21.7999 48 21.7999C48 21.7999 48 21.7999 48 21.7999C48 21.7999 48 21.7999 48 21.7999C48 21.7999 48 21.7999 48 21.7999C48 21.7999 48 21.7999 48 21.7999C48 21.7999 48 21.7999 48 21.7999C48 21.7999 48 21.7999 48 21.7999C48 21.7999 48 21.7999 48 21.7999C48 21.7999 48 21.7999 48 21.7999C48 21.7999 48 21.7999 48 21.7999C48 21.7999 48 21.7999 48 21.7999C48 21.7999 48 21.7999 48 21.7999C48 21.7999 48 21.7999 48 21.7999C48 21.7999 48 21.7999 48 21.7999C48 21.7999 48 21.7999 48 21.7999C48 21.7999 48 21.7999 48 21.7999C48 21.7999 48 21.7999 48 21.7999C48 21.7999 48 21.7999 48 21.7999C48 21.7999 48 21.7999 48 21.7999C48 21.7999 48 21.7999 48 21.7999C48 21.7999 48 21.7999 48 21.7999C48 21.7999 48 21.7999 48 21.7999C48 21.7999 48 21.7999 48 21.7999C48 21.7999 48 21.7999 48 21.7999C48 21.7999 48 21.7999 48 21.7999C48 21.7999 48 21.7999 48 21.7999C48 21.7999 48 21.7999 48 21.7999C48 21.7999 48 21.7999 48 21.7999C48 21.7999 48 21.7999 48 21.7999C48 21.7999 48 21.7999 48 21.7999C48 21.7999 48 21.7999 48 21.7999C48 21.7999 48 21.7999 48 21.7999C48 21.7999 48 21.7999 48 21.7999C48 21.7999 48 21.7999 48 21.7999C48 21.7999 48 21.7999 48 21.7999C48 21.7999 48 21.7999 48 21.7999C48 21.7999 48 21.7999 48 21.7999C48 21.7999 48 21.7999 48 21.7999C48 21.7999 48 21.7999 48 21.7999C48 21.7999 48 21.7999 48 21.7999C48 21.7999 48 21.7999 48 21.7999C48 21.7999 48 21.7999 48 21.7999C48 21.7999 48 21.7999 48 21.7999C48 21.7999 48 21.7999 48 21.7999C48 21.7999 48 21.7999 48 21.7999C48 21.7999 48 21.7999 48 21.7999C48 21.7999 48 21.7999 48 21.7999C48 21.7999 48 21.7999 48 21.7999C48 21.7999 48 21.7999 48 21.7999C48 21.7999 48 21.7999 48 21.7999C48 21.7999 48 21.7999 48 21.7999C48 21.7999 48 21.7999 48 21.7999C48 21.7999 48 21.7999 48 21.7999C48 21.7999 48 21.7999 48 21.7999C48 21.7999 48 21.7999 48 21.7999C48 21.7999 48 21.7999 48 21.7999C48 21.7999 48 21.7999 48 21.7999C48 21.7999 48 21.7999 48 21.7999C48 21.7999 48 21.7999 48 21.7999C48 21.7999 48 21.7999 48 21.7999C48 21.7999 48 21.7999 48 21.7999C48 21.7999 48 21.7999 48 21.7999C48 21.7999 48 21.7999 48 21.7999C48 21.7999 48 21.7999 48 21.7999C48 21.7999 48 21.7999 48 21.7999C48 21.7999 48 21.7999 48 21.7999C48 21.7999 48 21.7999 48 21.7999C48 21.7999 48 21.7999 48 21.7999C48 21.7999 48 21.7999 48 21.7999C48 21.7999 48 21.7999 48 21.7999C48 21.7999 48 21.7999 48 21.7999C48 21.7999 48 21.7999 48 21.7999C48 21.7999 48 21.7999 48 21.7999C48 21.7999 48 21.7999 48 21.7999C48 21.7999 48 21.7999 48 21.7999C48 21.7999 48 21.7999 48 21.7999C48 21.7999 48 21.7999 48 21.7999C48 21.7999 48 21.7999 48 21.7999C48 21.7999 48 21.7999 48 21.7999C48 21.7999 48 21.7999 48 21.7999C48 21.7999 48 21.7999 48 21.7999C48 21.7999 48 21.7999 48 21.7999C48 21.7999 48 21.7999 48 21.7999C48 21.7999 48 21.7999 48 21.7999C48 21.7999 48 21.7999 48 21.7999C48 21.7999 48 21.7999 48 21.7999C48 21.7999 48 21.7999 48 21.7999C48 21.7999 48 21.7999 48 21.7999C48 21.7999 48 21.7999 48 21.7999C48 21.7999 48 21.7999 48 21.7999C48 21.7999 48 21.7999 48 21.7999C48 21.7999 48 21.7999 48 21.7999C48 21.7999 48 21.7999 48 21.7999C48 21.7999 48 21.7999 48 21.7999C48 21.7999 48 21.7999 48 21.7999C48 21.7999 48 21.7999 48 21.7999C48 21.7999 48 21.7999 48 21.7999C48 21.7999 48 21.7999 48 21.7999C48 21.7999 48 21.7999 48 21.7999C48 21.7999 48 21.7999 48 21.7999C48 21.7999 48 21.7999 48 21.7999C48 21.7999 48 21.7999 48 21.7999C48 21.7999 48 21.7999 48 21.7999C48 21.7999 48 21.7999 48 21.7999C48 21.7999 48 21.7999 48 21.7999C48 21.7999 48 21.7999 48 21.7999C48 21.7999 48 21.7999 48 21.7999C48 21.7999 48 21.7999 48 21.7999C48 21.7999 48 21.7999 48 21.7999C48 21.7999 48 21.7999 48 21.7999C48 21.7999 48 21.7999 48 21.7999C48 21.7999 48 21.7999 48 21.7999C48 21.7999 48 21.7999 48 21.7999C48 21.7999 48 21.7999 48 21.7999C48 21.7999 48 21.7999 48 21.7999C48 21.7999 48 21.7999 48 21.7999C48 21.7999 48 21.7999 48 21.7999C48 21.7999 48 21.7999 48 21.7999C48 21.7999 48 21.7999 48 21.7999C48 21.7999 48 21.7999 48 21.7999C48 21.7999 48 21.7999 48 21.7999C48 21.7999 48 21.7999 48 21.7999C48 21.7999 48 21.7999 48 21.7999C48 21.7999 48 21.7999 48 21.7999C48 21.7999 48 21.7999 48 21.7999C48 21.7999 48 21.7999 48 21.7999C48 21.7999 48 21.7999 48 21.7999C48 21.7999 48 21.7999 48 21.7999C48 21.7999 48 21.7999 48 21.7999C48 21.7999 48 21.7999 48 21.7999C48 21.7999 48 21.7999 48 21.7999C48 21.7999 48 21.7999 48 21.7999C48 21.7999 48 21.7999 48 21.7999C48 21.7999 48 21.7999 48 21.7999C48 21.7999 48 21.7999 48 21.7999C48 21.7999 48 21.7999 48 21.7999C48 21.7999 48 21.7999 48 21.7999C48 21.7999 48 21.7999 48 21.7999C48 21.7999 48 21.7999 48 21.7999C48 21.7999 48 21.7999 48 21.7999C48 21.7999 48 21.7999 48 21.7999C48 21.7999 48 21.7999 48 21.7999C48 21.7999 48 21.7999 48 21.7999C48 21.7999 48 21.7999 48 21.7999C48 21.7999 48 21.7999 48 21.7999C48 21.7999 48 21.7999 48 21.7999C48 21.7999 48 21.7999 48 21.7999C48 21.7999 48 21.7999 48 21.7999C48 21.7999 48 21.7999 48 21.7999C48 21.7999 48 21.7999 48 21.7999C48 21.7999 48 21.7999 48 21.7999C48 21.7999 48 21.7999 48 21.7999C48 21.7999 48 21.7999 48 21.7999C48 21.7999 48 21.7999 48 21.7999C48 21.7999 48 21.7999 48 21.7999C48 21.7999 48 21.7999 48 21.7999C48 21.7999 48 21.7999 48 21.7999C48 21.7999 48 21.7999 48 21.7999C48 21.7999 48 21.7999 48 21.7999C48 21.7999 48 21.7999 48 21.7999C48 21.7999 48 21.7999 48 21.7999C48 21.7999 48 21.7999 48 21.7999C48 21.7999 48 21.7999 48 21.7999C48 21.7999 48 21.7999 48 21.7999C48 21.7999 48 21.7999 48 21.7999C48 21.7999 48 21.7999 48 21.7999C48 21.7999 48 21.7999 48 21.7999C48 21.7999 48 21.7999 48 21.7999C48 21.7999 48 21.7999 48 21.7999C48 21.7999 48 21.7999 48 21.7999C48 21.7999 48 21.7999 48 21.7999C48 21.7999 48 21.7999 48 21.7999C48 21.7999 48 21.7999 48 21.7999C48 21.7999 48 21.7999 48 21.7999C48 21.7999 48 21.7999 48 21.7999C48 21.7999 48 21.7999 48 21.7999C48 21.7999 48 21.7999 48 21.7999C48 21.7999 48 21.7999 48 21.7999C48 21.7999 48 21.7999 48 21.7999C48 21.7999 48 21.7999 48 21.7999C48 21.7999 48 21.7999 48 21.7999C48 21.7999 48 21.7999 48 21.7999C48 21.7999 48 21.7999 48 21.7999C48 21.7999 48 21.7999 48 21.7999C48 21.7999 48 21.7999 48 21.7999C48 21.7999 48 21.7999 48 21.7999C48 21.7999 48 21.7999 48 21.7999C48 21.7999 48 21.7999 48 21.7999C48 21.7999 48 21.7999 48 21.7999C48 21.7999 48 21.7999 48 21.7999C48 21.7999 48 21.7999 48 21.7999C48 21.7999 48 21.7999 48 21.7999C48 21.7999 48 21.7999 48 21.7999C48 21.7999 48 21.7999 48 21.7999C48 21.7999 48 21.7999 48 21.7999C48 21.7999 48 21.7999 48 21.7999C48 21.7999 48 21.7999 48 21.7999C48 21.7999 48 21.7999 48 21.7999C48 21.7999 48 21.7999 48 21.7999C48 21.7999 48 21.7999 48 21.7999C48 21.7999 48 21.7999 48 21.7999C48 21.7999 48 21.7999 48 21.7999C48 21.7999 48 21.7999 48 21.7999C48 21.7999 48 21.7999 48 21.7999C48 21.7999 48 21.7999 48 21.7999C48 21.7999 48 21.7999 48 21.7999C48 21.7999 48 21.7999 48 21.7999C48 21.7999 48 21.7999 48 21.7999C48 21.7999 48 21.7999 48 21.7999C48 21.7999 48 21.7999 48 21.7999C48 21.7999 48 21.7999 48 21.7999C48 21.7999 48 21.7999 48 21.7999C48 21.7999 48 21.7999 48 21.7999C48 21.7999 48 21.7999 48 21.7999C48 21.7999 48 21.7999 48 21.7999C48 21.7999 48 21.7999 48 21.7999C48 21.7999 48 21.7999 48 21.7999C48 21.7999 48 21.7999 48 21.7999C48 21.7999 48 21.7999 48 21.7999C48 21.7999 48 21.7999 48 21.7999C48 21.7999 48 21.7999 48 21.7999C48 21.7999 48 21.7999 48 21.7999C48 21.7999 48 21.7999 48 21.7999C48 21.7999 48 21.7999 48 21.7999C48 21.7999 48 21.7999 48 21.7999C48 21.7999 48 21.7999 48 21.7999C48 21.7999 48 21.7999 48 21.7999C48 21.7999 48 21.7999 48 21.7999C48 21.7999 48 21.7999 48 21.7999C48 21.7999 48 21.7999 48 21.7999C48 21.7999 48 21.7999 48 21.7999C48 21.7999 48 21.7999 48 21.7999C48 21.7999 48 21.7999 48 21.7999C48 21.7999 48 21.7999 48 21.7999C48 21.7999 48 21.7999 48 21.7999C48 21.7999 48 21.7999 48 21.7999C48 21.7999 48 21.7999 48 21.7999C48 21.7999 48 21.7999 48 21.7999C48 21.7999 48 21.7999 48 21.7999C48 21.7999 48 21.7999 48 21.7999C48 21.7999 48 21.7999 48 21.7999C48 21.7999 47.9999 21.7999 47.9999 21.7999C47.9999 21.7999 47.9999 21.7999 47.9999 21.7999C47.9999 21.7999 47.9999 21.7999 47.9999 21.7999C47.9999 21.7999 47.9999 21.7999 47.9999 21.7999C47.9999 21.7999 47.9999 21.7999 47.9999 21.7999C47.9999 21.7999 47.9999 21.7999 47.9999 21.7999C47.9999 21.7999 47.9999 21.7999 47.9999 21.7999C47.9999 21.7999 47.9999 21.7999 47.9999 21.7999C47.9999 21.7999 47.9999 21.7999 47.9999 21.7999C47.9999 21.7999 47.9999 21.7999 47.9999 21.7999C47.9999 21.7999 47.9999 21.7999 47.9999 21.7999C47.9999 21.7999 47.9999 21.7999 47.9999 21.7999C47.9999 21.7999 47.9999 21.7999 47.9999 21.7999C47.9999 21.7999 47.9999 21.7999 47.9999 21.7999C47.9999 21.7999 47.9999 21.7999 47.9999 21.7999C47.9999 21.7999 47.9999 21.7999 47.9999 21.7999C47.9999 21.7999 47.9999 21.7999 47.9999 21.7999C47.9999 21.7999 47.9999 21.7999 47.9999 21.7999C47.9999 21.7999 47.9999 21.7999 47.9999 21.7999C47.9999 21.7999 47.9999 21.7999 47.9999 21.7999C47.9999 21.7999 47.9999 21.7999 47.9999 21.7999C47.9999 21.7999 47.9999 21.7999 47.9999 21.7999C47.9999 21.7999 47.9999 21.7999 47.9999 21.7999C47.9999 21.7999 47.9999 21.7999 47.9999 21.7999C47.9999 21.7999 47.9999 21.7999 47.9999 21.7999C47.9999 21.7999 47.9999 21.7999 47.9999 21.7999C47.9999 21.7999 47.9999 21.7999 47.9999 21.7999C47.9999 21.7999 47.9999 21.7999 47.9999 21.7999C47.9999 21.7999 47.9999 21.7999 47.9999 21.7999C47.9999 21.7999 47.9999 21.7999 47.9999 21.7999C47.9999 21.7999 47.9999 21.7999 47.9999 21.7999C47.9999 21.7999 47.9999 21.7999 47.9999 21.7999C47.9999 21.7999 47.9999 21.7999 47.9999 21.7999C47.9999 21.7999 47.9999 21.7999 47.9999 21.7999C47.9999 21.7999 47.9999 21.7999 47.9999 21.7999C47.9999 21.7999 47.9999 21.7999 47.9999 21.7999C47.9999 21.7999 47.9999 21.7999 47.9999 21.7999C47.9999 21.7999 47.9999 21.7999 47.9999 21.7999C47.9999 21.7999 47.9999 21.7999 47.9999 21.7999C47.9999 21.7999 47.9999 21.7999 47.9999 21.7999C47.9999 21.7999 47.9999 21.7999 47.9999 21.7999C47.9999 21.7999 47.9999 21.7999 47.9999 21.7999C47.9999 21.7999 47.9999 21.7999 47.9999 21.7999C47.9999 21.7999 47.9999 21.7999 47.9999 21.7999C47.9999 21.7999 47.9999 21.7999 47.9999 21.7999C47.9999 21.7999 47.9999 21.7999 47.9999 21.7999C47.9999 21.7999 47.9999 21.7999 47.9999 21.7999C47.9999 21.7999 47.9999 21.7999 47.9999 21.7999C47.9999 21.7999 47.9999 21.7999 47.9999 21.7999C47.9999 21.7999 47.9999 21.7999 47.9999 21.7999C47.9999 21.7999 47.9999 21.7999 47.9999 21.7999C47.9999 21.7999 47.9999 21.7999 47.9999 21.7999C47.9999 21.7999 47.9999 21.7999 47.9999 21.7999C47.9999 21.7999 47.9999 21.7999 47.9999 21.7999C47.9999 21.7999 47.9999 21.7999 47.9999 21.7999C47.9999 21.7999 47.9999 21.7999 47.9999 21.7999C47.9999 21.7999 47.9999 21.7999 47.9999 21.7999C47.9999 21.7999 47.9999 21.7999 47.9999 21.7999C47.9999 21.7999 47.9999 21.7999 47.9999 21.7999C47.9999 21.7999 47.9999 21.7999 47.9999 21.7999C47.9999 21.7999 47.9999 21.7999 47.9999 21.7999C47.9999 21.7999 47.9999 21.7999 47.9999 21.7999C47.9999 21.7999 47.9999 21.7999 47.9999 21.7999C47.9999 21.7999 47.9999 21.7999 47.9999 21.7999C47.9999 21.7999 47.9999 21.7999 47.9999 21.7999C47.9999 21.7999 47.9999 21.7999 47.9999 21.7999C47.9999 21.7999 47.9999 21.7999 47.9999 21.7999C47.9999 21.7999 47.9999 21.7999 47.9999 21.7999C47.9999 21.7999 47.9999 21.7999 47.9999 21.7999C47.9999 21.7999 47.9999 21.7999 47.9999 21.7999C47.9999 21.7999 47.9999 21.7999 47.9999 21.7999C47.9999 21.7999 47.9999 21.7999 47.9999 21.7999C47.9999 21.7999 47.9999 21.7999 47.9999 21.7999C47.9999 21.7999 47.9999 21.7999 47.9999 21.7999C47.9999 21.7999 47.9999 21.7999 47.9999 21.7999C47.9999 21.7999 47.9999 21.7999 47.9999 21.7999C47.9999 21.7999 47.9999 21.7999 47.9999 21.7999C47.9999 21.7999 47.9999 21.7999 47.9999 21.7999C47.9999 21.7999 47.9999 21.7999 47.9999 21.7999C47.9999 21.7999 47.9999 21.7999 47.9999 21.7999C47.9999 21.7999 47.9999 21.7999 47.9999 21.7999C47.9999 21.7999 47.9999 21.7999 47.9999 21.7999C47.9999 21.7999 47.9999 21.7999 47.9999 21.7999C47.9999 21.7999 47.9999 21.7999 47.9999 21.7999C47.9999 21.7999 47.9999 21.7999 47.9999 21.7999C47.9999 21.7999 47.9999 21.7999 47.9999 21.7999C47.9999 21.7999 47.9999 21.7999 47.9999 21.7999C47.9999 21.7999 47.9999 21.7999 47.9999 21.7999C47.9999 21.7999 47.9999 21.7999 47.9999 21.7999C47.9999 21.7999 47.9999 21.7999 47.9999 21.7999C47.9999 21.7999 47.9999 21.7999 47.9999 21.7999C47.9999 21.7999 47.9999 21.7999 47.9999 21.7999C47.9999 21.7999 47.9999 21.7999 47.9999 21.7999C47.9999 21.7999 47.9999 21.7999 47.9999 21.7999C47.9999 21.7999 47.9999 21.7999 47.9999 21.7999C47.9999 21.7999 47.9999 21.7999 47.9999 21.7999C47.9999 21.7999 47.9999 21.7999 47.9999 21.7999C47.9999 21.7999 47.9999 21.7999 47.9999 21.7999C47.9999 21.7999 47.9999 21.7999 47.9999 21.7999C47.9999 21.7999 47.9999 21.7999 47.9999 21.7999C47.9999 21.7999 47.9999 21.7999 47.9999 21.7999C47.9999 21.7999 47.9999 21.7999 47.9999 21.7999C47.9999 21.7999 47.9999 21.7999 47.9999 21.7999C47.9999 21.7999 47.9999 21.7999 47.9999 21.7999C47.9999 21.7999 47.9999 21.7999 47.9999 21.7999C47.9999 21.7999 47.9999 21.7999 47.9999 21.7999C47.9999 21.7999 47.9999 21.7999 47.9999 21.7999C47.9999 21.7999 47.9999 21.7999 47.9999 21.7999C47.9999 21.7999 47.9999 21.7999 47.9999 21.7999C47.9999 21.7999 47.9999 21.7999 47.9999 21.7999C47.9999 21.7999 47.9999 21.7999 47.9999 21.7999C47.9999 21.7999 47.9999 21.7999 47.9999 21.7999C47.9999 21.7999 47.9999 21.7999 47.9999 21.7999C47.9999 21.7999 47.9999 21.7999 47.9999 21.7999C47.9999 21.7999 47.9999 21.7999 47.9999 21.7999C47.9999 21.7999 47.9999 21.7999 47.9999 21.7999C47.9999 21.7999 47.9999 21.7999 47.9999 21.7999C47.9999 21.7999 47.9999 21.7999 47.9999 21.7999C47.9999 21.7999 47.9999 21.7999 47.9999 21.7999C47.9999 21.7999 47.9999 21.7999 47.9999 21.7999C47.9999 21.7999 47.9999 21.7999 47.9999 21.7999C47.9999 21.7999 47.9999 21.7999 47.9999 21.7999C47.9999 21.7999 47.9999 21.7999 47.9999 21.7999C47.9999 21.7999 47.9999 21.7999 47.9999 21.7999C47.9999 21.7999 47.9999 21.7999 47.9999 21.7999C47.9999 21.7999 47.9999 21.7999 47.9999 21.7999C47.9999 21.7999 47.9999 21.7999 47.9999 21.7999C47.9999 21.7999 47.9999 21.7999 47.9999 21.7999C47.9999 21.7999 47.9999 21.7999 47.9999 21.7999C47.9999 21.7999 47.9999 21.7999 47.9999 21.7999C47.9999 21.7999 47.9999 21.7999 47.9999 21.7999C47.9999 21.7999 47.9999 21.7999 47.9999 21.7999C47.9999 21.7999 47.9999 21.7999 47.9999 21.7999C47.9999 21.7999 47.9999 21.7999 47.9999 21.7999C47.9999 21.7999 47.9999 21.7999 47.9999 21.7999C47.9999 21.7999 47.9999 21.7999 47.9999 21.7999C47.9999 21.7999 47.9999 21.7999 47.9999 21.7999C47.9999 21.7999 47.9999 21.7999 47.9999 21.7999C47.9999 21.7999 47.9999 21.7999 47.9999 21.7999C47.9999 21.7999 47.9999 21.7999 47.9999 21.7999C47.9999 21.7999 47.9999 21.7999 47.9999 21.7999C47.9999 21.7999 47.9999 21.7999 47.9999 21.7999C47.9999 21.7999 47.9999 21.7999 47.9999 21.7999C47.9999 21.7999 47.9999 21.7999 47.9999 21.7999C47.9999 21.7999 47.9999 21.7999 47.9999 21.7999C47.9999 21.7999 47.9999 21.7999 47.9999 21.7999C47.9999 21.7999 47.9999 21.7999 47.9999 21.7999C47.9999 21.7999 47.9999 21.7999 47.9999 21.7999C47.9999 21.7999 47.9999 21.7999 47.9999 21.7999C47.9999 21.7999 47.9999 21.7999 47.9999 21.7999C47.9999 21.7999 47.9999 21.7999 47.9999 21.7999C47.9999 21.7999 47.9999 21.7999 47.9999 21.7999C47.9999 21.7999 47.9999 21.7999 47.9999 21.7999C47.9999 21.7999 47.9999 21.7999 47.9999 21.7999C47.9999 21.7999 47.9999 21.7999 47.9999 21.7999C47.9999 21.7999 47.9999 21.7999 47.9999 21.7999C47.9999 21.7999 47.9999 21.7999 47.9999 21.7999C47.9999 21.7999 47.9999 21.7999 47.9999 21.7999C47.9999 21.7999 47.9999 21.7999 47.9999 21.7999C47.9999 21.7999 47.9999 21.7999 47.9999 21.7999C47.9999 21.7999 47.9999 21.7999 47.9999 21.7999C47.9999 21.7999 47.9999 21.7999 47.9999 21.7999C47.9999 21.7999 47.9999 21.7999 47.9999 21.7999C47.9999 21.7999 47.9999 21.7999 47.9999 21.7999C47.9999 21.7999 47.9999 21.7999 47.9999 21.7999C47.9999 21.7999 47.9999 21.7999 47.9999 21.7999C47.9999 21.7999 47.9999 21.7999 47.9999 21.7999C47.9999 21.7999 47.9999 21.7999 47.9999 21.7999C47.9999 21.7999 47.9999 21.7999 47.9999 21.7999C47.9999 21.7999 47.9999 21.7999 47.9999 21.7999C47.9999 21.7999 47.9999 21.7999 47.9999 21.7999C47.9999 21.7999 47.9999 21.7999 47.9999 21.7999C47.9999 21.7999 47.9999 21.7999 47.9999 21.7999C47.9999 21.7999 47.9999 21.7999 47.9999 21.7999C47.9999 21.7999 47.9999 21.7999 47.9999 21.7999C47.9999 21.7999 47.9999 21.7999 47.9999 21.7999C47.9999 21.7999 47.9999 21.7999 47.9999 21.7999C47.9999 21.7999 47.9999 21.7999 47.9999 21.7999C47.9999 21.7999 47.9999 21.7999 47.9999 21.7999C47.9999 21.7999 47.9999 21.7999 47.9999 21.7999C47.9999 21.7999 47.9999 21.7999 47.9999 21.7999C47.9999 21.7999 47.9999 21.7999 47.9999 21.7999C47.9999 21.7999 47.9999 21.7999 47.9999 21.7999C47.9999 21.7999 47.9999 21.7999 47.9999 21.7999C47.9999 21.7999 47.9999 21.7999 47.9999 21.7999C47.9999 21.7999 47.9999 21.7999 47.9999 21.7999C47.9999 21.7999 47.9999 21.7999 47.9999 21.7999C47.9999 21.7999 47.9999 21.7999 47.9999 21.7999C47.9999 21.7999 47.9999 21.7999 47.9999 21.7999C47.9999 21.7999 47.9999 21.7999 47.9999 21.7999C47.9999 21.7999 47.9999 21.7999 47.9999 21.7999C47.9999 21.7999 47.9999 21.7999 47.9999 21.7999C47.9999 21.7999 47.9999 21.7999 47.9999 21.7999C47.9999 21.7999 47.9999 21.7999 47.9999 21.7999C47.9999 21.7999 47.9999 21.7999 47.9999 21.7999C47.9999 21.7999 47.9999 21.7999 47.9999 21.7999C47.9999 21.7999 47.9999 21.7999 47.9999 21.7999C47.9999 21.7999 47.9999 21.7999 47.9999 21.7999C47.9999 21.7999 47.9999 21.7999 47.9999 21.7999C47.9999 21.7999 47.9999 21.7999 47.9999 21.7999C47.9999 21.7999 47.9999 21.7999 47.9999 21.7999C47.9999 21.7999 47.9999 21.7999 47.9999 21.7999C47.9999 21.7999 47.9999 21.7999 47.9999 21.7999C47.9999 21.7999 47.9999 21.7999 47.9999 21.7999C47.9999 21.7999 47.9999 21.7999 47.9999 21.7999C47.9999 21.7999 47.9999 21.7999 47.9999 21.7999C47.9999 21.7999 47.9999 21.7999 47.9999 21.7999V25.7999C47.9999 25.7999 47.9999 25.7999 47.9999 25.7999C47.9999 25.7999 47.9999 25.7999 47.9999 25.7999C47.9999 25.7999 47.9999 25.7999 47.9999 25.7999C47.9999 25.7999 47.9999 25.7999 47.9999 25.7999C47.9999 25.7999 47.9999 25.7999 47.9999 25.7999C47.9999 25.7999 47.9999 25.7999 47.9999 25.7999C47.9999 25.7999 47.9999 25.7999 47.9999 25.7999C47.9999 25.7999 47.9999 25.7999 47.9999 25.7999C47.9999 25.7999 47.9999 25.7999 47.9999 25.7999C47.9999 25.7999 47.9999 25.7999 47.9999 25.7999C47.9999 25.7999 47.9999 25.7999 47.9999 25.7999C47.9999 25.7999 47.9999 25.7999 47.9999 25.7999C47.9999 25.7999 47.9999 25.7999 47.9999 25.7999C47.9999 25.7999 47.9999 25.7999 47.9999 25.7999C47.9999 25.7999 47.9999 25.7999 47.9999 25.7999C47.9999 25.7999 47.9999 25.7999 47.9999 25.7999C47.9999 25.7999 47.9999 25.7999 47.9999 25.7999C47.9999 25.7999 47.9999 25.7999 47.9999 25.7999C47.9999 25.7999 47.9999 25.7999 47.9999 25.7999C47.9999 25.7999 47.9999 25.7999 47.9999 25.7999C47.9999 25.7999 47.9999 25.7999 47.9999 25.7999C47.9999 25.7999 47.9999 25.7999 47.9999 25.7999C47.9999 25.7999 47.9999 25.7999 47.9999 25.7999C47.9999 25.7999 47.9999 25.7999 47.9999 25.7999C47.9999 25.7999 47.9999 25.7999 47.9999 25.7999C47.9999 25.7999 47.9999 25.7999 47.9999 25.7999C47.9999 25.7999 47.9999 25.7999 47.9999 25.7999C47.9999 25.7999 47.9999 25.7999 47.9999 25.7999C47.9999 25.7999 47.9999 25.7999 47.9999 25.7999C47.9999 25.7999 47.9999 25.7999 47.9999 25.7999C47.9999 25.7999 47.9999 25.7999 47.9999 25.7999C47.9999 25.7999 47.9999 25.7999 47.9999 25.7999C47.9999 25.7999 47.9999 25.7999 47.9999 25.7999C47.9999 25.7999 47.9999 25.7999 47.9999 25.7999C47.9999 25.7999 47.9999 25.7999 47.9999 25.7999C47.9999 25.7999 47.9999 25.7999 47.9999 25.7999C47.9999 25.7999 47.9999 25.7999 47.9999 25.7999C47.9999 25.7999 47.9999 25.7999 47.9999 25.7999C47.9999 25.7999 47.9999 25.7999 47.9999 25.7999C47.9999 25.7999 47.9999 25.7999 47.9999 25.7999C47.9999 25.7999 47.9999 25.7999 47.9999 25.7999C47.9999 25.7999 47.9999 25.7999 47.9999 25.7999C47.9999 25.7999 47.9999 25.7999 47.9999 25.7999C47.9999 25.7999 47.9999 25.7999 47.9999 25.7999C47.9999 25.7999 47.9999 25.7999 47.9999 25.7999C47.9999 25.7999 47.9999 25.7999 47.9999 25.7999C47.9999 25.7999 47.9999 25.7999 47.9999 25.7999C47.9999 25.7999 47.9999 25.7999 47.9999 25.7999C47.9999 25.7999 47.9999 25.7999 47.9999 25.7999C47.9999 25.7999 47.9999 25.7999 47.9999 25.7999C47.9999 25.7999 47.9999 25.7999 47.9999 25.7999C47.9999 25.7999 47.9999 25.7999 47.9999 25.7999C47.9999 25.7999 47.9999 25.7999 47.9999 25.7999C47.9999 25.7999 47.9999 25.7999 47.9999 25.7999C47.9999 25.7999 47.9999 25.7999 47.9999 25.7999C47.9999 25.7999 47.9999 25.7999 47.9999 25.7999C47.9999 25.7999 47.9999 25.7999 47.9999 25.7999C47.9999 25.7999 47.9999 25.7999 47.9999 25.7999C47.9999 25.7999 47.9999 25.7999 47.9999 25.7999C47.9999 25.7999 47.9999 25.7999 47.9999 25.7999C47.9999 25.7999 47.9999 25.7999 47.9999 25.7999C47.9999 25.7999 47.9999 25.7999 47.9999 25.7999C47.9999 25.7999 47.9999 25.7999 47.9999 25.7999C47.9999 25.7999 47.9999 25.7999 47.9999 25.7999C47.9999 25.7999 47.9999 25.7999 47.9999 25.7999C47.9999 25.7999 47.9999 25.7999 47.9999 25.7999C47.9999 25.7999 47.9999 25.7999 47.9999 25.7999C47.9999 25.7999 47.9999 25.7999 47.9999 25.7999C47.9999 25.7999 47.9999 25.7999 47.9999 25.7999C47.9999 25.7999 47.9999 25.7999 47.9999 25.7999C47.9999 25.7999 47.9999 25.7999 47.9999 25.7999C47.9999 25.7999 47.9999 25.7999 47.9999 25.7999C47.9999 25.7999 47.9999 25.7999 47.9999 25.7999C47.9999 25.7999 47.9999 25.7999 47.9999 25.7999C47.9999 25.7999 47.9999 25.7999 47.9999 25.7999C47.9999 25.7999 47.9999 25.7999 47.9999 25.7999C47.9999 25.7999 47.9999 25.7999 47.9999 25.7999C47.9999 25.7999 47.9999 25.7999 47.9999 25.7999C47.9999 25.7999 47.9999 25.7999 47.9999 25.7999C47.9999 25.7999 47.9999 25.7999 47.9999 25.7999C47.9999 25.7999 47.9999 25.7999 47.9999 25.7999C47.9999 25.7999 47.9999 25.7999 47.9999 25.7999C47.9999 25.7999 47.9999 25.7999 47.9999 25.7999C47.9999 25.7999 47.9999 25.7999 47.9999 25.7999C47.9999 25.7999 47.9999 25.7999 47.9999 25.7999C47.9999 25.7999 47.9999 25.7999 47.9999 25.7999C47.9999 25.7999 47.9999 25.7999 47.9999 25.7999C47.9999 25.7999 47.9999 25.7999 47.9999 25.7999C47.9999 25.7999 47.9999 25.7999 47.9999 25.7999C47.9999 25.7999 47.9999 25.7999 47.9999 25.7999C47.9999 25.7999 47.9999 25.7999 47.9999 25.7999C47.9999 25.7999 47.9999 25.7999 47.9999 25.7999C47.9999 25.7999 47.9999 25.7999 47.9999 25.7999C47.9999 25.7999 47.9999 25.7999 47.9999 25.7999C47.9999 25.7999 47.9999 25.7999 47.9999 25.7999C47.9999 25.7999 47.9999 25.7999 47.9999 25.7999C47.9999 25.7999 47.9999 25.7999 47.9999 25.7999C47.9999 25.7999 47.9999 25.7999 47.9999 25.7999C47.9999 25.7999 47.9999 25.7999 47.9999 25.7999C47.9999 25.7999 47.9999 25.7999 47.9999 25.7999C47.9999 25.7999 47.9999 25.7999 47.9999 25.7999C47.9999 25.7999 47.9999 25.7999 47.9999 25.7999C47.9999 25.7999 47.9999 25.7999 47.9999 25.7999C47.9999 25.7999 47.9999 25.7999 47.9999 25.7999C47.9999 25.7999 47.9999 25.7999 47.9999 25.7999C47.9999 25.7999 47.9999 25.7999 47.9999 25.7999C47.9999 25.7999 47.9999 25.7999 47.9999 25.7999C47.9999 25.7999 47.9999 25.7999 47.9999 25.7999C47.9999 25.7999 47.9999 25.7999 47.9999 25.7999C47.9999 25.7999 47.9999 25.7999 47.9999 25.7999C47.9999 25.7999 47.9999 25.7999 47.9999 25.7999C47.9999 25.7999 47.9999 25.7999 47.9999 25.7999C47.9999 25.7999 47.9999 25.7999 47.9999 25.7999C47.9999 25.7999 47.9999 25.7999 47.9999 25.7999C47.9999 25.7999 47.9999 25.7999 47.9999 25.7999C47.9999 25.7999 47.9999 25.7999 47.9999 25.7999C47.9999 25.7999 47.9999 25.7999 47.9999 25.7999C47.9999 25.7999 47.9999 25.7999 47.9999 25.7999C47.9999 25.7999 47.9999 25.7999 47.9999 25.7999C47.9999 25.7999 47.9999 25.7999 47.9999 25.7999C47.9999 25.7999 47.9999 25.7999 47.9999 25.7999C47.9999 25.7999 47.9999 25.7999 47.9999 25.7999C47.9999 25.7999 47.9999 25.7999 47.9999 25.7999C47.9999 25.7999 47.9999 25.7999 47.9999 25.7999C47.9999 25.7999 47.9999 25.7999 47.9999 25.7999C47.9999 25.7999 47.9999 25.7999 47.9999 25.7999C47.9999 25.7999 47.9999 25.7999 47.9999 25.7999C47.9999 25.7999 47.9999 25.7999 47.9999 25.7999C47.9999 25.7999 47.9999 25.7999 47.9999 25.7999C47.9999 25.7999 47.9999 25.7999 47.9999 25.7999C47.9999 25.7999 47.9999 25.7999 47.9999 25.7999C47.9999 25.7999 47.9999 25.7999 47.9999 25.7999C47.9999 25.7999 47.9999 25.7999 47.9999 25.7999C47.9999 25.7999 47.9999 25.7999 47.9999 25.7999C47.9999 25.7999 47.9999 25.7999 47.9999 25.7999C47.9999 25.7999 47.9999 25.7999 47.9999 25.7999C47.9999 25.7999 47.9999 25.7999 47.9999 25.7999C47.9999 25.7999 47.9999 25.7999 47.9999 25.7999C47.9999 25.7999 47.9999 25.7999 47.9999 25.7999C47.9999 25.7999 47.9999 25.7999 47.9999 25.7999C47.9999 25.7999 47.9999 25.7999 47.9999 25.7999C47.9999 25.7999 47.9999 25.7999 47.9999 25.7999C47.9999 25.7999 47.9999 25.7999 47.9999 25.7999C47.9999 25.7999 47.9999 25.7999 47.9999 25.7999C47.9999 25.7999 47.9999 25.7999 47.9999 25.7999C47.9999 25.7999 47.9999 25.7999 47.9999 25.7999C47.9999 25.7999 47.9999 25.7999 47.9999 25.7999C47.9999 25.7999 47.9999 25.7999 47.9999 25.7999C47.9999 25.7999 47.9999 25.7999 47.9999 25.7999C47.9999 25.7999 47.9999 25.7999 47.9999 25.7999C47.9999 25.7999 47.9999 25.7999 47.9999 25.7999C47.9999 25.7999 47.9999 25.7999 47.9999 25.7999C47.9999 25.7999 47.9999 25.7999 47.9999 25.7999C47.9999 25.7999 47.9999 25.7999 47.9999 25.7999C47.9999 25.7999 47.9999 25.7999 47.9999 25.7999C47.9999 25.7999 47.9999 25.7999 47.9999 25.7999C47.9999 25.7999 47.9999 25.7999 47.9999 25.7999C47.9999 25.7999 47.9999 25.7999 47.9999 25.7999C47.9999 25.7999 47.9999 25.7999 47.9999 25.7999C47.9999 25.7999 47.9999 25.7999 47.9999 25.7999C47.9999 25.7999 47.9999 25.7999 47.9999 25.7999C47.9999 25.7999 47.9999 25.7999 47.9999 25.7999C47.9999 25.7999 47.9999 25.7999 47.9999 25.7999C47.9999 25.7999 47.9999 25.7999 47.9999 25.7999C47.9999 25.7999 47.9999 25.7999 47.9999 25.7999C47.9999 25.7999 47.9999 25.7999 47.9999 25.7999C47.9999 25.7999 47.9999 25.7999 47.9999 25.7999C47.9999 25.7999 47.9999 25.7999 47.9999 25.7999C47.9999 25.7999 47.9999 25.7999 47.9999 25.7999C47.9999 25.7999 47.9999 25.7999 47.9999 25.7999C47.9999 25.7999 47.9999 25.7999 47.9999 25.7999C47.9999 25.7999 47.9999 25.7999 47.9999 25.7999C47.9999 25.7999 47.9999 25.7999 47.9999 25.7999C47.9999 25.7999 47.9999 25.7999 47.9999 25.7999C47.9999 25.7999 47.9999 25.7999 47.9999 25.7999C47.9999 25.7999 47.9999 25.7999 47.9999 25.7999C47.9999 25.7999 47.9999 25.7999 47.9999 25.7999C47.9999 25.7999 47.9999 25.7999 47.9999 25.7999C47.9999 25.7999 47.9999 25.7999 47.9999 25.7999C47.9999 25.7999 47.9999 25.7999 47.9999 25.7999C47.9999 25.7999 47.9999 25.7999 47.9999 25.7999C47.9999 25.7999 47.9999 25.7999 47.9999 25.7999C47.9999 25.7999 47.9999 25.7999 47.9999 25.7999C47.9999 25.7999 47.9999 25.7999 47.9999 25.7999C47.9999 25.7999 47.9999 25.7999 47.9999 25.7999C47.9999 25.7999 47.9999 25.7999 47.9999 25.7999C47.9999 25.7999 47.9999 25.7999 47.9999 25.7999C47.9999 25.7999 47.9999 25.7999 47.9999 25.7999C47.9999 25.7999 47.9999 25.7999 47.9999 25.7999C47.9999 25.7999 47.9999 25.7999 47.9999 25.7999C47.9999 25.7999 47.9999 25.7999 47.9999 25.7999C47.9999 25.7999 47.9999 25.7999 47.9999 25.7999C47.9999 25.7999 47.9999 25.7999 47.9999 25.7999C47.9999 25.7999 47.9999 25.7999 47.9999 25.7999C47.9999 25.7999 47.9999 25.7999 47.9999 25.7999C47.9999 25.7999 47.9999 25.7999 47.9999 25.7999C47.9999 25.7999 47.9999 25.7999 47.9999 25.7999C47.9999 25.7999 47.9999 25.7999 47.9999 25.7999C47.9999 25.7999 47.9999 25.7999 47.9999 25.7999C47.9999 25.7999 47.9999 25.7999 47.9999 25.7999C47.9999 25.7999 47.9999 25.7999 47.9999 25.7999C47.9999 25.7999 47.9999 25.7999 47.9999 25.7999C47.9999 25.7999 47.9999 25.7999 47.9999 25.7999C47.9999 25.7999 47.9999 25.7999 47.9999 25.7999C47.9999 25.7999 47.9999 25.7999 47.9999 25.7999C47.9999 25.7999 47.9999 25.7999 47.9999 25.7999C47.9999 25.7999 48 25.7999 48 25.7999C48 25.7999 48 25.7999 48 25.7999C48 25.7999 48 25.7999 48 25.7999C48 25.7999 48 25.7999 48 25.7999C48 25.7999 48 25.7999 48 25.7999C48 25.7999 48 25.7999 48 25.7999C48 25.7999 48 25.7999 48 25.7999C48 25.7999 48 25.7999 48 25.7999C48 25.7999 48 25.7999 48 25.7999C48 25.7999 48 25.7999 48 25.7999C48 25.7999 48 25.7999 48 25.7999C48 25.7999 48 25.7999 48 25.7999C48 25.7999 48 25.7999 48 25.7999C48 25.7999 48 25.7999 48 25.7999C48 25.7999 48 25.7999 48 25.7999C48 25.7999 48 25.7999 48 25.7999C48 25.7999 48 25.7999 48 25.7999C48 25.7999 48 25.7999 48 25.7999C48 25.7999 48 25.7999 48 25.7999C48 25.7999 48 25.7999 48 25.7999C48 25.7999 48 25.7999 48 25.7999C48 25.7999 48 25.7999 48 25.7999C48 25.7999 48 25.7999 48 25.7999C48 25.7999 48 25.7999 48 25.7999C48 25.7999 48 25.7999 48 25.7999C48 25.7999 48 25.7999 48 25.7999C48 25.7999 48 25.7999 48 25.7999C48 25.7999 48 25.7999 48 25.7999C48 25.7999 48 25.7999 48 25.7999C48 25.7999 48 25.7999 48 25.7999C48 25.7999 48 25.7999 48 25.7999C48 25.7999 48 25.7999 48 25.7999C48 25.7999 48 25.7999 48 25.7999C48 25.7999 48 25.7999 48 25.7999C48 25.7999 48 25.7999 48 25.7999C48 25.7999 48 25.7999 48 25.7999C48 25.7999 48 25.7999 48 25.7999C48 25.7999 48 25.7999 48 25.7999C48 25.7999 48 25.7999 48 25.7999C48 25.7999 48 25.7999 48 25.7999C48 25.7999 48 25.7999 48 25.7999C48 25.7999 48 25.7999 48 25.7999C48 25.7999 48 25.7999 48 25.7999C48 25.7999 48 25.7999 48 25.7999C48 25.7999 48 25.7999 48 25.7999C48 25.7999 48 25.7999 48 25.7999C48 25.7999 48 25.7999 48 25.7999C48 25.7999 48 25.7999 48 25.7999C48 25.7999 48 25.7999 48 25.7999C48 25.7999 48 25.7999 48 25.7999C48 25.7999 48 25.7999 48 25.7999C48 25.7999 48 25.7999 48 25.7999C48 25.7999 48 25.7999 48 25.7999C48 25.7999 48 25.7999 48 25.7999C48 25.7999 48 25.7999 48 25.7999C48 25.7999 48 25.7999 48 25.7999C48 25.7999 48 25.7999 48 25.7999C48 25.7999 48 25.7999 48 25.7999C48 25.7999 48 25.7999 48 25.7999C48 25.7999 48 25.7999 48 25.7999C48 25.7999 48 25.7999 48 25.7999C48 25.7999 48 25.7999 48 25.7999C48 25.7999 48 25.7999 48 25.7999C48 25.7999 48 25.7999 48 25.7999C48 25.7999 48 25.7999 48 25.7999C48 25.7999 48 25.7999 48 25.7999C48 25.7999 48 25.7999 48 25.7999C48 25.7999 48 25.7999 48 25.7999C48 25.7999 48 25.7999 48 25.7999C48 25.7999 48 25.7999 48 25.7999C48 25.7999 48 25.7999 48 25.7999C48 25.7999 48 25.7999 48 25.7999C48 25.7999 48 25.7999 48 25.7999C48 25.7999 48 25.7999 48 25.7999C48 25.7999 48 25.7999 48 25.7999C48 25.7999 48 25.7999 48 25.7999C48 25.7999 48 25.7999 48 25.7999C48 25.7999 48 25.7999 48 25.7999C48 25.7999 48 25.7999 48 25.7999C48 25.7999 48 25.7999 48 25.7999C48 25.7999 48 25.7999 48 25.7999C48 25.7999 48 25.7999 48 25.7999C48 25.7999 48 25.7999 48 25.7999C48 25.7999 48 25.7999 48 25.7999C48 25.7999 48 25.7999 48 25.7999C48 25.7999 48 25.7999 48 25.7999C48 25.7999 48 25.7999 48 25.7999C48 25.7999 48 25.7999 48 25.7999C48 25.7999 48 25.7999 48 25.7999C48 25.7999 48 25.7999 48 25.7999C48 25.7999 48 25.7999 48 25.7999C48 25.7999 48 25.7999 48 25.7999C48 25.7999 48 25.7999 48 25.7999C48 25.7999 48 25.7999 48 25.7999C48 25.7999 48 25.7999 48 25.7999C48 25.7999 48 25.7999 48 25.7999C48 25.7999 48 25.7999 48 25.7999C48 25.7999 48 25.7999 48 25.7999C48 25.7999 48 25.7999 48 25.7999C48 25.7999 48 25.7999 48 25.7999C48 25.7999 48 25.7999 48 25.7999C48 25.7999 48 25.7999 48 25.7999C48 25.7999 48 25.7999 48 25.7999C48 25.7999 48 25.7999 48 25.7999C48 25.7999 48 25.7999 48 25.7999C48 25.7999 48 25.7999 48 25.7999C48 25.7999 48 25.7999 48 25.7999C48 25.7999 48 25.7999 48 25.7999C48 25.7999 48 25.7999 48 25.7999C48 25.7999 48 25.7999 48 25.7999C48 25.7999 48 25.7999 48 25.7999C48 25.7999 48 25.7999 48 25.7999C48 25.7999 48 25.7999 48 25.7999C48 25.7999 48 25.7999 48 25.7999C48 25.7999 48 25.7999 48 25.7999C48 25.7999 48 25.7999 48 25.7999C48 25.7999 48 25.7999 48 25.7999C48 25.7999 48 25.7999 48 25.7999C48 25.7999 48 25.7999 48 25.7999C48 25.7999 48 25.7999 48 25.7999C48 25.7999 48 25.7999 48 25.7999C48 25.7999 48 25.7999 48 25.7999C48 25.7999 48 25.7999 48 25.7999C48 25.7999 48 25.7999 48 25.7999C48 25.7999 48 25.7999 48 25.7999C48 25.7999 48 25.7999 48 25.7999C48 25.7999 48 25.7999 48 25.7999C48 25.7999 48 25.7999 48 25.7999C48 25.7999 48 25.7999 48 25.7999C48 25.7999 48 25.7999 48 25.7999C48 25.7999 48 25.7999 48 25.7999C48 25.7999 48 25.7999 48 25.7999C48 25.7999 48 25.7999 48 25.7999C48 25.7999 48 25.7999 48 25.7999C48 25.7999 48 25.7999 48 25.7999C48 25.7999 48 25.7999 48 25.7999C48 25.7999 48 25.7999 48 25.7999C48 25.7999 48 25.7999 48 25.7999C48 25.7999 48 25.7999 48 25.7999C48 25.7999 48 25.7999 48 25.7999C48 25.7999 48 25.7999 48 25.7999C48 25.7999 48 25.7999 48 25.7999C48 25.7999 48 25.7999 48 25.7999C48 25.7999 48 25.7999 48 25.7999C48 25.7999 48 25.7999 48 25.7999C48 25.7999 48 25.7999 48 25.7999C48 25.7999 48 25.7999 48 25.7999C48 25.7999 48 25.7999 48 25.7999C48 25.7999 48 25.7999 48 25.7999C48 25.7999 48 25.7999 48 25.7999C48 25.7999 48 25.7999 48 25.7999C48 25.7999 48 25.7999 48 25.7999C48 25.7999 48 25.7999 48 25.7999C48 25.7999 48 25.7999 48 25.7999C48 25.7999 48 25.7999 48 25.7999C48 25.7999 48 25.7999 48 25.7999C48 25.7999 48 25.7999 48 25.7999C48 25.7999 48 25.7999 48 25.7999C48 25.7999 48 25.7999 48 25.7999C48 25.7999 48 25.7999 48 25.7999C48 25.7999 48 25.7999 48 25.7999C48 25.7999 48 25.7999 48 25.7999C48 25.7999 48 25.7999 48 25.7999C48 25.7999 48 25.7999 48 25.7999C48 25.7999 48 25.7999 48 25.7999C48 25.7999 48 25.7999 48 25.7999C48 25.7999 48 25.7999 48 25.7999C48 25.7999 48 25.7999 48 25.7999C48 25.7999 48 25.7999 48 25.7999C48 25.7999 48 25.7999 48 25.7999C48 25.7999 48 25.7999 48 25.7999C48 25.7999 48 25.7999 48 25.7999C48 25.7999 48 25.7999 48 25.7999C48 25.7999 48 25.7999 48 25.7999C48 25.7999 48 25.7999 48 25.7999C48 25.7999 48 25.7999 48 25.7999C48 25.7999 48 25.7999 48 25.7999C48 25.7999 48 25.7999 48 25.7999C48 25.7999 48 25.7999 48 25.7999C48 25.7999 48 25.7999 48 25.7999C48 25.7999 48 25.7999 48 25.7999C48 25.7999 48 25.7999 48 25.7999C48 25.7999 48 25.7999 48 25.7999C48 25.7999 48 25.7999 48 25.7999C48 25.7999 48 25.7999 48 25.7999C48 25.7999 48 25.7999 48 25.7999C48 25.7999 48 25.7999 48 25.7999C48 25.7999 48 25.7999 48 25.7999C48 25.7999 48 25.7999 48 25.7999C48 25.7999 48 25.7999 48 25.7999C48 25.7999 48 25.7999 48 25.7999C48 25.7999 48 25.7999 48 25.7999C48 25.7999 48 25.7999 48 25.7999C48 25.7999 48 25.7999 48 25.7999C48 25.7999 48 25.7999 48 25.7999C48 25.7999 48 25.7999 48 25.7999C48 25.7999 48 25.7999 48 25.7999C48 25.7999 48 25.7999 48 25.7999C48 25.7999 48 25.7999 48 25.7999C48 25.7999 48 25.7999 48 25.7999C48 25.7999 48 25.7999 48 25.7999C48 25.7999 48 25.7999 48 25.7999C48 25.7999 48 25.7999 48 25.7999C48 25.7999 48 25.7999 48 25.7999C48 25.7999 48 25.7999 48 25.7999C48 25.7999 48 25.7999 48 25.7999C48 25.7999 48 25.7999 48 25.7999C48 25.7999 48 25.7999 48 25.7999C48 25.7999 48 25.7999 48 25.7999C48 25.7999 48 25.7999 48 25.7999C48 25.7999 48 25.7999 48 25.7999C48 25.7999 48 25.7999 48 25.7999C48 25.7999 48 25.7999 48 25.7999C48 25.7999 48 25.7999 48 25.7999C48 25.7999 48 25.7999 48 25.7999C48 25.7999 48 25.7999 48 25.7999C48 25.7999 48 25.7999 48 25.7999C48 25.7999 48 25.7999 48 25.7999C48 25.7999 48 25.7999 48 25.7999C48 25.7999 48 25.7999 48 25.7999C48 25.7999 48 25.7999 48 25.7999C48 25.7999 48 25.7999 48 25.7999C48 25.7999 48 25.7999 48 25.7999C48 25.7999 48 25.7999 48 25.7999C48 25.7999 48 25.7999 48 25.7999C48 25.7999 48 25.7999 48 25.7999C48 25.7999 48 25.7999 48 25.7999C48 25.7999 48 25.7999 48 25.7999C48 25.7999 48 25.7999 48 25.7999C48 25.7999 48 25.7999 48 25.7999C48 25.7999 48 25.7999 48 25.7999C48 25.7999 48 25.7999 48 25.7999C48 25.7999 48 25.7999 48 25.7999C48 25.7999 48 25.7999 48 25.7999C48 25.7999 48 25.7999 48 25.7999C48 25.7999 48 25.7999 48 25.7999C48 25.7999 48 25.7999 48 25.7999C48 25.7999 48 25.7999 48 25.7999C48 25.7999 48 25.7999 48 25.7999C48 25.7999 48 25.7999 48 25.7999C48 25.7999 48 25.7999 48 25.7999C48 25.7999 48 25.7999 48 25.7999C48 25.7999 48 25.7999 48 25.7999C48 25.7999 48 25.7999 48 25.7999C48 25.7999 48 25.7999 48 25.7999C48 25.7999 48 25.7999 48 25.7999C48 25.7999 48 25.7999 48 25.7999C48 25.7999 48 25.7999 48 25.7999C48 25.7999 48 25.7999 48 25.7999C48 25.7999 48 25.7999 48 25.7999C48 25.7999 48 25.7999 48 25.7999C48 25.7999 48 25.7999 48 25.7999C48 25.7999 48 25.7999 48 25.7999C48 25.7999 48 25.7999 48 25.7999C48 25.7999 48 25.7999 48 25.7999C48 25.7999 48 25.7999 48 25.7999C48 25.7999 48 25.7999 48 25.7999C48 25.7999 48 25.7999 48 25.7999C48 25.7999 48 25.7999 48 25.7999C48 25.7999 48 25.7999 48 25.7999C48 25.7999 48 25.7999 48 25.7999C48 25.7999 48 25.7999 48 25.7999C48 25.7999 48 25.7999 48 25.7999C48 25.7999 48 25.7999 48 25.7999C48 25.7999 48 25.7999 48 25.7999C48 25.7999 48 25.7999 48 25.7999C48 25.7999 48 25.7999 48 25.7999C48 25.7999 48 25.7999 48 25.7999C48 25.7999 48 25.7999 48 25.7999C48 25.7999 48 25.7999 48 25.7999C48 25.7999 48 25.7999 48 25.7999C48 25.7999 48 25.7999 48 25.7999C48 25.7999 48 25.7999 48 25.7999C48 25.7999 48 25.7999 48 25.7999C48 25.7999 48 25.7999 48 25.7999C48 25.7999 48 25.7999 48 25.7999C48 25.7999 48 25.7999 48 25.7999C48 25.7999 48 25.7999 48 25.7999C48 25.7999 48 25.7999 48 25.7999C48 25.7999 48 25.7999 48 25.7999C48 25.7999 48 25.7999 48 25.7999C48 25.7999 48 25.7999 48 25.7999C48 25.7999 48 25.7999 48 25.7999C48 25.7999 48 25.7999 48 25.7999C48 25.7999 48 25.7999 48 25.7999C48 25.7999 48 25.7999 48 25.7999C48 25.7999 48 25.7999 48 25.7999C48 25.7999 48 25.7999 48 25.7999C48 25.7999 48 25.7999 48 25.7999C48 25.7999 48 25.7999 48 25.7999C48 25.7999 48 25.7999 48 25.7999C48 25.7999 48 25.7999 48 25.7999C48 25.7999 48 25.7999 48 25.7999C48 25.7999 48 25.7999 48 25.7999C48 25.7999 48 25.7999 48 25.7999C48 25.7999 48 25.7999 48 25.7999C48 25.7999 48 25.7999 48 25.7999C48 25.7999 48 25.7999 48 25.7999C48 25.7999 48 25.7999 48 25.7999C48 25.7999 48 25.7999 48 25.7999C48 25.7999 48 25.7999 48 25.7999C48 25.7999 48 25.7999 48 25.7999C48 25.7999 48 25.7999 48 25.7999C48 25.7999 48 25.7999 48 25.7999C48 25.7999 48 25.7999 48 25.7999C48 25.7999 48 25.7999 48 25.7999V21.7999ZM47.9999 21.7999C43.1398 21.7999 39.2 17.8601 39.1999 13L35.1999 13C35.2 20.0692 40.9307 25.7999 47.9999 25.7999V21.7999ZM34.7999 15H37.1999V11H34.7999V15ZM24 25.7999C31.0692 25.7999 36.7999 20.0692 36.7999 13L32.7999 13C32.7999 17.86 28.86 21.7999 24 21.7999L24 25.7999ZM26 26.1999V23.7999H22V26.1999H26ZM36.7999 36.9999C36.7999 29.9307 31.0692 24.2 24 24.1999L24 28.1999C28.8601 28.2 32.7999 32.1398 32.7999 36.9999H36.7999ZM36.7999 37V36.9999H32.7999V37H36.7999ZM37.1999 35H34.7999V39H37.1999V35ZM35.1999 36.9999V37H39.1999V36.9999H35.1999ZM47.9999 24.1999C40.9307 24.1999 35.1999 29.9307 35.1999 36.9999H39.1999C39.1999 32.1398 43.1398 28.1999 47.9999 28.1999V24.1999ZM48 24.1999H47.9999V28.1999H48V24.1999ZM46 23.7999V26.1999H50V23.7999H46Z" fill="#FF3621" mask="url(#path-1-inside-1_4063_4672)"/>
<mask id="path-3-inside-2_4063_4672" fill="white">
<path fill-rule="evenodd" clip-rule="evenodd" d="M11 28H9C9 32.9706 4.97056 37 0 37V39C4.97056 39 9 43.0294 9 48H11C11 43.0294 15.0294 39 20 39V37C15.0294 37 11 32.9706 11 28Z"/>
</mask>
<path d="M11 28H13V26H11V28ZM9 28V26H7V28H9ZM0 37V35H-2V37H0ZM0 39H-2V41H0V39ZM9 48H7V50H9V48ZM11 48V50H13V48H11ZM20 39V41H22V39H20ZM20 37H22V35H20V37ZM11 26H9V30H11V26ZM7 28C7 31.866 3.86599 35 0 35V39C6.07513 39 11 34.0751 11 28H7ZM-2 37V39H2V37H-2ZM0 41C3.86599 41 7 44.134 7 48H11C11 41.9249 6.07513 37 0 37V41ZM9 50H11V46H9V50ZM13 48C13 44.134 16.134 41 20 41V37C13.9249 37 9 41.9249 9 48H13ZM22 39V37H18V39H22ZM20 35C16.134 35 13 31.866 13 28H9C9 34.0751 13.9249 39 20 39V35Z" fill="#FF3621" mask="url(#path-3-inside-2_4063_4672)"/>
<mask id="path-5-inside-3_4063_4672" fill="white">
<path fill-rule="evenodd" clip-rule="evenodd" d="M17.8 0H16.2C16.2 3.97645 12.9765 7.2 9 7.2V8.8C12.9765 8.8 16.2 12.0236 16.2 16H17.8C17.8 12.0236 21.0236 8.8 25 8.8V7.2C21.0236 7.2 17.8 3.97645 17.8 0Z"/>
</mask>
<path d="M17.8 0H19.8V-2H17.8V0ZM16.2 0V-2H14.2V0H16.2ZM9 7.2V5.2H7V7.2H9ZM9 8.8H7V10.8H9V8.8ZM16.2 16H14.2V18H16.2V16ZM17.8 16V18H19.8V16H17.8ZM25 8.8V10.8H27V8.8H25ZM25 7.2H27V5.2H25V7.2ZM17.8 -2H16.2V2H17.8V-2ZM14.2 0C14.2 2.87188 11.8719 5.2 9 5.2V9.2C14.081 9.2 18.2 5.08102 18.2 0H14.2ZM7 7.2V8.8H11V7.2H7ZM9 10.8C11.8719 10.8 14.2 13.1281 14.2 16H18.2C18.2 10.919 14.081 6.8 9 6.8V10.8ZM16.2 18H17.8V14H16.2V18ZM19.8 16C19.8 13.1281 22.1281 10.8 25 10.8V6.8C19.919 6.8 15.8 10.919 15.8 16H19.8ZM27 8.8V7.2H23V8.8H27ZM25 5.2C22.1281 5.2 19.8 2.87188 19.8 0H15.8C15.8 5.08102 19.919 9.2 25 9.2V5.2Z" fill="#FF3621" mask="url(#path-5-inside-3_4063_4672)"/>
</svg>
